G04 #@! TF.GenerationSoftware,KiCad,Pcbnew,(5.1.5-0-10_14)*
G04 #@! TF.CreationDate,2020-04-19T22:53:18-04:00*
G04 #@! TF.ProjectId,RPi-pHat-Thermocouple,5250692d-7048-4617-942d-546865726d6f,rev?*
G04 #@! TF.SameCoordinates,Original*
G04 #@! TF.FileFunction,Copper,L2,Bot*
G04 #@! TF.FilePolarity,Positive*
%FSLAX46Y46*%
G04 Gerber Fmt 4.6, Leading zero omitted, Abs format (unit mm)*
G04 Created by KiCad (PCBNEW (5.1.5-0-10_14)) date 2020-04-19 22:53:18*
%MOMM*%
%LPD*%
G04 APERTURE LIST*
%ADD10C,0.152400*%
%ADD11R,1.700000X1.700000*%
%ADD12O,1.700000X1.700000*%
%ADD13C,2.400000*%
%ADD14R,2.400000X2.400000*%
%ADD15C,1.300000*%
%ADD16R,1.300000X1.300000*%
%ADD17C,1.016000*%
%ADD18C,0.762000*%
%ADD19C,0.508000*%
%ADD20C,0.635000*%
%ADD21C,1.016000*%
%ADD22C,0.254000*%
G04 APERTURE END LIST*
D10*
G36*
X28700000Y-34750000D02*
G01*
X28700000Y-34250000D01*
X29300000Y-34250000D01*
X29300000Y-34750000D01*
X28700000Y-34750000D01*
G37*
G36*
X25700000Y-34750000D02*
G01*
X25700000Y-34250000D01*
X26300000Y-34250000D01*
X26300000Y-34750000D01*
X25700000Y-34750000D01*
G37*
D11*
X33600000Y-40640000D03*
D12*
X33600000Y-38100000D03*
X36140000Y-40640000D03*
X36140000Y-38100000D03*
X38680000Y-40640000D03*
X38680000Y-38100000D03*
X41220000Y-40640000D03*
X41220000Y-38100000D03*
X43760000Y-40640000D03*
X43760000Y-38100000D03*
X46300000Y-40640000D03*
X46300000Y-38100000D03*
D13*
X74962500Y-68516000D03*
X71462500Y-68516000D03*
X67962500Y-68516000D03*
D14*
X64462500Y-68516000D03*
D13*
X58262500Y-68496000D03*
X54762500Y-68496000D03*
D14*
X51262500Y-68496000D03*
D13*
X46762500Y-68516000D03*
D14*
X43262500Y-68516000D03*
D13*
X38762500Y-68516000D03*
D14*
X35262500Y-68516000D03*
D13*
X30762500Y-68516000D03*
D14*
X27262500Y-68516000D03*
D13*
X22762500Y-68516000D03*
D14*
X19262500Y-68516000D03*
D11*
X20870000Y-29270000D03*
D12*
X20870000Y-26730000D03*
X23410000Y-29270000D03*
X23410000Y-26730000D03*
X25950000Y-29270000D03*
X25950000Y-26730000D03*
X28490000Y-29270000D03*
X28490000Y-26730000D03*
X31030000Y-29270000D03*
X31030000Y-26730000D03*
X33570000Y-29270000D03*
X33570000Y-26730000D03*
X36110000Y-29270000D03*
X36110000Y-26730000D03*
X38650000Y-29270000D03*
X38650000Y-26730000D03*
X41190000Y-29270000D03*
X41190000Y-26730000D03*
X43730000Y-29270000D03*
X43730000Y-26730000D03*
X46270000Y-29270000D03*
X46270000Y-26730000D03*
X48810000Y-29270000D03*
X48810000Y-26730000D03*
X51350000Y-29270000D03*
X51350000Y-26730000D03*
X53890000Y-29270000D03*
X53890000Y-26730000D03*
X56430000Y-29270000D03*
X56430000Y-26730000D03*
X58970000Y-29270000D03*
X58970000Y-26730000D03*
X61510000Y-29270000D03*
X61510000Y-26730000D03*
X64050000Y-29270000D03*
X64050000Y-26730000D03*
X66590000Y-29270000D03*
X66590000Y-26730000D03*
X69130000Y-29270000D03*
X69130000Y-26730000D03*
D15*
X33027500Y-45931000D03*
X34297500Y-44661000D03*
D16*
X34297500Y-47201000D03*
D11*
X20828000Y-38100000D03*
D12*
X23368000Y-38100000D03*
X25908000Y-38100000D03*
X28448000Y-38100000D03*
G04 #@! TA.AperFunction,SMDPad,CuDef*
D10*
G36*
X28250000Y-34350000D02*
G01*
X28250000Y-33850000D01*
X28250602Y-33850000D01*
X28250602Y-33825466D01*
X28255412Y-33776635D01*
X28264984Y-33728510D01*
X28279228Y-33681555D01*
X28298005Y-33636222D01*
X28321136Y-33592949D01*
X28348396Y-33552150D01*
X28379524Y-33514221D01*
X28414221Y-33479524D01*
X28452150Y-33448396D01*
X28492949Y-33421136D01*
X28536222Y-33398005D01*
X28581555Y-33379228D01*
X28628510Y-33364984D01*
X28676635Y-33355412D01*
X28725466Y-33350602D01*
X28750000Y-33350602D01*
X28750000Y-33350000D01*
X29250000Y-33350000D01*
X29250000Y-33350602D01*
X29274534Y-33350602D01*
X29323365Y-33355412D01*
X29371490Y-33364984D01*
X29418445Y-33379228D01*
X29463778Y-33398005D01*
X29507051Y-33421136D01*
X29547850Y-33448396D01*
X29585779Y-33479524D01*
X29620476Y-33514221D01*
X29651604Y-33552150D01*
X29678864Y-33592949D01*
X29701995Y-33636222D01*
X29720772Y-33681555D01*
X29735016Y-33728510D01*
X29744588Y-33776635D01*
X29749398Y-33825466D01*
X29749398Y-33850000D01*
X29750000Y-33850000D01*
X29750000Y-34350000D01*
X28250000Y-34350000D01*
G37*
G04 #@! TD.AperFunction*
G04 #@! TA.AperFunction,SMDPad,CuDef*
G36*
X29749398Y-35150000D02*
G01*
X29749398Y-35174534D01*
X29744588Y-35223365D01*
X29735016Y-35271490D01*
X29720772Y-35318445D01*
X29701995Y-35363778D01*
X29678864Y-35407051D01*
X29651604Y-35447850D01*
X29620476Y-35485779D01*
X29585779Y-35520476D01*
X29547850Y-35551604D01*
X29507051Y-35578864D01*
X29463778Y-35601995D01*
X29418445Y-35620772D01*
X29371490Y-35635016D01*
X29323365Y-35644588D01*
X29274534Y-35649398D01*
X29250000Y-35649398D01*
X29250000Y-35650000D01*
X28750000Y-35650000D01*
X28750000Y-35649398D01*
X28725466Y-35649398D01*
X28676635Y-35644588D01*
X28628510Y-35635016D01*
X28581555Y-35620772D01*
X28536222Y-35601995D01*
X28492949Y-35578864D01*
X28452150Y-35551604D01*
X28414221Y-35520476D01*
X28379524Y-35485779D01*
X28348396Y-35447850D01*
X28321136Y-35407051D01*
X28298005Y-35363778D01*
X28279228Y-35318445D01*
X28264984Y-35271490D01*
X28255412Y-35223365D01*
X28250602Y-35174534D01*
X28250602Y-35150000D01*
X28250000Y-35150000D01*
X28250000Y-34650000D01*
X29750000Y-34650000D01*
X29750000Y-35150000D01*
X29749398Y-35150000D01*
G37*
G04 #@! TD.AperFunction*
G04 #@! TA.AperFunction,SMDPad,CuDef*
G36*
X26749398Y-35150000D02*
G01*
X26749398Y-35174534D01*
X26744588Y-35223365D01*
X26735016Y-35271490D01*
X26720772Y-35318445D01*
X26701995Y-35363778D01*
X26678864Y-35407051D01*
X26651604Y-35447850D01*
X26620476Y-35485779D01*
X26585779Y-35520476D01*
X26547850Y-35551604D01*
X26507051Y-35578864D01*
X26463778Y-35601995D01*
X26418445Y-35620772D01*
X26371490Y-35635016D01*
X26323365Y-35644588D01*
X26274534Y-35649398D01*
X26250000Y-35649398D01*
X26250000Y-35650000D01*
X25750000Y-35650000D01*
X25750000Y-35649398D01*
X25725466Y-35649398D01*
X25676635Y-35644588D01*
X25628510Y-35635016D01*
X25581555Y-35620772D01*
X25536222Y-35601995D01*
X25492949Y-35578864D01*
X25452150Y-35551604D01*
X25414221Y-35520476D01*
X25379524Y-35485779D01*
X25348396Y-35447850D01*
X25321136Y-35407051D01*
X25298005Y-35363778D01*
X25279228Y-35318445D01*
X25264984Y-35271490D01*
X25255412Y-35223365D01*
X25250602Y-35174534D01*
X25250602Y-35150000D01*
X25250000Y-35150000D01*
X25250000Y-34650000D01*
X26750000Y-34650000D01*
X26750000Y-35150000D01*
X26749398Y-35150000D01*
G37*
G04 #@! TD.AperFunction*
G04 #@! TA.AperFunction,SMDPad,CuDef*
G36*
X25250000Y-34350000D02*
G01*
X25250000Y-33850000D01*
X25250602Y-33850000D01*
X25250602Y-33825466D01*
X25255412Y-33776635D01*
X25264984Y-33728510D01*
X25279228Y-33681555D01*
X25298005Y-33636222D01*
X25321136Y-33592949D01*
X25348396Y-33552150D01*
X25379524Y-33514221D01*
X25414221Y-33479524D01*
X25452150Y-33448396D01*
X25492949Y-33421136D01*
X25536222Y-33398005D01*
X25581555Y-33379228D01*
X25628510Y-33364984D01*
X25676635Y-33355412D01*
X25725466Y-33350602D01*
X25750000Y-33350602D01*
X25750000Y-33350000D01*
X26250000Y-33350000D01*
X26250000Y-33350602D01*
X26274534Y-33350602D01*
X26323365Y-33355412D01*
X26371490Y-33364984D01*
X26418445Y-33379228D01*
X26463778Y-33398005D01*
X26507051Y-33421136D01*
X26547850Y-33448396D01*
X26585779Y-33479524D01*
X26620476Y-33514221D01*
X26651604Y-33552150D01*
X26678864Y-33592949D01*
X26701995Y-33636222D01*
X26720772Y-33681555D01*
X26735016Y-33728510D01*
X26744588Y-33776635D01*
X26749398Y-33825466D01*
X26749398Y-33850000D01*
X26750000Y-33850000D01*
X26750000Y-34350000D01*
X25250000Y-34350000D01*
G37*
G04 #@! TD.AperFunction*
D17*
X49262500Y-45366000D03*
X21512500Y-48616000D03*
X17700000Y-40600004D03*
X21300000Y-40700000D03*
X44775000Y-49900000D03*
D18*
X19000000Y-33200000D03*
X19262500Y-45516000D03*
X19000000Y-42000000D03*
X19000000Y-38600000D03*
X19000000Y-31600000D03*
X19000000Y-35600000D03*
D17*
X57162500Y-60141000D03*
X52462500Y-60316000D03*
X31450000Y-60550000D03*
D19*
X38250000Y-49975000D03*
X48900000Y-49900000D03*
D17*
X41300000Y-60500000D03*
X67762500Y-59116000D03*
X67762500Y-62116000D03*
D19*
X67512500Y-37616000D03*
X33600000Y-32000000D03*
X36400000Y-32000000D03*
X38800000Y-32000000D03*
X41400000Y-32000000D03*
X46200000Y-32000000D03*
X44000000Y-31903410D03*
D18*
X69262500Y-35745000D03*
D17*
X67762500Y-52116000D03*
D18*
X67762500Y-49366000D03*
X68512500Y-46366000D03*
X60000000Y-37566000D03*
X73000000Y-38500000D03*
D19*
X28100000Y-32900000D03*
X22000000Y-32100000D03*
D20*
X51350000Y-29270000D02*
X51462500Y-29382500D01*
X46300000Y-40600000D02*
X49262500Y-45366000D01*
X51350000Y-30472081D02*
X49400000Y-32422081D01*
X51350000Y-29270000D02*
X51350000Y-30472081D01*
X49400000Y-37500000D02*
X46300000Y-40600000D01*
X49400000Y-32422081D02*
X49400000Y-37500000D01*
D21*
X21512500Y-48616000D02*
X21512500Y-40912500D01*
X21512500Y-40912500D02*
X21300000Y-40700000D01*
X17700000Y-40600004D02*
X21200004Y-40600004D01*
X21200004Y-40600004D02*
X21300000Y-40700000D01*
D20*
X49262500Y-45412500D02*
X44775000Y-49900000D01*
X49262500Y-45366000D02*
X49262500Y-45412500D01*
D10*
X32877500Y-45931000D02*
X33027500Y-45931000D01*
X33027500Y-45831000D02*
X33027500Y-45931000D01*
D22*
X35569000Y-45931000D02*
X33027500Y-45931000D01*
X36000000Y-44000000D02*
X36000000Y-45500000D01*
X31500000Y-33482081D02*
X31500000Y-43000000D01*
X36000000Y-45500000D02*
X35569000Y-45931000D01*
X35000000Y-43000000D02*
X36000000Y-44000000D01*
X28490000Y-30472081D02*
X31500000Y-33482081D01*
X31500000Y-43000000D02*
X35000000Y-43000000D01*
X28490000Y-29270000D02*
X28490000Y-30472081D01*
X27902408Y-35400000D02*
X27500000Y-35400000D01*
X29000000Y-35000000D02*
X27902408Y-35400000D01*
X27500000Y-35400000D02*
X26250000Y-35400000D01*
X34297500Y-44661000D02*
X32586250Y-44661000D01*
X30000000Y-36150000D02*
X30000000Y-44000000D01*
X29000000Y-35150000D02*
X30000000Y-36150000D01*
X30661000Y-44661000D02*
X34297500Y-44661000D01*
X30000000Y-44000000D02*
X30661000Y-44661000D01*
X69262500Y-66316000D02*
X71462500Y-68516000D01*
X69262500Y-49116000D02*
X69262500Y-66316000D01*
X67512500Y-47366000D02*
X69262500Y-49116000D01*
X67512500Y-37616000D02*
X67512500Y-47366000D01*
X35051514Y-32000000D02*
X33600000Y-32000000D01*
X37400000Y-30400000D02*
X35051514Y-32000000D01*
X37400000Y-28200000D02*
X37400000Y-30400000D01*
X38650000Y-26730000D02*
X37400000Y-28200000D01*
X37591514Y-32000000D02*
X36400000Y-32000000D01*
X39900000Y-30200000D02*
X37591514Y-32000000D01*
X39900000Y-28200000D02*
X39900000Y-30200000D01*
X41190000Y-26730000D02*
X39900000Y-28200000D01*
X40131514Y-32000000D02*
X38800000Y-32000000D01*
X42400000Y-30200000D02*
X40131514Y-32000000D01*
X42400000Y-28000000D02*
X42400000Y-30200000D01*
X44200000Y-28000000D02*
X42400000Y-28000000D01*
X46270000Y-26730000D02*
X44200000Y-28000000D01*
X42671514Y-32000000D02*
X41400000Y-32000000D01*
X45000000Y-30000000D02*
X42671514Y-32000000D01*
X45600000Y-28000000D02*
X45000000Y-28300000D01*
X47600000Y-28000000D02*
X45600000Y-28000000D01*
X45000000Y-28300000D02*
X45000000Y-30000000D01*
X48810000Y-26730000D02*
X47600000Y-28000000D01*
X47751514Y-32000000D02*
X46200000Y-32000000D01*
X50100000Y-30200000D02*
X47751514Y-32000000D01*
X50100000Y-28300000D02*
X50100000Y-30200000D01*
X51350000Y-26730000D02*
X50100000Y-28300000D01*
X46300000Y-30100000D02*
X44000000Y-31903410D01*
X46270000Y-29270000D02*
X46300000Y-30100000D01*
X28100000Y-32900000D02*
X28900000Y-32900000D01*
X29000000Y-33000000D02*
X29000000Y-33850000D01*
X28900000Y-32900000D02*
X29000000Y-33000000D01*
X50500000Y-66400000D02*
X51262500Y-67042000D01*
X51262500Y-67042000D02*
X51262500Y-68496000D01*
X25600000Y-66400000D02*
X50500000Y-66400000D01*
X25600000Y-39900000D02*
X25600000Y-66400000D01*
X24549999Y-38849999D02*
X25600000Y-39900000D01*
X24509999Y-38849999D02*
X24549999Y-38849999D01*
X23660000Y-38000000D02*
X24509999Y-38849999D01*
X22100000Y-32000000D02*
X22000000Y-32100000D01*
X25000000Y-32000000D02*
X22100000Y-32000000D01*
X26000000Y-33000000D02*
X25000000Y-32000000D01*
X26000000Y-34000000D02*
X26000000Y-33000000D01*
D10*
G36*
X24910395Y-24804163D02*
G01*
X24897270Y-26386102D01*
X24888234Y-26407917D01*
X24845800Y-26621246D01*
X24845800Y-26838754D01*
X24888234Y-27052083D01*
X24891676Y-27060392D01*
X24875483Y-29012019D01*
X24845800Y-29161246D01*
X24845800Y-29378754D01*
X24871374Y-29507321D01*
X24853855Y-31618800D01*
X22166270Y-31618800D01*
X22148236Y-31611330D01*
X22050053Y-31591800D01*
X21949947Y-31591800D01*
X21851764Y-31611330D01*
X21759277Y-31649639D01*
X21676041Y-31705255D01*
X21605255Y-31776041D01*
X21549639Y-31859277D01*
X21511330Y-31951764D01*
X21491800Y-32049947D01*
X21491800Y-32150053D01*
X21511330Y-32248236D01*
X21549639Y-32340723D01*
X21605255Y-32423959D01*
X21676041Y-32494745D01*
X21759277Y-32550361D01*
X21851764Y-32588670D01*
X21949947Y-32608200D01*
X22050053Y-32608200D01*
X22148236Y-32588670D01*
X22240723Y-32550361D01*
X22323959Y-32494745D01*
X22394745Y-32423959D01*
X22423315Y-32381200D01*
X24842103Y-32381200D01*
X24847485Y-32386582D01*
X24796274Y-38558975D01*
X24762807Y-38531510D01*
X24696584Y-38496112D01*
X24694613Y-38495514D01*
X24461524Y-38262426D01*
X24472200Y-38208754D01*
X24472200Y-37991246D01*
X24429766Y-37777917D01*
X24346530Y-37576965D01*
X24225688Y-37396113D01*
X24071887Y-37242312D01*
X23891035Y-37121470D01*
X23690083Y-37038234D01*
X23476754Y-36995800D01*
X23259246Y-36995800D01*
X23045917Y-37038234D01*
X22844965Y-37121470D01*
X22664113Y-37242312D01*
X22510312Y-37396113D01*
X22389470Y-37576965D01*
X22306234Y-37777917D01*
X22263800Y-37991246D01*
X22263800Y-38208754D01*
X22306234Y-38422083D01*
X22389470Y-38623035D01*
X22510312Y-38803887D01*
X22664113Y-38957688D01*
X22844965Y-39078530D01*
X23045917Y-39161766D01*
X23259246Y-39204200D01*
X23476754Y-39204200D01*
X23690083Y-39161766D01*
X23891035Y-39078530D01*
X24071887Y-38957688D01*
X24075238Y-38954337D01*
X24227215Y-39106314D01*
X24239146Y-39120852D01*
X24253684Y-39132783D01*
X24253688Y-39132787D01*
X24297190Y-39168488D01*
X24329926Y-39185986D01*
X24363414Y-39203886D01*
X24365388Y-39204485D01*
X24787417Y-39626514D01*
X24524430Y-71323800D01*
X15676532Y-71323800D01*
X15683527Y-69716000D01*
X17475473Y-69716000D01*
X17486753Y-69830523D01*
X17520158Y-69940646D01*
X17574405Y-70042135D01*
X17647409Y-70131091D01*
X17736365Y-70204095D01*
X17837854Y-70258342D01*
X17947977Y-70291747D01*
X18062500Y-70303027D01*
X18442650Y-70300200D01*
X18588700Y-70154150D01*
X18588700Y-69189800D01*
X19936300Y-69189800D01*
X19936300Y-70154150D01*
X20082350Y-70300200D01*
X20462500Y-70303027D01*
X20577023Y-70291747D01*
X20687146Y-70258342D01*
X20788635Y-70204095D01*
X20877591Y-70131091D01*
X20950595Y-70042135D01*
X21004842Y-69940646D01*
X21038247Y-69830523D01*
X21049527Y-69716000D01*
X21046700Y-69335850D01*
X20900650Y-69189800D01*
X19936300Y-69189800D01*
X18588700Y-69189800D01*
X17624350Y-69189800D01*
X17478300Y-69335850D01*
X17475473Y-69716000D01*
X15683527Y-69716000D01*
X15689371Y-68372774D01*
X21308300Y-68372774D01*
X21308300Y-68659226D01*
X21364184Y-68940174D01*
X21473805Y-69204822D01*
X21632949Y-69442998D01*
X21835502Y-69645551D01*
X22073678Y-69804695D01*
X22338326Y-69914316D01*
X22619274Y-69970200D01*
X22905726Y-69970200D01*
X23186674Y-69914316D01*
X23451322Y-69804695D01*
X23689498Y-69645551D01*
X23892051Y-69442998D01*
X24051195Y-69204822D01*
X24160816Y-68940174D01*
X24216700Y-68659226D01*
X24216700Y-68372774D01*
X24160816Y-68091826D01*
X24051195Y-67827178D01*
X23892051Y-67589002D01*
X23689498Y-67386449D01*
X23451322Y-67227305D01*
X23186674Y-67117684D01*
X22905726Y-67061800D01*
X22619274Y-67061800D01*
X22338326Y-67117684D01*
X22073678Y-67227305D01*
X21835502Y-67386449D01*
X21632949Y-67589002D01*
X21473805Y-67827178D01*
X21364184Y-68091826D01*
X21308300Y-68372774D01*
X15689371Y-68372774D01*
X15693970Y-67316000D01*
X17475473Y-67316000D01*
X17478300Y-67696150D01*
X17624350Y-67842200D01*
X18588700Y-67842200D01*
X18588700Y-66877850D01*
X19936300Y-66877850D01*
X19936300Y-67842200D01*
X20900650Y-67842200D01*
X21046700Y-67696150D01*
X21049527Y-67316000D01*
X21038247Y-67201477D01*
X21004842Y-67091354D01*
X20950595Y-66989865D01*
X20877591Y-66900909D01*
X20788635Y-66827905D01*
X20687146Y-66773658D01*
X20577023Y-66740253D01*
X20462500Y-66728973D01*
X20082350Y-66731800D01*
X19936300Y-66877850D01*
X18588700Y-66877850D01*
X18442650Y-66731800D01*
X18062500Y-66728973D01*
X17947977Y-66740253D01*
X17837854Y-66773658D01*
X17736365Y-66827905D01*
X17647409Y-66900909D01*
X17574405Y-66989865D01*
X17520158Y-67091354D01*
X17486753Y-67201477D01*
X17475473Y-67316000D01*
X15693970Y-67316000D01*
X15751146Y-54176200D01*
X16312828Y-54176200D01*
X16926463Y-54054140D01*
X17504495Y-53814712D01*
X18024709Y-53467115D01*
X18467115Y-53024709D01*
X18814712Y-52504495D01*
X19054140Y-51926463D01*
X19176200Y-51312828D01*
X19176200Y-50687172D01*
X19054140Y-50073537D01*
X18814712Y-49495505D01*
X18467115Y-48975291D01*
X18024709Y-48532885D01*
X17504495Y-48185288D01*
X16926463Y-47945860D01*
X16312828Y-47823800D01*
X15778787Y-47823800D01*
X15810219Y-40600004D01*
X16934113Y-40600004D01*
X16937800Y-40637439D01*
X16937800Y-40675074D01*
X16945142Y-40711984D01*
X16948829Y-40749421D01*
X16959749Y-40785418D01*
X16967091Y-40822330D01*
X16981495Y-40857103D01*
X16992413Y-40893096D01*
X17010143Y-40926267D01*
X17024547Y-40961041D01*
X17045456Y-40992333D01*
X17063188Y-41025508D01*
X17087054Y-41054589D01*
X17107961Y-41085878D01*
X17134569Y-41112486D01*
X17158436Y-41141568D01*
X17187518Y-41165435D01*
X17214126Y-41192043D01*
X17245415Y-41212950D01*
X17274496Y-41236816D01*
X17307671Y-41254548D01*
X17338963Y-41275457D01*
X17373737Y-41289861D01*
X17406908Y-41307591D01*
X17442901Y-41318509D01*
X17477674Y-41332913D01*
X17514586Y-41340255D01*
X17550583Y-41351175D01*
X17588020Y-41354862D01*
X17624930Y-41362204D01*
X20750301Y-41362204D01*
X20750300Y-48540930D01*
X20750300Y-48691070D01*
X20757642Y-48727981D01*
X20761329Y-48765416D01*
X20772248Y-48801411D01*
X20779591Y-48838326D01*
X20793996Y-48873102D01*
X20804913Y-48909091D01*
X20822641Y-48942259D01*
X20837047Y-48977037D01*
X20857958Y-49008333D01*
X20875688Y-49041503D01*
X20899552Y-49070581D01*
X20920461Y-49101874D01*
X20947070Y-49128483D01*
X20970936Y-49157564D01*
X21000018Y-49181431D01*
X21026626Y-49208039D01*
X21057915Y-49228946D01*
X21086996Y-49252812D01*
X21120171Y-49270544D01*
X21151463Y-49291453D01*
X21186237Y-49305857D01*
X21219408Y-49323587D01*
X21255401Y-49334505D01*
X21290174Y-49348909D01*
X21327086Y-49356251D01*
X21363083Y-49367171D01*
X21400520Y-49370858D01*
X21437430Y-49378200D01*
X21475065Y-49378200D01*
X21512500Y-49381887D01*
X21549935Y-49378200D01*
X21587570Y-49378200D01*
X21624481Y-49370858D01*
X21661916Y-49367171D01*
X21697911Y-49356252D01*
X21734826Y-49348909D01*
X21769602Y-49334504D01*
X21805591Y-49323587D01*
X21838759Y-49305859D01*
X21873537Y-49291453D01*
X21904833Y-49270542D01*
X21938003Y-49252812D01*
X21967081Y-49228948D01*
X21998374Y-49208039D01*
X22024983Y-49181430D01*
X22054064Y-49157564D01*
X22077931Y-49128482D01*
X22104539Y-49101874D01*
X22125446Y-49070585D01*
X22149312Y-49041504D01*
X22167044Y-49008329D01*
X22187953Y-48977037D01*
X22202357Y-48942263D01*
X22220087Y-48909092D01*
X22231005Y-48873099D01*
X22245409Y-48838326D01*
X22252751Y-48801414D01*
X22263671Y-48765417D01*
X22267358Y-48727980D01*
X22274700Y-48691070D01*
X22274700Y-40949925D01*
X22278386Y-40912499D01*
X22274700Y-40875074D01*
X22274700Y-40875065D01*
X22263671Y-40763083D01*
X22220087Y-40619408D01*
X22149312Y-40486996D01*
X22054064Y-40370936D01*
X22024982Y-40347069D01*
X21765435Y-40087522D01*
X21741568Y-40058440D01*
X21625508Y-39963192D01*
X21493096Y-39892417D01*
X21349421Y-39848833D01*
X21237439Y-39837804D01*
X21237437Y-39837804D01*
X21200004Y-39834117D01*
X21162571Y-39837804D01*
X17624930Y-39837804D01*
X17588020Y-39845146D01*
X17550583Y-39848833D01*
X17514586Y-39859753D01*
X17477674Y-39867095D01*
X17442901Y-39881499D01*
X17406908Y-39892417D01*
X17373737Y-39910147D01*
X17338963Y-39924551D01*
X17307671Y-39945460D01*
X17274496Y-39963192D01*
X17245415Y-39987058D01*
X17214126Y-40007965D01*
X17187518Y-40034573D01*
X17158436Y-40058440D01*
X17134569Y-40087522D01*
X17107961Y-40114130D01*
X17087054Y-40145419D01*
X17063188Y-40174500D01*
X17045456Y-40207675D01*
X17024547Y-40238967D01*
X17010143Y-40273741D01*
X16992413Y-40306912D01*
X16981495Y-40342905D01*
X16967091Y-40377678D01*
X16959749Y-40414590D01*
X16948829Y-40450587D01*
X16945142Y-40488024D01*
X16937800Y-40524934D01*
X16937800Y-40562569D01*
X16934113Y-40600004D01*
X15810219Y-40600004D01*
X15824795Y-37250000D01*
X19722571Y-37250000D01*
X19722571Y-38950000D01*
X19727479Y-38999832D01*
X19742014Y-39047748D01*
X19765619Y-39091909D01*
X19797384Y-39130616D01*
X19836091Y-39162381D01*
X19880252Y-39185986D01*
X19928168Y-39200521D01*
X19978000Y-39205429D01*
X21678000Y-39205429D01*
X21727832Y-39200521D01*
X21775748Y-39185986D01*
X21819909Y-39162381D01*
X21858616Y-39130616D01*
X21890381Y-39091909D01*
X21913986Y-39047748D01*
X21928521Y-38999832D01*
X21933429Y-38950000D01*
X21933429Y-37250000D01*
X21928521Y-37200168D01*
X21913986Y-37152252D01*
X21890381Y-37108091D01*
X21858616Y-37069384D01*
X21819909Y-37037619D01*
X21775748Y-37014014D01*
X21727832Y-36999479D01*
X21678000Y-36994571D01*
X19978000Y-36994571D01*
X19928168Y-36999479D01*
X19880252Y-37014014D01*
X19836091Y-37037619D01*
X19797384Y-37069384D01*
X19765619Y-37108091D01*
X19742014Y-37152252D01*
X19727479Y-37200168D01*
X19722571Y-37250000D01*
X15824795Y-37250000D01*
X15851225Y-31176200D01*
X16312828Y-31176200D01*
X16926463Y-31054140D01*
X17504495Y-30814712D01*
X18024709Y-30467115D01*
X18467115Y-30024709D01*
X18814712Y-29504495D01*
X19054140Y-28926463D01*
X19154882Y-28420000D01*
X19764571Y-28420000D01*
X19764571Y-30120000D01*
X19769479Y-30169832D01*
X19784014Y-30217748D01*
X19807619Y-30261909D01*
X19839384Y-30300616D01*
X19878091Y-30332381D01*
X19922252Y-30355986D01*
X19970168Y-30370521D01*
X20020000Y-30375429D01*
X21720000Y-30375429D01*
X21769832Y-30370521D01*
X21817748Y-30355986D01*
X21861909Y-30332381D01*
X21900616Y-30300616D01*
X21932381Y-30261909D01*
X21955986Y-30217748D01*
X21970521Y-30169832D01*
X21975429Y-30120000D01*
X21975429Y-29161246D01*
X22305800Y-29161246D01*
X22305800Y-29378754D01*
X22348234Y-29592083D01*
X22431470Y-29793035D01*
X22552312Y-29973887D01*
X22706113Y-30127688D01*
X22886965Y-30248530D01*
X23087917Y-30331766D01*
X23301246Y-30374200D01*
X23518754Y-30374200D01*
X23732083Y-30331766D01*
X23933035Y-30248530D01*
X24113887Y-30127688D01*
X24267688Y-29973887D01*
X24388530Y-29793035D01*
X24471766Y-29592083D01*
X24514200Y-29378754D01*
X24514200Y-29161246D01*
X24471766Y-28947917D01*
X24388530Y-28746965D01*
X24267688Y-28566113D01*
X24113887Y-28412312D01*
X23933035Y-28291470D01*
X23732083Y-28208234D01*
X23518754Y-28165800D01*
X23301246Y-28165800D01*
X23087917Y-28208234D01*
X22886965Y-28291470D01*
X22706113Y-28412312D01*
X22552312Y-28566113D01*
X22431470Y-28746965D01*
X22348234Y-28947917D01*
X22305800Y-29161246D01*
X21975429Y-29161246D01*
X21975429Y-28420000D01*
X21970521Y-28370168D01*
X21955986Y-28322252D01*
X21932381Y-28278091D01*
X21900616Y-28239384D01*
X21861909Y-28207619D01*
X21817748Y-28184014D01*
X21769832Y-28169479D01*
X21720000Y-28164571D01*
X20020000Y-28164571D01*
X19970168Y-28169479D01*
X19922252Y-28184014D01*
X19878091Y-28207619D01*
X19839384Y-28239384D01*
X19807619Y-28278091D01*
X19784014Y-28322252D01*
X19769479Y-28370168D01*
X19764571Y-28420000D01*
X19154882Y-28420000D01*
X19176200Y-28312828D01*
X19176200Y-27687172D01*
X19054140Y-27073537D01*
X19044975Y-27051410D01*
X19472274Y-27051410D01*
X19561835Y-27317917D01*
X19701668Y-27561831D01*
X19886399Y-27773778D01*
X20108930Y-27945613D01*
X20360708Y-28070733D01*
X20548591Y-28127722D01*
X20771200Y-28014355D01*
X20771200Y-26828800D01*
X20968800Y-26828800D01*
X20968800Y-28014355D01*
X21191409Y-28127722D01*
X21379292Y-28070733D01*
X21631070Y-27945613D01*
X21853601Y-27773778D01*
X22038332Y-27561831D01*
X22140000Y-27384489D01*
X22241668Y-27561831D01*
X22426399Y-27773778D01*
X22648930Y-27945613D01*
X22900708Y-28070733D01*
X23088591Y-28127722D01*
X23311200Y-28014355D01*
X23311200Y-26828800D01*
X23508800Y-26828800D01*
X23508800Y-28014355D01*
X23731409Y-28127722D01*
X23919292Y-28070733D01*
X24171070Y-27945613D01*
X24393601Y-27773778D01*
X24578332Y-27561831D01*
X24718165Y-27317917D01*
X24807726Y-27051410D01*
X24694747Y-26828800D01*
X23508800Y-26828800D01*
X23311200Y-26828800D01*
X20968800Y-26828800D01*
X20771200Y-26828800D01*
X19585253Y-26828800D01*
X19472274Y-27051410D01*
X19044975Y-27051410D01*
X18814712Y-26495505D01*
X18756638Y-26408590D01*
X19472274Y-26408590D01*
X19585253Y-26631200D01*
X20771200Y-26631200D01*
X20771200Y-25445645D01*
X20968800Y-25445645D01*
X20968800Y-26631200D01*
X23311200Y-26631200D01*
X23311200Y-25445645D01*
X23508800Y-25445645D01*
X23508800Y-26631200D01*
X24694747Y-26631200D01*
X24807726Y-26408590D01*
X24718165Y-26142083D01*
X24578332Y-25898169D01*
X24393601Y-25686222D01*
X24171070Y-25514387D01*
X23919292Y-25389267D01*
X23731409Y-25332278D01*
X23508800Y-25445645D01*
X23311200Y-25445645D01*
X23088591Y-25332278D01*
X22900708Y-25389267D01*
X22648930Y-25514387D01*
X22426399Y-25686222D01*
X22241668Y-25898169D01*
X22140000Y-26075511D01*
X22038332Y-25898169D01*
X21853601Y-25686222D01*
X21631070Y-25514387D01*
X21379292Y-25389267D01*
X21191409Y-25332278D01*
X20968800Y-25445645D01*
X20771200Y-25445645D01*
X20548591Y-25332278D01*
X20360708Y-25389267D01*
X20108930Y-25514387D01*
X19886399Y-25686222D01*
X19701668Y-25898169D01*
X19561835Y-26142083D01*
X19472274Y-26408590D01*
X18756638Y-26408590D01*
X18467115Y-25975291D01*
X18024709Y-25532885D01*
X17504495Y-25185288D01*
X16926463Y-24945860D01*
X16312828Y-24823800D01*
X15878866Y-24823800D01*
X15878951Y-24804156D01*
X24910395Y-24804163D01*
G37*
X24910395Y-24804163D02*
X24897270Y-26386102D01*
X24888234Y-26407917D01*
X24845800Y-26621246D01*
X24845800Y-26838754D01*
X24888234Y-27052083D01*
X24891676Y-27060392D01*
X24875483Y-29012019D01*
X24845800Y-29161246D01*
X24845800Y-29378754D01*
X24871374Y-29507321D01*
X24853855Y-31618800D01*
X22166270Y-31618800D01*
X22148236Y-31611330D01*
X22050053Y-31591800D01*
X21949947Y-31591800D01*
X21851764Y-31611330D01*
X21759277Y-31649639D01*
X21676041Y-31705255D01*
X21605255Y-31776041D01*
X21549639Y-31859277D01*
X21511330Y-31951764D01*
X21491800Y-32049947D01*
X21491800Y-32150053D01*
X21511330Y-32248236D01*
X21549639Y-32340723D01*
X21605255Y-32423959D01*
X21676041Y-32494745D01*
X21759277Y-32550361D01*
X21851764Y-32588670D01*
X21949947Y-32608200D01*
X22050053Y-32608200D01*
X22148236Y-32588670D01*
X22240723Y-32550361D01*
X22323959Y-32494745D01*
X22394745Y-32423959D01*
X22423315Y-32381200D01*
X24842103Y-32381200D01*
X24847485Y-32386582D01*
X24796274Y-38558975D01*
X24762807Y-38531510D01*
X24696584Y-38496112D01*
X24694613Y-38495514D01*
X24461524Y-38262426D01*
X24472200Y-38208754D01*
X24472200Y-37991246D01*
X24429766Y-37777917D01*
X24346530Y-37576965D01*
X24225688Y-37396113D01*
X24071887Y-37242312D01*
X23891035Y-37121470D01*
X23690083Y-37038234D01*
X23476754Y-36995800D01*
X23259246Y-36995800D01*
X23045917Y-37038234D01*
X22844965Y-37121470D01*
X22664113Y-37242312D01*
X22510312Y-37396113D01*
X22389470Y-37576965D01*
X22306234Y-37777917D01*
X22263800Y-37991246D01*
X22263800Y-38208754D01*
X22306234Y-38422083D01*
X22389470Y-38623035D01*
X22510312Y-38803887D01*
X22664113Y-38957688D01*
X22844965Y-39078530D01*
X23045917Y-39161766D01*
X23259246Y-39204200D01*
X23476754Y-39204200D01*
X23690083Y-39161766D01*
X23891035Y-39078530D01*
X24071887Y-38957688D01*
X24075238Y-38954337D01*
X24227215Y-39106314D01*
X24239146Y-39120852D01*
X24253684Y-39132783D01*
X24253688Y-39132787D01*
X24297190Y-39168488D01*
X24329926Y-39185986D01*
X24363414Y-39203886D01*
X24365388Y-39204485D01*
X24787417Y-39626514D01*
X24524430Y-71323800D01*
X15676532Y-71323800D01*
X15683527Y-69716000D01*
X17475473Y-69716000D01*
X17486753Y-69830523D01*
X17520158Y-69940646D01*
X17574405Y-70042135D01*
X17647409Y-70131091D01*
X17736365Y-70204095D01*
X17837854Y-70258342D01*
X17947977Y-70291747D01*
X18062500Y-70303027D01*
X18442650Y-70300200D01*
X18588700Y-70154150D01*
X18588700Y-69189800D01*
X19936300Y-69189800D01*
X19936300Y-70154150D01*
X20082350Y-70300200D01*
X20462500Y-70303027D01*
X20577023Y-70291747D01*
X20687146Y-70258342D01*
X20788635Y-70204095D01*
X20877591Y-70131091D01*
X20950595Y-70042135D01*
X21004842Y-69940646D01*
X21038247Y-69830523D01*
X21049527Y-69716000D01*
X21046700Y-69335850D01*
X20900650Y-69189800D01*
X19936300Y-69189800D01*
X18588700Y-69189800D01*
X17624350Y-69189800D01*
X17478300Y-69335850D01*
X17475473Y-69716000D01*
X15683527Y-69716000D01*
X15689371Y-68372774D01*
X21308300Y-68372774D01*
X21308300Y-68659226D01*
X21364184Y-68940174D01*
X21473805Y-69204822D01*
X21632949Y-69442998D01*
X21835502Y-69645551D01*
X22073678Y-69804695D01*
X22338326Y-69914316D01*
X22619274Y-69970200D01*
X22905726Y-69970200D01*
X23186674Y-69914316D01*
X23451322Y-69804695D01*
X23689498Y-69645551D01*
X23892051Y-69442998D01*
X24051195Y-69204822D01*
X24160816Y-68940174D01*
X24216700Y-68659226D01*
X24216700Y-68372774D01*
X24160816Y-68091826D01*
X24051195Y-67827178D01*
X23892051Y-67589002D01*
X23689498Y-67386449D01*
X23451322Y-67227305D01*
X23186674Y-67117684D01*
X22905726Y-67061800D01*
X22619274Y-67061800D01*
X22338326Y-67117684D01*
X22073678Y-67227305D01*
X21835502Y-67386449D01*
X21632949Y-67589002D01*
X21473805Y-67827178D01*
X21364184Y-68091826D01*
X21308300Y-68372774D01*
X15689371Y-68372774D01*
X15693970Y-67316000D01*
X17475473Y-67316000D01*
X17478300Y-67696150D01*
X17624350Y-67842200D01*
X18588700Y-67842200D01*
X18588700Y-66877850D01*
X19936300Y-66877850D01*
X19936300Y-67842200D01*
X20900650Y-67842200D01*
X21046700Y-67696150D01*
X21049527Y-67316000D01*
X21038247Y-67201477D01*
X21004842Y-67091354D01*
X20950595Y-66989865D01*
X20877591Y-66900909D01*
X20788635Y-66827905D01*
X20687146Y-66773658D01*
X20577023Y-66740253D01*
X20462500Y-66728973D01*
X20082350Y-66731800D01*
X19936300Y-66877850D01*
X18588700Y-66877850D01*
X18442650Y-66731800D01*
X18062500Y-66728973D01*
X17947977Y-66740253D01*
X17837854Y-66773658D01*
X17736365Y-66827905D01*
X17647409Y-66900909D01*
X17574405Y-66989865D01*
X17520158Y-67091354D01*
X17486753Y-67201477D01*
X17475473Y-67316000D01*
X15693970Y-67316000D01*
X15751146Y-54176200D01*
X16312828Y-54176200D01*
X16926463Y-54054140D01*
X17504495Y-53814712D01*
X18024709Y-53467115D01*
X18467115Y-53024709D01*
X18814712Y-52504495D01*
X19054140Y-51926463D01*
X19176200Y-51312828D01*
X19176200Y-50687172D01*
X19054140Y-50073537D01*
X18814712Y-49495505D01*
X18467115Y-48975291D01*
X18024709Y-48532885D01*
X17504495Y-48185288D01*
X16926463Y-47945860D01*
X16312828Y-47823800D01*
X15778787Y-47823800D01*
X15810219Y-40600004D01*
X16934113Y-40600004D01*
X16937800Y-40637439D01*
X16937800Y-40675074D01*
X16945142Y-40711984D01*
X16948829Y-40749421D01*
X16959749Y-40785418D01*
X16967091Y-40822330D01*
X16981495Y-40857103D01*
X16992413Y-40893096D01*
X17010143Y-40926267D01*
X17024547Y-40961041D01*
X17045456Y-40992333D01*
X17063188Y-41025508D01*
X17087054Y-41054589D01*
X17107961Y-41085878D01*
X17134569Y-41112486D01*
X17158436Y-41141568D01*
X17187518Y-41165435D01*
X17214126Y-41192043D01*
X17245415Y-41212950D01*
X17274496Y-41236816D01*
X17307671Y-41254548D01*
X17338963Y-41275457D01*
X17373737Y-41289861D01*
X17406908Y-41307591D01*
X17442901Y-41318509D01*
X17477674Y-41332913D01*
X17514586Y-41340255D01*
X17550583Y-41351175D01*
X17588020Y-41354862D01*
X17624930Y-41362204D01*
X20750301Y-41362204D01*
X20750300Y-48540930D01*
X20750300Y-48691070D01*
X20757642Y-48727981D01*
X20761329Y-48765416D01*
X20772248Y-48801411D01*
X20779591Y-48838326D01*
X20793996Y-48873102D01*
X20804913Y-48909091D01*
X20822641Y-48942259D01*
X20837047Y-48977037D01*
X20857958Y-49008333D01*
X20875688Y-49041503D01*
X20899552Y-49070581D01*
X20920461Y-49101874D01*
X20947070Y-49128483D01*
X20970936Y-49157564D01*
X21000018Y-49181431D01*
X21026626Y-49208039D01*
X21057915Y-49228946D01*
X21086996Y-49252812D01*
X21120171Y-49270544D01*
X21151463Y-49291453D01*
X21186237Y-49305857D01*
X21219408Y-49323587D01*
X21255401Y-49334505D01*
X21290174Y-49348909D01*
X21327086Y-49356251D01*
X21363083Y-49367171D01*
X21400520Y-49370858D01*
X21437430Y-49378200D01*
X21475065Y-49378200D01*
X21512500Y-49381887D01*
X21549935Y-49378200D01*
X21587570Y-49378200D01*
X21624481Y-49370858D01*
X21661916Y-49367171D01*
X21697911Y-49356252D01*
X21734826Y-49348909D01*
X21769602Y-49334504D01*
X21805591Y-49323587D01*
X21838759Y-49305859D01*
X21873537Y-49291453D01*
X21904833Y-49270542D01*
X21938003Y-49252812D01*
X21967081Y-49228948D01*
X21998374Y-49208039D01*
X22024983Y-49181430D01*
X22054064Y-49157564D01*
X22077931Y-49128482D01*
X22104539Y-49101874D01*
X22125446Y-49070585D01*
X22149312Y-49041504D01*
X22167044Y-49008329D01*
X22187953Y-48977037D01*
X22202357Y-48942263D01*
X22220087Y-48909092D01*
X22231005Y-48873099D01*
X22245409Y-48838326D01*
X22252751Y-48801414D01*
X22263671Y-48765417D01*
X22267358Y-48727980D01*
X22274700Y-48691070D01*
X22274700Y-40949925D01*
X22278386Y-40912499D01*
X22274700Y-40875074D01*
X22274700Y-40875065D01*
X22263671Y-40763083D01*
X22220087Y-40619408D01*
X22149312Y-40486996D01*
X22054064Y-40370936D01*
X22024982Y-40347069D01*
X21765435Y-40087522D01*
X21741568Y-40058440D01*
X21625508Y-39963192D01*
X21493096Y-39892417D01*
X21349421Y-39848833D01*
X21237439Y-39837804D01*
X21237437Y-39837804D01*
X21200004Y-39834117D01*
X21162571Y-39837804D01*
X17624930Y-39837804D01*
X17588020Y-39845146D01*
X17550583Y-39848833D01*
X17514586Y-39859753D01*
X17477674Y-39867095D01*
X17442901Y-39881499D01*
X17406908Y-39892417D01*
X17373737Y-39910147D01*
X17338963Y-39924551D01*
X17307671Y-39945460D01*
X17274496Y-39963192D01*
X17245415Y-39987058D01*
X17214126Y-40007965D01*
X17187518Y-40034573D01*
X17158436Y-40058440D01*
X17134569Y-40087522D01*
X17107961Y-40114130D01*
X17087054Y-40145419D01*
X17063188Y-40174500D01*
X17045456Y-40207675D01*
X17024547Y-40238967D01*
X17010143Y-40273741D01*
X16992413Y-40306912D01*
X16981495Y-40342905D01*
X16967091Y-40377678D01*
X16959749Y-40414590D01*
X16948829Y-40450587D01*
X16945142Y-40488024D01*
X16937800Y-40524934D01*
X16937800Y-40562569D01*
X16934113Y-40600004D01*
X15810219Y-40600004D01*
X15824795Y-37250000D01*
X19722571Y-37250000D01*
X19722571Y-38950000D01*
X19727479Y-38999832D01*
X19742014Y-39047748D01*
X19765619Y-39091909D01*
X19797384Y-39130616D01*
X19836091Y-39162381D01*
X19880252Y-39185986D01*
X19928168Y-39200521D01*
X19978000Y-39205429D01*
X21678000Y-39205429D01*
X21727832Y-39200521D01*
X21775748Y-39185986D01*
X21819909Y-39162381D01*
X21858616Y-39130616D01*
X21890381Y-39091909D01*
X21913986Y-39047748D01*
X21928521Y-38999832D01*
X21933429Y-38950000D01*
X21933429Y-37250000D01*
X21928521Y-37200168D01*
X21913986Y-37152252D01*
X21890381Y-37108091D01*
X21858616Y-37069384D01*
X21819909Y-37037619D01*
X21775748Y-37014014D01*
X21727832Y-36999479D01*
X21678000Y-36994571D01*
X19978000Y-36994571D01*
X19928168Y-36999479D01*
X19880252Y-37014014D01*
X19836091Y-37037619D01*
X19797384Y-37069384D01*
X19765619Y-37108091D01*
X19742014Y-37152252D01*
X19727479Y-37200168D01*
X19722571Y-37250000D01*
X15824795Y-37250000D01*
X15851225Y-31176200D01*
X16312828Y-31176200D01*
X16926463Y-31054140D01*
X17504495Y-30814712D01*
X18024709Y-30467115D01*
X18467115Y-30024709D01*
X18814712Y-29504495D01*
X19054140Y-28926463D01*
X19154882Y-28420000D01*
X19764571Y-28420000D01*
X19764571Y-30120000D01*
X19769479Y-30169832D01*
X19784014Y-30217748D01*
X19807619Y-30261909D01*
X19839384Y-30300616D01*
X19878091Y-30332381D01*
X19922252Y-30355986D01*
X19970168Y-30370521D01*
X20020000Y-30375429D01*
X21720000Y-30375429D01*
X21769832Y-30370521D01*
X21817748Y-30355986D01*
X21861909Y-30332381D01*
X21900616Y-30300616D01*
X21932381Y-30261909D01*
X21955986Y-30217748D01*
X21970521Y-30169832D01*
X21975429Y-30120000D01*
X21975429Y-29161246D01*
X22305800Y-29161246D01*
X22305800Y-29378754D01*
X22348234Y-29592083D01*
X22431470Y-29793035D01*
X22552312Y-29973887D01*
X22706113Y-30127688D01*
X22886965Y-30248530D01*
X23087917Y-30331766D01*
X23301246Y-30374200D01*
X23518754Y-30374200D01*
X23732083Y-30331766D01*
X23933035Y-30248530D01*
X24113887Y-30127688D01*
X24267688Y-29973887D01*
X24388530Y-29793035D01*
X24471766Y-29592083D01*
X24514200Y-29378754D01*
X24514200Y-29161246D01*
X24471766Y-28947917D01*
X24388530Y-28746965D01*
X24267688Y-28566113D01*
X24113887Y-28412312D01*
X23933035Y-28291470D01*
X23732083Y-28208234D01*
X23518754Y-28165800D01*
X23301246Y-28165800D01*
X23087917Y-28208234D01*
X22886965Y-28291470D01*
X22706113Y-28412312D01*
X22552312Y-28566113D01*
X22431470Y-28746965D01*
X22348234Y-28947917D01*
X22305800Y-29161246D01*
X21975429Y-29161246D01*
X21975429Y-28420000D01*
X21970521Y-28370168D01*
X21955986Y-28322252D01*
X21932381Y-28278091D01*
X21900616Y-28239384D01*
X21861909Y-28207619D01*
X21817748Y-28184014D01*
X21769832Y-28169479D01*
X21720000Y-28164571D01*
X20020000Y-28164571D01*
X19970168Y-28169479D01*
X19922252Y-28184014D01*
X19878091Y-28207619D01*
X19839384Y-28239384D01*
X19807619Y-28278091D01*
X19784014Y-28322252D01*
X19769479Y-28370168D01*
X19764571Y-28420000D01*
X19154882Y-28420000D01*
X19176200Y-28312828D01*
X19176200Y-27687172D01*
X19054140Y-27073537D01*
X19044975Y-27051410D01*
X19472274Y-27051410D01*
X19561835Y-27317917D01*
X19701668Y-27561831D01*
X19886399Y-27773778D01*
X20108930Y-27945613D01*
X20360708Y-28070733D01*
X20548591Y-28127722D01*
X20771200Y-28014355D01*
X20771200Y-26828800D01*
X20968800Y-26828800D01*
X20968800Y-28014355D01*
X21191409Y-28127722D01*
X21379292Y-28070733D01*
X21631070Y-27945613D01*
X21853601Y-27773778D01*
X22038332Y-27561831D01*
X22140000Y-27384489D01*
X22241668Y-27561831D01*
X22426399Y-27773778D01*
X22648930Y-27945613D01*
X22900708Y-28070733D01*
X23088591Y-28127722D01*
X23311200Y-28014355D01*
X23311200Y-26828800D01*
X23508800Y-26828800D01*
X23508800Y-28014355D01*
X23731409Y-28127722D01*
X23919292Y-28070733D01*
X24171070Y-27945613D01*
X24393601Y-27773778D01*
X24578332Y-27561831D01*
X24718165Y-27317917D01*
X24807726Y-27051410D01*
X24694747Y-26828800D01*
X23508800Y-26828800D01*
X23311200Y-26828800D01*
X20968800Y-26828800D01*
X20771200Y-26828800D01*
X19585253Y-26828800D01*
X19472274Y-27051410D01*
X19044975Y-27051410D01*
X18814712Y-26495505D01*
X18756638Y-26408590D01*
X19472274Y-26408590D01*
X19585253Y-26631200D01*
X20771200Y-26631200D01*
X20771200Y-25445645D01*
X20968800Y-25445645D01*
X20968800Y-26631200D01*
X23311200Y-26631200D01*
X23311200Y-25445645D01*
X23508800Y-25445645D01*
X23508800Y-26631200D01*
X24694747Y-26631200D01*
X24807726Y-26408590D01*
X24718165Y-26142083D01*
X24578332Y-25898169D01*
X24393601Y-25686222D01*
X24171070Y-25514387D01*
X23919292Y-25389267D01*
X23731409Y-25332278D01*
X23508800Y-25445645D01*
X23311200Y-25445645D01*
X23088591Y-25332278D01*
X22900708Y-25389267D01*
X22648930Y-25514387D01*
X22426399Y-25686222D01*
X22241668Y-25898169D01*
X22140000Y-26075511D01*
X22038332Y-25898169D01*
X21853601Y-25686222D01*
X21631070Y-25514387D01*
X21379292Y-25389267D01*
X21191409Y-25332278D01*
X20968800Y-25445645D01*
X20771200Y-25445645D01*
X20548591Y-25332278D01*
X20360708Y-25389267D01*
X20108930Y-25514387D01*
X19886399Y-25686222D01*
X19701668Y-25898169D01*
X19561835Y-26142083D01*
X19472274Y-26408590D01*
X18756638Y-26408590D01*
X18467115Y-25975291D01*
X18024709Y-25532885D01*
X17504495Y-25185288D01*
X16926463Y-24945860D01*
X16312828Y-24823800D01*
X15878866Y-24823800D01*
X15878951Y-24804156D01*
X24910395Y-24804163D01*
D22*
G36*
X30966001Y-40279198D02*
G01*
X30966001Y-42973764D01*
X30963417Y-43000000D01*
X30973727Y-43104682D01*
X31004262Y-43205341D01*
X31053848Y-43298110D01*
X31120579Y-43379421D01*
X31201890Y-43446152D01*
X31294659Y-43495738D01*
X31395318Y-43526273D01*
X31473774Y-43534000D01*
X31500000Y-43536583D01*
X31526226Y-43534000D01*
X33668912Y-43534000D01*
X33644966Y-43546799D01*
X33591578Y-43775473D01*
X34297500Y-44481395D01*
X34311643Y-44467253D01*
X34491248Y-44646858D01*
X34477105Y-44661000D01*
X34491248Y-44675143D01*
X34311643Y-44854748D01*
X34297500Y-44840605D01*
X34283358Y-44854748D01*
X34103753Y-44675143D01*
X34117895Y-44661000D01*
X33411973Y-43955078D01*
X33183299Y-44008466D01*
X33077405Y-44238374D01*
X33018398Y-44484524D01*
X33008548Y-44737455D01*
X33030222Y-44874000D01*
X32923395Y-44874000D01*
X32719185Y-44914620D01*
X32526823Y-44994299D01*
X32353702Y-45109975D01*
X32206475Y-45257202D01*
X32090799Y-45430323D01*
X32011120Y-45622685D01*
X31970500Y-45826895D01*
X31970500Y-46035105D01*
X32011120Y-46239315D01*
X32090799Y-46431677D01*
X32206475Y-46604798D01*
X32353702Y-46752025D01*
X32526823Y-46867701D01*
X32719185Y-46947380D01*
X32923395Y-46988000D01*
X33131605Y-46988000D01*
X33238531Y-46966731D01*
X33238531Y-47851000D01*
X33246389Y-47930786D01*
X33269662Y-48007506D01*
X33307455Y-48078211D01*
X33358315Y-48140185D01*
X33420289Y-48191045D01*
X33490994Y-48228838D01*
X33567714Y-48252111D01*
X33647500Y-48259969D01*
X34947500Y-48259969D01*
X35027286Y-48252111D01*
X35104006Y-48228838D01*
X35174711Y-48191045D01*
X35236685Y-48140185D01*
X35287545Y-48078211D01*
X35325338Y-48007506D01*
X35348611Y-47930786D01*
X35356469Y-47851000D01*
X35356469Y-46551000D01*
X35348611Y-46471214D01*
X35346726Y-46465000D01*
X35542784Y-46465000D01*
X35569000Y-46467582D01*
X35595216Y-46465000D01*
X35595226Y-46465000D01*
X35673682Y-46457273D01*
X35774341Y-46426738D01*
X35867110Y-46377152D01*
X35948421Y-46310421D01*
X35965140Y-46290049D01*
X36359054Y-45896136D01*
X36379421Y-45879421D01*
X36396136Y-45859054D01*
X36396139Y-45859051D01*
X36446152Y-45798110D01*
X36458397Y-45775201D01*
X36495738Y-45705341D01*
X36526273Y-45604682D01*
X36534000Y-45526226D01*
X36534000Y-45526217D01*
X36536582Y-45500001D01*
X36534000Y-45473785D01*
X36534000Y-44026218D01*
X36536582Y-44000000D01*
X36534000Y-43973781D01*
X36534000Y-43973774D01*
X36526273Y-43895318D01*
X36495738Y-43794658D01*
X36446152Y-43701890D01*
X36396139Y-43640949D01*
X36396136Y-43640946D01*
X36379421Y-43620579D01*
X36359054Y-43603864D01*
X35396140Y-42640951D01*
X35379421Y-42620579D01*
X35298110Y-42553848D01*
X35205341Y-42504262D01*
X35104682Y-42473727D01*
X35026226Y-42466000D01*
X35026216Y-42466000D01*
X35000000Y-42463418D01*
X34973784Y-42466000D01*
X32034000Y-42466000D01*
X32034000Y-40286287D01*
X32341031Y-40288325D01*
X32341031Y-41490000D01*
X32348889Y-41569786D01*
X32372162Y-41646506D01*
X32409955Y-41717211D01*
X32460815Y-41779185D01*
X32522789Y-41830045D01*
X32593494Y-41867838D01*
X32670214Y-41891111D01*
X32750000Y-41898969D01*
X34450000Y-41898969D01*
X34529786Y-41891111D01*
X34606506Y-41867838D01*
X34677211Y-41830045D01*
X34739185Y-41779185D01*
X34790045Y-41717211D01*
X34827838Y-41646506D01*
X34851111Y-41569786D01*
X34858969Y-41490000D01*
X34858969Y-40305037D01*
X34924915Y-40305474D01*
X34883000Y-40516196D01*
X34883000Y-40763804D01*
X34931306Y-41006653D01*
X35026061Y-41235413D01*
X35163624Y-41441291D01*
X35338709Y-41616376D01*
X35544587Y-41753939D01*
X35773347Y-41848694D01*
X36016196Y-41897000D01*
X36263804Y-41897000D01*
X36506653Y-41848694D01*
X36735413Y-41753939D01*
X36941291Y-41616376D01*
X37116376Y-41441291D01*
X37253939Y-41235413D01*
X37348694Y-41006653D01*
X37397000Y-40763804D01*
X37397000Y-40516196D01*
X37358297Y-40321625D01*
X37461566Y-40322311D01*
X37423000Y-40516196D01*
X37423000Y-40763804D01*
X37471306Y-41006653D01*
X37566061Y-41235413D01*
X37703624Y-41441291D01*
X37878709Y-41616376D01*
X38084587Y-41753939D01*
X38313347Y-41848694D01*
X38556196Y-41897000D01*
X38803804Y-41897000D01*
X39046653Y-41848694D01*
X39275413Y-41753939D01*
X39481291Y-41616376D01*
X39656376Y-41441291D01*
X39793939Y-41235413D01*
X39888694Y-41006653D01*
X39937000Y-40763804D01*
X39937000Y-40516196D01*
X39901655Y-40338506D01*
X39998218Y-40339147D01*
X39963000Y-40516196D01*
X39963000Y-40763804D01*
X40011306Y-41006653D01*
X40106061Y-41235413D01*
X40243624Y-41441291D01*
X40418709Y-41616376D01*
X40624587Y-41753939D01*
X40853347Y-41848694D01*
X41096196Y-41897000D01*
X41343804Y-41897000D01*
X41586653Y-41848694D01*
X41815413Y-41753939D01*
X42021291Y-41616376D01*
X42196376Y-41441291D01*
X42333939Y-41235413D01*
X42428694Y-41006653D01*
X42477000Y-40763804D01*
X42477000Y-40516196D01*
X42445013Y-40355387D01*
X42534869Y-40355983D01*
X42503000Y-40516196D01*
X42503000Y-40763804D01*
X42551306Y-41006653D01*
X42646061Y-41235413D01*
X42783624Y-41441291D01*
X42958709Y-41616376D01*
X43164587Y-41753939D01*
X43393347Y-41848694D01*
X43636196Y-41897000D01*
X43883804Y-41897000D01*
X44126653Y-41848694D01*
X44355413Y-41753939D01*
X44561291Y-41616376D01*
X44736376Y-41441291D01*
X44873939Y-41235413D01*
X44968694Y-41006653D01*
X45017000Y-40763804D01*
X45017000Y-40516196D01*
X44988371Y-40372267D01*
X45071520Y-40372819D01*
X45043000Y-40516196D01*
X45043000Y-40763804D01*
X45091306Y-41006653D01*
X45186061Y-41235413D01*
X45323624Y-41441291D01*
X45498709Y-41616376D01*
X45704587Y-41753939D01*
X45933347Y-41848694D01*
X46176196Y-41897000D01*
X46253145Y-41897000D01*
X48348936Y-45268660D01*
X48347500Y-45275880D01*
X48347500Y-45302902D01*
X44660567Y-48989836D01*
X44508104Y-49020163D01*
X44341585Y-49089138D01*
X44191722Y-49189273D01*
X44064273Y-49316722D01*
X43964138Y-49466585D01*
X43895163Y-49633104D01*
X43860000Y-49809880D01*
X43860000Y-49990120D01*
X43895163Y-50166896D01*
X43964138Y-50333415D01*
X44064273Y-50483278D01*
X44191722Y-50610727D01*
X44341585Y-50710862D01*
X44508104Y-50779837D01*
X44684880Y-50815000D01*
X44865120Y-50815000D01*
X45041896Y-50779837D01*
X45208415Y-50710862D01*
X45358278Y-50610727D01*
X45485727Y-50483278D01*
X45585862Y-50333415D01*
X45654837Y-50166896D01*
X45685164Y-50014433D01*
X49434980Y-46264617D01*
X49529396Y-46245837D01*
X49695915Y-46176862D01*
X49845778Y-46076727D01*
X49973227Y-45949278D01*
X50073362Y-45799415D01*
X50142337Y-45632896D01*
X50177500Y-45456120D01*
X50177500Y-45275880D01*
X50142337Y-45099104D01*
X50073362Y-44932585D01*
X49973227Y-44782722D01*
X49845778Y-44655273D01*
X49695915Y-44555138D01*
X49582275Y-44508066D01*
X47467559Y-41105962D01*
X47508694Y-41006653D01*
X47557000Y-40763804D01*
X47557000Y-40516196D01*
X47532346Y-40392251D01*
X47535424Y-40389173D01*
X53635500Y-40429660D01*
X53635500Y-45928500D01*
X53637940Y-45953276D01*
X53645167Y-45977101D01*
X53656903Y-45999057D01*
X53672697Y-46018303D01*
X53691943Y-46034097D01*
X53713899Y-46045833D01*
X53737724Y-46053060D01*
X53763820Y-46055493D01*
X59647839Y-45994329D01*
X59623159Y-65729037D01*
X26134000Y-65738833D01*
X26134000Y-40247127D01*
X30966001Y-40279198D01*
G37*
X30966001Y-40279198D02*
X30966001Y-42973764D01*
X30963417Y-43000000D01*
X30973727Y-43104682D01*
X31004262Y-43205341D01*
X31053848Y-43298110D01*
X31120579Y-43379421D01*
X31201890Y-43446152D01*
X31294659Y-43495738D01*
X31395318Y-43526273D01*
X31473774Y-43534000D01*
X31500000Y-43536583D01*
X31526226Y-43534000D01*
X33668912Y-43534000D01*
X33644966Y-43546799D01*
X33591578Y-43775473D01*
X34297500Y-44481395D01*
X34311643Y-44467253D01*
X34491248Y-44646858D01*
X34477105Y-44661000D01*
X34491248Y-44675143D01*
X34311643Y-44854748D01*
X34297500Y-44840605D01*
X34283358Y-44854748D01*
X34103753Y-44675143D01*
X34117895Y-44661000D01*
X33411973Y-43955078D01*
X33183299Y-44008466D01*
X33077405Y-44238374D01*
X33018398Y-44484524D01*
X33008548Y-44737455D01*
X33030222Y-44874000D01*
X32923395Y-44874000D01*
X32719185Y-44914620D01*
X32526823Y-44994299D01*
X32353702Y-45109975D01*
X32206475Y-45257202D01*
X32090799Y-45430323D01*
X32011120Y-45622685D01*
X31970500Y-45826895D01*
X31970500Y-46035105D01*
X32011120Y-46239315D01*
X32090799Y-46431677D01*
X32206475Y-46604798D01*
X32353702Y-46752025D01*
X32526823Y-46867701D01*
X32719185Y-46947380D01*
X32923395Y-46988000D01*
X33131605Y-46988000D01*
X33238531Y-46966731D01*
X33238531Y-47851000D01*
X33246389Y-47930786D01*
X33269662Y-48007506D01*
X33307455Y-48078211D01*
X33358315Y-48140185D01*
X33420289Y-48191045D01*
X33490994Y-48228838D01*
X33567714Y-48252111D01*
X33647500Y-48259969D01*
X34947500Y-48259969D01*
X35027286Y-48252111D01*
X35104006Y-48228838D01*
X35174711Y-48191045D01*
X35236685Y-48140185D01*
X35287545Y-48078211D01*
X35325338Y-48007506D01*
X35348611Y-47930786D01*
X35356469Y-47851000D01*
X35356469Y-46551000D01*
X35348611Y-46471214D01*
X35346726Y-46465000D01*
X35542784Y-46465000D01*
X35569000Y-46467582D01*
X35595216Y-46465000D01*
X35595226Y-46465000D01*
X35673682Y-46457273D01*
X35774341Y-46426738D01*
X35867110Y-46377152D01*
X35948421Y-46310421D01*
X35965140Y-46290049D01*
X36359054Y-45896136D01*
X36379421Y-45879421D01*
X36396136Y-45859054D01*
X36396139Y-45859051D01*
X36446152Y-45798110D01*
X36458397Y-45775201D01*
X36495738Y-45705341D01*
X36526273Y-45604682D01*
X36534000Y-45526226D01*
X36534000Y-45526217D01*
X36536582Y-45500001D01*
X36534000Y-45473785D01*
X36534000Y-44026218D01*
X36536582Y-44000000D01*
X36534000Y-43973781D01*
X36534000Y-43973774D01*
X36526273Y-43895318D01*
X36495738Y-43794658D01*
X36446152Y-43701890D01*
X36396139Y-43640949D01*
X36396136Y-43640946D01*
X36379421Y-43620579D01*
X36359054Y-43603864D01*
X35396140Y-42640951D01*
X35379421Y-42620579D01*
X35298110Y-42553848D01*
X35205341Y-42504262D01*
X35104682Y-42473727D01*
X35026226Y-42466000D01*
X35026216Y-42466000D01*
X35000000Y-42463418D01*
X34973784Y-42466000D01*
X32034000Y-42466000D01*
X32034000Y-40286287D01*
X32341031Y-40288325D01*
X32341031Y-41490000D01*
X32348889Y-41569786D01*
X32372162Y-41646506D01*
X32409955Y-41717211D01*
X32460815Y-41779185D01*
X32522789Y-41830045D01*
X32593494Y-41867838D01*
X32670214Y-41891111D01*
X32750000Y-41898969D01*
X34450000Y-41898969D01*
X34529786Y-41891111D01*
X34606506Y-41867838D01*
X34677211Y-41830045D01*
X34739185Y-41779185D01*
X34790045Y-41717211D01*
X34827838Y-41646506D01*
X34851111Y-41569786D01*
X34858969Y-41490000D01*
X34858969Y-40305037D01*
X34924915Y-40305474D01*
X34883000Y-40516196D01*
X34883000Y-40763804D01*
X34931306Y-41006653D01*
X35026061Y-41235413D01*
X35163624Y-41441291D01*
X35338709Y-41616376D01*
X35544587Y-41753939D01*
X35773347Y-41848694D01*
X36016196Y-41897000D01*
X36263804Y-41897000D01*
X36506653Y-41848694D01*
X36735413Y-41753939D01*
X36941291Y-41616376D01*
X37116376Y-41441291D01*
X37253939Y-41235413D01*
X37348694Y-41006653D01*
X37397000Y-40763804D01*
X37397000Y-40516196D01*
X37358297Y-40321625D01*
X37461566Y-40322311D01*
X37423000Y-40516196D01*
X37423000Y-40763804D01*
X37471306Y-41006653D01*
X37566061Y-41235413D01*
X37703624Y-41441291D01*
X37878709Y-41616376D01*
X38084587Y-41753939D01*
X38313347Y-41848694D01*
X38556196Y-41897000D01*
X38803804Y-41897000D01*
X39046653Y-41848694D01*
X39275413Y-41753939D01*
X39481291Y-41616376D01*
X39656376Y-41441291D01*
X39793939Y-41235413D01*
X39888694Y-41006653D01*
X39937000Y-40763804D01*
X39937000Y-40516196D01*
X39901655Y-40338506D01*
X39998218Y-40339147D01*
X39963000Y-40516196D01*
X39963000Y-40763804D01*
X40011306Y-41006653D01*
X40106061Y-41235413D01*
X40243624Y-41441291D01*
X40418709Y-41616376D01*
X40624587Y-41753939D01*
X40853347Y-41848694D01*
X41096196Y-41897000D01*
X41343804Y-41897000D01*
X41586653Y-41848694D01*
X41815413Y-41753939D01*
X42021291Y-41616376D01*
X42196376Y-41441291D01*
X42333939Y-41235413D01*
X42428694Y-41006653D01*
X42477000Y-40763804D01*
X42477000Y-40516196D01*
X42445013Y-40355387D01*
X42534869Y-40355983D01*
X42503000Y-40516196D01*
X42503000Y-40763804D01*
X42551306Y-41006653D01*
X42646061Y-41235413D01*
X42783624Y-41441291D01*
X42958709Y-41616376D01*
X43164587Y-41753939D01*
X43393347Y-41848694D01*
X43636196Y-41897000D01*
X43883804Y-41897000D01*
X44126653Y-41848694D01*
X44355413Y-41753939D01*
X44561291Y-41616376D01*
X44736376Y-41441291D01*
X44873939Y-41235413D01*
X44968694Y-41006653D01*
X45017000Y-40763804D01*
X45017000Y-40516196D01*
X44988371Y-40372267D01*
X45071520Y-40372819D01*
X45043000Y-40516196D01*
X45043000Y-40763804D01*
X45091306Y-41006653D01*
X45186061Y-41235413D01*
X45323624Y-41441291D01*
X45498709Y-41616376D01*
X45704587Y-41753939D01*
X45933347Y-41848694D01*
X46176196Y-41897000D01*
X46253145Y-41897000D01*
X48348936Y-45268660D01*
X48347500Y-45275880D01*
X48347500Y-45302902D01*
X44660567Y-48989836D01*
X44508104Y-49020163D01*
X44341585Y-49089138D01*
X44191722Y-49189273D01*
X44064273Y-49316722D01*
X43964138Y-49466585D01*
X43895163Y-49633104D01*
X43860000Y-49809880D01*
X43860000Y-49990120D01*
X43895163Y-50166896D01*
X43964138Y-50333415D01*
X44064273Y-50483278D01*
X44191722Y-50610727D01*
X44341585Y-50710862D01*
X44508104Y-50779837D01*
X44684880Y-50815000D01*
X44865120Y-50815000D01*
X45041896Y-50779837D01*
X45208415Y-50710862D01*
X45358278Y-50610727D01*
X45485727Y-50483278D01*
X45585862Y-50333415D01*
X45654837Y-50166896D01*
X45685164Y-50014433D01*
X49434980Y-46264617D01*
X49529396Y-46245837D01*
X49695915Y-46176862D01*
X49845778Y-46076727D01*
X49973227Y-45949278D01*
X50073362Y-45799415D01*
X50142337Y-45632896D01*
X50177500Y-45456120D01*
X50177500Y-45275880D01*
X50142337Y-45099104D01*
X50073362Y-44932585D01*
X49973227Y-44782722D01*
X49845778Y-44655273D01*
X49695915Y-44555138D01*
X49582275Y-44508066D01*
X47467559Y-41105962D01*
X47508694Y-41006653D01*
X47557000Y-40763804D01*
X47557000Y-40516196D01*
X47532346Y-40392251D01*
X47535424Y-40389173D01*
X53635500Y-40429660D01*
X53635500Y-45928500D01*
X53637940Y-45953276D01*
X53645167Y-45977101D01*
X53656903Y-45999057D01*
X53672697Y-46018303D01*
X53691943Y-46034097D01*
X53713899Y-46045833D01*
X53737724Y-46053060D01*
X53763820Y-46055493D01*
X59647839Y-45994329D01*
X59623159Y-65729037D01*
X26134000Y-65738833D01*
X26134000Y-40247127D01*
X30966001Y-40279198D01*
G36*
X68728500Y-55986920D02*
G01*
X68728501Y-66289774D01*
X68725918Y-66316000D01*
X68736228Y-66420681D01*
X68766763Y-66521341D01*
X68816348Y-66614109D01*
X68866361Y-66675050D01*
X68866365Y-66675054D01*
X68883080Y-66695421D01*
X68903447Y-66712136D01*
X70011365Y-67820055D01*
X69917256Y-68047255D01*
X69855500Y-68357724D01*
X69855500Y-68674276D01*
X69917256Y-68984745D01*
X70038395Y-69277200D01*
X70214261Y-69540403D01*
X70438097Y-69764239D01*
X70701300Y-69940105D01*
X70993755Y-70061244D01*
X71304224Y-70123000D01*
X71620776Y-70123000D01*
X71931245Y-70061244D01*
X72223700Y-69940105D01*
X72486903Y-69764239D01*
X72710739Y-69540403D01*
X72886605Y-69277200D01*
X73007744Y-68984745D01*
X73069500Y-68674276D01*
X73069500Y-68357724D01*
X73355500Y-68357724D01*
X73355500Y-68674276D01*
X73417256Y-68984745D01*
X73538395Y-69277200D01*
X73714261Y-69540403D01*
X73938097Y-69764239D01*
X74201300Y-69940105D01*
X74493755Y-70061244D01*
X74804224Y-70123000D01*
X75120776Y-70123000D01*
X75431245Y-70061244D01*
X75723700Y-69940105D01*
X75986903Y-69764239D01*
X76210739Y-69540403D01*
X76386605Y-69277200D01*
X76507744Y-68984745D01*
X76569500Y-68674276D01*
X76569500Y-68357724D01*
X76507744Y-68047255D01*
X76386605Y-67754800D01*
X76210739Y-67491597D01*
X75986903Y-67267761D01*
X75723700Y-67091895D01*
X75431245Y-66970756D01*
X75120776Y-66909000D01*
X74804224Y-66909000D01*
X74493755Y-66970756D01*
X74201300Y-67091895D01*
X73938097Y-67267761D01*
X73714261Y-67491597D01*
X73538395Y-67754800D01*
X73417256Y-68047255D01*
X73355500Y-68357724D01*
X73069500Y-68357724D01*
X73007744Y-68047255D01*
X72886605Y-67754800D01*
X72710739Y-67491597D01*
X72486903Y-67267761D01*
X72223700Y-67091895D01*
X71931245Y-66970756D01*
X71620776Y-66909000D01*
X71304224Y-66909000D01*
X70993755Y-66970756D01*
X70766555Y-67064865D01*
X69796500Y-66094811D01*
X69796500Y-55993202D01*
X77044428Y-56035837D01*
X77045423Y-75919746D01*
X76859730Y-75471442D01*
X76506575Y-74942907D01*
X76057093Y-74493425D01*
X75528558Y-74140270D01*
X74941281Y-73897012D01*
X74317832Y-73773000D01*
X73682168Y-73773000D01*
X73058719Y-73897012D01*
X72471442Y-74140270D01*
X71942907Y-74493425D01*
X71493425Y-74942907D01*
X71140270Y-75471442D01*
X70897012Y-76058719D01*
X70773000Y-76682168D01*
X70773000Y-77317832D01*
X70897012Y-77941281D01*
X71140270Y-78528558D01*
X71493425Y-79057093D01*
X71942907Y-79506575D01*
X72471442Y-79859730D01*
X72831684Y-80008947D01*
X61389500Y-80008698D01*
X61389500Y-67316000D01*
X62853531Y-67316000D01*
X62853531Y-69716000D01*
X62861389Y-69795786D01*
X62884662Y-69872506D01*
X62922455Y-69943211D01*
X62973315Y-70005185D01*
X63035289Y-70056045D01*
X63105994Y-70093838D01*
X63182714Y-70117111D01*
X63262500Y-70124969D01*
X65662500Y-70124969D01*
X65742286Y-70117111D01*
X65819006Y-70093838D01*
X65889711Y-70056045D01*
X65951685Y-70005185D01*
X66002545Y-69943211D01*
X66040338Y-69872506D01*
X66063611Y-69795786D01*
X66071469Y-69716000D01*
X66071469Y-68357724D01*
X66355500Y-68357724D01*
X66355500Y-68674276D01*
X66417256Y-68984745D01*
X66538395Y-69277200D01*
X66714261Y-69540403D01*
X66938097Y-69764239D01*
X67201300Y-69940105D01*
X67493755Y-70061244D01*
X67804224Y-70123000D01*
X68120776Y-70123000D01*
X68431245Y-70061244D01*
X68723700Y-69940105D01*
X68986903Y-69764239D01*
X69210739Y-69540403D01*
X69386605Y-69277200D01*
X69507744Y-68984745D01*
X69569500Y-68674276D01*
X69569500Y-68357724D01*
X69507744Y-68047255D01*
X69386605Y-67754800D01*
X69210739Y-67491597D01*
X68986903Y-67267761D01*
X68723700Y-67091895D01*
X68431245Y-66970756D01*
X68120776Y-66909000D01*
X67804224Y-66909000D01*
X67493755Y-66970756D01*
X67201300Y-67091895D01*
X66938097Y-67267761D01*
X66714261Y-67491597D01*
X66538395Y-67754800D01*
X66417256Y-68047255D01*
X66355500Y-68357724D01*
X66071469Y-68357724D01*
X66071469Y-67316000D01*
X66063611Y-67236214D01*
X66040338Y-67159494D01*
X66002545Y-67088789D01*
X65951685Y-67026815D01*
X65889711Y-66975955D01*
X65819006Y-66938162D01*
X65742286Y-66914889D01*
X65662500Y-66907031D01*
X63262500Y-66907031D01*
X63182714Y-66914889D01*
X63105994Y-66938162D01*
X63035289Y-66975955D01*
X62973315Y-67026815D01*
X62922455Y-67088789D01*
X62884662Y-67159494D01*
X62861389Y-67236214D01*
X62853531Y-67316000D01*
X61389500Y-67316000D01*
X61389500Y-55943749D01*
X68728500Y-55986920D01*
G37*
X68728500Y-55986920D02*
X68728501Y-66289774D01*
X68725918Y-66316000D01*
X68736228Y-66420681D01*
X68766763Y-66521341D01*
X68816348Y-66614109D01*
X68866361Y-66675050D01*
X68866365Y-66675054D01*
X68883080Y-66695421D01*
X68903447Y-66712136D01*
X70011365Y-67820055D01*
X69917256Y-68047255D01*
X69855500Y-68357724D01*
X69855500Y-68674276D01*
X69917256Y-68984745D01*
X70038395Y-69277200D01*
X70214261Y-69540403D01*
X70438097Y-69764239D01*
X70701300Y-69940105D01*
X70993755Y-70061244D01*
X71304224Y-70123000D01*
X71620776Y-70123000D01*
X71931245Y-70061244D01*
X72223700Y-69940105D01*
X72486903Y-69764239D01*
X72710739Y-69540403D01*
X72886605Y-69277200D01*
X73007744Y-68984745D01*
X73069500Y-68674276D01*
X73069500Y-68357724D01*
X73355500Y-68357724D01*
X73355500Y-68674276D01*
X73417256Y-68984745D01*
X73538395Y-69277200D01*
X73714261Y-69540403D01*
X73938097Y-69764239D01*
X74201300Y-69940105D01*
X74493755Y-70061244D01*
X74804224Y-70123000D01*
X75120776Y-70123000D01*
X75431245Y-70061244D01*
X75723700Y-69940105D01*
X75986903Y-69764239D01*
X76210739Y-69540403D01*
X76386605Y-69277200D01*
X76507744Y-68984745D01*
X76569500Y-68674276D01*
X76569500Y-68357724D01*
X76507744Y-68047255D01*
X76386605Y-67754800D01*
X76210739Y-67491597D01*
X75986903Y-67267761D01*
X75723700Y-67091895D01*
X75431245Y-66970756D01*
X75120776Y-66909000D01*
X74804224Y-66909000D01*
X74493755Y-66970756D01*
X74201300Y-67091895D01*
X73938097Y-67267761D01*
X73714261Y-67491597D01*
X73538395Y-67754800D01*
X73417256Y-68047255D01*
X73355500Y-68357724D01*
X73069500Y-68357724D01*
X73007744Y-68047255D01*
X72886605Y-67754800D01*
X72710739Y-67491597D01*
X72486903Y-67267761D01*
X72223700Y-67091895D01*
X71931245Y-66970756D01*
X71620776Y-66909000D01*
X71304224Y-66909000D01*
X70993755Y-66970756D01*
X70766555Y-67064865D01*
X69796500Y-66094811D01*
X69796500Y-55993202D01*
X77044428Y-56035837D01*
X77045423Y-75919746D01*
X76859730Y-75471442D01*
X76506575Y-74942907D01*
X76057093Y-74493425D01*
X75528558Y-74140270D01*
X74941281Y-73897012D01*
X74317832Y-73773000D01*
X73682168Y-73773000D01*
X73058719Y-73897012D01*
X72471442Y-74140270D01*
X71942907Y-74493425D01*
X71493425Y-74942907D01*
X71140270Y-75471442D01*
X70897012Y-76058719D01*
X70773000Y-76682168D01*
X70773000Y-77317832D01*
X70897012Y-77941281D01*
X71140270Y-78528558D01*
X71493425Y-79057093D01*
X71942907Y-79506575D01*
X72471442Y-79859730D01*
X72831684Y-80008947D01*
X61389500Y-80008698D01*
X61389500Y-67316000D01*
X62853531Y-67316000D01*
X62853531Y-69716000D01*
X62861389Y-69795786D01*
X62884662Y-69872506D01*
X62922455Y-69943211D01*
X62973315Y-70005185D01*
X63035289Y-70056045D01*
X63105994Y-70093838D01*
X63182714Y-70117111D01*
X63262500Y-70124969D01*
X65662500Y-70124969D01*
X65742286Y-70117111D01*
X65819006Y-70093838D01*
X65889711Y-70056045D01*
X65951685Y-70005185D01*
X66002545Y-69943211D01*
X66040338Y-69872506D01*
X66063611Y-69795786D01*
X66071469Y-69716000D01*
X66071469Y-68357724D01*
X66355500Y-68357724D01*
X66355500Y-68674276D01*
X66417256Y-68984745D01*
X66538395Y-69277200D01*
X66714261Y-69540403D01*
X66938097Y-69764239D01*
X67201300Y-69940105D01*
X67493755Y-70061244D01*
X67804224Y-70123000D01*
X68120776Y-70123000D01*
X68431245Y-70061244D01*
X68723700Y-69940105D01*
X68986903Y-69764239D01*
X69210739Y-69540403D01*
X69386605Y-69277200D01*
X69507744Y-68984745D01*
X69569500Y-68674276D01*
X69569500Y-68357724D01*
X69507744Y-68047255D01*
X69386605Y-67754800D01*
X69210739Y-67491597D01*
X68986903Y-67267761D01*
X68723700Y-67091895D01*
X68431245Y-66970756D01*
X68120776Y-66909000D01*
X67804224Y-66909000D01*
X67493755Y-66970756D01*
X67201300Y-67091895D01*
X66938097Y-67267761D01*
X66714261Y-67491597D01*
X66538395Y-67754800D01*
X66417256Y-68047255D01*
X66355500Y-68357724D01*
X66071469Y-68357724D01*
X66071469Y-67316000D01*
X66063611Y-67236214D01*
X66040338Y-67159494D01*
X66002545Y-67088789D01*
X65951685Y-67026815D01*
X65889711Y-66975955D01*
X65819006Y-66938162D01*
X65742286Y-66914889D01*
X65662500Y-66907031D01*
X63262500Y-66907031D01*
X63182714Y-66914889D01*
X63105994Y-66938162D01*
X63035289Y-66975955D01*
X62973315Y-67026815D01*
X62922455Y-67088789D01*
X62884662Y-67159494D01*
X62861389Y-67236214D01*
X62853531Y-67316000D01*
X61389500Y-67316000D01*
X61389500Y-55943749D01*
X68728500Y-55986920D01*
G36*
X77044122Y-49916604D02*
G01*
X76859730Y-49471442D01*
X76506575Y-48942907D01*
X76057093Y-48493425D01*
X75528558Y-48140270D01*
X74941281Y-47897012D01*
X74317832Y-47773000D01*
X73682168Y-47773000D01*
X73058719Y-47897012D01*
X72471442Y-48140270D01*
X71942907Y-48493425D01*
X71493425Y-48942907D01*
X71140270Y-49471442D01*
X70897012Y-50058719D01*
X70773000Y-50682168D01*
X70773000Y-51317832D01*
X70897012Y-51941281D01*
X71140270Y-52528558D01*
X71493425Y-53057093D01*
X71942907Y-53506575D01*
X72471442Y-53859730D01*
X73058719Y-54102988D01*
X73682168Y-54227000D01*
X74317832Y-54227000D01*
X74941281Y-54102988D01*
X75528558Y-53859730D01*
X76057093Y-53506575D01*
X76506575Y-53057093D01*
X76859730Y-52528558D01*
X77044230Y-52083134D01*
X77044380Y-55082430D01*
X69796500Y-55039858D01*
X69796500Y-49142216D01*
X69799082Y-49116000D01*
X69796500Y-49089784D01*
X69796500Y-49089774D01*
X69788773Y-49011318D01*
X69758238Y-48910659D01*
X69708652Y-48817890D01*
X69658639Y-48756949D01*
X69658636Y-48756946D01*
X69641921Y-48736579D01*
X69621554Y-48719864D01*
X68046500Y-47144811D01*
X68046500Y-38006581D01*
X68098270Y-37929101D01*
X68148098Y-37808807D01*
X68173500Y-37681103D01*
X68173500Y-37550897D01*
X68148098Y-37423193D01*
X68098270Y-37302899D01*
X68025932Y-37194637D01*
X67933863Y-37102568D01*
X67825601Y-37030230D01*
X67705307Y-36980402D01*
X67577603Y-36955000D01*
X67447397Y-36955000D01*
X67319693Y-36980402D01*
X67199399Y-37030230D01*
X67091137Y-37102568D01*
X66999068Y-37194637D01*
X66926730Y-37302899D01*
X66876902Y-37423193D01*
X66851500Y-37550897D01*
X66851500Y-37681103D01*
X66876902Y-37808807D01*
X66926730Y-37929101D01*
X66978500Y-38006581D01*
X66978501Y-47339774D01*
X66975918Y-47366000D01*
X66986228Y-47470681D01*
X67016763Y-47571341D01*
X67066348Y-47664109D01*
X67116361Y-47725050D01*
X67116365Y-47725054D01*
X67133080Y-47745421D01*
X67153447Y-47762136D01*
X68728500Y-49337190D01*
X68728500Y-55033585D01*
X61265132Y-54989747D01*
X61314498Y-45116635D01*
X61312182Y-45091847D01*
X61305074Y-45067986D01*
X61293448Y-45045971D01*
X61277750Y-45026648D01*
X61258585Y-45010757D01*
X61236687Y-44998912D01*
X61212899Y-44991566D01*
X61187500Y-44989000D01*
X55589670Y-44989000D01*
X55607150Y-31892728D01*
X77043218Y-31845729D01*
X77044122Y-49916604D01*
G37*
X77044122Y-49916604D02*
X76859730Y-49471442D01*
X76506575Y-48942907D01*
X76057093Y-48493425D01*
X75528558Y-48140270D01*
X74941281Y-47897012D01*
X74317832Y-47773000D01*
X73682168Y-47773000D01*
X73058719Y-47897012D01*
X72471442Y-48140270D01*
X71942907Y-48493425D01*
X71493425Y-48942907D01*
X71140270Y-49471442D01*
X70897012Y-50058719D01*
X70773000Y-50682168D01*
X70773000Y-51317832D01*
X70897012Y-51941281D01*
X71140270Y-52528558D01*
X71493425Y-53057093D01*
X71942907Y-53506575D01*
X72471442Y-53859730D01*
X73058719Y-54102988D01*
X73682168Y-54227000D01*
X74317832Y-54227000D01*
X74941281Y-54102988D01*
X75528558Y-53859730D01*
X76057093Y-53506575D01*
X76506575Y-53057093D01*
X76859730Y-52528558D01*
X77044230Y-52083134D01*
X77044380Y-55082430D01*
X69796500Y-55039858D01*
X69796500Y-49142216D01*
X69799082Y-49116000D01*
X69796500Y-49089784D01*
X69796500Y-49089774D01*
X69788773Y-49011318D01*
X69758238Y-48910659D01*
X69708652Y-48817890D01*
X69658639Y-48756949D01*
X69658636Y-48756946D01*
X69641921Y-48736579D01*
X69621554Y-48719864D01*
X68046500Y-47144811D01*
X68046500Y-38006581D01*
X68098270Y-37929101D01*
X68148098Y-37808807D01*
X68173500Y-37681103D01*
X68173500Y-37550897D01*
X68148098Y-37423193D01*
X68098270Y-37302899D01*
X68025932Y-37194637D01*
X67933863Y-37102568D01*
X67825601Y-37030230D01*
X67705307Y-36980402D01*
X67577603Y-36955000D01*
X67447397Y-36955000D01*
X67319693Y-36980402D01*
X67199399Y-37030230D01*
X67091137Y-37102568D01*
X66999068Y-37194637D01*
X66926730Y-37302899D01*
X66876902Y-37423193D01*
X66851500Y-37550897D01*
X66851500Y-37681103D01*
X66876902Y-37808807D01*
X66926730Y-37929101D01*
X66978500Y-38006581D01*
X66978501Y-47339774D01*
X66975918Y-47366000D01*
X66986228Y-47470681D01*
X67016763Y-47571341D01*
X67066348Y-47664109D01*
X67116361Y-47725050D01*
X67116365Y-47725054D01*
X67133080Y-47745421D01*
X67153447Y-47762136D01*
X68728500Y-49337190D01*
X68728500Y-55033585D01*
X61265132Y-54989747D01*
X61314498Y-45116635D01*
X61312182Y-45091847D01*
X61305074Y-45067986D01*
X61293448Y-45045971D01*
X61277750Y-45026648D01*
X61258585Y-45010757D01*
X61236687Y-44998912D01*
X61212899Y-44991566D01*
X61187500Y-44989000D01*
X55589670Y-44989000D01*
X55607150Y-31892728D01*
X77043218Y-31845729D01*
X77044122Y-49916604D01*
M02*
