G04 #@! TF.GenerationSoftware,KiCad,Pcbnew,(5.1.5-0-10_14)*
G04 #@! TF.CreationDate,2020-04-19T22:53:18-04:00*
G04 #@! TF.ProjectId,RPi-pHat-Thermocouple,5250692d-7048-4617-942d-546865726d6f,rev?*
G04 #@! TF.SameCoordinates,Original*
G04 #@! TF.FileFunction,Soldermask,Top*
G04 #@! TF.FilePolarity,Negative*
%FSLAX46Y46*%
G04 Gerber Fmt 4.6, Leading zero omitted, Abs format (unit mm)*
G04 Created by KiCad (PCBNEW (5.1.5-0-10_14)) date 2020-04-19 22:53:18*
%MOMM*%
%LPD*%
G04 APERTURE LIST*
%ADD10R,1.801600X1.801600*%
%ADD11O,1.801600X1.801600*%
%ADD12R,0.501600X1.301600*%
%ADD13C,6.200000*%
%ADD14C,0.152400*%
%ADD15C,2.501600*%
%ADD16R,2.501600X2.501600*%
%ADD17R,0.901600X1.001600*%
%ADD18R,0.401600X0.891600*%
%ADD19R,1.251600X1.401600*%
%ADD20C,1.401600*%
%ADD21R,1.401600X1.401600*%
%ADD22R,1.101600X1.601600*%
%ADD23R,1.101600X1.901600*%
%ADD24R,2.301600X1.941600*%
%ADD25R,1.601600X1.101600*%
%ADD26R,1.901600X1.101600*%
%ADD27R,1.941600X2.301600*%
G04 APERTURE END LIST*
D10*
X33600000Y-40640000D03*
D11*
X33600000Y-38100000D03*
X36140000Y-40640000D03*
X36140000Y-38100000D03*
X38680000Y-40640000D03*
X38680000Y-38100000D03*
X41220000Y-40640000D03*
X41220000Y-38100000D03*
X43760000Y-40640000D03*
X43760000Y-38100000D03*
X46300000Y-40640000D03*
X46300000Y-38100000D03*
D12*
X66237500Y-41366000D03*
X66887500Y-41366000D03*
X67537500Y-41366000D03*
X68187500Y-41366000D03*
X68837500Y-41366000D03*
X69487500Y-41366000D03*
X70137500Y-41366000D03*
X70787500Y-41366000D03*
X70787500Y-34466000D03*
X70137500Y-34466000D03*
X69487500Y-34466000D03*
X68837500Y-34466000D03*
X68187500Y-34466000D03*
X67537500Y-34466000D03*
X66887500Y-34466000D03*
X66237500Y-34466000D03*
D13*
X74000000Y-77000000D03*
X16000000Y-77000000D03*
D14*
G36*
X29505581Y-62200376D02*
G01*
X29529281Y-62203891D01*
X29552523Y-62209713D01*
X29575082Y-62217785D01*
X29596742Y-62228029D01*
X29617292Y-62240347D01*
X29636537Y-62254619D01*
X29654290Y-62270710D01*
X29670381Y-62288463D01*
X29684653Y-62307708D01*
X29696971Y-62328258D01*
X29707215Y-62349918D01*
X29715287Y-62372477D01*
X29721109Y-62395719D01*
X29724624Y-62419419D01*
X29725800Y-62443350D01*
X29725800Y-62931650D01*
X29724624Y-62955581D01*
X29721109Y-62979281D01*
X29715287Y-63002523D01*
X29707215Y-63025082D01*
X29696971Y-63046742D01*
X29684653Y-63067292D01*
X29670381Y-63086537D01*
X29654290Y-63104290D01*
X29636537Y-63120381D01*
X29617292Y-63134653D01*
X29596742Y-63146971D01*
X29575082Y-63157215D01*
X29552523Y-63165287D01*
X29529281Y-63171109D01*
X29505581Y-63174624D01*
X29481650Y-63175800D01*
X28918350Y-63175800D01*
X28894419Y-63174624D01*
X28870719Y-63171109D01*
X28847477Y-63165287D01*
X28824918Y-63157215D01*
X28803258Y-63146971D01*
X28782708Y-63134653D01*
X28763463Y-63120381D01*
X28745710Y-63104290D01*
X28729619Y-63086537D01*
X28715347Y-63067292D01*
X28703029Y-63046742D01*
X28692785Y-63025082D01*
X28684713Y-63002523D01*
X28678891Y-62979281D01*
X28675376Y-62955581D01*
X28674200Y-62931650D01*
X28674200Y-62443350D01*
X28675376Y-62419419D01*
X28678891Y-62395719D01*
X28684713Y-62372477D01*
X28692785Y-62349918D01*
X28703029Y-62328258D01*
X28715347Y-62307708D01*
X28729619Y-62288463D01*
X28745710Y-62270710D01*
X28763463Y-62254619D01*
X28782708Y-62240347D01*
X28803258Y-62228029D01*
X28824918Y-62217785D01*
X28847477Y-62209713D01*
X28870719Y-62203891D01*
X28894419Y-62200376D01*
X28918350Y-62199200D01*
X29481650Y-62199200D01*
X29505581Y-62200376D01*
G37*
G36*
X29505581Y-60625376D02*
G01*
X29529281Y-60628891D01*
X29552523Y-60634713D01*
X29575082Y-60642785D01*
X29596742Y-60653029D01*
X29617292Y-60665347D01*
X29636537Y-60679619D01*
X29654290Y-60695710D01*
X29670381Y-60713463D01*
X29684653Y-60732708D01*
X29696971Y-60753258D01*
X29707215Y-60774918D01*
X29715287Y-60797477D01*
X29721109Y-60820719D01*
X29724624Y-60844419D01*
X29725800Y-60868350D01*
X29725800Y-61356650D01*
X29724624Y-61380581D01*
X29721109Y-61404281D01*
X29715287Y-61427523D01*
X29707215Y-61450082D01*
X29696971Y-61471742D01*
X29684653Y-61492292D01*
X29670381Y-61511537D01*
X29654290Y-61529290D01*
X29636537Y-61545381D01*
X29617292Y-61559653D01*
X29596742Y-61571971D01*
X29575082Y-61582215D01*
X29552523Y-61590287D01*
X29529281Y-61596109D01*
X29505581Y-61599624D01*
X29481650Y-61600800D01*
X28918350Y-61600800D01*
X28894419Y-61599624D01*
X28870719Y-61596109D01*
X28847477Y-61590287D01*
X28824918Y-61582215D01*
X28803258Y-61571971D01*
X28782708Y-61559653D01*
X28763463Y-61545381D01*
X28745710Y-61529290D01*
X28729619Y-61511537D01*
X28715347Y-61492292D01*
X28703029Y-61471742D01*
X28692785Y-61450082D01*
X28684713Y-61427523D01*
X28678891Y-61404281D01*
X28675376Y-61380581D01*
X28674200Y-61356650D01*
X28674200Y-60868350D01*
X28675376Y-60844419D01*
X28678891Y-60820719D01*
X28684713Y-60797477D01*
X28692785Y-60774918D01*
X28703029Y-60753258D01*
X28715347Y-60732708D01*
X28729619Y-60713463D01*
X28745710Y-60695710D01*
X28763463Y-60679619D01*
X28782708Y-60665347D01*
X28803258Y-60653029D01*
X28824918Y-60642785D01*
X28847477Y-60634713D01*
X28870719Y-60628891D01*
X28894419Y-60625376D01*
X28918350Y-60624200D01*
X29481650Y-60624200D01*
X29505581Y-60625376D01*
G37*
D15*
X74962500Y-68516000D03*
X71462500Y-68516000D03*
X67962500Y-68516000D03*
D16*
X64462500Y-68516000D03*
D14*
G36*
X58130092Y-37171045D02*
G01*
X58147119Y-37173570D01*
X58163816Y-37177753D01*
X58180023Y-37183552D01*
X58195583Y-37190911D01*
X58210347Y-37199760D01*
X58224173Y-37210014D01*
X58236927Y-37221573D01*
X58248486Y-37234327D01*
X58258740Y-37248153D01*
X58267589Y-37262917D01*
X58274948Y-37278477D01*
X58280747Y-37294684D01*
X58284930Y-37311381D01*
X58287455Y-37328408D01*
X58288300Y-37345600D01*
X58288300Y-37696400D01*
X58287455Y-37713592D01*
X58284930Y-37730619D01*
X58280747Y-37747316D01*
X58274948Y-37763523D01*
X58267589Y-37779083D01*
X58258740Y-37793847D01*
X58248486Y-37807673D01*
X58236927Y-37820427D01*
X58224173Y-37831986D01*
X58210347Y-37842240D01*
X58195583Y-37851089D01*
X58180023Y-37858448D01*
X58163816Y-37864247D01*
X58147119Y-37868430D01*
X58130092Y-37870955D01*
X58112900Y-37871800D01*
X56412100Y-37871800D01*
X56394908Y-37870955D01*
X56377881Y-37868430D01*
X56361184Y-37864247D01*
X56344977Y-37858448D01*
X56329417Y-37851089D01*
X56314653Y-37842240D01*
X56300827Y-37831986D01*
X56288073Y-37820427D01*
X56276514Y-37807673D01*
X56266260Y-37793847D01*
X56257411Y-37779083D01*
X56250052Y-37763523D01*
X56244253Y-37747316D01*
X56240070Y-37730619D01*
X56237545Y-37713592D01*
X56236700Y-37696400D01*
X56236700Y-37345600D01*
X56237545Y-37328408D01*
X56240070Y-37311381D01*
X56244253Y-37294684D01*
X56250052Y-37278477D01*
X56257411Y-37262917D01*
X56266260Y-37248153D01*
X56276514Y-37234327D01*
X56288073Y-37221573D01*
X56300827Y-37210014D01*
X56314653Y-37199760D01*
X56329417Y-37190911D01*
X56344977Y-37183552D01*
X56361184Y-37177753D01*
X56377881Y-37173570D01*
X56394908Y-37171045D01*
X56412100Y-37170200D01*
X58112900Y-37170200D01*
X58130092Y-37171045D01*
G37*
G36*
X58130092Y-35901045D02*
G01*
X58147119Y-35903570D01*
X58163816Y-35907753D01*
X58180023Y-35913552D01*
X58195583Y-35920911D01*
X58210347Y-35929760D01*
X58224173Y-35940014D01*
X58236927Y-35951573D01*
X58248486Y-35964327D01*
X58258740Y-35978153D01*
X58267589Y-35992917D01*
X58274948Y-36008477D01*
X58280747Y-36024684D01*
X58284930Y-36041381D01*
X58287455Y-36058408D01*
X58288300Y-36075600D01*
X58288300Y-36426400D01*
X58287455Y-36443592D01*
X58284930Y-36460619D01*
X58280747Y-36477316D01*
X58274948Y-36493523D01*
X58267589Y-36509083D01*
X58258740Y-36523847D01*
X58248486Y-36537673D01*
X58236927Y-36550427D01*
X58224173Y-36561986D01*
X58210347Y-36572240D01*
X58195583Y-36581089D01*
X58180023Y-36588448D01*
X58163816Y-36594247D01*
X58147119Y-36598430D01*
X58130092Y-36600955D01*
X58112900Y-36601800D01*
X56412100Y-36601800D01*
X56394908Y-36600955D01*
X56377881Y-36598430D01*
X56361184Y-36594247D01*
X56344977Y-36588448D01*
X56329417Y-36581089D01*
X56314653Y-36572240D01*
X56300827Y-36561986D01*
X56288073Y-36550427D01*
X56276514Y-36537673D01*
X56266260Y-36523847D01*
X56257411Y-36509083D01*
X56250052Y-36493523D01*
X56244253Y-36477316D01*
X56240070Y-36460619D01*
X56237545Y-36443592D01*
X56236700Y-36426400D01*
X56236700Y-36075600D01*
X56237545Y-36058408D01*
X56240070Y-36041381D01*
X56244253Y-36024684D01*
X56250052Y-36008477D01*
X56257411Y-35992917D01*
X56266260Y-35978153D01*
X56276514Y-35964327D01*
X56288073Y-35951573D01*
X56300827Y-35940014D01*
X56314653Y-35929760D01*
X56329417Y-35920911D01*
X56344977Y-35913552D01*
X56361184Y-35907753D01*
X56377881Y-35903570D01*
X56394908Y-35901045D01*
X56412100Y-35900200D01*
X58112900Y-35900200D01*
X58130092Y-35901045D01*
G37*
G36*
X58130092Y-34631045D02*
G01*
X58147119Y-34633570D01*
X58163816Y-34637753D01*
X58180023Y-34643552D01*
X58195583Y-34650911D01*
X58210347Y-34659760D01*
X58224173Y-34670014D01*
X58236927Y-34681573D01*
X58248486Y-34694327D01*
X58258740Y-34708153D01*
X58267589Y-34722917D01*
X58274948Y-34738477D01*
X58280747Y-34754684D01*
X58284930Y-34771381D01*
X58287455Y-34788408D01*
X58288300Y-34805600D01*
X58288300Y-35156400D01*
X58287455Y-35173592D01*
X58284930Y-35190619D01*
X58280747Y-35207316D01*
X58274948Y-35223523D01*
X58267589Y-35239083D01*
X58258740Y-35253847D01*
X58248486Y-35267673D01*
X58236927Y-35280427D01*
X58224173Y-35291986D01*
X58210347Y-35302240D01*
X58195583Y-35311089D01*
X58180023Y-35318448D01*
X58163816Y-35324247D01*
X58147119Y-35328430D01*
X58130092Y-35330955D01*
X58112900Y-35331800D01*
X56412100Y-35331800D01*
X56394908Y-35330955D01*
X56377881Y-35328430D01*
X56361184Y-35324247D01*
X56344977Y-35318448D01*
X56329417Y-35311089D01*
X56314653Y-35302240D01*
X56300827Y-35291986D01*
X56288073Y-35280427D01*
X56276514Y-35267673D01*
X56266260Y-35253847D01*
X56257411Y-35239083D01*
X56250052Y-35223523D01*
X56244253Y-35207316D01*
X56240070Y-35190619D01*
X56237545Y-35173592D01*
X56236700Y-35156400D01*
X56236700Y-34805600D01*
X56237545Y-34788408D01*
X56240070Y-34771381D01*
X56244253Y-34754684D01*
X56250052Y-34738477D01*
X56257411Y-34722917D01*
X56266260Y-34708153D01*
X56276514Y-34694327D01*
X56288073Y-34681573D01*
X56300827Y-34670014D01*
X56314653Y-34659760D01*
X56329417Y-34650911D01*
X56344977Y-34643552D01*
X56361184Y-34637753D01*
X56377881Y-34633570D01*
X56394908Y-34631045D01*
X56412100Y-34630200D01*
X58112900Y-34630200D01*
X58130092Y-34631045D01*
G37*
G36*
X58130092Y-33361045D02*
G01*
X58147119Y-33363570D01*
X58163816Y-33367753D01*
X58180023Y-33373552D01*
X58195583Y-33380911D01*
X58210347Y-33389760D01*
X58224173Y-33400014D01*
X58236927Y-33411573D01*
X58248486Y-33424327D01*
X58258740Y-33438153D01*
X58267589Y-33452917D01*
X58274948Y-33468477D01*
X58280747Y-33484684D01*
X58284930Y-33501381D01*
X58287455Y-33518408D01*
X58288300Y-33535600D01*
X58288300Y-33886400D01*
X58287455Y-33903592D01*
X58284930Y-33920619D01*
X58280747Y-33937316D01*
X58274948Y-33953523D01*
X58267589Y-33969083D01*
X58258740Y-33983847D01*
X58248486Y-33997673D01*
X58236927Y-34010427D01*
X58224173Y-34021986D01*
X58210347Y-34032240D01*
X58195583Y-34041089D01*
X58180023Y-34048448D01*
X58163816Y-34054247D01*
X58147119Y-34058430D01*
X58130092Y-34060955D01*
X58112900Y-34061800D01*
X56412100Y-34061800D01*
X56394908Y-34060955D01*
X56377881Y-34058430D01*
X56361184Y-34054247D01*
X56344977Y-34048448D01*
X56329417Y-34041089D01*
X56314653Y-34032240D01*
X56300827Y-34021986D01*
X56288073Y-34010427D01*
X56276514Y-33997673D01*
X56266260Y-33983847D01*
X56257411Y-33969083D01*
X56250052Y-33953523D01*
X56244253Y-33937316D01*
X56240070Y-33920619D01*
X56237545Y-33903592D01*
X56236700Y-33886400D01*
X56236700Y-33535600D01*
X56237545Y-33518408D01*
X56240070Y-33501381D01*
X56244253Y-33484684D01*
X56250052Y-33468477D01*
X56257411Y-33452917D01*
X56266260Y-33438153D01*
X56276514Y-33424327D01*
X56288073Y-33411573D01*
X56300827Y-33400014D01*
X56314653Y-33389760D01*
X56329417Y-33380911D01*
X56344977Y-33373552D01*
X56361184Y-33367753D01*
X56377881Y-33363570D01*
X56394908Y-33361045D01*
X56412100Y-33360200D01*
X58112900Y-33360200D01*
X58130092Y-33361045D01*
G37*
G36*
X53180092Y-33361045D02*
G01*
X53197119Y-33363570D01*
X53213816Y-33367753D01*
X53230023Y-33373552D01*
X53245583Y-33380911D01*
X53260347Y-33389760D01*
X53274173Y-33400014D01*
X53286927Y-33411573D01*
X53298486Y-33424327D01*
X53308740Y-33438153D01*
X53317589Y-33452917D01*
X53324948Y-33468477D01*
X53330747Y-33484684D01*
X53334930Y-33501381D01*
X53337455Y-33518408D01*
X53338300Y-33535600D01*
X53338300Y-33886400D01*
X53337455Y-33903592D01*
X53334930Y-33920619D01*
X53330747Y-33937316D01*
X53324948Y-33953523D01*
X53317589Y-33969083D01*
X53308740Y-33983847D01*
X53298486Y-33997673D01*
X53286927Y-34010427D01*
X53274173Y-34021986D01*
X53260347Y-34032240D01*
X53245583Y-34041089D01*
X53230023Y-34048448D01*
X53213816Y-34054247D01*
X53197119Y-34058430D01*
X53180092Y-34060955D01*
X53162900Y-34061800D01*
X51462100Y-34061800D01*
X51444908Y-34060955D01*
X51427881Y-34058430D01*
X51411184Y-34054247D01*
X51394977Y-34048448D01*
X51379417Y-34041089D01*
X51364653Y-34032240D01*
X51350827Y-34021986D01*
X51338073Y-34010427D01*
X51326514Y-33997673D01*
X51316260Y-33983847D01*
X51307411Y-33969083D01*
X51300052Y-33953523D01*
X51294253Y-33937316D01*
X51290070Y-33920619D01*
X51287545Y-33903592D01*
X51286700Y-33886400D01*
X51286700Y-33535600D01*
X51287545Y-33518408D01*
X51290070Y-33501381D01*
X51294253Y-33484684D01*
X51300052Y-33468477D01*
X51307411Y-33452917D01*
X51316260Y-33438153D01*
X51326514Y-33424327D01*
X51338073Y-33411573D01*
X51350827Y-33400014D01*
X51364653Y-33389760D01*
X51379417Y-33380911D01*
X51394977Y-33373552D01*
X51411184Y-33367753D01*
X51427881Y-33363570D01*
X51444908Y-33361045D01*
X51462100Y-33360200D01*
X53162900Y-33360200D01*
X53180092Y-33361045D01*
G37*
G36*
X53180092Y-34631045D02*
G01*
X53197119Y-34633570D01*
X53213816Y-34637753D01*
X53230023Y-34643552D01*
X53245583Y-34650911D01*
X53260347Y-34659760D01*
X53274173Y-34670014D01*
X53286927Y-34681573D01*
X53298486Y-34694327D01*
X53308740Y-34708153D01*
X53317589Y-34722917D01*
X53324948Y-34738477D01*
X53330747Y-34754684D01*
X53334930Y-34771381D01*
X53337455Y-34788408D01*
X53338300Y-34805600D01*
X53338300Y-35156400D01*
X53337455Y-35173592D01*
X53334930Y-35190619D01*
X53330747Y-35207316D01*
X53324948Y-35223523D01*
X53317589Y-35239083D01*
X53308740Y-35253847D01*
X53298486Y-35267673D01*
X53286927Y-35280427D01*
X53274173Y-35291986D01*
X53260347Y-35302240D01*
X53245583Y-35311089D01*
X53230023Y-35318448D01*
X53213816Y-35324247D01*
X53197119Y-35328430D01*
X53180092Y-35330955D01*
X53162900Y-35331800D01*
X51462100Y-35331800D01*
X51444908Y-35330955D01*
X51427881Y-35328430D01*
X51411184Y-35324247D01*
X51394977Y-35318448D01*
X51379417Y-35311089D01*
X51364653Y-35302240D01*
X51350827Y-35291986D01*
X51338073Y-35280427D01*
X51326514Y-35267673D01*
X51316260Y-35253847D01*
X51307411Y-35239083D01*
X51300052Y-35223523D01*
X51294253Y-35207316D01*
X51290070Y-35190619D01*
X51287545Y-35173592D01*
X51286700Y-35156400D01*
X51286700Y-34805600D01*
X51287545Y-34788408D01*
X51290070Y-34771381D01*
X51294253Y-34754684D01*
X51300052Y-34738477D01*
X51307411Y-34722917D01*
X51316260Y-34708153D01*
X51326514Y-34694327D01*
X51338073Y-34681573D01*
X51350827Y-34670014D01*
X51364653Y-34659760D01*
X51379417Y-34650911D01*
X51394977Y-34643552D01*
X51411184Y-34637753D01*
X51427881Y-34633570D01*
X51444908Y-34631045D01*
X51462100Y-34630200D01*
X53162900Y-34630200D01*
X53180092Y-34631045D01*
G37*
G36*
X53180092Y-35901045D02*
G01*
X53197119Y-35903570D01*
X53213816Y-35907753D01*
X53230023Y-35913552D01*
X53245583Y-35920911D01*
X53260347Y-35929760D01*
X53274173Y-35940014D01*
X53286927Y-35951573D01*
X53298486Y-35964327D01*
X53308740Y-35978153D01*
X53317589Y-35992917D01*
X53324948Y-36008477D01*
X53330747Y-36024684D01*
X53334930Y-36041381D01*
X53337455Y-36058408D01*
X53338300Y-36075600D01*
X53338300Y-36426400D01*
X53337455Y-36443592D01*
X53334930Y-36460619D01*
X53330747Y-36477316D01*
X53324948Y-36493523D01*
X53317589Y-36509083D01*
X53308740Y-36523847D01*
X53298486Y-36537673D01*
X53286927Y-36550427D01*
X53274173Y-36561986D01*
X53260347Y-36572240D01*
X53245583Y-36581089D01*
X53230023Y-36588448D01*
X53213816Y-36594247D01*
X53197119Y-36598430D01*
X53180092Y-36600955D01*
X53162900Y-36601800D01*
X51462100Y-36601800D01*
X51444908Y-36600955D01*
X51427881Y-36598430D01*
X51411184Y-36594247D01*
X51394977Y-36588448D01*
X51379417Y-36581089D01*
X51364653Y-36572240D01*
X51350827Y-36561986D01*
X51338073Y-36550427D01*
X51326514Y-36537673D01*
X51316260Y-36523847D01*
X51307411Y-36509083D01*
X51300052Y-36493523D01*
X51294253Y-36477316D01*
X51290070Y-36460619D01*
X51287545Y-36443592D01*
X51286700Y-36426400D01*
X51286700Y-36075600D01*
X51287545Y-36058408D01*
X51290070Y-36041381D01*
X51294253Y-36024684D01*
X51300052Y-36008477D01*
X51307411Y-35992917D01*
X51316260Y-35978153D01*
X51326514Y-35964327D01*
X51338073Y-35951573D01*
X51350827Y-35940014D01*
X51364653Y-35929760D01*
X51379417Y-35920911D01*
X51394977Y-35913552D01*
X51411184Y-35907753D01*
X51427881Y-35903570D01*
X51444908Y-35901045D01*
X51462100Y-35900200D01*
X53162900Y-35900200D01*
X53180092Y-35901045D01*
G37*
G36*
X53180092Y-37171045D02*
G01*
X53197119Y-37173570D01*
X53213816Y-37177753D01*
X53230023Y-37183552D01*
X53245583Y-37190911D01*
X53260347Y-37199760D01*
X53274173Y-37210014D01*
X53286927Y-37221573D01*
X53298486Y-37234327D01*
X53308740Y-37248153D01*
X53317589Y-37262917D01*
X53324948Y-37278477D01*
X53330747Y-37294684D01*
X53334930Y-37311381D01*
X53337455Y-37328408D01*
X53338300Y-37345600D01*
X53338300Y-37696400D01*
X53337455Y-37713592D01*
X53334930Y-37730619D01*
X53330747Y-37747316D01*
X53324948Y-37763523D01*
X53317589Y-37779083D01*
X53308740Y-37793847D01*
X53298486Y-37807673D01*
X53286927Y-37820427D01*
X53274173Y-37831986D01*
X53260347Y-37842240D01*
X53245583Y-37851089D01*
X53230023Y-37858448D01*
X53213816Y-37864247D01*
X53197119Y-37868430D01*
X53180092Y-37870955D01*
X53162900Y-37871800D01*
X51462100Y-37871800D01*
X51444908Y-37870955D01*
X51427881Y-37868430D01*
X51411184Y-37864247D01*
X51394977Y-37858448D01*
X51379417Y-37851089D01*
X51364653Y-37842240D01*
X51350827Y-37831986D01*
X51338073Y-37820427D01*
X51326514Y-37807673D01*
X51316260Y-37793847D01*
X51307411Y-37779083D01*
X51300052Y-37763523D01*
X51294253Y-37747316D01*
X51290070Y-37730619D01*
X51287545Y-37713592D01*
X51286700Y-37696400D01*
X51286700Y-37345600D01*
X51287545Y-37328408D01*
X51290070Y-37311381D01*
X51294253Y-37294684D01*
X51300052Y-37278477D01*
X51307411Y-37262917D01*
X51316260Y-37248153D01*
X51326514Y-37234327D01*
X51338073Y-37221573D01*
X51350827Y-37210014D01*
X51364653Y-37199760D01*
X51379417Y-37190911D01*
X51394977Y-37183552D01*
X51411184Y-37177753D01*
X51427881Y-37173570D01*
X51444908Y-37171045D01*
X51462100Y-37170200D01*
X53162900Y-37170200D01*
X53180092Y-37171045D01*
G37*
D15*
X58262500Y-68496000D03*
X54762500Y-68496000D03*
D16*
X51262500Y-68496000D03*
D15*
X46762500Y-68516000D03*
D16*
X43262500Y-68516000D03*
D15*
X38762500Y-68516000D03*
D16*
X35262500Y-68516000D03*
D15*
X30762500Y-68516000D03*
D16*
X27262500Y-68516000D03*
D15*
X22762500Y-68516000D03*
D16*
X19262500Y-68516000D03*
D14*
G36*
X14858031Y-32450496D02*
G01*
X14884159Y-32454372D01*
X14909780Y-32460790D01*
X14934649Y-32469688D01*
X14958526Y-32480981D01*
X14981182Y-32494560D01*
X15002397Y-32510294D01*
X15021968Y-32528032D01*
X15039706Y-32547603D01*
X15055440Y-32568818D01*
X15069019Y-32591474D01*
X15080312Y-32615351D01*
X15089210Y-32640220D01*
X15095628Y-32665841D01*
X15099504Y-32691969D01*
X15100800Y-32718350D01*
X15100800Y-33681650D01*
X15099504Y-33708031D01*
X15095628Y-33734159D01*
X15089210Y-33759780D01*
X15080312Y-33784649D01*
X15069019Y-33808526D01*
X15055440Y-33831182D01*
X15039706Y-33852397D01*
X15021968Y-33871968D01*
X15002397Y-33889706D01*
X14981182Y-33905440D01*
X14958526Y-33919019D01*
X14934649Y-33930312D01*
X14909780Y-33939210D01*
X14884159Y-33945628D01*
X14858031Y-33949504D01*
X14831650Y-33950800D01*
X14293350Y-33950800D01*
X14266969Y-33949504D01*
X14240841Y-33945628D01*
X14215220Y-33939210D01*
X14190351Y-33930312D01*
X14166474Y-33919019D01*
X14143818Y-33905440D01*
X14122603Y-33889706D01*
X14103032Y-33871968D01*
X14085294Y-33852397D01*
X14069560Y-33831182D01*
X14055981Y-33808526D01*
X14044688Y-33784649D01*
X14035790Y-33759780D01*
X14029372Y-33734159D01*
X14025496Y-33708031D01*
X14024200Y-33681650D01*
X14024200Y-32718350D01*
X14025496Y-32691969D01*
X14029372Y-32665841D01*
X14035790Y-32640220D01*
X14044688Y-32615351D01*
X14055981Y-32591474D01*
X14069560Y-32568818D01*
X14085294Y-32547603D01*
X14103032Y-32528032D01*
X14122603Y-32510294D01*
X14143818Y-32494560D01*
X14166474Y-32480981D01*
X14190351Y-32469688D01*
X14215220Y-32460790D01*
X14240841Y-32454372D01*
X14266969Y-32450496D01*
X14293350Y-32449200D01*
X14831650Y-32449200D01*
X14858031Y-32450496D01*
G37*
G36*
X16733031Y-32450496D02*
G01*
X16759159Y-32454372D01*
X16784780Y-32460790D01*
X16809649Y-32469688D01*
X16833526Y-32480981D01*
X16856182Y-32494560D01*
X16877397Y-32510294D01*
X16896968Y-32528032D01*
X16914706Y-32547603D01*
X16930440Y-32568818D01*
X16944019Y-32591474D01*
X16955312Y-32615351D01*
X16964210Y-32640220D01*
X16970628Y-32665841D01*
X16974504Y-32691969D01*
X16975800Y-32718350D01*
X16975800Y-33681650D01*
X16974504Y-33708031D01*
X16970628Y-33734159D01*
X16964210Y-33759780D01*
X16955312Y-33784649D01*
X16944019Y-33808526D01*
X16930440Y-33831182D01*
X16914706Y-33852397D01*
X16896968Y-33871968D01*
X16877397Y-33889706D01*
X16856182Y-33905440D01*
X16833526Y-33919019D01*
X16809649Y-33930312D01*
X16784780Y-33939210D01*
X16759159Y-33945628D01*
X16733031Y-33949504D01*
X16706650Y-33950800D01*
X16168350Y-33950800D01*
X16141969Y-33949504D01*
X16115841Y-33945628D01*
X16090220Y-33939210D01*
X16065351Y-33930312D01*
X16041474Y-33919019D01*
X16018818Y-33905440D01*
X15997603Y-33889706D01*
X15978032Y-33871968D01*
X15960294Y-33852397D01*
X15944560Y-33831182D01*
X15930981Y-33808526D01*
X15919688Y-33784649D01*
X15910790Y-33759780D01*
X15904372Y-33734159D01*
X15900496Y-33708031D01*
X15899200Y-33681650D01*
X15899200Y-32718350D01*
X15900496Y-32691969D01*
X15904372Y-32665841D01*
X15910790Y-32640220D01*
X15919688Y-32615351D01*
X15930981Y-32591474D01*
X15944560Y-32568818D01*
X15960294Y-32547603D01*
X15978032Y-32528032D01*
X15997603Y-32510294D01*
X16018818Y-32494560D01*
X16041474Y-32480981D01*
X16065351Y-32469688D01*
X16090220Y-32460790D01*
X16115841Y-32454372D01*
X16141969Y-32450496D01*
X16168350Y-32449200D01*
X16706650Y-32449200D01*
X16733031Y-32450496D01*
G37*
D17*
X27512500Y-61116000D03*
X25612500Y-61116000D03*
X26562500Y-63116000D03*
D13*
X16000000Y-51000000D03*
X74000000Y-28000000D03*
X74000000Y-51000000D03*
X16000000Y-28000000D03*
D14*
G36*
X29480581Y-56425376D02*
G01*
X29504281Y-56428891D01*
X29527523Y-56434713D01*
X29550082Y-56442785D01*
X29571742Y-56453029D01*
X29592292Y-56465347D01*
X29611537Y-56479619D01*
X29629290Y-56495710D01*
X29645381Y-56513463D01*
X29659653Y-56532708D01*
X29671971Y-56553258D01*
X29682215Y-56574918D01*
X29690287Y-56597477D01*
X29696109Y-56620719D01*
X29699624Y-56644419D01*
X29700800Y-56668350D01*
X29700800Y-57231650D01*
X29699624Y-57255581D01*
X29696109Y-57279281D01*
X29690287Y-57302523D01*
X29682215Y-57325082D01*
X29671971Y-57346742D01*
X29659653Y-57367292D01*
X29645381Y-57386537D01*
X29629290Y-57404290D01*
X29611537Y-57420381D01*
X29592292Y-57434653D01*
X29571742Y-57446971D01*
X29550082Y-57457215D01*
X29527523Y-57465287D01*
X29504281Y-57471109D01*
X29480581Y-57474624D01*
X29456650Y-57475800D01*
X28968350Y-57475800D01*
X28944419Y-57474624D01*
X28920719Y-57471109D01*
X28897477Y-57465287D01*
X28874918Y-57457215D01*
X28853258Y-57446971D01*
X28832708Y-57434653D01*
X28813463Y-57420381D01*
X28795710Y-57404290D01*
X28779619Y-57386537D01*
X28765347Y-57367292D01*
X28753029Y-57346742D01*
X28742785Y-57325082D01*
X28734713Y-57302523D01*
X28728891Y-57279281D01*
X28725376Y-57255581D01*
X28724200Y-57231650D01*
X28724200Y-56668350D01*
X28725376Y-56644419D01*
X28728891Y-56620719D01*
X28734713Y-56597477D01*
X28742785Y-56574918D01*
X28753029Y-56553258D01*
X28765347Y-56532708D01*
X28779619Y-56513463D01*
X28795710Y-56495710D01*
X28813463Y-56479619D01*
X28832708Y-56465347D01*
X28853258Y-56453029D01*
X28874918Y-56442785D01*
X28897477Y-56434713D01*
X28920719Y-56428891D01*
X28944419Y-56425376D01*
X28968350Y-56424200D01*
X29456650Y-56424200D01*
X29480581Y-56425376D01*
G37*
G36*
X31055581Y-56425376D02*
G01*
X31079281Y-56428891D01*
X31102523Y-56434713D01*
X31125082Y-56442785D01*
X31146742Y-56453029D01*
X31167292Y-56465347D01*
X31186537Y-56479619D01*
X31204290Y-56495710D01*
X31220381Y-56513463D01*
X31234653Y-56532708D01*
X31246971Y-56553258D01*
X31257215Y-56574918D01*
X31265287Y-56597477D01*
X31271109Y-56620719D01*
X31274624Y-56644419D01*
X31275800Y-56668350D01*
X31275800Y-57231650D01*
X31274624Y-57255581D01*
X31271109Y-57279281D01*
X31265287Y-57302523D01*
X31257215Y-57325082D01*
X31246971Y-57346742D01*
X31234653Y-57367292D01*
X31220381Y-57386537D01*
X31204290Y-57404290D01*
X31186537Y-57420381D01*
X31167292Y-57434653D01*
X31146742Y-57446971D01*
X31125082Y-57457215D01*
X31102523Y-57465287D01*
X31079281Y-57471109D01*
X31055581Y-57474624D01*
X31031650Y-57475800D01*
X30543350Y-57475800D01*
X30519419Y-57474624D01*
X30495719Y-57471109D01*
X30472477Y-57465287D01*
X30449918Y-57457215D01*
X30428258Y-57446971D01*
X30407708Y-57434653D01*
X30388463Y-57420381D01*
X30370710Y-57404290D01*
X30354619Y-57386537D01*
X30340347Y-57367292D01*
X30328029Y-57346742D01*
X30317785Y-57325082D01*
X30309713Y-57302523D01*
X30303891Y-57279281D01*
X30300376Y-57255581D01*
X30299200Y-57231650D01*
X30299200Y-56668350D01*
X30300376Y-56644419D01*
X30303891Y-56620719D01*
X30309713Y-56597477D01*
X30317785Y-56574918D01*
X30328029Y-56553258D01*
X30340347Y-56532708D01*
X30354619Y-56513463D01*
X30370710Y-56495710D01*
X30388463Y-56479619D01*
X30407708Y-56465347D01*
X30428258Y-56453029D01*
X30449918Y-56442785D01*
X30472477Y-56434713D01*
X30495719Y-56428891D01*
X30519419Y-56425376D01*
X30543350Y-56424200D01*
X31031650Y-56424200D01*
X31055581Y-56425376D01*
G37*
G36*
X27605581Y-58053376D02*
G01*
X27629281Y-58056891D01*
X27652523Y-58062713D01*
X27675082Y-58070785D01*
X27696742Y-58081029D01*
X27717292Y-58093347D01*
X27736537Y-58107619D01*
X27754290Y-58123710D01*
X27770381Y-58141463D01*
X27784653Y-58160708D01*
X27796971Y-58181258D01*
X27807215Y-58202918D01*
X27815287Y-58225477D01*
X27821109Y-58248719D01*
X27824624Y-58272419D01*
X27825800Y-58296350D01*
X27825800Y-58859650D01*
X27824624Y-58883581D01*
X27821109Y-58907281D01*
X27815287Y-58930523D01*
X27807215Y-58953082D01*
X27796971Y-58974742D01*
X27784653Y-58995292D01*
X27770381Y-59014537D01*
X27754290Y-59032290D01*
X27736537Y-59048381D01*
X27717292Y-59062653D01*
X27696742Y-59074971D01*
X27675082Y-59085215D01*
X27652523Y-59093287D01*
X27629281Y-59099109D01*
X27605581Y-59102624D01*
X27581650Y-59103800D01*
X27093350Y-59103800D01*
X27069419Y-59102624D01*
X27045719Y-59099109D01*
X27022477Y-59093287D01*
X26999918Y-59085215D01*
X26978258Y-59074971D01*
X26957708Y-59062653D01*
X26938463Y-59048381D01*
X26920710Y-59032290D01*
X26904619Y-59014537D01*
X26890347Y-58995292D01*
X26878029Y-58974742D01*
X26867785Y-58953082D01*
X26859713Y-58930523D01*
X26853891Y-58907281D01*
X26850376Y-58883581D01*
X26849200Y-58859650D01*
X26849200Y-58296350D01*
X26850376Y-58272419D01*
X26853891Y-58248719D01*
X26859713Y-58225477D01*
X26867785Y-58202918D01*
X26878029Y-58181258D01*
X26890347Y-58160708D01*
X26904619Y-58141463D01*
X26920710Y-58123710D01*
X26938463Y-58107619D01*
X26957708Y-58093347D01*
X26978258Y-58081029D01*
X26999918Y-58070785D01*
X27022477Y-58062713D01*
X27045719Y-58056891D01*
X27069419Y-58053376D01*
X27093350Y-58052200D01*
X27581650Y-58052200D01*
X27605581Y-58053376D01*
G37*
G36*
X26030581Y-58053376D02*
G01*
X26054281Y-58056891D01*
X26077523Y-58062713D01*
X26100082Y-58070785D01*
X26121742Y-58081029D01*
X26142292Y-58093347D01*
X26161537Y-58107619D01*
X26179290Y-58123710D01*
X26195381Y-58141463D01*
X26209653Y-58160708D01*
X26221971Y-58181258D01*
X26232215Y-58202918D01*
X26240287Y-58225477D01*
X26246109Y-58248719D01*
X26249624Y-58272419D01*
X26250800Y-58296350D01*
X26250800Y-58859650D01*
X26249624Y-58883581D01*
X26246109Y-58907281D01*
X26240287Y-58930523D01*
X26232215Y-58953082D01*
X26221971Y-58974742D01*
X26209653Y-58995292D01*
X26195381Y-59014537D01*
X26179290Y-59032290D01*
X26161537Y-59048381D01*
X26142292Y-59062653D01*
X26121742Y-59074971D01*
X26100082Y-59085215D01*
X26077523Y-59093287D01*
X26054281Y-59099109D01*
X26030581Y-59102624D01*
X26006650Y-59103800D01*
X25518350Y-59103800D01*
X25494419Y-59102624D01*
X25470719Y-59099109D01*
X25447477Y-59093287D01*
X25424918Y-59085215D01*
X25403258Y-59074971D01*
X25382708Y-59062653D01*
X25363463Y-59048381D01*
X25345710Y-59032290D01*
X25329619Y-59014537D01*
X25315347Y-58995292D01*
X25303029Y-58974742D01*
X25292785Y-58953082D01*
X25284713Y-58930523D01*
X25278891Y-58907281D01*
X25275376Y-58883581D01*
X25274200Y-58859650D01*
X25274200Y-58296350D01*
X25275376Y-58272419D01*
X25278891Y-58248719D01*
X25284713Y-58225477D01*
X25292785Y-58202918D01*
X25303029Y-58181258D01*
X25315347Y-58160708D01*
X25329619Y-58141463D01*
X25345710Y-58123710D01*
X25363463Y-58107619D01*
X25382708Y-58093347D01*
X25403258Y-58081029D01*
X25424918Y-58070785D01*
X25447477Y-58062713D01*
X25470719Y-58056891D01*
X25494419Y-58053376D01*
X25518350Y-58052200D01*
X26006650Y-58052200D01*
X26030581Y-58053376D01*
G37*
G36*
X38493081Y-45866376D02*
G01*
X38516781Y-45869891D01*
X38540023Y-45875713D01*
X38562582Y-45883785D01*
X38584242Y-45894029D01*
X38604792Y-45906347D01*
X38624037Y-45920619D01*
X38641790Y-45936710D01*
X38657881Y-45954463D01*
X38672153Y-45973708D01*
X38684471Y-45994258D01*
X38694715Y-46015918D01*
X38702787Y-46038477D01*
X38708609Y-46061719D01*
X38712124Y-46085419D01*
X38713300Y-46109350D01*
X38713300Y-46597650D01*
X38712124Y-46621581D01*
X38708609Y-46645281D01*
X38702787Y-46668523D01*
X38694715Y-46691082D01*
X38684471Y-46712742D01*
X38672153Y-46733292D01*
X38657881Y-46752537D01*
X38641790Y-46770290D01*
X38624037Y-46786381D01*
X38604792Y-46800653D01*
X38584242Y-46812971D01*
X38562582Y-46823215D01*
X38540023Y-46831287D01*
X38516781Y-46837109D01*
X38493081Y-46840624D01*
X38469150Y-46841800D01*
X37905850Y-46841800D01*
X37881919Y-46840624D01*
X37858219Y-46837109D01*
X37834977Y-46831287D01*
X37812418Y-46823215D01*
X37790758Y-46812971D01*
X37770208Y-46800653D01*
X37750963Y-46786381D01*
X37733210Y-46770290D01*
X37717119Y-46752537D01*
X37702847Y-46733292D01*
X37690529Y-46712742D01*
X37680285Y-46691082D01*
X37672213Y-46668523D01*
X37666391Y-46645281D01*
X37662876Y-46621581D01*
X37661700Y-46597650D01*
X37661700Y-46109350D01*
X37662876Y-46085419D01*
X37666391Y-46061719D01*
X37672213Y-46038477D01*
X37680285Y-46015918D01*
X37690529Y-45994258D01*
X37702847Y-45973708D01*
X37717119Y-45954463D01*
X37733210Y-45936710D01*
X37750963Y-45920619D01*
X37770208Y-45906347D01*
X37790758Y-45894029D01*
X37812418Y-45883785D01*
X37834977Y-45875713D01*
X37858219Y-45869891D01*
X37881919Y-45866376D01*
X37905850Y-45865200D01*
X38469150Y-45865200D01*
X38493081Y-45866376D01*
G37*
G36*
X38493081Y-44291376D02*
G01*
X38516781Y-44294891D01*
X38540023Y-44300713D01*
X38562582Y-44308785D01*
X38584242Y-44319029D01*
X38604792Y-44331347D01*
X38624037Y-44345619D01*
X38641790Y-44361710D01*
X38657881Y-44379463D01*
X38672153Y-44398708D01*
X38684471Y-44419258D01*
X38694715Y-44440918D01*
X38702787Y-44463477D01*
X38708609Y-44486719D01*
X38712124Y-44510419D01*
X38713300Y-44534350D01*
X38713300Y-45022650D01*
X38712124Y-45046581D01*
X38708609Y-45070281D01*
X38702787Y-45093523D01*
X38694715Y-45116082D01*
X38684471Y-45137742D01*
X38672153Y-45158292D01*
X38657881Y-45177537D01*
X38641790Y-45195290D01*
X38624037Y-45211381D01*
X38604792Y-45225653D01*
X38584242Y-45237971D01*
X38562582Y-45248215D01*
X38540023Y-45256287D01*
X38516781Y-45262109D01*
X38493081Y-45265624D01*
X38469150Y-45266800D01*
X37905850Y-45266800D01*
X37881919Y-45265624D01*
X37858219Y-45262109D01*
X37834977Y-45256287D01*
X37812418Y-45248215D01*
X37790758Y-45237971D01*
X37770208Y-45225653D01*
X37750963Y-45211381D01*
X37733210Y-45195290D01*
X37717119Y-45177537D01*
X37702847Y-45158292D01*
X37690529Y-45137742D01*
X37680285Y-45116082D01*
X37672213Y-45093523D01*
X37666391Y-45070281D01*
X37662876Y-45046581D01*
X37661700Y-45022650D01*
X37661700Y-44534350D01*
X37662876Y-44510419D01*
X37666391Y-44486719D01*
X37672213Y-44463477D01*
X37680285Y-44440918D01*
X37690529Y-44419258D01*
X37702847Y-44398708D01*
X37717119Y-44379463D01*
X37733210Y-44361710D01*
X37750963Y-44345619D01*
X37770208Y-44331347D01*
X37790758Y-44319029D01*
X37812418Y-44308785D01*
X37834977Y-44300713D01*
X37858219Y-44294891D01*
X37881919Y-44291376D01*
X37905850Y-44290200D01*
X38469150Y-44290200D01*
X38493081Y-44291376D01*
G37*
G36*
X39980581Y-56175376D02*
G01*
X40004281Y-56178891D01*
X40027523Y-56184713D01*
X40050082Y-56192785D01*
X40071742Y-56203029D01*
X40092292Y-56215347D01*
X40111537Y-56229619D01*
X40129290Y-56245710D01*
X40145381Y-56263463D01*
X40159653Y-56282708D01*
X40171971Y-56303258D01*
X40182215Y-56324918D01*
X40190287Y-56347477D01*
X40196109Y-56370719D01*
X40199624Y-56394419D01*
X40200800Y-56418350D01*
X40200800Y-56981650D01*
X40199624Y-57005581D01*
X40196109Y-57029281D01*
X40190287Y-57052523D01*
X40182215Y-57075082D01*
X40171971Y-57096742D01*
X40159653Y-57117292D01*
X40145381Y-57136537D01*
X40129290Y-57154290D01*
X40111537Y-57170381D01*
X40092292Y-57184653D01*
X40071742Y-57196971D01*
X40050082Y-57207215D01*
X40027523Y-57215287D01*
X40004281Y-57221109D01*
X39980581Y-57224624D01*
X39956650Y-57225800D01*
X39468350Y-57225800D01*
X39444419Y-57224624D01*
X39420719Y-57221109D01*
X39397477Y-57215287D01*
X39374918Y-57207215D01*
X39353258Y-57196971D01*
X39332708Y-57184653D01*
X39313463Y-57170381D01*
X39295710Y-57154290D01*
X39279619Y-57136537D01*
X39265347Y-57117292D01*
X39253029Y-57096742D01*
X39242785Y-57075082D01*
X39234713Y-57052523D01*
X39228891Y-57029281D01*
X39225376Y-57005581D01*
X39224200Y-56981650D01*
X39224200Y-56418350D01*
X39225376Y-56394419D01*
X39228891Y-56370719D01*
X39234713Y-56347477D01*
X39242785Y-56324918D01*
X39253029Y-56303258D01*
X39265347Y-56282708D01*
X39279619Y-56263463D01*
X39295710Y-56245710D01*
X39313463Y-56229619D01*
X39332708Y-56215347D01*
X39353258Y-56203029D01*
X39374918Y-56192785D01*
X39397477Y-56184713D01*
X39420719Y-56178891D01*
X39444419Y-56175376D01*
X39468350Y-56174200D01*
X39956650Y-56174200D01*
X39980581Y-56175376D01*
G37*
G36*
X41555581Y-56175376D02*
G01*
X41579281Y-56178891D01*
X41602523Y-56184713D01*
X41625082Y-56192785D01*
X41646742Y-56203029D01*
X41667292Y-56215347D01*
X41686537Y-56229619D01*
X41704290Y-56245710D01*
X41720381Y-56263463D01*
X41734653Y-56282708D01*
X41746971Y-56303258D01*
X41757215Y-56324918D01*
X41765287Y-56347477D01*
X41771109Y-56370719D01*
X41774624Y-56394419D01*
X41775800Y-56418350D01*
X41775800Y-56981650D01*
X41774624Y-57005581D01*
X41771109Y-57029281D01*
X41765287Y-57052523D01*
X41757215Y-57075082D01*
X41746971Y-57096742D01*
X41734653Y-57117292D01*
X41720381Y-57136537D01*
X41704290Y-57154290D01*
X41686537Y-57170381D01*
X41667292Y-57184653D01*
X41646742Y-57196971D01*
X41625082Y-57207215D01*
X41602523Y-57215287D01*
X41579281Y-57221109D01*
X41555581Y-57224624D01*
X41531650Y-57225800D01*
X41043350Y-57225800D01*
X41019419Y-57224624D01*
X40995719Y-57221109D01*
X40972477Y-57215287D01*
X40949918Y-57207215D01*
X40928258Y-57196971D01*
X40907708Y-57184653D01*
X40888463Y-57170381D01*
X40870710Y-57154290D01*
X40854619Y-57136537D01*
X40840347Y-57117292D01*
X40828029Y-57096742D01*
X40817785Y-57075082D01*
X40809713Y-57052523D01*
X40803891Y-57029281D01*
X40800376Y-57005581D01*
X40799200Y-56981650D01*
X40799200Y-56418350D01*
X40800376Y-56394419D01*
X40803891Y-56370719D01*
X40809713Y-56347477D01*
X40817785Y-56324918D01*
X40828029Y-56303258D01*
X40840347Y-56282708D01*
X40854619Y-56263463D01*
X40870710Y-56245710D01*
X40888463Y-56229619D01*
X40907708Y-56215347D01*
X40928258Y-56203029D01*
X40949918Y-56192785D01*
X40972477Y-56184713D01*
X40995719Y-56178891D01*
X41019419Y-56175376D01*
X41043350Y-56174200D01*
X41531650Y-56174200D01*
X41555581Y-56175376D01*
G37*
G36*
X37515581Y-57803376D02*
G01*
X37539281Y-57806891D01*
X37562523Y-57812713D01*
X37585082Y-57820785D01*
X37606742Y-57831029D01*
X37627292Y-57843347D01*
X37646537Y-57857619D01*
X37664290Y-57873710D01*
X37680381Y-57891463D01*
X37694653Y-57910708D01*
X37706971Y-57931258D01*
X37717215Y-57952918D01*
X37725287Y-57975477D01*
X37731109Y-57998719D01*
X37734624Y-58022419D01*
X37735800Y-58046350D01*
X37735800Y-58609650D01*
X37734624Y-58633581D01*
X37731109Y-58657281D01*
X37725287Y-58680523D01*
X37717215Y-58703082D01*
X37706971Y-58724742D01*
X37694653Y-58745292D01*
X37680381Y-58764537D01*
X37664290Y-58782290D01*
X37646537Y-58798381D01*
X37627292Y-58812653D01*
X37606742Y-58824971D01*
X37585082Y-58835215D01*
X37562523Y-58843287D01*
X37539281Y-58849109D01*
X37515581Y-58852624D01*
X37491650Y-58853800D01*
X37003350Y-58853800D01*
X36979419Y-58852624D01*
X36955719Y-58849109D01*
X36932477Y-58843287D01*
X36909918Y-58835215D01*
X36888258Y-58824971D01*
X36867708Y-58812653D01*
X36848463Y-58798381D01*
X36830710Y-58782290D01*
X36814619Y-58764537D01*
X36800347Y-58745292D01*
X36788029Y-58724742D01*
X36777785Y-58703082D01*
X36769713Y-58680523D01*
X36763891Y-58657281D01*
X36760376Y-58633581D01*
X36759200Y-58609650D01*
X36759200Y-58046350D01*
X36760376Y-58022419D01*
X36763891Y-57998719D01*
X36769713Y-57975477D01*
X36777785Y-57952918D01*
X36788029Y-57931258D01*
X36800347Y-57910708D01*
X36814619Y-57891463D01*
X36830710Y-57873710D01*
X36848463Y-57857619D01*
X36867708Y-57843347D01*
X36888258Y-57831029D01*
X36909918Y-57820785D01*
X36932477Y-57812713D01*
X36955719Y-57806891D01*
X36979419Y-57803376D01*
X37003350Y-57802200D01*
X37491650Y-57802200D01*
X37515581Y-57803376D01*
G37*
G36*
X35940581Y-57803376D02*
G01*
X35964281Y-57806891D01*
X35987523Y-57812713D01*
X36010082Y-57820785D01*
X36031742Y-57831029D01*
X36052292Y-57843347D01*
X36071537Y-57857619D01*
X36089290Y-57873710D01*
X36105381Y-57891463D01*
X36119653Y-57910708D01*
X36131971Y-57931258D01*
X36142215Y-57952918D01*
X36150287Y-57975477D01*
X36156109Y-57998719D01*
X36159624Y-58022419D01*
X36160800Y-58046350D01*
X36160800Y-58609650D01*
X36159624Y-58633581D01*
X36156109Y-58657281D01*
X36150287Y-58680523D01*
X36142215Y-58703082D01*
X36131971Y-58724742D01*
X36119653Y-58745292D01*
X36105381Y-58764537D01*
X36089290Y-58782290D01*
X36071537Y-58798381D01*
X36052292Y-58812653D01*
X36031742Y-58824971D01*
X36010082Y-58835215D01*
X35987523Y-58843287D01*
X35964281Y-58849109D01*
X35940581Y-58852624D01*
X35916650Y-58853800D01*
X35428350Y-58853800D01*
X35404419Y-58852624D01*
X35380719Y-58849109D01*
X35357477Y-58843287D01*
X35334918Y-58835215D01*
X35313258Y-58824971D01*
X35292708Y-58812653D01*
X35273463Y-58798381D01*
X35255710Y-58782290D01*
X35239619Y-58764537D01*
X35225347Y-58745292D01*
X35213029Y-58724742D01*
X35202785Y-58703082D01*
X35194713Y-58680523D01*
X35188891Y-58657281D01*
X35185376Y-58633581D01*
X35184200Y-58609650D01*
X35184200Y-58046350D01*
X35185376Y-58022419D01*
X35188891Y-57998719D01*
X35194713Y-57975477D01*
X35202785Y-57952918D01*
X35213029Y-57931258D01*
X35225347Y-57910708D01*
X35239619Y-57891463D01*
X35255710Y-57873710D01*
X35273463Y-57857619D01*
X35292708Y-57843347D01*
X35313258Y-57831029D01*
X35334918Y-57820785D01*
X35357477Y-57812713D01*
X35380719Y-57806891D01*
X35404419Y-57803376D01*
X35428350Y-57802200D01*
X35916650Y-57802200D01*
X35940581Y-57803376D01*
G37*
G36*
X50468081Y-56366376D02*
G01*
X50491781Y-56369891D01*
X50515023Y-56375713D01*
X50537582Y-56383785D01*
X50559242Y-56394029D01*
X50579792Y-56406347D01*
X50599037Y-56420619D01*
X50616790Y-56436710D01*
X50632881Y-56454463D01*
X50647153Y-56473708D01*
X50659471Y-56494258D01*
X50669715Y-56515918D01*
X50677787Y-56538477D01*
X50683609Y-56561719D01*
X50687124Y-56585419D01*
X50688300Y-56609350D01*
X50688300Y-57172650D01*
X50687124Y-57196581D01*
X50683609Y-57220281D01*
X50677787Y-57243523D01*
X50669715Y-57266082D01*
X50659471Y-57287742D01*
X50647153Y-57308292D01*
X50632881Y-57327537D01*
X50616790Y-57345290D01*
X50599037Y-57361381D01*
X50579792Y-57375653D01*
X50559242Y-57387971D01*
X50537582Y-57398215D01*
X50515023Y-57406287D01*
X50491781Y-57412109D01*
X50468081Y-57415624D01*
X50444150Y-57416800D01*
X49955850Y-57416800D01*
X49931919Y-57415624D01*
X49908219Y-57412109D01*
X49884977Y-57406287D01*
X49862418Y-57398215D01*
X49840758Y-57387971D01*
X49820208Y-57375653D01*
X49800963Y-57361381D01*
X49783210Y-57345290D01*
X49767119Y-57327537D01*
X49752847Y-57308292D01*
X49740529Y-57287742D01*
X49730285Y-57266082D01*
X49722213Y-57243523D01*
X49716391Y-57220281D01*
X49712876Y-57196581D01*
X49711700Y-57172650D01*
X49711700Y-56609350D01*
X49712876Y-56585419D01*
X49716391Y-56561719D01*
X49722213Y-56538477D01*
X49730285Y-56515918D01*
X49740529Y-56494258D01*
X49752847Y-56473708D01*
X49767119Y-56454463D01*
X49783210Y-56436710D01*
X49800963Y-56420619D01*
X49820208Y-56406347D01*
X49840758Y-56394029D01*
X49862418Y-56383785D01*
X49884977Y-56375713D01*
X49908219Y-56369891D01*
X49931919Y-56366376D01*
X49955850Y-56365200D01*
X50444150Y-56365200D01*
X50468081Y-56366376D01*
G37*
G36*
X52043081Y-56366376D02*
G01*
X52066781Y-56369891D01*
X52090023Y-56375713D01*
X52112582Y-56383785D01*
X52134242Y-56394029D01*
X52154792Y-56406347D01*
X52174037Y-56420619D01*
X52191790Y-56436710D01*
X52207881Y-56454463D01*
X52222153Y-56473708D01*
X52234471Y-56494258D01*
X52244715Y-56515918D01*
X52252787Y-56538477D01*
X52258609Y-56561719D01*
X52262124Y-56585419D01*
X52263300Y-56609350D01*
X52263300Y-57172650D01*
X52262124Y-57196581D01*
X52258609Y-57220281D01*
X52252787Y-57243523D01*
X52244715Y-57266082D01*
X52234471Y-57287742D01*
X52222153Y-57308292D01*
X52207881Y-57327537D01*
X52191790Y-57345290D01*
X52174037Y-57361381D01*
X52154792Y-57375653D01*
X52134242Y-57387971D01*
X52112582Y-57398215D01*
X52090023Y-57406287D01*
X52066781Y-57412109D01*
X52043081Y-57415624D01*
X52019150Y-57416800D01*
X51530850Y-57416800D01*
X51506919Y-57415624D01*
X51483219Y-57412109D01*
X51459977Y-57406287D01*
X51437418Y-57398215D01*
X51415758Y-57387971D01*
X51395208Y-57375653D01*
X51375963Y-57361381D01*
X51358210Y-57345290D01*
X51342119Y-57327537D01*
X51327847Y-57308292D01*
X51315529Y-57287742D01*
X51305285Y-57266082D01*
X51297213Y-57243523D01*
X51291391Y-57220281D01*
X51287876Y-57196581D01*
X51286700Y-57172650D01*
X51286700Y-56609350D01*
X51287876Y-56585419D01*
X51291391Y-56561719D01*
X51297213Y-56538477D01*
X51305285Y-56515918D01*
X51315529Y-56494258D01*
X51327847Y-56473708D01*
X51342119Y-56454463D01*
X51358210Y-56436710D01*
X51375963Y-56420619D01*
X51395208Y-56406347D01*
X51415758Y-56394029D01*
X51437418Y-56383785D01*
X51459977Y-56375713D01*
X51483219Y-56369891D01*
X51506919Y-56366376D01*
X51530850Y-56365200D01*
X52019150Y-56365200D01*
X52043081Y-56366376D01*
G37*
G36*
X48175581Y-57803376D02*
G01*
X48199281Y-57806891D01*
X48222523Y-57812713D01*
X48245082Y-57820785D01*
X48266742Y-57831029D01*
X48287292Y-57843347D01*
X48306537Y-57857619D01*
X48324290Y-57873710D01*
X48340381Y-57891463D01*
X48354653Y-57910708D01*
X48366971Y-57931258D01*
X48377215Y-57952918D01*
X48385287Y-57975477D01*
X48391109Y-57998719D01*
X48394624Y-58022419D01*
X48395800Y-58046350D01*
X48395800Y-58609650D01*
X48394624Y-58633581D01*
X48391109Y-58657281D01*
X48385287Y-58680523D01*
X48377215Y-58703082D01*
X48366971Y-58724742D01*
X48354653Y-58745292D01*
X48340381Y-58764537D01*
X48324290Y-58782290D01*
X48306537Y-58798381D01*
X48287292Y-58812653D01*
X48266742Y-58824971D01*
X48245082Y-58835215D01*
X48222523Y-58843287D01*
X48199281Y-58849109D01*
X48175581Y-58852624D01*
X48151650Y-58853800D01*
X47663350Y-58853800D01*
X47639419Y-58852624D01*
X47615719Y-58849109D01*
X47592477Y-58843287D01*
X47569918Y-58835215D01*
X47548258Y-58824971D01*
X47527708Y-58812653D01*
X47508463Y-58798381D01*
X47490710Y-58782290D01*
X47474619Y-58764537D01*
X47460347Y-58745292D01*
X47448029Y-58724742D01*
X47437785Y-58703082D01*
X47429713Y-58680523D01*
X47423891Y-58657281D01*
X47420376Y-58633581D01*
X47419200Y-58609650D01*
X47419200Y-58046350D01*
X47420376Y-58022419D01*
X47423891Y-57998719D01*
X47429713Y-57975477D01*
X47437785Y-57952918D01*
X47448029Y-57931258D01*
X47460347Y-57910708D01*
X47474619Y-57891463D01*
X47490710Y-57873710D01*
X47508463Y-57857619D01*
X47527708Y-57843347D01*
X47548258Y-57831029D01*
X47569918Y-57820785D01*
X47592477Y-57812713D01*
X47615719Y-57806891D01*
X47639419Y-57803376D01*
X47663350Y-57802200D01*
X48151650Y-57802200D01*
X48175581Y-57803376D01*
G37*
G36*
X46600581Y-57803376D02*
G01*
X46624281Y-57806891D01*
X46647523Y-57812713D01*
X46670082Y-57820785D01*
X46691742Y-57831029D01*
X46712292Y-57843347D01*
X46731537Y-57857619D01*
X46749290Y-57873710D01*
X46765381Y-57891463D01*
X46779653Y-57910708D01*
X46791971Y-57931258D01*
X46802215Y-57952918D01*
X46810287Y-57975477D01*
X46816109Y-57998719D01*
X46819624Y-58022419D01*
X46820800Y-58046350D01*
X46820800Y-58609650D01*
X46819624Y-58633581D01*
X46816109Y-58657281D01*
X46810287Y-58680523D01*
X46802215Y-58703082D01*
X46791971Y-58724742D01*
X46779653Y-58745292D01*
X46765381Y-58764537D01*
X46749290Y-58782290D01*
X46731537Y-58798381D01*
X46712292Y-58812653D01*
X46691742Y-58824971D01*
X46670082Y-58835215D01*
X46647523Y-58843287D01*
X46624281Y-58849109D01*
X46600581Y-58852624D01*
X46576650Y-58853800D01*
X46088350Y-58853800D01*
X46064419Y-58852624D01*
X46040719Y-58849109D01*
X46017477Y-58843287D01*
X45994918Y-58835215D01*
X45973258Y-58824971D01*
X45952708Y-58812653D01*
X45933463Y-58798381D01*
X45915710Y-58782290D01*
X45899619Y-58764537D01*
X45885347Y-58745292D01*
X45873029Y-58724742D01*
X45862785Y-58703082D01*
X45854713Y-58680523D01*
X45848891Y-58657281D01*
X45845376Y-58633581D01*
X45844200Y-58609650D01*
X45844200Y-58046350D01*
X45845376Y-58022419D01*
X45848891Y-57998719D01*
X45854713Y-57975477D01*
X45862785Y-57952918D01*
X45873029Y-57931258D01*
X45885347Y-57910708D01*
X45899619Y-57891463D01*
X45915710Y-57873710D01*
X45933463Y-57857619D01*
X45952708Y-57843347D01*
X45973258Y-57831029D01*
X45994918Y-57820785D01*
X46017477Y-57812713D01*
X46040719Y-57806891D01*
X46064419Y-57803376D01*
X46088350Y-57802200D01*
X46576650Y-57802200D01*
X46600581Y-57803376D01*
G37*
G36*
X31055581Y-58075376D02*
G01*
X31079281Y-58078891D01*
X31102523Y-58084713D01*
X31125082Y-58092785D01*
X31146742Y-58103029D01*
X31167292Y-58115347D01*
X31186537Y-58129619D01*
X31204290Y-58145710D01*
X31220381Y-58163463D01*
X31234653Y-58182708D01*
X31246971Y-58203258D01*
X31257215Y-58224918D01*
X31265287Y-58247477D01*
X31271109Y-58270719D01*
X31274624Y-58294419D01*
X31275800Y-58318350D01*
X31275800Y-58881650D01*
X31274624Y-58905581D01*
X31271109Y-58929281D01*
X31265287Y-58952523D01*
X31257215Y-58975082D01*
X31246971Y-58996742D01*
X31234653Y-59017292D01*
X31220381Y-59036537D01*
X31204290Y-59054290D01*
X31186537Y-59070381D01*
X31167292Y-59084653D01*
X31146742Y-59096971D01*
X31125082Y-59107215D01*
X31102523Y-59115287D01*
X31079281Y-59121109D01*
X31055581Y-59124624D01*
X31031650Y-59125800D01*
X30543350Y-59125800D01*
X30519419Y-59124624D01*
X30495719Y-59121109D01*
X30472477Y-59115287D01*
X30449918Y-59107215D01*
X30428258Y-59096971D01*
X30407708Y-59084653D01*
X30388463Y-59070381D01*
X30370710Y-59054290D01*
X30354619Y-59036537D01*
X30340347Y-59017292D01*
X30328029Y-58996742D01*
X30317785Y-58975082D01*
X30309713Y-58952523D01*
X30303891Y-58929281D01*
X30300376Y-58905581D01*
X30299200Y-58881650D01*
X30299200Y-58318350D01*
X30300376Y-58294419D01*
X30303891Y-58270719D01*
X30309713Y-58247477D01*
X30317785Y-58224918D01*
X30328029Y-58203258D01*
X30340347Y-58182708D01*
X30354619Y-58163463D01*
X30370710Y-58145710D01*
X30388463Y-58129619D01*
X30407708Y-58115347D01*
X30428258Y-58103029D01*
X30449918Y-58092785D01*
X30472477Y-58084713D01*
X30495719Y-58078891D01*
X30519419Y-58075376D01*
X30543350Y-58074200D01*
X31031650Y-58074200D01*
X31055581Y-58075376D01*
G37*
G36*
X29480581Y-58075376D02*
G01*
X29504281Y-58078891D01*
X29527523Y-58084713D01*
X29550082Y-58092785D01*
X29571742Y-58103029D01*
X29592292Y-58115347D01*
X29611537Y-58129619D01*
X29629290Y-58145710D01*
X29645381Y-58163463D01*
X29659653Y-58182708D01*
X29671971Y-58203258D01*
X29682215Y-58224918D01*
X29690287Y-58247477D01*
X29696109Y-58270719D01*
X29699624Y-58294419D01*
X29700800Y-58318350D01*
X29700800Y-58881650D01*
X29699624Y-58905581D01*
X29696109Y-58929281D01*
X29690287Y-58952523D01*
X29682215Y-58975082D01*
X29671971Y-58996742D01*
X29659653Y-59017292D01*
X29645381Y-59036537D01*
X29629290Y-59054290D01*
X29611537Y-59070381D01*
X29592292Y-59084653D01*
X29571742Y-59096971D01*
X29550082Y-59107215D01*
X29527523Y-59115287D01*
X29504281Y-59121109D01*
X29480581Y-59124624D01*
X29456650Y-59125800D01*
X28968350Y-59125800D01*
X28944419Y-59124624D01*
X28920719Y-59121109D01*
X28897477Y-59115287D01*
X28874918Y-59107215D01*
X28853258Y-59096971D01*
X28832708Y-59084653D01*
X28813463Y-59070381D01*
X28795710Y-59054290D01*
X28779619Y-59036537D01*
X28765347Y-59017292D01*
X28753029Y-58996742D01*
X28742785Y-58975082D01*
X28734713Y-58952523D01*
X28728891Y-58929281D01*
X28725376Y-58905581D01*
X28724200Y-58881650D01*
X28724200Y-58318350D01*
X28725376Y-58294419D01*
X28728891Y-58270719D01*
X28734713Y-58247477D01*
X28742785Y-58224918D01*
X28753029Y-58203258D01*
X28765347Y-58182708D01*
X28779619Y-58163463D01*
X28795710Y-58145710D01*
X28813463Y-58129619D01*
X28832708Y-58115347D01*
X28853258Y-58103029D01*
X28874918Y-58092785D01*
X28897477Y-58084713D01*
X28920719Y-58078891D01*
X28944419Y-58075376D01*
X28968350Y-58074200D01*
X29456650Y-58074200D01*
X29480581Y-58075376D01*
G37*
G36*
X39980581Y-57785376D02*
G01*
X40004281Y-57788891D01*
X40027523Y-57794713D01*
X40050082Y-57802785D01*
X40071742Y-57813029D01*
X40092292Y-57825347D01*
X40111537Y-57839619D01*
X40129290Y-57855710D01*
X40145381Y-57873463D01*
X40159653Y-57892708D01*
X40171971Y-57913258D01*
X40182215Y-57934918D01*
X40190287Y-57957477D01*
X40196109Y-57980719D01*
X40199624Y-58004419D01*
X40200800Y-58028350D01*
X40200800Y-58591650D01*
X40199624Y-58615581D01*
X40196109Y-58639281D01*
X40190287Y-58662523D01*
X40182215Y-58685082D01*
X40171971Y-58706742D01*
X40159653Y-58727292D01*
X40145381Y-58746537D01*
X40129290Y-58764290D01*
X40111537Y-58780381D01*
X40092292Y-58794653D01*
X40071742Y-58806971D01*
X40050082Y-58817215D01*
X40027523Y-58825287D01*
X40004281Y-58831109D01*
X39980581Y-58834624D01*
X39956650Y-58835800D01*
X39468350Y-58835800D01*
X39444419Y-58834624D01*
X39420719Y-58831109D01*
X39397477Y-58825287D01*
X39374918Y-58817215D01*
X39353258Y-58806971D01*
X39332708Y-58794653D01*
X39313463Y-58780381D01*
X39295710Y-58764290D01*
X39279619Y-58746537D01*
X39265347Y-58727292D01*
X39253029Y-58706742D01*
X39242785Y-58685082D01*
X39234713Y-58662523D01*
X39228891Y-58639281D01*
X39225376Y-58615581D01*
X39224200Y-58591650D01*
X39224200Y-58028350D01*
X39225376Y-58004419D01*
X39228891Y-57980719D01*
X39234713Y-57957477D01*
X39242785Y-57934918D01*
X39253029Y-57913258D01*
X39265347Y-57892708D01*
X39279619Y-57873463D01*
X39295710Y-57855710D01*
X39313463Y-57839619D01*
X39332708Y-57825347D01*
X39353258Y-57813029D01*
X39374918Y-57802785D01*
X39397477Y-57794713D01*
X39420719Y-57788891D01*
X39444419Y-57785376D01*
X39468350Y-57784200D01*
X39956650Y-57784200D01*
X39980581Y-57785376D01*
G37*
G36*
X41555581Y-57785376D02*
G01*
X41579281Y-57788891D01*
X41602523Y-57794713D01*
X41625082Y-57802785D01*
X41646742Y-57813029D01*
X41667292Y-57825347D01*
X41686537Y-57839619D01*
X41704290Y-57855710D01*
X41720381Y-57873463D01*
X41734653Y-57892708D01*
X41746971Y-57913258D01*
X41757215Y-57934918D01*
X41765287Y-57957477D01*
X41771109Y-57980719D01*
X41774624Y-58004419D01*
X41775800Y-58028350D01*
X41775800Y-58591650D01*
X41774624Y-58615581D01*
X41771109Y-58639281D01*
X41765287Y-58662523D01*
X41757215Y-58685082D01*
X41746971Y-58706742D01*
X41734653Y-58727292D01*
X41720381Y-58746537D01*
X41704290Y-58764290D01*
X41686537Y-58780381D01*
X41667292Y-58794653D01*
X41646742Y-58806971D01*
X41625082Y-58817215D01*
X41602523Y-58825287D01*
X41579281Y-58831109D01*
X41555581Y-58834624D01*
X41531650Y-58835800D01*
X41043350Y-58835800D01*
X41019419Y-58834624D01*
X40995719Y-58831109D01*
X40972477Y-58825287D01*
X40949918Y-58817215D01*
X40928258Y-58806971D01*
X40907708Y-58794653D01*
X40888463Y-58780381D01*
X40870710Y-58764290D01*
X40854619Y-58746537D01*
X40840347Y-58727292D01*
X40828029Y-58706742D01*
X40817785Y-58685082D01*
X40809713Y-58662523D01*
X40803891Y-58639281D01*
X40800376Y-58615581D01*
X40799200Y-58591650D01*
X40799200Y-58028350D01*
X40800376Y-58004419D01*
X40803891Y-57980719D01*
X40809713Y-57957477D01*
X40817785Y-57934918D01*
X40828029Y-57913258D01*
X40840347Y-57892708D01*
X40854619Y-57873463D01*
X40870710Y-57855710D01*
X40888463Y-57839619D01*
X40907708Y-57825347D01*
X40928258Y-57813029D01*
X40949918Y-57802785D01*
X40972477Y-57794713D01*
X40995719Y-57788891D01*
X41019419Y-57785376D01*
X41043350Y-57784200D01*
X41531650Y-57784200D01*
X41555581Y-57785376D01*
G37*
G36*
X52055581Y-57925376D02*
G01*
X52079281Y-57928891D01*
X52102523Y-57934713D01*
X52125082Y-57942785D01*
X52146742Y-57953029D01*
X52167292Y-57965347D01*
X52186537Y-57979619D01*
X52204290Y-57995710D01*
X52220381Y-58013463D01*
X52234653Y-58032708D01*
X52246971Y-58053258D01*
X52257215Y-58074918D01*
X52265287Y-58097477D01*
X52271109Y-58120719D01*
X52274624Y-58144419D01*
X52275800Y-58168350D01*
X52275800Y-58731650D01*
X52274624Y-58755581D01*
X52271109Y-58779281D01*
X52265287Y-58802523D01*
X52257215Y-58825082D01*
X52246971Y-58846742D01*
X52234653Y-58867292D01*
X52220381Y-58886537D01*
X52204290Y-58904290D01*
X52186537Y-58920381D01*
X52167292Y-58934653D01*
X52146742Y-58946971D01*
X52125082Y-58957215D01*
X52102523Y-58965287D01*
X52079281Y-58971109D01*
X52055581Y-58974624D01*
X52031650Y-58975800D01*
X51543350Y-58975800D01*
X51519419Y-58974624D01*
X51495719Y-58971109D01*
X51472477Y-58965287D01*
X51449918Y-58957215D01*
X51428258Y-58946971D01*
X51407708Y-58934653D01*
X51388463Y-58920381D01*
X51370710Y-58904290D01*
X51354619Y-58886537D01*
X51340347Y-58867292D01*
X51328029Y-58846742D01*
X51317785Y-58825082D01*
X51309713Y-58802523D01*
X51303891Y-58779281D01*
X51300376Y-58755581D01*
X51299200Y-58731650D01*
X51299200Y-58168350D01*
X51300376Y-58144419D01*
X51303891Y-58120719D01*
X51309713Y-58097477D01*
X51317785Y-58074918D01*
X51328029Y-58053258D01*
X51340347Y-58032708D01*
X51354619Y-58013463D01*
X51370710Y-57995710D01*
X51388463Y-57979619D01*
X51407708Y-57965347D01*
X51428258Y-57953029D01*
X51449918Y-57942785D01*
X51472477Y-57934713D01*
X51495719Y-57928891D01*
X51519419Y-57925376D01*
X51543350Y-57924200D01*
X52031650Y-57924200D01*
X52055581Y-57925376D01*
G37*
G36*
X50480581Y-57925376D02*
G01*
X50504281Y-57928891D01*
X50527523Y-57934713D01*
X50550082Y-57942785D01*
X50571742Y-57953029D01*
X50592292Y-57965347D01*
X50611537Y-57979619D01*
X50629290Y-57995710D01*
X50645381Y-58013463D01*
X50659653Y-58032708D01*
X50671971Y-58053258D01*
X50682215Y-58074918D01*
X50690287Y-58097477D01*
X50696109Y-58120719D01*
X50699624Y-58144419D01*
X50700800Y-58168350D01*
X50700800Y-58731650D01*
X50699624Y-58755581D01*
X50696109Y-58779281D01*
X50690287Y-58802523D01*
X50682215Y-58825082D01*
X50671971Y-58846742D01*
X50659653Y-58867292D01*
X50645381Y-58886537D01*
X50629290Y-58904290D01*
X50611537Y-58920381D01*
X50592292Y-58934653D01*
X50571742Y-58946971D01*
X50550082Y-58957215D01*
X50527523Y-58965287D01*
X50504281Y-58971109D01*
X50480581Y-58974624D01*
X50456650Y-58975800D01*
X49968350Y-58975800D01*
X49944419Y-58974624D01*
X49920719Y-58971109D01*
X49897477Y-58965287D01*
X49874918Y-58957215D01*
X49853258Y-58946971D01*
X49832708Y-58934653D01*
X49813463Y-58920381D01*
X49795710Y-58904290D01*
X49779619Y-58886537D01*
X49765347Y-58867292D01*
X49753029Y-58846742D01*
X49742785Y-58825082D01*
X49734713Y-58802523D01*
X49728891Y-58779281D01*
X49725376Y-58755581D01*
X49724200Y-58731650D01*
X49724200Y-58168350D01*
X49725376Y-58144419D01*
X49728891Y-58120719D01*
X49734713Y-58097477D01*
X49742785Y-58074918D01*
X49753029Y-58053258D01*
X49765347Y-58032708D01*
X49779619Y-58013463D01*
X49795710Y-57995710D01*
X49813463Y-57979619D01*
X49832708Y-57965347D01*
X49853258Y-57953029D01*
X49874918Y-57942785D01*
X49897477Y-57934713D01*
X49920719Y-57928891D01*
X49944419Y-57925376D01*
X49968350Y-57924200D01*
X50456650Y-57924200D01*
X50480581Y-57925376D01*
G37*
G36*
X29970531Y-44116496D02*
G01*
X29996659Y-44120372D01*
X30022280Y-44126790D01*
X30047149Y-44135688D01*
X30071026Y-44146981D01*
X30093682Y-44160560D01*
X30114897Y-44176294D01*
X30134468Y-44194032D01*
X30152206Y-44213603D01*
X30167940Y-44234818D01*
X30181519Y-44257474D01*
X30192812Y-44281351D01*
X30201710Y-44306220D01*
X30208128Y-44331841D01*
X30212004Y-44357969D01*
X30213300Y-44384350D01*
X30213300Y-44922650D01*
X30212004Y-44949031D01*
X30208128Y-44975159D01*
X30201710Y-45000780D01*
X30192812Y-45025649D01*
X30181519Y-45049526D01*
X30167940Y-45072182D01*
X30152206Y-45093397D01*
X30134468Y-45112968D01*
X30114897Y-45130706D01*
X30093682Y-45146440D01*
X30071026Y-45160019D01*
X30047149Y-45171312D01*
X30022280Y-45180210D01*
X29996659Y-45186628D01*
X29970531Y-45190504D01*
X29944150Y-45191800D01*
X28980850Y-45191800D01*
X28954469Y-45190504D01*
X28928341Y-45186628D01*
X28902720Y-45180210D01*
X28877851Y-45171312D01*
X28853974Y-45160019D01*
X28831318Y-45146440D01*
X28810103Y-45130706D01*
X28790532Y-45112968D01*
X28772794Y-45093397D01*
X28757060Y-45072182D01*
X28743481Y-45049526D01*
X28732188Y-45025649D01*
X28723290Y-45000780D01*
X28716872Y-44975159D01*
X28712996Y-44949031D01*
X28711700Y-44922650D01*
X28711700Y-44384350D01*
X28712996Y-44357969D01*
X28716872Y-44331841D01*
X28723290Y-44306220D01*
X28732188Y-44281351D01*
X28743481Y-44257474D01*
X28757060Y-44234818D01*
X28772794Y-44213603D01*
X28790532Y-44194032D01*
X28810103Y-44176294D01*
X28831318Y-44160560D01*
X28853974Y-44146981D01*
X28877851Y-44135688D01*
X28902720Y-44126790D01*
X28928341Y-44120372D01*
X28954469Y-44116496D01*
X28980850Y-44115200D01*
X29944150Y-44115200D01*
X29970531Y-44116496D01*
G37*
G36*
X29970531Y-42241496D02*
G01*
X29996659Y-42245372D01*
X30022280Y-42251790D01*
X30047149Y-42260688D01*
X30071026Y-42271981D01*
X30093682Y-42285560D01*
X30114897Y-42301294D01*
X30134468Y-42319032D01*
X30152206Y-42338603D01*
X30167940Y-42359818D01*
X30181519Y-42382474D01*
X30192812Y-42406351D01*
X30201710Y-42431220D01*
X30208128Y-42456841D01*
X30212004Y-42482969D01*
X30213300Y-42509350D01*
X30213300Y-43047650D01*
X30212004Y-43074031D01*
X30208128Y-43100159D01*
X30201710Y-43125780D01*
X30192812Y-43150649D01*
X30181519Y-43174526D01*
X30167940Y-43197182D01*
X30152206Y-43218397D01*
X30134468Y-43237968D01*
X30114897Y-43255706D01*
X30093682Y-43271440D01*
X30071026Y-43285019D01*
X30047149Y-43296312D01*
X30022280Y-43305210D01*
X29996659Y-43311628D01*
X29970531Y-43315504D01*
X29944150Y-43316800D01*
X28980850Y-43316800D01*
X28954469Y-43315504D01*
X28928341Y-43311628D01*
X28902720Y-43305210D01*
X28877851Y-43296312D01*
X28853974Y-43285019D01*
X28831318Y-43271440D01*
X28810103Y-43255706D01*
X28790532Y-43237968D01*
X28772794Y-43218397D01*
X28757060Y-43197182D01*
X28743481Y-43174526D01*
X28732188Y-43150649D01*
X28723290Y-43125780D01*
X28716872Y-43100159D01*
X28712996Y-43074031D01*
X28711700Y-43047650D01*
X28711700Y-42509350D01*
X28712996Y-42482969D01*
X28716872Y-42456841D01*
X28723290Y-42431220D01*
X28732188Y-42406351D01*
X28743481Y-42382474D01*
X28757060Y-42359818D01*
X28772794Y-42338603D01*
X28790532Y-42319032D01*
X28810103Y-42301294D01*
X28831318Y-42285560D01*
X28853974Y-42271981D01*
X28877851Y-42260688D01*
X28902720Y-42251790D01*
X28928341Y-42245372D01*
X28954469Y-42241496D01*
X28980850Y-42240200D01*
X29944150Y-42240200D01*
X29970531Y-42241496D01*
G37*
G36*
X22280531Y-43291496D02*
G01*
X22306659Y-43295372D01*
X22332280Y-43301790D01*
X22357149Y-43310688D01*
X22381026Y-43321981D01*
X22403682Y-43335560D01*
X22424897Y-43351294D01*
X22444468Y-43369032D01*
X22462206Y-43388603D01*
X22477940Y-43409818D01*
X22491519Y-43432474D01*
X22502812Y-43456351D01*
X22511710Y-43481220D01*
X22518128Y-43506841D01*
X22522004Y-43532969D01*
X22523300Y-43559350D01*
X22523300Y-44097650D01*
X22522004Y-44124031D01*
X22518128Y-44150159D01*
X22511710Y-44175780D01*
X22502812Y-44200649D01*
X22491519Y-44224526D01*
X22477940Y-44247182D01*
X22462206Y-44268397D01*
X22444468Y-44287968D01*
X22424897Y-44305706D01*
X22403682Y-44321440D01*
X22381026Y-44335019D01*
X22357149Y-44346312D01*
X22332280Y-44355210D01*
X22306659Y-44361628D01*
X22280531Y-44365504D01*
X22254150Y-44366800D01*
X21290850Y-44366800D01*
X21264469Y-44365504D01*
X21238341Y-44361628D01*
X21212720Y-44355210D01*
X21187851Y-44346312D01*
X21163974Y-44335019D01*
X21141318Y-44321440D01*
X21120103Y-44305706D01*
X21100532Y-44287968D01*
X21082794Y-44268397D01*
X21067060Y-44247182D01*
X21053481Y-44224526D01*
X21042188Y-44200649D01*
X21033290Y-44175780D01*
X21026872Y-44150159D01*
X21022996Y-44124031D01*
X21021700Y-44097650D01*
X21021700Y-43559350D01*
X21022996Y-43532969D01*
X21026872Y-43506841D01*
X21033290Y-43481220D01*
X21042188Y-43456351D01*
X21053481Y-43432474D01*
X21067060Y-43409818D01*
X21082794Y-43388603D01*
X21100532Y-43369032D01*
X21120103Y-43351294D01*
X21141318Y-43335560D01*
X21163974Y-43321981D01*
X21187851Y-43310688D01*
X21212720Y-43301790D01*
X21238341Y-43295372D01*
X21264469Y-43291496D01*
X21290850Y-43290200D01*
X22254150Y-43290200D01*
X22280531Y-43291496D01*
G37*
G36*
X22280531Y-45166496D02*
G01*
X22306659Y-45170372D01*
X22332280Y-45176790D01*
X22357149Y-45185688D01*
X22381026Y-45196981D01*
X22403682Y-45210560D01*
X22424897Y-45226294D01*
X22444468Y-45244032D01*
X22462206Y-45263603D01*
X22477940Y-45284818D01*
X22491519Y-45307474D01*
X22502812Y-45331351D01*
X22511710Y-45356220D01*
X22518128Y-45381841D01*
X22522004Y-45407969D01*
X22523300Y-45434350D01*
X22523300Y-45972650D01*
X22522004Y-45999031D01*
X22518128Y-46025159D01*
X22511710Y-46050780D01*
X22502812Y-46075649D01*
X22491519Y-46099526D01*
X22477940Y-46122182D01*
X22462206Y-46143397D01*
X22444468Y-46162968D01*
X22424897Y-46180706D01*
X22403682Y-46196440D01*
X22381026Y-46210019D01*
X22357149Y-46221312D01*
X22332280Y-46230210D01*
X22306659Y-46236628D01*
X22280531Y-46240504D01*
X22254150Y-46241800D01*
X21290850Y-46241800D01*
X21264469Y-46240504D01*
X21238341Y-46236628D01*
X21212720Y-46230210D01*
X21187851Y-46221312D01*
X21163974Y-46210019D01*
X21141318Y-46196440D01*
X21120103Y-46180706D01*
X21100532Y-46162968D01*
X21082794Y-46143397D01*
X21067060Y-46122182D01*
X21053481Y-46099526D01*
X21042188Y-46075649D01*
X21033290Y-46050780D01*
X21026872Y-46025159D01*
X21022996Y-45999031D01*
X21021700Y-45972650D01*
X21021700Y-45434350D01*
X21022996Y-45407969D01*
X21026872Y-45381841D01*
X21033290Y-45356220D01*
X21042188Y-45331351D01*
X21053481Y-45307474D01*
X21067060Y-45284818D01*
X21082794Y-45263603D01*
X21100532Y-45244032D01*
X21120103Y-45226294D01*
X21141318Y-45210560D01*
X21163974Y-45196981D01*
X21187851Y-45185688D01*
X21212720Y-45176790D01*
X21238341Y-45170372D01*
X21264469Y-45166496D01*
X21290850Y-45165200D01*
X22254150Y-45165200D01*
X22280531Y-45166496D01*
G37*
D10*
X20870000Y-29270000D03*
D11*
X20870000Y-26730000D03*
X23410000Y-29270000D03*
X23410000Y-26730000D03*
X25950000Y-29270000D03*
X25950000Y-26730000D03*
X28490000Y-29270000D03*
X28490000Y-26730000D03*
X31030000Y-29270000D03*
X31030000Y-26730000D03*
X33570000Y-29270000D03*
X33570000Y-26730000D03*
X36110000Y-29270000D03*
X36110000Y-26730000D03*
X38650000Y-29270000D03*
X38650000Y-26730000D03*
X41190000Y-29270000D03*
X41190000Y-26730000D03*
X43730000Y-29270000D03*
X43730000Y-26730000D03*
X46270000Y-29270000D03*
X46270000Y-26730000D03*
X48810000Y-29270000D03*
X48810000Y-26730000D03*
X51350000Y-29270000D03*
X51350000Y-26730000D03*
X53890000Y-29270000D03*
X53890000Y-26730000D03*
X56430000Y-29270000D03*
X56430000Y-26730000D03*
X58970000Y-29270000D03*
X58970000Y-26730000D03*
X61510000Y-29270000D03*
X61510000Y-26730000D03*
X64050000Y-29270000D03*
X64050000Y-26730000D03*
X66590000Y-29270000D03*
X66590000Y-26730000D03*
X69130000Y-29270000D03*
X69130000Y-26730000D03*
D14*
G36*
X57968081Y-56416376D02*
G01*
X57991781Y-56419891D01*
X58015023Y-56425713D01*
X58037582Y-56433785D01*
X58059242Y-56444029D01*
X58079792Y-56456347D01*
X58099037Y-56470619D01*
X58116790Y-56486710D01*
X58132881Y-56504463D01*
X58147153Y-56523708D01*
X58159471Y-56544258D01*
X58169715Y-56565918D01*
X58177787Y-56588477D01*
X58183609Y-56611719D01*
X58187124Y-56635419D01*
X58188300Y-56659350D01*
X58188300Y-57222650D01*
X58187124Y-57246581D01*
X58183609Y-57270281D01*
X58177787Y-57293523D01*
X58169715Y-57316082D01*
X58159471Y-57337742D01*
X58147153Y-57358292D01*
X58132881Y-57377537D01*
X58116790Y-57395290D01*
X58099037Y-57411381D01*
X58079792Y-57425653D01*
X58059242Y-57437971D01*
X58037582Y-57448215D01*
X58015023Y-57456287D01*
X57991781Y-57462109D01*
X57968081Y-57465624D01*
X57944150Y-57466800D01*
X57455850Y-57466800D01*
X57431919Y-57465624D01*
X57408219Y-57462109D01*
X57384977Y-57456287D01*
X57362418Y-57448215D01*
X57340758Y-57437971D01*
X57320208Y-57425653D01*
X57300963Y-57411381D01*
X57283210Y-57395290D01*
X57267119Y-57377537D01*
X57252847Y-57358292D01*
X57240529Y-57337742D01*
X57230285Y-57316082D01*
X57222213Y-57293523D01*
X57216391Y-57270281D01*
X57212876Y-57246581D01*
X57211700Y-57222650D01*
X57211700Y-56659350D01*
X57212876Y-56635419D01*
X57216391Y-56611719D01*
X57222213Y-56588477D01*
X57230285Y-56565918D01*
X57240529Y-56544258D01*
X57252847Y-56523708D01*
X57267119Y-56504463D01*
X57283210Y-56486710D01*
X57300963Y-56470619D01*
X57320208Y-56456347D01*
X57340758Y-56444029D01*
X57362418Y-56433785D01*
X57384977Y-56425713D01*
X57408219Y-56419891D01*
X57431919Y-56416376D01*
X57455850Y-56415200D01*
X57944150Y-56415200D01*
X57968081Y-56416376D01*
G37*
G36*
X56393081Y-56416376D02*
G01*
X56416781Y-56419891D01*
X56440023Y-56425713D01*
X56462582Y-56433785D01*
X56484242Y-56444029D01*
X56504792Y-56456347D01*
X56524037Y-56470619D01*
X56541790Y-56486710D01*
X56557881Y-56504463D01*
X56572153Y-56523708D01*
X56584471Y-56544258D01*
X56594715Y-56565918D01*
X56602787Y-56588477D01*
X56608609Y-56611719D01*
X56612124Y-56635419D01*
X56613300Y-56659350D01*
X56613300Y-57222650D01*
X56612124Y-57246581D01*
X56608609Y-57270281D01*
X56602787Y-57293523D01*
X56594715Y-57316082D01*
X56584471Y-57337742D01*
X56572153Y-57358292D01*
X56557881Y-57377537D01*
X56541790Y-57395290D01*
X56524037Y-57411381D01*
X56504792Y-57425653D01*
X56484242Y-57437971D01*
X56462582Y-57448215D01*
X56440023Y-57456287D01*
X56416781Y-57462109D01*
X56393081Y-57465624D01*
X56369150Y-57466800D01*
X55880850Y-57466800D01*
X55856919Y-57465624D01*
X55833219Y-57462109D01*
X55809977Y-57456287D01*
X55787418Y-57448215D01*
X55765758Y-57437971D01*
X55745208Y-57425653D01*
X55725963Y-57411381D01*
X55708210Y-57395290D01*
X55692119Y-57377537D01*
X55677847Y-57358292D01*
X55665529Y-57337742D01*
X55655285Y-57316082D01*
X55647213Y-57293523D01*
X55641391Y-57270281D01*
X55637876Y-57246581D01*
X55636700Y-57222650D01*
X55636700Y-56659350D01*
X55637876Y-56635419D01*
X55641391Y-56611719D01*
X55647213Y-56588477D01*
X55655285Y-56565918D01*
X55665529Y-56544258D01*
X55677847Y-56523708D01*
X55692119Y-56504463D01*
X55708210Y-56486710D01*
X55725963Y-56470619D01*
X55745208Y-56456347D01*
X55765758Y-56444029D01*
X55787418Y-56433785D01*
X55809977Y-56425713D01*
X55833219Y-56419891D01*
X55856919Y-56416376D01*
X55880850Y-56415200D01*
X56369150Y-56415200D01*
X56393081Y-56416376D01*
G37*
D18*
X26185000Y-55545000D03*
X26685000Y-55545000D03*
X27185000Y-55545000D03*
X27685000Y-55545000D03*
X28185000Y-55545000D03*
X28185000Y-51705000D03*
X27685000Y-51705000D03*
X27185000Y-51705000D03*
X26685000Y-51705000D03*
X26185000Y-51705000D03*
D19*
X27760000Y-52975000D03*
X26610000Y-52975000D03*
X27760000Y-54275000D03*
X26610000Y-54275000D03*
D20*
X33027500Y-45931000D03*
X34297500Y-44661000D03*
D21*
X34297500Y-47201000D03*
D19*
X36520000Y-54025000D03*
X37670000Y-54025000D03*
X36520000Y-52725000D03*
X37670000Y-52725000D03*
D18*
X36095000Y-51455000D03*
X36595000Y-51455000D03*
X37095000Y-51455000D03*
X37595000Y-51455000D03*
X38095000Y-51455000D03*
X38095000Y-55295000D03*
X37595000Y-55295000D03*
X37095000Y-55295000D03*
X36595000Y-55295000D03*
X36095000Y-55295000D03*
X46755000Y-55290000D03*
X47255000Y-55290000D03*
X47755000Y-55290000D03*
X48255000Y-55290000D03*
X48755000Y-55290000D03*
X48755000Y-51450000D03*
X48255000Y-51450000D03*
X47755000Y-51450000D03*
X47255000Y-51450000D03*
X46755000Y-51450000D03*
D19*
X48330000Y-52720000D03*
X47180000Y-52720000D03*
X48330000Y-54020000D03*
X47180000Y-54020000D03*
D14*
G36*
X24404460Y-42408600D02*
G01*
X25076178Y-41457000D01*
X26128822Y-41457000D01*
X26800540Y-42408600D01*
X24404460Y-42408600D01*
G37*
D22*
X24102500Y-46079800D03*
D23*
X25602500Y-45933300D03*
D22*
X27102500Y-46079800D03*
D24*
X25602500Y-43266300D03*
D14*
G36*
X26800069Y-44125200D02*
G01*
X26028949Y-45226800D01*
X25176051Y-45226800D01*
X24404931Y-44125200D01*
X26800069Y-44125200D01*
G37*
G36*
X24205581Y-60625376D02*
G01*
X24229281Y-60628891D01*
X24252523Y-60634713D01*
X24275082Y-60642785D01*
X24296742Y-60653029D01*
X24317292Y-60665347D01*
X24336537Y-60679619D01*
X24354290Y-60695710D01*
X24370381Y-60713463D01*
X24384653Y-60732708D01*
X24396971Y-60753258D01*
X24407215Y-60774918D01*
X24415287Y-60797477D01*
X24421109Y-60820719D01*
X24424624Y-60844419D01*
X24425800Y-60868350D01*
X24425800Y-61356650D01*
X24424624Y-61380581D01*
X24421109Y-61404281D01*
X24415287Y-61427523D01*
X24407215Y-61450082D01*
X24396971Y-61471742D01*
X24384653Y-61492292D01*
X24370381Y-61511537D01*
X24354290Y-61529290D01*
X24336537Y-61545381D01*
X24317292Y-61559653D01*
X24296742Y-61571971D01*
X24275082Y-61582215D01*
X24252523Y-61590287D01*
X24229281Y-61596109D01*
X24205581Y-61599624D01*
X24181650Y-61600800D01*
X23618350Y-61600800D01*
X23594419Y-61599624D01*
X23570719Y-61596109D01*
X23547477Y-61590287D01*
X23524918Y-61582215D01*
X23503258Y-61571971D01*
X23482708Y-61559653D01*
X23463463Y-61545381D01*
X23445710Y-61529290D01*
X23429619Y-61511537D01*
X23415347Y-61492292D01*
X23403029Y-61471742D01*
X23392785Y-61450082D01*
X23384713Y-61427523D01*
X23378891Y-61404281D01*
X23375376Y-61380581D01*
X23374200Y-61356650D01*
X23374200Y-60868350D01*
X23375376Y-60844419D01*
X23378891Y-60820719D01*
X23384713Y-60797477D01*
X23392785Y-60774918D01*
X23403029Y-60753258D01*
X23415347Y-60732708D01*
X23429619Y-60713463D01*
X23445710Y-60695710D01*
X23463463Y-60679619D01*
X23482708Y-60665347D01*
X23503258Y-60653029D01*
X23524918Y-60642785D01*
X23547477Y-60634713D01*
X23570719Y-60628891D01*
X23594419Y-60625376D01*
X23618350Y-60624200D01*
X24181650Y-60624200D01*
X24205581Y-60625376D01*
G37*
G36*
X24205581Y-62200376D02*
G01*
X24229281Y-62203891D01*
X24252523Y-62209713D01*
X24275082Y-62217785D01*
X24296742Y-62228029D01*
X24317292Y-62240347D01*
X24336537Y-62254619D01*
X24354290Y-62270710D01*
X24370381Y-62288463D01*
X24384653Y-62307708D01*
X24396971Y-62328258D01*
X24407215Y-62349918D01*
X24415287Y-62372477D01*
X24421109Y-62395719D01*
X24424624Y-62419419D01*
X24425800Y-62443350D01*
X24425800Y-62931650D01*
X24424624Y-62955581D01*
X24421109Y-62979281D01*
X24415287Y-63002523D01*
X24407215Y-63025082D01*
X24396971Y-63046742D01*
X24384653Y-63067292D01*
X24370381Y-63086537D01*
X24354290Y-63104290D01*
X24336537Y-63120381D01*
X24317292Y-63134653D01*
X24296742Y-63146971D01*
X24275082Y-63157215D01*
X24252523Y-63165287D01*
X24229281Y-63171109D01*
X24205581Y-63174624D01*
X24181650Y-63175800D01*
X23618350Y-63175800D01*
X23594419Y-63174624D01*
X23570719Y-63171109D01*
X23547477Y-63165287D01*
X23524918Y-63157215D01*
X23503258Y-63146971D01*
X23482708Y-63134653D01*
X23463463Y-63120381D01*
X23445710Y-63104290D01*
X23429619Y-63086537D01*
X23415347Y-63067292D01*
X23403029Y-63046742D01*
X23392785Y-63025082D01*
X23384713Y-63002523D01*
X23378891Y-62979281D01*
X23375376Y-62955581D01*
X23374200Y-62931650D01*
X23374200Y-62443350D01*
X23375376Y-62419419D01*
X23378891Y-62395719D01*
X23384713Y-62372477D01*
X23392785Y-62349918D01*
X23403029Y-62328258D01*
X23415347Y-62307708D01*
X23429619Y-62288463D01*
X23445710Y-62270710D01*
X23463463Y-62254619D01*
X23482708Y-62240347D01*
X23503258Y-62228029D01*
X23524918Y-62217785D01*
X23547477Y-62209713D01*
X23570719Y-62203891D01*
X23594419Y-62200376D01*
X23618350Y-62199200D01*
X24181650Y-62199200D01*
X24205581Y-62200376D01*
G37*
G36*
X39305581Y-61600376D02*
G01*
X39329281Y-61603891D01*
X39352523Y-61609713D01*
X39375082Y-61617785D01*
X39396742Y-61628029D01*
X39417292Y-61640347D01*
X39436537Y-61654619D01*
X39454290Y-61670710D01*
X39470381Y-61688463D01*
X39484653Y-61707708D01*
X39496971Y-61728258D01*
X39507215Y-61749918D01*
X39515287Y-61772477D01*
X39521109Y-61795719D01*
X39524624Y-61819419D01*
X39525800Y-61843350D01*
X39525800Y-62331650D01*
X39524624Y-62355581D01*
X39521109Y-62379281D01*
X39515287Y-62402523D01*
X39507215Y-62425082D01*
X39496971Y-62446742D01*
X39484653Y-62467292D01*
X39470381Y-62486537D01*
X39454290Y-62504290D01*
X39436537Y-62520381D01*
X39417292Y-62534653D01*
X39396742Y-62546971D01*
X39375082Y-62557215D01*
X39352523Y-62565287D01*
X39329281Y-62571109D01*
X39305581Y-62574624D01*
X39281650Y-62575800D01*
X38718350Y-62575800D01*
X38694419Y-62574624D01*
X38670719Y-62571109D01*
X38647477Y-62565287D01*
X38624918Y-62557215D01*
X38603258Y-62546971D01*
X38582708Y-62534653D01*
X38563463Y-62520381D01*
X38545710Y-62504290D01*
X38529619Y-62486537D01*
X38515347Y-62467292D01*
X38503029Y-62446742D01*
X38492785Y-62425082D01*
X38484713Y-62402523D01*
X38478891Y-62379281D01*
X38475376Y-62355581D01*
X38474200Y-62331650D01*
X38474200Y-61843350D01*
X38475376Y-61819419D01*
X38478891Y-61795719D01*
X38484713Y-61772477D01*
X38492785Y-61749918D01*
X38503029Y-61728258D01*
X38515347Y-61707708D01*
X38529619Y-61688463D01*
X38545710Y-61670710D01*
X38563463Y-61654619D01*
X38582708Y-61640347D01*
X38603258Y-61628029D01*
X38624918Y-61617785D01*
X38647477Y-61609713D01*
X38670719Y-61603891D01*
X38694419Y-61600376D01*
X38718350Y-61599200D01*
X39281650Y-61599200D01*
X39305581Y-61600376D01*
G37*
G36*
X39305581Y-60025376D02*
G01*
X39329281Y-60028891D01*
X39352523Y-60034713D01*
X39375082Y-60042785D01*
X39396742Y-60053029D01*
X39417292Y-60065347D01*
X39436537Y-60079619D01*
X39454290Y-60095710D01*
X39470381Y-60113463D01*
X39484653Y-60132708D01*
X39496971Y-60153258D01*
X39507215Y-60174918D01*
X39515287Y-60197477D01*
X39521109Y-60220719D01*
X39524624Y-60244419D01*
X39525800Y-60268350D01*
X39525800Y-60756650D01*
X39524624Y-60780581D01*
X39521109Y-60804281D01*
X39515287Y-60827523D01*
X39507215Y-60850082D01*
X39496971Y-60871742D01*
X39484653Y-60892292D01*
X39470381Y-60911537D01*
X39454290Y-60929290D01*
X39436537Y-60945381D01*
X39417292Y-60959653D01*
X39396742Y-60971971D01*
X39375082Y-60982215D01*
X39352523Y-60990287D01*
X39329281Y-60996109D01*
X39305581Y-60999624D01*
X39281650Y-61000800D01*
X38718350Y-61000800D01*
X38694419Y-60999624D01*
X38670719Y-60996109D01*
X38647477Y-60990287D01*
X38624918Y-60982215D01*
X38603258Y-60971971D01*
X38582708Y-60959653D01*
X38563463Y-60945381D01*
X38545710Y-60929290D01*
X38529619Y-60911537D01*
X38515347Y-60892292D01*
X38503029Y-60871742D01*
X38492785Y-60850082D01*
X38484713Y-60827523D01*
X38478891Y-60804281D01*
X38475376Y-60780581D01*
X38474200Y-60756650D01*
X38474200Y-60268350D01*
X38475376Y-60244419D01*
X38478891Y-60220719D01*
X38484713Y-60197477D01*
X38492785Y-60174918D01*
X38503029Y-60153258D01*
X38515347Y-60132708D01*
X38529619Y-60113463D01*
X38545710Y-60095710D01*
X38563463Y-60079619D01*
X38582708Y-60065347D01*
X38603258Y-60053029D01*
X38624918Y-60042785D01*
X38647477Y-60034713D01*
X38670719Y-60028891D01*
X38694419Y-60025376D01*
X38718350Y-60024200D01*
X39281650Y-60024200D01*
X39305581Y-60025376D01*
G37*
G36*
X34005581Y-60025376D02*
G01*
X34029281Y-60028891D01*
X34052523Y-60034713D01*
X34075082Y-60042785D01*
X34096742Y-60053029D01*
X34117292Y-60065347D01*
X34136537Y-60079619D01*
X34154290Y-60095710D01*
X34170381Y-60113463D01*
X34184653Y-60132708D01*
X34196971Y-60153258D01*
X34207215Y-60174918D01*
X34215287Y-60197477D01*
X34221109Y-60220719D01*
X34224624Y-60244419D01*
X34225800Y-60268350D01*
X34225800Y-60756650D01*
X34224624Y-60780581D01*
X34221109Y-60804281D01*
X34215287Y-60827523D01*
X34207215Y-60850082D01*
X34196971Y-60871742D01*
X34184653Y-60892292D01*
X34170381Y-60911537D01*
X34154290Y-60929290D01*
X34136537Y-60945381D01*
X34117292Y-60959653D01*
X34096742Y-60971971D01*
X34075082Y-60982215D01*
X34052523Y-60990287D01*
X34029281Y-60996109D01*
X34005581Y-60999624D01*
X33981650Y-61000800D01*
X33418350Y-61000800D01*
X33394419Y-60999624D01*
X33370719Y-60996109D01*
X33347477Y-60990287D01*
X33324918Y-60982215D01*
X33303258Y-60971971D01*
X33282708Y-60959653D01*
X33263463Y-60945381D01*
X33245710Y-60929290D01*
X33229619Y-60911537D01*
X33215347Y-60892292D01*
X33203029Y-60871742D01*
X33192785Y-60850082D01*
X33184713Y-60827523D01*
X33178891Y-60804281D01*
X33175376Y-60780581D01*
X33174200Y-60756650D01*
X33174200Y-60268350D01*
X33175376Y-60244419D01*
X33178891Y-60220719D01*
X33184713Y-60197477D01*
X33192785Y-60174918D01*
X33203029Y-60153258D01*
X33215347Y-60132708D01*
X33229619Y-60113463D01*
X33245710Y-60095710D01*
X33263463Y-60079619D01*
X33282708Y-60065347D01*
X33303258Y-60053029D01*
X33324918Y-60042785D01*
X33347477Y-60034713D01*
X33370719Y-60028891D01*
X33394419Y-60025376D01*
X33418350Y-60024200D01*
X33981650Y-60024200D01*
X34005581Y-60025376D01*
G37*
G36*
X34005581Y-61600376D02*
G01*
X34029281Y-61603891D01*
X34052523Y-61609713D01*
X34075082Y-61617785D01*
X34096742Y-61628029D01*
X34117292Y-61640347D01*
X34136537Y-61654619D01*
X34154290Y-61670710D01*
X34170381Y-61688463D01*
X34184653Y-61707708D01*
X34196971Y-61728258D01*
X34207215Y-61749918D01*
X34215287Y-61772477D01*
X34221109Y-61795719D01*
X34224624Y-61819419D01*
X34225800Y-61843350D01*
X34225800Y-62331650D01*
X34224624Y-62355581D01*
X34221109Y-62379281D01*
X34215287Y-62402523D01*
X34207215Y-62425082D01*
X34196971Y-62446742D01*
X34184653Y-62467292D01*
X34170381Y-62486537D01*
X34154290Y-62504290D01*
X34136537Y-62520381D01*
X34117292Y-62534653D01*
X34096742Y-62546971D01*
X34075082Y-62557215D01*
X34052523Y-62565287D01*
X34029281Y-62571109D01*
X34005581Y-62574624D01*
X33981650Y-62575800D01*
X33418350Y-62575800D01*
X33394419Y-62574624D01*
X33370719Y-62571109D01*
X33347477Y-62565287D01*
X33324918Y-62557215D01*
X33303258Y-62546971D01*
X33282708Y-62534653D01*
X33263463Y-62520381D01*
X33245710Y-62504290D01*
X33229619Y-62486537D01*
X33215347Y-62467292D01*
X33203029Y-62446742D01*
X33192785Y-62425082D01*
X33184713Y-62402523D01*
X33178891Y-62379281D01*
X33175376Y-62355581D01*
X33174200Y-62331650D01*
X33174200Y-61843350D01*
X33175376Y-61819419D01*
X33178891Y-61795719D01*
X33184713Y-61772477D01*
X33192785Y-61749918D01*
X33203029Y-61728258D01*
X33215347Y-61707708D01*
X33229619Y-61688463D01*
X33245710Y-61670710D01*
X33263463Y-61654619D01*
X33282708Y-61640347D01*
X33303258Y-61628029D01*
X33324918Y-61617785D01*
X33347477Y-61609713D01*
X33370719Y-61603891D01*
X33394419Y-61600376D01*
X33418350Y-61599200D01*
X33981650Y-61599200D01*
X34005581Y-61600376D01*
G37*
G36*
X49955581Y-61500376D02*
G01*
X49979281Y-61503891D01*
X50002523Y-61509713D01*
X50025082Y-61517785D01*
X50046742Y-61528029D01*
X50067292Y-61540347D01*
X50086537Y-61554619D01*
X50104290Y-61570710D01*
X50120381Y-61588463D01*
X50134653Y-61607708D01*
X50146971Y-61628258D01*
X50157215Y-61649918D01*
X50165287Y-61672477D01*
X50171109Y-61695719D01*
X50174624Y-61719419D01*
X50175800Y-61743350D01*
X50175800Y-62231650D01*
X50174624Y-62255581D01*
X50171109Y-62279281D01*
X50165287Y-62302523D01*
X50157215Y-62325082D01*
X50146971Y-62346742D01*
X50134653Y-62367292D01*
X50120381Y-62386537D01*
X50104290Y-62404290D01*
X50086537Y-62420381D01*
X50067292Y-62434653D01*
X50046742Y-62446971D01*
X50025082Y-62457215D01*
X50002523Y-62465287D01*
X49979281Y-62471109D01*
X49955581Y-62474624D01*
X49931650Y-62475800D01*
X49368350Y-62475800D01*
X49344419Y-62474624D01*
X49320719Y-62471109D01*
X49297477Y-62465287D01*
X49274918Y-62457215D01*
X49253258Y-62446971D01*
X49232708Y-62434653D01*
X49213463Y-62420381D01*
X49195710Y-62404290D01*
X49179619Y-62386537D01*
X49165347Y-62367292D01*
X49153029Y-62346742D01*
X49142785Y-62325082D01*
X49134713Y-62302523D01*
X49128891Y-62279281D01*
X49125376Y-62255581D01*
X49124200Y-62231650D01*
X49124200Y-61743350D01*
X49125376Y-61719419D01*
X49128891Y-61695719D01*
X49134713Y-61672477D01*
X49142785Y-61649918D01*
X49153029Y-61628258D01*
X49165347Y-61607708D01*
X49179619Y-61588463D01*
X49195710Y-61570710D01*
X49213463Y-61554619D01*
X49232708Y-61540347D01*
X49253258Y-61528029D01*
X49274918Y-61517785D01*
X49297477Y-61509713D01*
X49320719Y-61503891D01*
X49344419Y-61500376D01*
X49368350Y-61499200D01*
X49931650Y-61499200D01*
X49955581Y-61500376D01*
G37*
G36*
X49955581Y-59925376D02*
G01*
X49979281Y-59928891D01*
X50002523Y-59934713D01*
X50025082Y-59942785D01*
X50046742Y-59953029D01*
X50067292Y-59965347D01*
X50086537Y-59979619D01*
X50104290Y-59995710D01*
X50120381Y-60013463D01*
X50134653Y-60032708D01*
X50146971Y-60053258D01*
X50157215Y-60074918D01*
X50165287Y-60097477D01*
X50171109Y-60120719D01*
X50174624Y-60144419D01*
X50175800Y-60168350D01*
X50175800Y-60656650D01*
X50174624Y-60680581D01*
X50171109Y-60704281D01*
X50165287Y-60727523D01*
X50157215Y-60750082D01*
X50146971Y-60771742D01*
X50134653Y-60792292D01*
X50120381Y-60811537D01*
X50104290Y-60829290D01*
X50086537Y-60845381D01*
X50067292Y-60859653D01*
X50046742Y-60871971D01*
X50025082Y-60882215D01*
X50002523Y-60890287D01*
X49979281Y-60896109D01*
X49955581Y-60899624D01*
X49931650Y-60900800D01*
X49368350Y-60900800D01*
X49344419Y-60899624D01*
X49320719Y-60896109D01*
X49297477Y-60890287D01*
X49274918Y-60882215D01*
X49253258Y-60871971D01*
X49232708Y-60859653D01*
X49213463Y-60845381D01*
X49195710Y-60829290D01*
X49179619Y-60811537D01*
X49165347Y-60792292D01*
X49153029Y-60771742D01*
X49142785Y-60750082D01*
X49134713Y-60727523D01*
X49128891Y-60704281D01*
X49125376Y-60680581D01*
X49124200Y-60656650D01*
X49124200Y-60168350D01*
X49125376Y-60144419D01*
X49128891Y-60120719D01*
X49134713Y-60097477D01*
X49142785Y-60074918D01*
X49153029Y-60053258D01*
X49165347Y-60032708D01*
X49179619Y-60013463D01*
X49195710Y-59995710D01*
X49213463Y-59979619D01*
X49232708Y-59965347D01*
X49253258Y-59953029D01*
X49274918Y-59942785D01*
X49297477Y-59934713D01*
X49320719Y-59928891D01*
X49344419Y-59925376D01*
X49368350Y-59924200D01*
X49931650Y-59924200D01*
X49955581Y-59925376D01*
G37*
G36*
X44705581Y-59912876D02*
G01*
X44729281Y-59916391D01*
X44752523Y-59922213D01*
X44775082Y-59930285D01*
X44796742Y-59940529D01*
X44817292Y-59952847D01*
X44836537Y-59967119D01*
X44854290Y-59983210D01*
X44870381Y-60000963D01*
X44884653Y-60020208D01*
X44896971Y-60040758D01*
X44907215Y-60062418D01*
X44915287Y-60084977D01*
X44921109Y-60108219D01*
X44924624Y-60131919D01*
X44925800Y-60155850D01*
X44925800Y-60644150D01*
X44924624Y-60668081D01*
X44921109Y-60691781D01*
X44915287Y-60715023D01*
X44907215Y-60737582D01*
X44896971Y-60759242D01*
X44884653Y-60779792D01*
X44870381Y-60799037D01*
X44854290Y-60816790D01*
X44836537Y-60832881D01*
X44817292Y-60847153D01*
X44796742Y-60859471D01*
X44775082Y-60869715D01*
X44752523Y-60877787D01*
X44729281Y-60883609D01*
X44705581Y-60887124D01*
X44681650Y-60888300D01*
X44118350Y-60888300D01*
X44094419Y-60887124D01*
X44070719Y-60883609D01*
X44047477Y-60877787D01*
X44024918Y-60869715D01*
X44003258Y-60859471D01*
X43982708Y-60847153D01*
X43963463Y-60832881D01*
X43945710Y-60816790D01*
X43929619Y-60799037D01*
X43915347Y-60779792D01*
X43903029Y-60759242D01*
X43892785Y-60737582D01*
X43884713Y-60715023D01*
X43878891Y-60691781D01*
X43875376Y-60668081D01*
X43874200Y-60644150D01*
X43874200Y-60155850D01*
X43875376Y-60131919D01*
X43878891Y-60108219D01*
X43884713Y-60084977D01*
X43892785Y-60062418D01*
X43903029Y-60040758D01*
X43915347Y-60020208D01*
X43929619Y-60000963D01*
X43945710Y-59983210D01*
X43963463Y-59967119D01*
X43982708Y-59952847D01*
X44003258Y-59940529D01*
X44024918Y-59930285D01*
X44047477Y-59922213D01*
X44070719Y-59916391D01*
X44094419Y-59912876D01*
X44118350Y-59911700D01*
X44681650Y-59911700D01*
X44705581Y-59912876D01*
G37*
G36*
X44705581Y-61487876D02*
G01*
X44729281Y-61491391D01*
X44752523Y-61497213D01*
X44775082Y-61505285D01*
X44796742Y-61515529D01*
X44817292Y-61527847D01*
X44836537Y-61542119D01*
X44854290Y-61558210D01*
X44870381Y-61575963D01*
X44884653Y-61595208D01*
X44896971Y-61615758D01*
X44907215Y-61637418D01*
X44915287Y-61659977D01*
X44921109Y-61683219D01*
X44924624Y-61706919D01*
X44925800Y-61730850D01*
X44925800Y-62219150D01*
X44924624Y-62243081D01*
X44921109Y-62266781D01*
X44915287Y-62290023D01*
X44907215Y-62312582D01*
X44896971Y-62334242D01*
X44884653Y-62354792D01*
X44870381Y-62374037D01*
X44854290Y-62391790D01*
X44836537Y-62407881D01*
X44817292Y-62422153D01*
X44796742Y-62434471D01*
X44775082Y-62444715D01*
X44752523Y-62452787D01*
X44729281Y-62458609D01*
X44705581Y-62462124D01*
X44681650Y-62463300D01*
X44118350Y-62463300D01*
X44094419Y-62462124D01*
X44070719Y-62458609D01*
X44047477Y-62452787D01*
X44024918Y-62444715D01*
X44003258Y-62434471D01*
X43982708Y-62422153D01*
X43963463Y-62407881D01*
X43945710Y-62391790D01*
X43929619Y-62374037D01*
X43915347Y-62354792D01*
X43903029Y-62334242D01*
X43892785Y-62312582D01*
X43884713Y-62290023D01*
X43878891Y-62266781D01*
X43875376Y-62243081D01*
X43874200Y-62219150D01*
X43874200Y-61730850D01*
X43875376Y-61706919D01*
X43878891Y-61683219D01*
X43884713Y-61659977D01*
X43892785Y-61637418D01*
X43903029Y-61615758D01*
X43915347Y-61595208D01*
X43929619Y-61575963D01*
X43945710Y-61558210D01*
X43963463Y-61542119D01*
X43982708Y-61527847D01*
X44003258Y-61515529D01*
X44024918Y-61505285D01*
X44047477Y-61497213D01*
X44070719Y-61491391D01*
X44094419Y-61487876D01*
X44118350Y-61486700D01*
X44681650Y-61486700D01*
X44705581Y-61487876D01*
G37*
D17*
X37310000Y-60514000D03*
X35410000Y-60514000D03*
X36360000Y-62514000D03*
X47020000Y-62414000D03*
X46070000Y-60414000D03*
X47970000Y-60414000D03*
D14*
G36*
X74418081Y-34341376D02*
G01*
X74441781Y-34344891D01*
X74465023Y-34350713D01*
X74487582Y-34358785D01*
X74509242Y-34369029D01*
X74529792Y-34381347D01*
X74549037Y-34395619D01*
X74566790Y-34411710D01*
X74582881Y-34429463D01*
X74597153Y-34448708D01*
X74609471Y-34469258D01*
X74619715Y-34490918D01*
X74627787Y-34513477D01*
X74633609Y-34536719D01*
X74637124Y-34560419D01*
X74638300Y-34584350D01*
X74638300Y-35072650D01*
X74637124Y-35096581D01*
X74633609Y-35120281D01*
X74627787Y-35143523D01*
X74619715Y-35166082D01*
X74609471Y-35187742D01*
X74597153Y-35208292D01*
X74582881Y-35227537D01*
X74566790Y-35245290D01*
X74549037Y-35261381D01*
X74529792Y-35275653D01*
X74509242Y-35287971D01*
X74487582Y-35298215D01*
X74465023Y-35306287D01*
X74441781Y-35312109D01*
X74418081Y-35315624D01*
X74394150Y-35316800D01*
X73830850Y-35316800D01*
X73806919Y-35315624D01*
X73783219Y-35312109D01*
X73759977Y-35306287D01*
X73737418Y-35298215D01*
X73715758Y-35287971D01*
X73695208Y-35275653D01*
X73675963Y-35261381D01*
X73658210Y-35245290D01*
X73642119Y-35227537D01*
X73627847Y-35208292D01*
X73615529Y-35187742D01*
X73605285Y-35166082D01*
X73597213Y-35143523D01*
X73591391Y-35120281D01*
X73587876Y-35096581D01*
X73586700Y-35072650D01*
X73586700Y-34584350D01*
X73587876Y-34560419D01*
X73591391Y-34536719D01*
X73597213Y-34513477D01*
X73605285Y-34490918D01*
X73615529Y-34469258D01*
X73627847Y-34448708D01*
X73642119Y-34429463D01*
X73658210Y-34411710D01*
X73675963Y-34395619D01*
X73695208Y-34381347D01*
X73715758Y-34369029D01*
X73737418Y-34358785D01*
X73759977Y-34350713D01*
X73783219Y-34344891D01*
X73806919Y-34341376D01*
X73830850Y-34340200D01*
X74394150Y-34340200D01*
X74418081Y-34341376D01*
G37*
G36*
X74418081Y-35916376D02*
G01*
X74441781Y-35919891D01*
X74465023Y-35925713D01*
X74487582Y-35933785D01*
X74509242Y-35944029D01*
X74529792Y-35956347D01*
X74549037Y-35970619D01*
X74566790Y-35986710D01*
X74582881Y-36004463D01*
X74597153Y-36023708D01*
X74609471Y-36044258D01*
X74619715Y-36065918D01*
X74627787Y-36088477D01*
X74633609Y-36111719D01*
X74637124Y-36135419D01*
X74638300Y-36159350D01*
X74638300Y-36647650D01*
X74637124Y-36671581D01*
X74633609Y-36695281D01*
X74627787Y-36718523D01*
X74619715Y-36741082D01*
X74609471Y-36762742D01*
X74597153Y-36783292D01*
X74582881Y-36802537D01*
X74566790Y-36820290D01*
X74549037Y-36836381D01*
X74529792Y-36850653D01*
X74509242Y-36862971D01*
X74487582Y-36873215D01*
X74465023Y-36881287D01*
X74441781Y-36887109D01*
X74418081Y-36890624D01*
X74394150Y-36891800D01*
X73830850Y-36891800D01*
X73806919Y-36890624D01*
X73783219Y-36887109D01*
X73759977Y-36881287D01*
X73737418Y-36873215D01*
X73715758Y-36862971D01*
X73695208Y-36850653D01*
X73675963Y-36836381D01*
X73658210Y-36820290D01*
X73642119Y-36802537D01*
X73627847Y-36783292D01*
X73615529Y-36762742D01*
X73605285Y-36741082D01*
X73597213Y-36718523D01*
X73591391Y-36695281D01*
X73587876Y-36671581D01*
X73586700Y-36647650D01*
X73586700Y-36159350D01*
X73587876Y-36135419D01*
X73591391Y-36111719D01*
X73597213Y-36088477D01*
X73605285Y-36065918D01*
X73615529Y-36044258D01*
X73627847Y-36023708D01*
X73642119Y-36004463D01*
X73658210Y-35986710D01*
X73675963Y-35970619D01*
X73695208Y-35956347D01*
X73715758Y-35944029D01*
X73737418Y-35933785D01*
X73759977Y-35925713D01*
X73783219Y-35919891D01*
X73806919Y-35916376D01*
X73830850Y-35915200D01*
X74394150Y-35915200D01*
X74418081Y-35916376D01*
G37*
G36*
X70568081Y-43591376D02*
G01*
X70591781Y-43594891D01*
X70615023Y-43600713D01*
X70637582Y-43608785D01*
X70659242Y-43619029D01*
X70679792Y-43631347D01*
X70699037Y-43645619D01*
X70716790Y-43661710D01*
X70732881Y-43679463D01*
X70747153Y-43698708D01*
X70759471Y-43719258D01*
X70769715Y-43740918D01*
X70777787Y-43763477D01*
X70783609Y-43786719D01*
X70787124Y-43810419D01*
X70788300Y-43834350D01*
X70788300Y-44397650D01*
X70787124Y-44421581D01*
X70783609Y-44445281D01*
X70777787Y-44468523D01*
X70769715Y-44491082D01*
X70759471Y-44512742D01*
X70747153Y-44533292D01*
X70732881Y-44552537D01*
X70716790Y-44570290D01*
X70699037Y-44586381D01*
X70679792Y-44600653D01*
X70659242Y-44612971D01*
X70637582Y-44623215D01*
X70615023Y-44631287D01*
X70591781Y-44637109D01*
X70568081Y-44640624D01*
X70544150Y-44641800D01*
X70055850Y-44641800D01*
X70031919Y-44640624D01*
X70008219Y-44637109D01*
X69984977Y-44631287D01*
X69962418Y-44623215D01*
X69940758Y-44612971D01*
X69920208Y-44600653D01*
X69900963Y-44586381D01*
X69883210Y-44570290D01*
X69867119Y-44552537D01*
X69852847Y-44533292D01*
X69840529Y-44512742D01*
X69830285Y-44491082D01*
X69822213Y-44468523D01*
X69816391Y-44445281D01*
X69812876Y-44421581D01*
X69811700Y-44397650D01*
X69811700Y-43834350D01*
X69812876Y-43810419D01*
X69816391Y-43786719D01*
X69822213Y-43763477D01*
X69830285Y-43740918D01*
X69840529Y-43719258D01*
X69852847Y-43698708D01*
X69867119Y-43679463D01*
X69883210Y-43661710D01*
X69900963Y-43645619D01*
X69920208Y-43631347D01*
X69940758Y-43619029D01*
X69962418Y-43608785D01*
X69984977Y-43600713D01*
X70008219Y-43594891D01*
X70031919Y-43591376D01*
X70055850Y-43590200D01*
X70544150Y-43590200D01*
X70568081Y-43591376D01*
G37*
G36*
X68993081Y-43591376D02*
G01*
X69016781Y-43594891D01*
X69040023Y-43600713D01*
X69062582Y-43608785D01*
X69084242Y-43619029D01*
X69104792Y-43631347D01*
X69124037Y-43645619D01*
X69141790Y-43661710D01*
X69157881Y-43679463D01*
X69172153Y-43698708D01*
X69184471Y-43719258D01*
X69194715Y-43740918D01*
X69202787Y-43763477D01*
X69208609Y-43786719D01*
X69212124Y-43810419D01*
X69213300Y-43834350D01*
X69213300Y-44397650D01*
X69212124Y-44421581D01*
X69208609Y-44445281D01*
X69202787Y-44468523D01*
X69194715Y-44491082D01*
X69184471Y-44512742D01*
X69172153Y-44533292D01*
X69157881Y-44552537D01*
X69141790Y-44570290D01*
X69124037Y-44586381D01*
X69104792Y-44600653D01*
X69084242Y-44612971D01*
X69062582Y-44623215D01*
X69040023Y-44631287D01*
X69016781Y-44637109D01*
X68993081Y-44640624D01*
X68969150Y-44641800D01*
X68480850Y-44641800D01*
X68456919Y-44640624D01*
X68433219Y-44637109D01*
X68409977Y-44631287D01*
X68387418Y-44623215D01*
X68365758Y-44612971D01*
X68345208Y-44600653D01*
X68325963Y-44586381D01*
X68308210Y-44570290D01*
X68292119Y-44552537D01*
X68277847Y-44533292D01*
X68265529Y-44512742D01*
X68255285Y-44491082D01*
X68247213Y-44468523D01*
X68241391Y-44445281D01*
X68237876Y-44421581D01*
X68236700Y-44397650D01*
X68236700Y-43834350D01*
X68237876Y-43810419D01*
X68241391Y-43786719D01*
X68247213Y-43763477D01*
X68255285Y-43740918D01*
X68265529Y-43719258D01*
X68277847Y-43698708D01*
X68292119Y-43679463D01*
X68308210Y-43661710D01*
X68325963Y-43645619D01*
X68345208Y-43631347D01*
X68365758Y-43619029D01*
X68387418Y-43608785D01*
X68409977Y-43600713D01*
X68433219Y-43594891D01*
X68456919Y-43591376D01*
X68480850Y-43590200D01*
X68969150Y-43590200D01*
X68993081Y-43591376D01*
G37*
G36*
X66305581Y-43841376D02*
G01*
X66329281Y-43844891D01*
X66352523Y-43850713D01*
X66375082Y-43858785D01*
X66396742Y-43869029D01*
X66417292Y-43881347D01*
X66436537Y-43895619D01*
X66454290Y-43911710D01*
X66470381Y-43929463D01*
X66484653Y-43948708D01*
X66496971Y-43969258D01*
X66507215Y-43990918D01*
X66515287Y-44013477D01*
X66521109Y-44036719D01*
X66524624Y-44060419D01*
X66525800Y-44084350D01*
X66525800Y-44572650D01*
X66524624Y-44596581D01*
X66521109Y-44620281D01*
X66515287Y-44643523D01*
X66507215Y-44666082D01*
X66496971Y-44687742D01*
X66484653Y-44708292D01*
X66470381Y-44727537D01*
X66454290Y-44745290D01*
X66436537Y-44761381D01*
X66417292Y-44775653D01*
X66396742Y-44787971D01*
X66375082Y-44798215D01*
X66352523Y-44806287D01*
X66329281Y-44812109D01*
X66305581Y-44815624D01*
X66281650Y-44816800D01*
X65718350Y-44816800D01*
X65694419Y-44815624D01*
X65670719Y-44812109D01*
X65647477Y-44806287D01*
X65624918Y-44798215D01*
X65603258Y-44787971D01*
X65582708Y-44775653D01*
X65563463Y-44761381D01*
X65545710Y-44745290D01*
X65529619Y-44727537D01*
X65515347Y-44708292D01*
X65503029Y-44687742D01*
X65492785Y-44666082D01*
X65484713Y-44643523D01*
X65478891Y-44620281D01*
X65475376Y-44596581D01*
X65474200Y-44572650D01*
X65474200Y-44084350D01*
X65475376Y-44060419D01*
X65478891Y-44036719D01*
X65484713Y-44013477D01*
X65492785Y-43990918D01*
X65503029Y-43969258D01*
X65515347Y-43948708D01*
X65529619Y-43929463D01*
X65545710Y-43911710D01*
X65563463Y-43895619D01*
X65582708Y-43881347D01*
X65603258Y-43869029D01*
X65624918Y-43858785D01*
X65647477Y-43850713D01*
X65670719Y-43844891D01*
X65694419Y-43841376D01*
X65718350Y-43840200D01*
X66281650Y-43840200D01*
X66305581Y-43841376D01*
G37*
G36*
X66305581Y-45416376D02*
G01*
X66329281Y-45419891D01*
X66352523Y-45425713D01*
X66375082Y-45433785D01*
X66396742Y-45444029D01*
X66417292Y-45456347D01*
X66436537Y-45470619D01*
X66454290Y-45486710D01*
X66470381Y-45504463D01*
X66484653Y-45523708D01*
X66496971Y-45544258D01*
X66507215Y-45565918D01*
X66515287Y-45588477D01*
X66521109Y-45611719D01*
X66524624Y-45635419D01*
X66525800Y-45659350D01*
X66525800Y-46147650D01*
X66524624Y-46171581D01*
X66521109Y-46195281D01*
X66515287Y-46218523D01*
X66507215Y-46241082D01*
X66496971Y-46262742D01*
X66484653Y-46283292D01*
X66470381Y-46302537D01*
X66454290Y-46320290D01*
X66436537Y-46336381D01*
X66417292Y-46350653D01*
X66396742Y-46362971D01*
X66375082Y-46373215D01*
X66352523Y-46381287D01*
X66329281Y-46387109D01*
X66305581Y-46390624D01*
X66281650Y-46391800D01*
X65718350Y-46391800D01*
X65694419Y-46390624D01*
X65670719Y-46387109D01*
X65647477Y-46381287D01*
X65624918Y-46373215D01*
X65603258Y-46362971D01*
X65582708Y-46350653D01*
X65563463Y-46336381D01*
X65545710Y-46320290D01*
X65529619Y-46302537D01*
X65515347Y-46283292D01*
X65503029Y-46262742D01*
X65492785Y-46241082D01*
X65484713Y-46218523D01*
X65478891Y-46195281D01*
X65475376Y-46171581D01*
X65474200Y-46147650D01*
X65474200Y-45659350D01*
X65475376Y-45635419D01*
X65478891Y-45611719D01*
X65484713Y-45588477D01*
X65492785Y-45565918D01*
X65503029Y-45544258D01*
X65515347Y-45523708D01*
X65529619Y-45504463D01*
X65545710Y-45486710D01*
X65563463Y-45470619D01*
X65582708Y-45456347D01*
X65603258Y-45444029D01*
X65624918Y-45433785D01*
X65647477Y-45425713D01*
X65670719Y-45419891D01*
X65694419Y-45416376D01*
X65718350Y-45415200D01*
X66281650Y-45415200D01*
X66305581Y-45416376D01*
G37*
G36*
X74418081Y-38641376D02*
G01*
X74441781Y-38644891D01*
X74465023Y-38650713D01*
X74487582Y-38658785D01*
X74509242Y-38669029D01*
X74529792Y-38681347D01*
X74549037Y-38695619D01*
X74566790Y-38711710D01*
X74582881Y-38729463D01*
X74597153Y-38748708D01*
X74609471Y-38769258D01*
X74619715Y-38790918D01*
X74627787Y-38813477D01*
X74633609Y-38836719D01*
X74637124Y-38860419D01*
X74638300Y-38884350D01*
X74638300Y-39372650D01*
X74637124Y-39396581D01*
X74633609Y-39420281D01*
X74627787Y-39443523D01*
X74619715Y-39466082D01*
X74609471Y-39487742D01*
X74597153Y-39508292D01*
X74582881Y-39527537D01*
X74566790Y-39545290D01*
X74549037Y-39561381D01*
X74529792Y-39575653D01*
X74509242Y-39587971D01*
X74487582Y-39598215D01*
X74465023Y-39606287D01*
X74441781Y-39612109D01*
X74418081Y-39615624D01*
X74394150Y-39616800D01*
X73830850Y-39616800D01*
X73806919Y-39615624D01*
X73783219Y-39612109D01*
X73759977Y-39606287D01*
X73737418Y-39598215D01*
X73715758Y-39587971D01*
X73695208Y-39575653D01*
X73675963Y-39561381D01*
X73658210Y-39545290D01*
X73642119Y-39527537D01*
X73627847Y-39508292D01*
X73615529Y-39487742D01*
X73605285Y-39466082D01*
X73597213Y-39443523D01*
X73591391Y-39420281D01*
X73587876Y-39396581D01*
X73586700Y-39372650D01*
X73586700Y-38884350D01*
X73587876Y-38860419D01*
X73591391Y-38836719D01*
X73597213Y-38813477D01*
X73605285Y-38790918D01*
X73615529Y-38769258D01*
X73627847Y-38748708D01*
X73642119Y-38729463D01*
X73658210Y-38711710D01*
X73675963Y-38695619D01*
X73695208Y-38681347D01*
X73715758Y-38669029D01*
X73737418Y-38658785D01*
X73759977Y-38650713D01*
X73783219Y-38644891D01*
X73806919Y-38641376D01*
X73830850Y-38640200D01*
X74394150Y-38640200D01*
X74418081Y-38641376D01*
G37*
G36*
X74418081Y-40216376D02*
G01*
X74441781Y-40219891D01*
X74465023Y-40225713D01*
X74487582Y-40233785D01*
X74509242Y-40244029D01*
X74529792Y-40256347D01*
X74549037Y-40270619D01*
X74566790Y-40286710D01*
X74582881Y-40304463D01*
X74597153Y-40323708D01*
X74609471Y-40344258D01*
X74619715Y-40365918D01*
X74627787Y-40388477D01*
X74633609Y-40411719D01*
X74637124Y-40435419D01*
X74638300Y-40459350D01*
X74638300Y-40947650D01*
X74637124Y-40971581D01*
X74633609Y-40995281D01*
X74627787Y-41018523D01*
X74619715Y-41041082D01*
X74609471Y-41062742D01*
X74597153Y-41083292D01*
X74582881Y-41102537D01*
X74566790Y-41120290D01*
X74549037Y-41136381D01*
X74529792Y-41150653D01*
X74509242Y-41162971D01*
X74487582Y-41173215D01*
X74465023Y-41181287D01*
X74441781Y-41187109D01*
X74418081Y-41190624D01*
X74394150Y-41191800D01*
X73830850Y-41191800D01*
X73806919Y-41190624D01*
X73783219Y-41187109D01*
X73759977Y-41181287D01*
X73737418Y-41173215D01*
X73715758Y-41162971D01*
X73695208Y-41150653D01*
X73675963Y-41136381D01*
X73658210Y-41120290D01*
X73642119Y-41102537D01*
X73627847Y-41083292D01*
X73615529Y-41062742D01*
X73605285Y-41041082D01*
X73597213Y-41018523D01*
X73591391Y-40995281D01*
X73587876Y-40971581D01*
X73586700Y-40947650D01*
X73586700Y-40459350D01*
X73587876Y-40435419D01*
X73591391Y-40411719D01*
X73597213Y-40388477D01*
X73605285Y-40365918D01*
X73615529Y-40344258D01*
X73627847Y-40323708D01*
X73642119Y-40304463D01*
X73658210Y-40286710D01*
X73675963Y-40270619D01*
X73695208Y-40256347D01*
X73715758Y-40244029D01*
X73737418Y-40233785D01*
X73759977Y-40225713D01*
X73783219Y-40219891D01*
X73806919Y-40216376D01*
X73830850Y-40215200D01*
X74394150Y-40215200D01*
X74418081Y-40216376D01*
G37*
G36*
X58498081Y-40846376D02*
G01*
X58521781Y-40849891D01*
X58545023Y-40855713D01*
X58567582Y-40863785D01*
X58589242Y-40874029D01*
X58609792Y-40886347D01*
X58629037Y-40900619D01*
X58646790Y-40916710D01*
X58662881Y-40934463D01*
X58677153Y-40953708D01*
X58689471Y-40974258D01*
X58699715Y-40995918D01*
X58707787Y-41018477D01*
X58713609Y-41041719D01*
X58717124Y-41065419D01*
X58718300Y-41089350D01*
X58718300Y-41577650D01*
X58717124Y-41601581D01*
X58713609Y-41625281D01*
X58707787Y-41648523D01*
X58699715Y-41671082D01*
X58689471Y-41692742D01*
X58677153Y-41713292D01*
X58662881Y-41732537D01*
X58646790Y-41750290D01*
X58629037Y-41766381D01*
X58609792Y-41780653D01*
X58589242Y-41792971D01*
X58567582Y-41803215D01*
X58545023Y-41811287D01*
X58521781Y-41817109D01*
X58498081Y-41820624D01*
X58474150Y-41821800D01*
X57910850Y-41821800D01*
X57886919Y-41820624D01*
X57863219Y-41817109D01*
X57839977Y-41811287D01*
X57817418Y-41803215D01*
X57795758Y-41792971D01*
X57775208Y-41780653D01*
X57755963Y-41766381D01*
X57738210Y-41750290D01*
X57722119Y-41732537D01*
X57707847Y-41713292D01*
X57695529Y-41692742D01*
X57685285Y-41671082D01*
X57677213Y-41648523D01*
X57671391Y-41625281D01*
X57667876Y-41601581D01*
X57666700Y-41577650D01*
X57666700Y-41089350D01*
X57667876Y-41065419D01*
X57671391Y-41041719D01*
X57677213Y-41018477D01*
X57685285Y-40995918D01*
X57695529Y-40974258D01*
X57707847Y-40953708D01*
X57722119Y-40934463D01*
X57738210Y-40916710D01*
X57755963Y-40900619D01*
X57775208Y-40886347D01*
X57795758Y-40874029D01*
X57817418Y-40863785D01*
X57839977Y-40855713D01*
X57863219Y-40849891D01*
X57886919Y-40846376D01*
X57910850Y-40845200D01*
X58474150Y-40845200D01*
X58498081Y-40846376D01*
G37*
G36*
X58498081Y-39271376D02*
G01*
X58521781Y-39274891D01*
X58545023Y-39280713D01*
X58567582Y-39288785D01*
X58589242Y-39299029D01*
X58609792Y-39311347D01*
X58629037Y-39325619D01*
X58646790Y-39341710D01*
X58662881Y-39359463D01*
X58677153Y-39378708D01*
X58689471Y-39399258D01*
X58699715Y-39420918D01*
X58707787Y-39443477D01*
X58713609Y-39466719D01*
X58717124Y-39490419D01*
X58718300Y-39514350D01*
X58718300Y-40002650D01*
X58717124Y-40026581D01*
X58713609Y-40050281D01*
X58707787Y-40073523D01*
X58699715Y-40096082D01*
X58689471Y-40117742D01*
X58677153Y-40138292D01*
X58662881Y-40157537D01*
X58646790Y-40175290D01*
X58629037Y-40191381D01*
X58609792Y-40205653D01*
X58589242Y-40217971D01*
X58567582Y-40228215D01*
X58545023Y-40236287D01*
X58521781Y-40242109D01*
X58498081Y-40245624D01*
X58474150Y-40246800D01*
X57910850Y-40246800D01*
X57886919Y-40245624D01*
X57863219Y-40242109D01*
X57839977Y-40236287D01*
X57817418Y-40228215D01*
X57795758Y-40217971D01*
X57775208Y-40205653D01*
X57755963Y-40191381D01*
X57738210Y-40175290D01*
X57722119Y-40157537D01*
X57707847Y-40138292D01*
X57695529Y-40117742D01*
X57685285Y-40096082D01*
X57677213Y-40073523D01*
X57671391Y-40050281D01*
X57667876Y-40026581D01*
X57666700Y-40002650D01*
X57666700Y-39514350D01*
X57667876Y-39490419D01*
X57671391Y-39466719D01*
X57677213Y-39443477D01*
X57685285Y-39420918D01*
X57695529Y-39399258D01*
X57707847Y-39378708D01*
X57722119Y-39359463D01*
X57738210Y-39341710D01*
X57755963Y-39325619D01*
X57775208Y-39311347D01*
X57795758Y-39299029D01*
X57817418Y-39288785D01*
X57839977Y-39280713D01*
X57863219Y-39274891D01*
X57886919Y-39271376D01*
X57910850Y-39270200D01*
X58474150Y-39270200D01*
X58498081Y-39271376D01*
G37*
G36*
X50968081Y-39341376D02*
G01*
X50991781Y-39344891D01*
X51015023Y-39350713D01*
X51037582Y-39358785D01*
X51059242Y-39369029D01*
X51079792Y-39381347D01*
X51099037Y-39395619D01*
X51116790Y-39411710D01*
X51132881Y-39429463D01*
X51147153Y-39448708D01*
X51159471Y-39469258D01*
X51169715Y-39490918D01*
X51177787Y-39513477D01*
X51183609Y-39536719D01*
X51187124Y-39560419D01*
X51188300Y-39584350D01*
X51188300Y-40072650D01*
X51187124Y-40096581D01*
X51183609Y-40120281D01*
X51177787Y-40143523D01*
X51169715Y-40166082D01*
X51159471Y-40187742D01*
X51147153Y-40208292D01*
X51132881Y-40227537D01*
X51116790Y-40245290D01*
X51099037Y-40261381D01*
X51079792Y-40275653D01*
X51059242Y-40287971D01*
X51037582Y-40298215D01*
X51015023Y-40306287D01*
X50991781Y-40312109D01*
X50968081Y-40315624D01*
X50944150Y-40316800D01*
X50380850Y-40316800D01*
X50356919Y-40315624D01*
X50333219Y-40312109D01*
X50309977Y-40306287D01*
X50287418Y-40298215D01*
X50265758Y-40287971D01*
X50245208Y-40275653D01*
X50225963Y-40261381D01*
X50208210Y-40245290D01*
X50192119Y-40227537D01*
X50177847Y-40208292D01*
X50165529Y-40187742D01*
X50155285Y-40166082D01*
X50147213Y-40143523D01*
X50141391Y-40120281D01*
X50137876Y-40096581D01*
X50136700Y-40072650D01*
X50136700Y-39584350D01*
X50137876Y-39560419D01*
X50141391Y-39536719D01*
X50147213Y-39513477D01*
X50155285Y-39490918D01*
X50165529Y-39469258D01*
X50177847Y-39448708D01*
X50192119Y-39429463D01*
X50208210Y-39411710D01*
X50225963Y-39395619D01*
X50245208Y-39381347D01*
X50265758Y-39369029D01*
X50287418Y-39358785D01*
X50309977Y-39350713D01*
X50333219Y-39344891D01*
X50356919Y-39341376D01*
X50380850Y-39340200D01*
X50944150Y-39340200D01*
X50968081Y-39341376D01*
G37*
G36*
X50968081Y-40916376D02*
G01*
X50991781Y-40919891D01*
X51015023Y-40925713D01*
X51037582Y-40933785D01*
X51059242Y-40944029D01*
X51079792Y-40956347D01*
X51099037Y-40970619D01*
X51116790Y-40986710D01*
X51132881Y-41004463D01*
X51147153Y-41023708D01*
X51159471Y-41044258D01*
X51169715Y-41065918D01*
X51177787Y-41088477D01*
X51183609Y-41111719D01*
X51187124Y-41135419D01*
X51188300Y-41159350D01*
X51188300Y-41647650D01*
X51187124Y-41671581D01*
X51183609Y-41695281D01*
X51177787Y-41718523D01*
X51169715Y-41741082D01*
X51159471Y-41762742D01*
X51147153Y-41783292D01*
X51132881Y-41802537D01*
X51116790Y-41820290D01*
X51099037Y-41836381D01*
X51079792Y-41850653D01*
X51059242Y-41862971D01*
X51037582Y-41873215D01*
X51015023Y-41881287D01*
X50991781Y-41887109D01*
X50968081Y-41890624D01*
X50944150Y-41891800D01*
X50380850Y-41891800D01*
X50356919Y-41890624D01*
X50333219Y-41887109D01*
X50309977Y-41881287D01*
X50287418Y-41873215D01*
X50265758Y-41862971D01*
X50245208Y-41850653D01*
X50225963Y-41836381D01*
X50208210Y-41820290D01*
X50192119Y-41802537D01*
X50177847Y-41783292D01*
X50165529Y-41762742D01*
X50155285Y-41741082D01*
X50147213Y-41718523D01*
X50141391Y-41695281D01*
X50137876Y-41671581D01*
X50136700Y-41647650D01*
X50136700Y-41159350D01*
X50137876Y-41135419D01*
X50141391Y-41111719D01*
X50147213Y-41088477D01*
X50155285Y-41065918D01*
X50165529Y-41044258D01*
X50177847Y-41023708D01*
X50192119Y-41004463D01*
X50208210Y-40986710D01*
X50225963Y-40970619D01*
X50245208Y-40956347D01*
X50265758Y-40944029D01*
X50287418Y-40933785D01*
X50309977Y-40925713D01*
X50333219Y-40919891D01*
X50356919Y-40916376D01*
X50380850Y-40915200D01*
X50944150Y-40915200D01*
X50968081Y-40916376D01*
G37*
G36*
X55546726Y-62341490D02*
G01*
X55572725Y-62345346D01*
X55598220Y-62351732D01*
X55622967Y-62360587D01*
X55646727Y-62371824D01*
X55669271Y-62385337D01*
X55690381Y-62400993D01*
X55709856Y-62418644D01*
X55727507Y-62438119D01*
X55743163Y-62459229D01*
X55756676Y-62481773D01*
X55767913Y-62505533D01*
X55776768Y-62530280D01*
X55783154Y-62555775D01*
X55787010Y-62581774D01*
X55788300Y-62608025D01*
X55788300Y-63598975D01*
X55787010Y-63625226D01*
X55783154Y-63651225D01*
X55776768Y-63676720D01*
X55767913Y-63701467D01*
X55756676Y-63725227D01*
X55743163Y-63747771D01*
X55727507Y-63768881D01*
X55709856Y-63788356D01*
X55690381Y-63806007D01*
X55669271Y-63821663D01*
X55646727Y-63835176D01*
X55622967Y-63846413D01*
X55598220Y-63855268D01*
X55572725Y-63861654D01*
X55546726Y-63865510D01*
X55520475Y-63866800D01*
X54204525Y-63866800D01*
X54178274Y-63865510D01*
X54152275Y-63861654D01*
X54126780Y-63855268D01*
X54102033Y-63846413D01*
X54078273Y-63835176D01*
X54055729Y-63821663D01*
X54034619Y-63806007D01*
X54015144Y-63788356D01*
X53997493Y-63768881D01*
X53981837Y-63747771D01*
X53968324Y-63725227D01*
X53957087Y-63701467D01*
X53948232Y-63676720D01*
X53941846Y-63651225D01*
X53937990Y-63625226D01*
X53936700Y-63598975D01*
X53936700Y-62608025D01*
X53937990Y-62581774D01*
X53941846Y-62555775D01*
X53948232Y-62530280D01*
X53957087Y-62505533D01*
X53968324Y-62481773D01*
X53981837Y-62459229D01*
X53997493Y-62438119D01*
X54015144Y-62418644D01*
X54034619Y-62400993D01*
X54055729Y-62385337D01*
X54078273Y-62371824D01*
X54102033Y-62360587D01*
X54126780Y-62351732D01*
X54152275Y-62345346D01*
X54178274Y-62341490D01*
X54204525Y-62340200D01*
X55520475Y-62340200D01*
X55546726Y-62341490D01*
G37*
G36*
X55546726Y-59366490D02*
G01*
X55572725Y-59370346D01*
X55598220Y-59376732D01*
X55622967Y-59385587D01*
X55646727Y-59396824D01*
X55669271Y-59410337D01*
X55690381Y-59425993D01*
X55709856Y-59443644D01*
X55727507Y-59463119D01*
X55743163Y-59484229D01*
X55756676Y-59506773D01*
X55767913Y-59530533D01*
X55776768Y-59555280D01*
X55783154Y-59580775D01*
X55787010Y-59606774D01*
X55788300Y-59633025D01*
X55788300Y-60623975D01*
X55787010Y-60650226D01*
X55783154Y-60676225D01*
X55776768Y-60701720D01*
X55767913Y-60726467D01*
X55756676Y-60750227D01*
X55743163Y-60772771D01*
X55727507Y-60793881D01*
X55709856Y-60813356D01*
X55690381Y-60831007D01*
X55669271Y-60846663D01*
X55646727Y-60860176D01*
X55622967Y-60871413D01*
X55598220Y-60880268D01*
X55572725Y-60886654D01*
X55546726Y-60890510D01*
X55520475Y-60891800D01*
X54204525Y-60891800D01*
X54178274Y-60890510D01*
X54152275Y-60886654D01*
X54126780Y-60880268D01*
X54102033Y-60871413D01*
X54078273Y-60860176D01*
X54055729Y-60846663D01*
X54034619Y-60831007D01*
X54015144Y-60813356D01*
X53997493Y-60793881D01*
X53981837Y-60772771D01*
X53968324Y-60750227D01*
X53957087Y-60726467D01*
X53948232Y-60701720D01*
X53941846Y-60676225D01*
X53937990Y-60650226D01*
X53936700Y-60623975D01*
X53936700Y-59633025D01*
X53937990Y-59606774D01*
X53941846Y-59580775D01*
X53948232Y-59555280D01*
X53957087Y-59530533D01*
X53968324Y-59506773D01*
X53981837Y-59484229D01*
X53997493Y-59463119D01*
X54015144Y-59443644D01*
X54034619Y-59425993D01*
X54055729Y-59410337D01*
X54078273Y-59396824D01*
X54102033Y-59385587D01*
X54126780Y-59376732D01*
X54152275Y-59370346D01*
X54178274Y-59366490D01*
X54204525Y-59365200D01*
X55520475Y-59365200D01*
X55546726Y-59366490D01*
G37*
G36*
X64370531Y-59616496D02*
G01*
X64396659Y-59620372D01*
X64422280Y-59626790D01*
X64447149Y-59635688D01*
X64471026Y-59646981D01*
X64493682Y-59660560D01*
X64514897Y-59676294D01*
X64534468Y-59694032D01*
X64552206Y-59713603D01*
X64567940Y-59734818D01*
X64581519Y-59757474D01*
X64592812Y-59781351D01*
X64601710Y-59806220D01*
X64608128Y-59831841D01*
X64612004Y-59857969D01*
X64613300Y-59884350D01*
X64613300Y-60847650D01*
X64612004Y-60874031D01*
X64608128Y-60900159D01*
X64601710Y-60925780D01*
X64592812Y-60950649D01*
X64581519Y-60974526D01*
X64567940Y-60997182D01*
X64552206Y-61018397D01*
X64534468Y-61037968D01*
X64514897Y-61055706D01*
X64493682Y-61071440D01*
X64471026Y-61085019D01*
X64447149Y-61096312D01*
X64422280Y-61105210D01*
X64396659Y-61111628D01*
X64370531Y-61115504D01*
X64344150Y-61116800D01*
X63805850Y-61116800D01*
X63779469Y-61115504D01*
X63753341Y-61111628D01*
X63727720Y-61105210D01*
X63702851Y-61096312D01*
X63678974Y-61085019D01*
X63656318Y-61071440D01*
X63635103Y-61055706D01*
X63615532Y-61037968D01*
X63597794Y-61018397D01*
X63582060Y-60997182D01*
X63568481Y-60974526D01*
X63557188Y-60950649D01*
X63548290Y-60925780D01*
X63541872Y-60900159D01*
X63537996Y-60874031D01*
X63536700Y-60847650D01*
X63536700Y-59884350D01*
X63537996Y-59857969D01*
X63541872Y-59831841D01*
X63548290Y-59806220D01*
X63557188Y-59781351D01*
X63568481Y-59757474D01*
X63582060Y-59734818D01*
X63597794Y-59713603D01*
X63615532Y-59694032D01*
X63635103Y-59676294D01*
X63656318Y-59660560D01*
X63678974Y-59646981D01*
X63702851Y-59635688D01*
X63727720Y-59626790D01*
X63753341Y-59620372D01*
X63779469Y-59616496D01*
X63805850Y-59615200D01*
X64344150Y-59615200D01*
X64370531Y-59616496D01*
G37*
G36*
X66245531Y-59616496D02*
G01*
X66271659Y-59620372D01*
X66297280Y-59626790D01*
X66322149Y-59635688D01*
X66346026Y-59646981D01*
X66368682Y-59660560D01*
X66389897Y-59676294D01*
X66409468Y-59694032D01*
X66427206Y-59713603D01*
X66442940Y-59734818D01*
X66456519Y-59757474D01*
X66467812Y-59781351D01*
X66476710Y-59806220D01*
X66483128Y-59831841D01*
X66487004Y-59857969D01*
X66488300Y-59884350D01*
X66488300Y-60847650D01*
X66487004Y-60874031D01*
X66483128Y-60900159D01*
X66476710Y-60925780D01*
X66467812Y-60950649D01*
X66456519Y-60974526D01*
X66442940Y-60997182D01*
X66427206Y-61018397D01*
X66409468Y-61037968D01*
X66389897Y-61055706D01*
X66368682Y-61071440D01*
X66346026Y-61085019D01*
X66322149Y-61096312D01*
X66297280Y-61105210D01*
X66271659Y-61111628D01*
X66245531Y-61115504D01*
X66219150Y-61116800D01*
X65680850Y-61116800D01*
X65654469Y-61115504D01*
X65628341Y-61111628D01*
X65602720Y-61105210D01*
X65577851Y-61096312D01*
X65553974Y-61085019D01*
X65531318Y-61071440D01*
X65510103Y-61055706D01*
X65490532Y-61037968D01*
X65472794Y-61018397D01*
X65457060Y-60997182D01*
X65443481Y-60974526D01*
X65432188Y-60950649D01*
X65423290Y-60925780D01*
X65416872Y-60900159D01*
X65412996Y-60874031D01*
X65411700Y-60847650D01*
X65411700Y-59884350D01*
X65412996Y-59857969D01*
X65416872Y-59831841D01*
X65423290Y-59806220D01*
X65432188Y-59781351D01*
X65443481Y-59757474D01*
X65457060Y-59734818D01*
X65472794Y-59713603D01*
X65490532Y-59694032D01*
X65510103Y-59676294D01*
X65531318Y-59660560D01*
X65553974Y-59646981D01*
X65577851Y-59635688D01*
X65602720Y-59626790D01*
X65628341Y-59620372D01*
X65654469Y-59616496D01*
X65680850Y-59615200D01*
X66219150Y-59615200D01*
X66245531Y-59616496D01*
G37*
G36*
X66233031Y-51250496D02*
G01*
X66259159Y-51254372D01*
X66284780Y-51260790D01*
X66309649Y-51269688D01*
X66333526Y-51280981D01*
X66356182Y-51294560D01*
X66377397Y-51310294D01*
X66396968Y-51328032D01*
X66414706Y-51347603D01*
X66430440Y-51368818D01*
X66444019Y-51391474D01*
X66455312Y-51415351D01*
X66464210Y-51440220D01*
X66470628Y-51465841D01*
X66474504Y-51491969D01*
X66475800Y-51518350D01*
X66475800Y-52481650D01*
X66474504Y-52508031D01*
X66470628Y-52534159D01*
X66464210Y-52559780D01*
X66455312Y-52584649D01*
X66444019Y-52608526D01*
X66430440Y-52631182D01*
X66414706Y-52652397D01*
X66396968Y-52671968D01*
X66377397Y-52689706D01*
X66356182Y-52705440D01*
X66333526Y-52719019D01*
X66309649Y-52730312D01*
X66284780Y-52739210D01*
X66259159Y-52745628D01*
X66233031Y-52749504D01*
X66206650Y-52750800D01*
X65668350Y-52750800D01*
X65641969Y-52749504D01*
X65615841Y-52745628D01*
X65590220Y-52739210D01*
X65565351Y-52730312D01*
X65541474Y-52719019D01*
X65518818Y-52705440D01*
X65497603Y-52689706D01*
X65478032Y-52671968D01*
X65460294Y-52652397D01*
X65444560Y-52631182D01*
X65430981Y-52608526D01*
X65419688Y-52584649D01*
X65410790Y-52559780D01*
X65404372Y-52534159D01*
X65400496Y-52508031D01*
X65399200Y-52481650D01*
X65399200Y-51518350D01*
X65400496Y-51491969D01*
X65404372Y-51465841D01*
X65410790Y-51440220D01*
X65419688Y-51415351D01*
X65430981Y-51391474D01*
X65444560Y-51368818D01*
X65460294Y-51347603D01*
X65478032Y-51328032D01*
X65497603Y-51310294D01*
X65518818Y-51294560D01*
X65541474Y-51280981D01*
X65565351Y-51269688D01*
X65590220Y-51260790D01*
X65615841Y-51254372D01*
X65641969Y-51250496D01*
X65668350Y-51249200D01*
X66206650Y-51249200D01*
X66233031Y-51250496D01*
G37*
G36*
X64358031Y-51250496D02*
G01*
X64384159Y-51254372D01*
X64409780Y-51260790D01*
X64434649Y-51269688D01*
X64458526Y-51280981D01*
X64481182Y-51294560D01*
X64502397Y-51310294D01*
X64521968Y-51328032D01*
X64539706Y-51347603D01*
X64555440Y-51368818D01*
X64569019Y-51391474D01*
X64580312Y-51415351D01*
X64589210Y-51440220D01*
X64595628Y-51465841D01*
X64599504Y-51491969D01*
X64600800Y-51518350D01*
X64600800Y-52481650D01*
X64599504Y-52508031D01*
X64595628Y-52534159D01*
X64589210Y-52559780D01*
X64580312Y-52584649D01*
X64569019Y-52608526D01*
X64555440Y-52631182D01*
X64539706Y-52652397D01*
X64521968Y-52671968D01*
X64502397Y-52689706D01*
X64481182Y-52705440D01*
X64458526Y-52719019D01*
X64434649Y-52730312D01*
X64409780Y-52739210D01*
X64384159Y-52745628D01*
X64358031Y-52749504D01*
X64331650Y-52750800D01*
X63793350Y-52750800D01*
X63766969Y-52749504D01*
X63740841Y-52745628D01*
X63715220Y-52739210D01*
X63690351Y-52730312D01*
X63666474Y-52719019D01*
X63643818Y-52705440D01*
X63622603Y-52689706D01*
X63603032Y-52671968D01*
X63585294Y-52652397D01*
X63569560Y-52631182D01*
X63555981Y-52608526D01*
X63544688Y-52584649D01*
X63535790Y-52559780D01*
X63529372Y-52534159D01*
X63525496Y-52508031D01*
X63524200Y-52481650D01*
X63524200Y-51518350D01*
X63525496Y-51491969D01*
X63529372Y-51465841D01*
X63535790Y-51440220D01*
X63544688Y-51415351D01*
X63555981Y-51391474D01*
X63569560Y-51368818D01*
X63585294Y-51347603D01*
X63603032Y-51328032D01*
X63622603Y-51310294D01*
X63643818Y-51294560D01*
X63666474Y-51280981D01*
X63690351Y-51269688D01*
X63715220Y-51260790D01*
X63740841Y-51254372D01*
X63766969Y-51250496D01*
X63793350Y-51249200D01*
X64331650Y-51249200D01*
X64358031Y-51250496D01*
G37*
G36*
X64071300Y-56914040D02*
G01*
X63119700Y-56242322D01*
X63119700Y-55189678D01*
X64071300Y-54517960D01*
X64071300Y-56914040D01*
G37*
D25*
X67742500Y-57216000D03*
D26*
X67596000Y-55716000D03*
D25*
X67742500Y-54216000D03*
D27*
X64929000Y-55716000D03*
D14*
G36*
X65787900Y-54518431D02*
G01*
X66889500Y-55289551D01*
X66889500Y-56142449D01*
X65787900Y-56913569D01*
X65787900Y-54518431D01*
G37*
D10*
X20828000Y-38100000D03*
D11*
X23368000Y-38100000D03*
X25908000Y-38100000D03*
X28448000Y-38100000D03*
D14*
G36*
X33905581Y-34300376D02*
G01*
X33929281Y-34303891D01*
X33952523Y-34309713D01*
X33975082Y-34317785D01*
X33996742Y-34328029D01*
X34017292Y-34340347D01*
X34036537Y-34354619D01*
X34054290Y-34370710D01*
X34070381Y-34388463D01*
X34084653Y-34407708D01*
X34096971Y-34428258D01*
X34107215Y-34449918D01*
X34115287Y-34472477D01*
X34121109Y-34495719D01*
X34124624Y-34519419D01*
X34125800Y-34543350D01*
X34125800Y-35031650D01*
X34124624Y-35055581D01*
X34121109Y-35079281D01*
X34115287Y-35102523D01*
X34107215Y-35125082D01*
X34096971Y-35146742D01*
X34084653Y-35167292D01*
X34070381Y-35186537D01*
X34054290Y-35204290D01*
X34036537Y-35220381D01*
X34017292Y-35234653D01*
X33996742Y-35246971D01*
X33975082Y-35257215D01*
X33952523Y-35265287D01*
X33929281Y-35271109D01*
X33905581Y-35274624D01*
X33881650Y-35275800D01*
X33318350Y-35275800D01*
X33294419Y-35274624D01*
X33270719Y-35271109D01*
X33247477Y-35265287D01*
X33224918Y-35257215D01*
X33203258Y-35246971D01*
X33182708Y-35234653D01*
X33163463Y-35220381D01*
X33145710Y-35204290D01*
X33129619Y-35186537D01*
X33115347Y-35167292D01*
X33103029Y-35146742D01*
X33092785Y-35125082D01*
X33084713Y-35102523D01*
X33078891Y-35079281D01*
X33075376Y-35055581D01*
X33074200Y-35031650D01*
X33074200Y-34543350D01*
X33075376Y-34519419D01*
X33078891Y-34495719D01*
X33084713Y-34472477D01*
X33092785Y-34449918D01*
X33103029Y-34428258D01*
X33115347Y-34407708D01*
X33129619Y-34388463D01*
X33145710Y-34370710D01*
X33163463Y-34354619D01*
X33182708Y-34340347D01*
X33203258Y-34328029D01*
X33224918Y-34317785D01*
X33247477Y-34309713D01*
X33270719Y-34303891D01*
X33294419Y-34300376D01*
X33318350Y-34299200D01*
X33881650Y-34299200D01*
X33905581Y-34300376D01*
G37*
G36*
X33905581Y-32725376D02*
G01*
X33929281Y-32728891D01*
X33952523Y-32734713D01*
X33975082Y-32742785D01*
X33996742Y-32753029D01*
X34017292Y-32765347D01*
X34036537Y-32779619D01*
X34054290Y-32795710D01*
X34070381Y-32813463D01*
X34084653Y-32832708D01*
X34096971Y-32853258D01*
X34107215Y-32874918D01*
X34115287Y-32897477D01*
X34121109Y-32920719D01*
X34124624Y-32944419D01*
X34125800Y-32968350D01*
X34125800Y-33456650D01*
X34124624Y-33480581D01*
X34121109Y-33504281D01*
X34115287Y-33527523D01*
X34107215Y-33550082D01*
X34096971Y-33571742D01*
X34084653Y-33592292D01*
X34070381Y-33611537D01*
X34054290Y-33629290D01*
X34036537Y-33645381D01*
X34017292Y-33659653D01*
X33996742Y-33671971D01*
X33975082Y-33682215D01*
X33952523Y-33690287D01*
X33929281Y-33696109D01*
X33905581Y-33699624D01*
X33881650Y-33700800D01*
X33318350Y-33700800D01*
X33294419Y-33699624D01*
X33270719Y-33696109D01*
X33247477Y-33690287D01*
X33224918Y-33682215D01*
X33203258Y-33671971D01*
X33182708Y-33659653D01*
X33163463Y-33645381D01*
X33145710Y-33629290D01*
X33129619Y-33611537D01*
X33115347Y-33592292D01*
X33103029Y-33571742D01*
X33092785Y-33550082D01*
X33084713Y-33527523D01*
X33078891Y-33504281D01*
X33075376Y-33480581D01*
X33074200Y-33456650D01*
X33074200Y-32968350D01*
X33075376Y-32944419D01*
X33078891Y-32920719D01*
X33084713Y-32897477D01*
X33092785Y-32874918D01*
X33103029Y-32853258D01*
X33115347Y-32832708D01*
X33129619Y-32813463D01*
X33145710Y-32795710D01*
X33163463Y-32779619D01*
X33182708Y-32765347D01*
X33203258Y-32753029D01*
X33224918Y-32742785D01*
X33247477Y-32734713D01*
X33270719Y-32728891D01*
X33294419Y-32725376D01*
X33318350Y-32724200D01*
X33881650Y-32724200D01*
X33905581Y-32725376D01*
G37*
G36*
X38905581Y-34300376D02*
G01*
X38929281Y-34303891D01*
X38952523Y-34309713D01*
X38975082Y-34317785D01*
X38996742Y-34328029D01*
X39017292Y-34340347D01*
X39036537Y-34354619D01*
X39054290Y-34370710D01*
X39070381Y-34388463D01*
X39084653Y-34407708D01*
X39096971Y-34428258D01*
X39107215Y-34449918D01*
X39115287Y-34472477D01*
X39121109Y-34495719D01*
X39124624Y-34519419D01*
X39125800Y-34543350D01*
X39125800Y-35031650D01*
X39124624Y-35055581D01*
X39121109Y-35079281D01*
X39115287Y-35102523D01*
X39107215Y-35125082D01*
X39096971Y-35146742D01*
X39084653Y-35167292D01*
X39070381Y-35186537D01*
X39054290Y-35204290D01*
X39036537Y-35220381D01*
X39017292Y-35234653D01*
X38996742Y-35246971D01*
X38975082Y-35257215D01*
X38952523Y-35265287D01*
X38929281Y-35271109D01*
X38905581Y-35274624D01*
X38881650Y-35275800D01*
X38318350Y-35275800D01*
X38294419Y-35274624D01*
X38270719Y-35271109D01*
X38247477Y-35265287D01*
X38224918Y-35257215D01*
X38203258Y-35246971D01*
X38182708Y-35234653D01*
X38163463Y-35220381D01*
X38145710Y-35204290D01*
X38129619Y-35186537D01*
X38115347Y-35167292D01*
X38103029Y-35146742D01*
X38092785Y-35125082D01*
X38084713Y-35102523D01*
X38078891Y-35079281D01*
X38075376Y-35055581D01*
X38074200Y-35031650D01*
X38074200Y-34543350D01*
X38075376Y-34519419D01*
X38078891Y-34495719D01*
X38084713Y-34472477D01*
X38092785Y-34449918D01*
X38103029Y-34428258D01*
X38115347Y-34407708D01*
X38129619Y-34388463D01*
X38145710Y-34370710D01*
X38163463Y-34354619D01*
X38182708Y-34340347D01*
X38203258Y-34328029D01*
X38224918Y-34317785D01*
X38247477Y-34309713D01*
X38270719Y-34303891D01*
X38294419Y-34300376D01*
X38318350Y-34299200D01*
X38881650Y-34299200D01*
X38905581Y-34300376D01*
G37*
G36*
X38905581Y-32725376D02*
G01*
X38929281Y-32728891D01*
X38952523Y-32734713D01*
X38975082Y-32742785D01*
X38996742Y-32753029D01*
X39017292Y-32765347D01*
X39036537Y-32779619D01*
X39054290Y-32795710D01*
X39070381Y-32813463D01*
X39084653Y-32832708D01*
X39096971Y-32853258D01*
X39107215Y-32874918D01*
X39115287Y-32897477D01*
X39121109Y-32920719D01*
X39124624Y-32944419D01*
X39125800Y-32968350D01*
X39125800Y-33456650D01*
X39124624Y-33480581D01*
X39121109Y-33504281D01*
X39115287Y-33527523D01*
X39107215Y-33550082D01*
X39096971Y-33571742D01*
X39084653Y-33592292D01*
X39070381Y-33611537D01*
X39054290Y-33629290D01*
X39036537Y-33645381D01*
X39017292Y-33659653D01*
X38996742Y-33671971D01*
X38975082Y-33682215D01*
X38952523Y-33690287D01*
X38929281Y-33696109D01*
X38905581Y-33699624D01*
X38881650Y-33700800D01*
X38318350Y-33700800D01*
X38294419Y-33699624D01*
X38270719Y-33696109D01*
X38247477Y-33690287D01*
X38224918Y-33682215D01*
X38203258Y-33671971D01*
X38182708Y-33659653D01*
X38163463Y-33645381D01*
X38145710Y-33629290D01*
X38129619Y-33611537D01*
X38115347Y-33592292D01*
X38103029Y-33571742D01*
X38092785Y-33550082D01*
X38084713Y-33527523D01*
X38078891Y-33504281D01*
X38075376Y-33480581D01*
X38074200Y-33456650D01*
X38074200Y-32968350D01*
X38075376Y-32944419D01*
X38078891Y-32920719D01*
X38084713Y-32897477D01*
X38092785Y-32874918D01*
X38103029Y-32853258D01*
X38115347Y-32832708D01*
X38129619Y-32813463D01*
X38145710Y-32795710D01*
X38163463Y-32779619D01*
X38182708Y-32765347D01*
X38203258Y-32753029D01*
X38224918Y-32742785D01*
X38247477Y-32734713D01*
X38270719Y-32728891D01*
X38294419Y-32725376D01*
X38318350Y-32724200D01*
X38881650Y-32724200D01*
X38905581Y-32725376D01*
G37*
G36*
X44105581Y-34300376D02*
G01*
X44129281Y-34303891D01*
X44152523Y-34309713D01*
X44175082Y-34317785D01*
X44196742Y-34328029D01*
X44217292Y-34340347D01*
X44236537Y-34354619D01*
X44254290Y-34370710D01*
X44270381Y-34388463D01*
X44284653Y-34407708D01*
X44296971Y-34428258D01*
X44307215Y-34449918D01*
X44315287Y-34472477D01*
X44321109Y-34495719D01*
X44324624Y-34519419D01*
X44325800Y-34543350D01*
X44325800Y-35031650D01*
X44324624Y-35055581D01*
X44321109Y-35079281D01*
X44315287Y-35102523D01*
X44307215Y-35125082D01*
X44296971Y-35146742D01*
X44284653Y-35167292D01*
X44270381Y-35186537D01*
X44254290Y-35204290D01*
X44236537Y-35220381D01*
X44217292Y-35234653D01*
X44196742Y-35246971D01*
X44175082Y-35257215D01*
X44152523Y-35265287D01*
X44129281Y-35271109D01*
X44105581Y-35274624D01*
X44081650Y-35275800D01*
X43518350Y-35275800D01*
X43494419Y-35274624D01*
X43470719Y-35271109D01*
X43447477Y-35265287D01*
X43424918Y-35257215D01*
X43403258Y-35246971D01*
X43382708Y-35234653D01*
X43363463Y-35220381D01*
X43345710Y-35204290D01*
X43329619Y-35186537D01*
X43315347Y-35167292D01*
X43303029Y-35146742D01*
X43292785Y-35125082D01*
X43284713Y-35102523D01*
X43278891Y-35079281D01*
X43275376Y-35055581D01*
X43274200Y-35031650D01*
X43274200Y-34543350D01*
X43275376Y-34519419D01*
X43278891Y-34495719D01*
X43284713Y-34472477D01*
X43292785Y-34449918D01*
X43303029Y-34428258D01*
X43315347Y-34407708D01*
X43329619Y-34388463D01*
X43345710Y-34370710D01*
X43363463Y-34354619D01*
X43382708Y-34340347D01*
X43403258Y-34328029D01*
X43424918Y-34317785D01*
X43447477Y-34309713D01*
X43470719Y-34303891D01*
X43494419Y-34300376D01*
X43518350Y-34299200D01*
X44081650Y-34299200D01*
X44105581Y-34300376D01*
G37*
G36*
X44105581Y-32725376D02*
G01*
X44129281Y-32728891D01*
X44152523Y-32734713D01*
X44175082Y-32742785D01*
X44196742Y-32753029D01*
X44217292Y-32765347D01*
X44236537Y-32779619D01*
X44254290Y-32795710D01*
X44270381Y-32813463D01*
X44284653Y-32832708D01*
X44296971Y-32853258D01*
X44307215Y-32874918D01*
X44315287Y-32897477D01*
X44321109Y-32920719D01*
X44324624Y-32944419D01*
X44325800Y-32968350D01*
X44325800Y-33456650D01*
X44324624Y-33480581D01*
X44321109Y-33504281D01*
X44315287Y-33527523D01*
X44307215Y-33550082D01*
X44296971Y-33571742D01*
X44284653Y-33592292D01*
X44270381Y-33611537D01*
X44254290Y-33629290D01*
X44236537Y-33645381D01*
X44217292Y-33659653D01*
X44196742Y-33671971D01*
X44175082Y-33682215D01*
X44152523Y-33690287D01*
X44129281Y-33696109D01*
X44105581Y-33699624D01*
X44081650Y-33700800D01*
X43518350Y-33700800D01*
X43494419Y-33699624D01*
X43470719Y-33696109D01*
X43447477Y-33690287D01*
X43424918Y-33682215D01*
X43403258Y-33671971D01*
X43382708Y-33659653D01*
X43363463Y-33645381D01*
X43345710Y-33629290D01*
X43329619Y-33611537D01*
X43315347Y-33592292D01*
X43303029Y-33571742D01*
X43292785Y-33550082D01*
X43284713Y-33527523D01*
X43278891Y-33504281D01*
X43275376Y-33480581D01*
X43274200Y-33456650D01*
X43274200Y-32968350D01*
X43275376Y-32944419D01*
X43278891Y-32920719D01*
X43284713Y-32897477D01*
X43292785Y-32874918D01*
X43303029Y-32853258D01*
X43315347Y-32832708D01*
X43329619Y-32813463D01*
X43345710Y-32795710D01*
X43363463Y-32779619D01*
X43382708Y-32765347D01*
X43403258Y-32753029D01*
X43424918Y-32742785D01*
X43447477Y-32734713D01*
X43470719Y-32728891D01*
X43494419Y-32725376D01*
X43518350Y-32724200D01*
X44081650Y-32724200D01*
X44105581Y-32725376D01*
G37*
G36*
X36505581Y-32725376D02*
G01*
X36529281Y-32728891D01*
X36552523Y-32734713D01*
X36575082Y-32742785D01*
X36596742Y-32753029D01*
X36617292Y-32765347D01*
X36636537Y-32779619D01*
X36654290Y-32795710D01*
X36670381Y-32813463D01*
X36684653Y-32832708D01*
X36696971Y-32853258D01*
X36707215Y-32874918D01*
X36715287Y-32897477D01*
X36721109Y-32920719D01*
X36724624Y-32944419D01*
X36725800Y-32968350D01*
X36725800Y-33456650D01*
X36724624Y-33480581D01*
X36721109Y-33504281D01*
X36715287Y-33527523D01*
X36707215Y-33550082D01*
X36696971Y-33571742D01*
X36684653Y-33592292D01*
X36670381Y-33611537D01*
X36654290Y-33629290D01*
X36636537Y-33645381D01*
X36617292Y-33659653D01*
X36596742Y-33671971D01*
X36575082Y-33682215D01*
X36552523Y-33690287D01*
X36529281Y-33696109D01*
X36505581Y-33699624D01*
X36481650Y-33700800D01*
X35918350Y-33700800D01*
X35894419Y-33699624D01*
X35870719Y-33696109D01*
X35847477Y-33690287D01*
X35824918Y-33682215D01*
X35803258Y-33671971D01*
X35782708Y-33659653D01*
X35763463Y-33645381D01*
X35745710Y-33629290D01*
X35729619Y-33611537D01*
X35715347Y-33592292D01*
X35703029Y-33571742D01*
X35692785Y-33550082D01*
X35684713Y-33527523D01*
X35678891Y-33504281D01*
X35675376Y-33480581D01*
X35674200Y-33456650D01*
X35674200Y-32968350D01*
X35675376Y-32944419D01*
X35678891Y-32920719D01*
X35684713Y-32897477D01*
X35692785Y-32874918D01*
X35703029Y-32853258D01*
X35715347Y-32832708D01*
X35729619Y-32813463D01*
X35745710Y-32795710D01*
X35763463Y-32779619D01*
X35782708Y-32765347D01*
X35803258Y-32753029D01*
X35824918Y-32742785D01*
X35847477Y-32734713D01*
X35870719Y-32728891D01*
X35894419Y-32725376D01*
X35918350Y-32724200D01*
X36481650Y-32724200D01*
X36505581Y-32725376D01*
G37*
G36*
X36505581Y-34300376D02*
G01*
X36529281Y-34303891D01*
X36552523Y-34309713D01*
X36575082Y-34317785D01*
X36596742Y-34328029D01*
X36617292Y-34340347D01*
X36636537Y-34354619D01*
X36654290Y-34370710D01*
X36670381Y-34388463D01*
X36684653Y-34407708D01*
X36696971Y-34428258D01*
X36707215Y-34449918D01*
X36715287Y-34472477D01*
X36721109Y-34495719D01*
X36724624Y-34519419D01*
X36725800Y-34543350D01*
X36725800Y-35031650D01*
X36724624Y-35055581D01*
X36721109Y-35079281D01*
X36715287Y-35102523D01*
X36707215Y-35125082D01*
X36696971Y-35146742D01*
X36684653Y-35167292D01*
X36670381Y-35186537D01*
X36654290Y-35204290D01*
X36636537Y-35220381D01*
X36617292Y-35234653D01*
X36596742Y-35246971D01*
X36575082Y-35257215D01*
X36552523Y-35265287D01*
X36529281Y-35271109D01*
X36505581Y-35274624D01*
X36481650Y-35275800D01*
X35918350Y-35275800D01*
X35894419Y-35274624D01*
X35870719Y-35271109D01*
X35847477Y-35265287D01*
X35824918Y-35257215D01*
X35803258Y-35246971D01*
X35782708Y-35234653D01*
X35763463Y-35220381D01*
X35745710Y-35204290D01*
X35729619Y-35186537D01*
X35715347Y-35167292D01*
X35703029Y-35146742D01*
X35692785Y-35125082D01*
X35684713Y-35102523D01*
X35678891Y-35079281D01*
X35675376Y-35055581D01*
X35674200Y-35031650D01*
X35674200Y-34543350D01*
X35675376Y-34519419D01*
X35678891Y-34495719D01*
X35684713Y-34472477D01*
X35692785Y-34449918D01*
X35703029Y-34428258D01*
X35715347Y-34407708D01*
X35729619Y-34388463D01*
X35745710Y-34370710D01*
X35763463Y-34354619D01*
X35782708Y-34340347D01*
X35803258Y-34328029D01*
X35824918Y-34317785D01*
X35847477Y-34309713D01*
X35870719Y-34303891D01*
X35894419Y-34300376D01*
X35918350Y-34299200D01*
X36481650Y-34299200D01*
X36505581Y-34300376D01*
G37*
G36*
X41505581Y-32725376D02*
G01*
X41529281Y-32728891D01*
X41552523Y-32734713D01*
X41575082Y-32742785D01*
X41596742Y-32753029D01*
X41617292Y-32765347D01*
X41636537Y-32779619D01*
X41654290Y-32795710D01*
X41670381Y-32813463D01*
X41684653Y-32832708D01*
X41696971Y-32853258D01*
X41707215Y-32874918D01*
X41715287Y-32897477D01*
X41721109Y-32920719D01*
X41724624Y-32944419D01*
X41725800Y-32968350D01*
X41725800Y-33456650D01*
X41724624Y-33480581D01*
X41721109Y-33504281D01*
X41715287Y-33527523D01*
X41707215Y-33550082D01*
X41696971Y-33571742D01*
X41684653Y-33592292D01*
X41670381Y-33611537D01*
X41654290Y-33629290D01*
X41636537Y-33645381D01*
X41617292Y-33659653D01*
X41596742Y-33671971D01*
X41575082Y-33682215D01*
X41552523Y-33690287D01*
X41529281Y-33696109D01*
X41505581Y-33699624D01*
X41481650Y-33700800D01*
X40918350Y-33700800D01*
X40894419Y-33699624D01*
X40870719Y-33696109D01*
X40847477Y-33690287D01*
X40824918Y-33682215D01*
X40803258Y-33671971D01*
X40782708Y-33659653D01*
X40763463Y-33645381D01*
X40745710Y-33629290D01*
X40729619Y-33611537D01*
X40715347Y-33592292D01*
X40703029Y-33571742D01*
X40692785Y-33550082D01*
X40684713Y-33527523D01*
X40678891Y-33504281D01*
X40675376Y-33480581D01*
X40674200Y-33456650D01*
X40674200Y-32968350D01*
X40675376Y-32944419D01*
X40678891Y-32920719D01*
X40684713Y-32897477D01*
X40692785Y-32874918D01*
X40703029Y-32853258D01*
X40715347Y-32832708D01*
X40729619Y-32813463D01*
X40745710Y-32795710D01*
X40763463Y-32779619D01*
X40782708Y-32765347D01*
X40803258Y-32753029D01*
X40824918Y-32742785D01*
X40847477Y-32734713D01*
X40870719Y-32728891D01*
X40894419Y-32725376D01*
X40918350Y-32724200D01*
X41481650Y-32724200D01*
X41505581Y-32725376D01*
G37*
G36*
X41505581Y-34300376D02*
G01*
X41529281Y-34303891D01*
X41552523Y-34309713D01*
X41575082Y-34317785D01*
X41596742Y-34328029D01*
X41617292Y-34340347D01*
X41636537Y-34354619D01*
X41654290Y-34370710D01*
X41670381Y-34388463D01*
X41684653Y-34407708D01*
X41696971Y-34428258D01*
X41707215Y-34449918D01*
X41715287Y-34472477D01*
X41721109Y-34495719D01*
X41724624Y-34519419D01*
X41725800Y-34543350D01*
X41725800Y-35031650D01*
X41724624Y-35055581D01*
X41721109Y-35079281D01*
X41715287Y-35102523D01*
X41707215Y-35125082D01*
X41696971Y-35146742D01*
X41684653Y-35167292D01*
X41670381Y-35186537D01*
X41654290Y-35204290D01*
X41636537Y-35220381D01*
X41617292Y-35234653D01*
X41596742Y-35246971D01*
X41575082Y-35257215D01*
X41552523Y-35265287D01*
X41529281Y-35271109D01*
X41505581Y-35274624D01*
X41481650Y-35275800D01*
X40918350Y-35275800D01*
X40894419Y-35274624D01*
X40870719Y-35271109D01*
X40847477Y-35265287D01*
X40824918Y-35257215D01*
X40803258Y-35246971D01*
X40782708Y-35234653D01*
X40763463Y-35220381D01*
X40745710Y-35204290D01*
X40729619Y-35186537D01*
X40715347Y-35167292D01*
X40703029Y-35146742D01*
X40692785Y-35125082D01*
X40684713Y-35102523D01*
X40678891Y-35079281D01*
X40675376Y-35055581D01*
X40674200Y-35031650D01*
X40674200Y-34543350D01*
X40675376Y-34519419D01*
X40678891Y-34495719D01*
X40684713Y-34472477D01*
X40692785Y-34449918D01*
X40703029Y-34428258D01*
X40715347Y-34407708D01*
X40729619Y-34388463D01*
X40745710Y-34370710D01*
X40763463Y-34354619D01*
X40782708Y-34340347D01*
X40803258Y-34328029D01*
X40824918Y-34317785D01*
X40847477Y-34309713D01*
X40870719Y-34303891D01*
X40894419Y-34300376D01*
X40918350Y-34299200D01*
X41481650Y-34299200D01*
X41505581Y-34300376D01*
G37*
G36*
X46505581Y-32725376D02*
G01*
X46529281Y-32728891D01*
X46552523Y-32734713D01*
X46575082Y-32742785D01*
X46596742Y-32753029D01*
X46617292Y-32765347D01*
X46636537Y-32779619D01*
X46654290Y-32795710D01*
X46670381Y-32813463D01*
X46684653Y-32832708D01*
X46696971Y-32853258D01*
X46707215Y-32874918D01*
X46715287Y-32897477D01*
X46721109Y-32920719D01*
X46724624Y-32944419D01*
X46725800Y-32968350D01*
X46725800Y-33456650D01*
X46724624Y-33480581D01*
X46721109Y-33504281D01*
X46715287Y-33527523D01*
X46707215Y-33550082D01*
X46696971Y-33571742D01*
X46684653Y-33592292D01*
X46670381Y-33611537D01*
X46654290Y-33629290D01*
X46636537Y-33645381D01*
X46617292Y-33659653D01*
X46596742Y-33671971D01*
X46575082Y-33682215D01*
X46552523Y-33690287D01*
X46529281Y-33696109D01*
X46505581Y-33699624D01*
X46481650Y-33700800D01*
X45918350Y-33700800D01*
X45894419Y-33699624D01*
X45870719Y-33696109D01*
X45847477Y-33690287D01*
X45824918Y-33682215D01*
X45803258Y-33671971D01*
X45782708Y-33659653D01*
X45763463Y-33645381D01*
X45745710Y-33629290D01*
X45729619Y-33611537D01*
X45715347Y-33592292D01*
X45703029Y-33571742D01*
X45692785Y-33550082D01*
X45684713Y-33527523D01*
X45678891Y-33504281D01*
X45675376Y-33480581D01*
X45674200Y-33456650D01*
X45674200Y-32968350D01*
X45675376Y-32944419D01*
X45678891Y-32920719D01*
X45684713Y-32897477D01*
X45692785Y-32874918D01*
X45703029Y-32853258D01*
X45715347Y-32832708D01*
X45729619Y-32813463D01*
X45745710Y-32795710D01*
X45763463Y-32779619D01*
X45782708Y-32765347D01*
X45803258Y-32753029D01*
X45824918Y-32742785D01*
X45847477Y-32734713D01*
X45870719Y-32728891D01*
X45894419Y-32725376D01*
X45918350Y-32724200D01*
X46481650Y-32724200D01*
X46505581Y-32725376D01*
G37*
G36*
X46505581Y-34300376D02*
G01*
X46529281Y-34303891D01*
X46552523Y-34309713D01*
X46575082Y-34317785D01*
X46596742Y-34328029D01*
X46617292Y-34340347D01*
X46636537Y-34354619D01*
X46654290Y-34370710D01*
X46670381Y-34388463D01*
X46684653Y-34407708D01*
X46696971Y-34428258D01*
X46707215Y-34449918D01*
X46715287Y-34472477D01*
X46721109Y-34495719D01*
X46724624Y-34519419D01*
X46725800Y-34543350D01*
X46725800Y-35031650D01*
X46724624Y-35055581D01*
X46721109Y-35079281D01*
X46715287Y-35102523D01*
X46707215Y-35125082D01*
X46696971Y-35146742D01*
X46684653Y-35167292D01*
X46670381Y-35186537D01*
X46654290Y-35204290D01*
X46636537Y-35220381D01*
X46617292Y-35234653D01*
X46596742Y-35246971D01*
X46575082Y-35257215D01*
X46552523Y-35265287D01*
X46529281Y-35271109D01*
X46505581Y-35274624D01*
X46481650Y-35275800D01*
X45918350Y-35275800D01*
X45894419Y-35274624D01*
X45870719Y-35271109D01*
X45847477Y-35265287D01*
X45824918Y-35257215D01*
X45803258Y-35246971D01*
X45782708Y-35234653D01*
X45763463Y-35220381D01*
X45745710Y-35204290D01*
X45729619Y-35186537D01*
X45715347Y-35167292D01*
X45703029Y-35146742D01*
X45692785Y-35125082D01*
X45684713Y-35102523D01*
X45678891Y-35079281D01*
X45675376Y-35055581D01*
X45674200Y-35031650D01*
X45674200Y-34543350D01*
X45675376Y-34519419D01*
X45678891Y-34495719D01*
X45684713Y-34472477D01*
X45692785Y-34449918D01*
X45703029Y-34428258D01*
X45715347Y-34407708D01*
X45729619Y-34388463D01*
X45745710Y-34370710D01*
X45763463Y-34354619D01*
X45782708Y-34340347D01*
X45803258Y-34328029D01*
X45824918Y-34317785D01*
X45847477Y-34309713D01*
X45870719Y-34303891D01*
X45894419Y-34300376D01*
X45918350Y-34299200D01*
X46481650Y-34299200D01*
X46505581Y-34300376D01*
G37*
G36*
X29305581Y-32625376D02*
G01*
X29329281Y-32628891D01*
X29352523Y-32634713D01*
X29375082Y-32642785D01*
X29396742Y-32653029D01*
X29417292Y-32665347D01*
X29436537Y-32679619D01*
X29454290Y-32695710D01*
X29470381Y-32713463D01*
X29484653Y-32732708D01*
X29496971Y-32753258D01*
X29507215Y-32774918D01*
X29515287Y-32797477D01*
X29521109Y-32820719D01*
X29524624Y-32844419D01*
X29525800Y-32868350D01*
X29525800Y-33356650D01*
X29524624Y-33380581D01*
X29521109Y-33404281D01*
X29515287Y-33427523D01*
X29507215Y-33450082D01*
X29496971Y-33471742D01*
X29484653Y-33492292D01*
X29470381Y-33511537D01*
X29454290Y-33529290D01*
X29436537Y-33545381D01*
X29417292Y-33559653D01*
X29396742Y-33571971D01*
X29375082Y-33582215D01*
X29352523Y-33590287D01*
X29329281Y-33596109D01*
X29305581Y-33599624D01*
X29281650Y-33600800D01*
X28718350Y-33600800D01*
X28694419Y-33599624D01*
X28670719Y-33596109D01*
X28647477Y-33590287D01*
X28624918Y-33582215D01*
X28603258Y-33571971D01*
X28582708Y-33559653D01*
X28563463Y-33545381D01*
X28545710Y-33529290D01*
X28529619Y-33511537D01*
X28515347Y-33492292D01*
X28503029Y-33471742D01*
X28492785Y-33450082D01*
X28484713Y-33427523D01*
X28478891Y-33404281D01*
X28475376Y-33380581D01*
X28474200Y-33356650D01*
X28474200Y-32868350D01*
X28475376Y-32844419D01*
X28478891Y-32820719D01*
X28484713Y-32797477D01*
X28492785Y-32774918D01*
X28503029Y-32753258D01*
X28515347Y-32732708D01*
X28529619Y-32713463D01*
X28545710Y-32695710D01*
X28563463Y-32679619D01*
X28582708Y-32665347D01*
X28603258Y-32653029D01*
X28624918Y-32642785D01*
X28647477Y-32634713D01*
X28670719Y-32628891D01*
X28694419Y-32625376D01*
X28718350Y-32624200D01*
X29281650Y-32624200D01*
X29305581Y-32625376D01*
G37*
G36*
X29305581Y-34200376D02*
G01*
X29329281Y-34203891D01*
X29352523Y-34209713D01*
X29375082Y-34217785D01*
X29396742Y-34228029D01*
X29417292Y-34240347D01*
X29436537Y-34254619D01*
X29454290Y-34270710D01*
X29470381Y-34288463D01*
X29484653Y-34307708D01*
X29496971Y-34328258D01*
X29507215Y-34349918D01*
X29515287Y-34372477D01*
X29521109Y-34395719D01*
X29524624Y-34419419D01*
X29525800Y-34443350D01*
X29525800Y-34931650D01*
X29524624Y-34955581D01*
X29521109Y-34979281D01*
X29515287Y-35002523D01*
X29507215Y-35025082D01*
X29496971Y-35046742D01*
X29484653Y-35067292D01*
X29470381Y-35086537D01*
X29454290Y-35104290D01*
X29436537Y-35120381D01*
X29417292Y-35134653D01*
X29396742Y-35146971D01*
X29375082Y-35157215D01*
X29352523Y-35165287D01*
X29329281Y-35171109D01*
X29305581Y-35174624D01*
X29281650Y-35175800D01*
X28718350Y-35175800D01*
X28694419Y-35174624D01*
X28670719Y-35171109D01*
X28647477Y-35165287D01*
X28624918Y-35157215D01*
X28603258Y-35146971D01*
X28582708Y-35134653D01*
X28563463Y-35120381D01*
X28545710Y-35104290D01*
X28529619Y-35086537D01*
X28515347Y-35067292D01*
X28503029Y-35046742D01*
X28492785Y-35025082D01*
X28484713Y-35002523D01*
X28478891Y-34979281D01*
X28475376Y-34955581D01*
X28474200Y-34931650D01*
X28474200Y-34443350D01*
X28475376Y-34419419D01*
X28478891Y-34395719D01*
X28484713Y-34372477D01*
X28492785Y-34349918D01*
X28503029Y-34328258D01*
X28515347Y-34307708D01*
X28529619Y-34288463D01*
X28545710Y-34270710D01*
X28563463Y-34254619D01*
X28582708Y-34240347D01*
X28603258Y-34228029D01*
X28624918Y-34217785D01*
X28647477Y-34209713D01*
X28670719Y-34203891D01*
X28694419Y-34200376D01*
X28718350Y-34199200D01*
X29281650Y-34199200D01*
X29305581Y-34200376D01*
G37*
G36*
X24755581Y-31575376D02*
G01*
X24779281Y-31578891D01*
X24802523Y-31584713D01*
X24825082Y-31592785D01*
X24846742Y-31603029D01*
X24867292Y-31615347D01*
X24886537Y-31629619D01*
X24904290Y-31645710D01*
X24920381Y-31663463D01*
X24934653Y-31682708D01*
X24946971Y-31703258D01*
X24957215Y-31724918D01*
X24965287Y-31747477D01*
X24971109Y-31770719D01*
X24974624Y-31794419D01*
X24975800Y-31818350D01*
X24975800Y-32381650D01*
X24974624Y-32405581D01*
X24971109Y-32429281D01*
X24965287Y-32452523D01*
X24957215Y-32475082D01*
X24946971Y-32496742D01*
X24934653Y-32517292D01*
X24920381Y-32536537D01*
X24904290Y-32554290D01*
X24886537Y-32570381D01*
X24867292Y-32584653D01*
X24846742Y-32596971D01*
X24825082Y-32607215D01*
X24802523Y-32615287D01*
X24779281Y-32621109D01*
X24755581Y-32624624D01*
X24731650Y-32625800D01*
X24243350Y-32625800D01*
X24219419Y-32624624D01*
X24195719Y-32621109D01*
X24172477Y-32615287D01*
X24149918Y-32607215D01*
X24128258Y-32596971D01*
X24107708Y-32584653D01*
X24088463Y-32570381D01*
X24070710Y-32554290D01*
X24054619Y-32536537D01*
X24040347Y-32517292D01*
X24028029Y-32496742D01*
X24017785Y-32475082D01*
X24009713Y-32452523D01*
X24003891Y-32429281D01*
X24000376Y-32405581D01*
X23999200Y-32381650D01*
X23999200Y-31818350D01*
X24000376Y-31794419D01*
X24003891Y-31770719D01*
X24009713Y-31747477D01*
X24017785Y-31724918D01*
X24028029Y-31703258D01*
X24040347Y-31682708D01*
X24054619Y-31663463D01*
X24070710Y-31645710D01*
X24088463Y-31629619D01*
X24107708Y-31615347D01*
X24128258Y-31603029D01*
X24149918Y-31592785D01*
X24172477Y-31584713D01*
X24195719Y-31578891D01*
X24219419Y-31575376D01*
X24243350Y-31574200D01*
X24731650Y-31574200D01*
X24755581Y-31575376D01*
G37*
G36*
X23180581Y-31575376D02*
G01*
X23204281Y-31578891D01*
X23227523Y-31584713D01*
X23250082Y-31592785D01*
X23271742Y-31603029D01*
X23292292Y-31615347D01*
X23311537Y-31629619D01*
X23329290Y-31645710D01*
X23345381Y-31663463D01*
X23359653Y-31682708D01*
X23371971Y-31703258D01*
X23382215Y-31724918D01*
X23390287Y-31747477D01*
X23396109Y-31770719D01*
X23399624Y-31794419D01*
X23400800Y-31818350D01*
X23400800Y-32381650D01*
X23399624Y-32405581D01*
X23396109Y-32429281D01*
X23390287Y-32452523D01*
X23382215Y-32475082D01*
X23371971Y-32496742D01*
X23359653Y-32517292D01*
X23345381Y-32536537D01*
X23329290Y-32554290D01*
X23311537Y-32570381D01*
X23292292Y-32584653D01*
X23271742Y-32596971D01*
X23250082Y-32607215D01*
X23227523Y-32615287D01*
X23204281Y-32621109D01*
X23180581Y-32624624D01*
X23156650Y-32625800D01*
X22668350Y-32625800D01*
X22644419Y-32624624D01*
X22620719Y-32621109D01*
X22597477Y-32615287D01*
X22574918Y-32607215D01*
X22553258Y-32596971D01*
X22532708Y-32584653D01*
X22513463Y-32570381D01*
X22495710Y-32554290D01*
X22479619Y-32536537D01*
X22465347Y-32517292D01*
X22453029Y-32496742D01*
X22442785Y-32475082D01*
X22434713Y-32452523D01*
X22428891Y-32429281D01*
X22425376Y-32405581D01*
X22424200Y-32381650D01*
X22424200Y-31818350D01*
X22425376Y-31794419D01*
X22428891Y-31770719D01*
X22434713Y-31747477D01*
X22442785Y-31724918D01*
X22453029Y-31703258D01*
X22465347Y-31682708D01*
X22479619Y-31663463D01*
X22495710Y-31645710D01*
X22513463Y-31629619D01*
X22532708Y-31615347D01*
X22553258Y-31603029D01*
X22574918Y-31592785D01*
X22597477Y-31584713D01*
X22620719Y-31578891D01*
X22644419Y-31575376D01*
X22668350Y-31574200D01*
X23156650Y-31574200D01*
X23180581Y-31575376D01*
G37*
G36*
X66055581Y-63025376D02*
G01*
X66079281Y-63028891D01*
X66102523Y-63034713D01*
X66125082Y-63042785D01*
X66146742Y-63053029D01*
X66167292Y-63065347D01*
X66186537Y-63079619D01*
X66204290Y-63095710D01*
X66220381Y-63113463D01*
X66234653Y-63132708D01*
X66246971Y-63153258D01*
X66257215Y-63174918D01*
X66265287Y-63197477D01*
X66271109Y-63220719D01*
X66274624Y-63244419D01*
X66275800Y-63268350D01*
X66275800Y-63831650D01*
X66274624Y-63855581D01*
X66271109Y-63879281D01*
X66265287Y-63902523D01*
X66257215Y-63925082D01*
X66246971Y-63946742D01*
X66234653Y-63967292D01*
X66220381Y-63986537D01*
X66204290Y-64004290D01*
X66186537Y-64020381D01*
X66167292Y-64034653D01*
X66146742Y-64046971D01*
X66125082Y-64057215D01*
X66102523Y-64065287D01*
X66079281Y-64071109D01*
X66055581Y-64074624D01*
X66031650Y-64075800D01*
X65543350Y-64075800D01*
X65519419Y-64074624D01*
X65495719Y-64071109D01*
X65472477Y-64065287D01*
X65449918Y-64057215D01*
X65428258Y-64046971D01*
X65407708Y-64034653D01*
X65388463Y-64020381D01*
X65370710Y-64004290D01*
X65354619Y-63986537D01*
X65340347Y-63967292D01*
X65328029Y-63946742D01*
X65317785Y-63925082D01*
X65309713Y-63902523D01*
X65303891Y-63879281D01*
X65300376Y-63855581D01*
X65299200Y-63831650D01*
X65299200Y-63268350D01*
X65300376Y-63244419D01*
X65303891Y-63220719D01*
X65309713Y-63197477D01*
X65317785Y-63174918D01*
X65328029Y-63153258D01*
X65340347Y-63132708D01*
X65354619Y-63113463D01*
X65370710Y-63095710D01*
X65388463Y-63079619D01*
X65407708Y-63065347D01*
X65428258Y-63053029D01*
X65449918Y-63042785D01*
X65472477Y-63034713D01*
X65495719Y-63028891D01*
X65519419Y-63025376D01*
X65543350Y-63024200D01*
X66031650Y-63024200D01*
X66055581Y-63025376D01*
G37*
G36*
X64480581Y-63025376D02*
G01*
X64504281Y-63028891D01*
X64527523Y-63034713D01*
X64550082Y-63042785D01*
X64571742Y-63053029D01*
X64592292Y-63065347D01*
X64611537Y-63079619D01*
X64629290Y-63095710D01*
X64645381Y-63113463D01*
X64659653Y-63132708D01*
X64671971Y-63153258D01*
X64682215Y-63174918D01*
X64690287Y-63197477D01*
X64696109Y-63220719D01*
X64699624Y-63244419D01*
X64700800Y-63268350D01*
X64700800Y-63831650D01*
X64699624Y-63855581D01*
X64696109Y-63879281D01*
X64690287Y-63902523D01*
X64682215Y-63925082D01*
X64671971Y-63946742D01*
X64659653Y-63967292D01*
X64645381Y-63986537D01*
X64629290Y-64004290D01*
X64611537Y-64020381D01*
X64592292Y-64034653D01*
X64571742Y-64046971D01*
X64550082Y-64057215D01*
X64527523Y-64065287D01*
X64504281Y-64071109D01*
X64480581Y-64074624D01*
X64456650Y-64075800D01*
X63968350Y-64075800D01*
X63944419Y-64074624D01*
X63920719Y-64071109D01*
X63897477Y-64065287D01*
X63874918Y-64057215D01*
X63853258Y-64046971D01*
X63832708Y-64034653D01*
X63813463Y-64020381D01*
X63795710Y-64004290D01*
X63779619Y-63986537D01*
X63765347Y-63967292D01*
X63753029Y-63946742D01*
X63742785Y-63925082D01*
X63734713Y-63902523D01*
X63728891Y-63879281D01*
X63725376Y-63855581D01*
X63724200Y-63831650D01*
X63724200Y-63268350D01*
X63725376Y-63244419D01*
X63728891Y-63220719D01*
X63734713Y-63197477D01*
X63742785Y-63174918D01*
X63753029Y-63153258D01*
X63765347Y-63132708D01*
X63779619Y-63113463D01*
X63795710Y-63095710D01*
X63813463Y-63079619D01*
X63832708Y-63065347D01*
X63853258Y-63053029D01*
X63874918Y-63042785D01*
X63897477Y-63034713D01*
X63920719Y-63028891D01*
X63944419Y-63025376D01*
X63968350Y-63024200D01*
X64456650Y-63024200D01*
X64480581Y-63025376D01*
G37*
G36*
X66068081Y-48975376D02*
G01*
X66091781Y-48978891D01*
X66115023Y-48984713D01*
X66137582Y-48992785D01*
X66159242Y-49003029D01*
X66179792Y-49015347D01*
X66199037Y-49029619D01*
X66216790Y-49045710D01*
X66232881Y-49063463D01*
X66247153Y-49082708D01*
X66259471Y-49103258D01*
X66269715Y-49124918D01*
X66277787Y-49147477D01*
X66283609Y-49170719D01*
X66287124Y-49194419D01*
X66288300Y-49218350D01*
X66288300Y-49781650D01*
X66287124Y-49805581D01*
X66283609Y-49829281D01*
X66277787Y-49852523D01*
X66269715Y-49875082D01*
X66259471Y-49896742D01*
X66247153Y-49917292D01*
X66232881Y-49936537D01*
X66216790Y-49954290D01*
X66199037Y-49970381D01*
X66179792Y-49984653D01*
X66159242Y-49996971D01*
X66137582Y-50007215D01*
X66115023Y-50015287D01*
X66091781Y-50021109D01*
X66068081Y-50024624D01*
X66044150Y-50025800D01*
X65555850Y-50025800D01*
X65531919Y-50024624D01*
X65508219Y-50021109D01*
X65484977Y-50015287D01*
X65462418Y-50007215D01*
X65440758Y-49996971D01*
X65420208Y-49984653D01*
X65400963Y-49970381D01*
X65383210Y-49954290D01*
X65367119Y-49936537D01*
X65352847Y-49917292D01*
X65340529Y-49896742D01*
X65330285Y-49875082D01*
X65322213Y-49852523D01*
X65316391Y-49829281D01*
X65312876Y-49805581D01*
X65311700Y-49781650D01*
X65311700Y-49218350D01*
X65312876Y-49194419D01*
X65316391Y-49170719D01*
X65322213Y-49147477D01*
X65330285Y-49124918D01*
X65340529Y-49103258D01*
X65352847Y-49082708D01*
X65367119Y-49063463D01*
X65383210Y-49045710D01*
X65400963Y-49029619D01*
X65420208Y-49015347D01*
X65440758Y-49003029D01*
X65462418Y-48992785D01*
X65484977Y-48984713D01*
X65508219Y-48978891D01*
X65531919Y-48975376D01*
X65555850Y-48974200D01*
X66044150Y-48974200D01*
X66068081Y-48975376D01*
G37*
G36*
X64493081Y-48975376D02*
G01*
X64516781Y-48978891D01*
X64540023Y-48984713D01*
X64562582Y-48992785D01*
X64584242Y-49003029D01*
X64604792Y-49015347D01*
X64624037Y-49029619D01*
X64641790Y-49045710D01*
X64657881Y-49063463D01*
X64672153Y-49082708D01*
X64684471Y-49103258D01*
X64694715Y-49124918D01*
X64702787Y-49147477D01*
X64708609Y-49170719D01*
X64712124Y-49194419D01*
X64713300Y-49218350D01*
X64713300Y-49781650D01*
X64712124Y-49805581D01*
X64708609Y-49829281D01*
X64702787Y-49852523D01*
X64694715Y-49875082D01*
X64684471Y-49896742D01*
X64672153Y-49917292D01*
X64657881Y-49936537D01*
X64641790Y-49954290D01*
X64624037Y-49970381D01*
X64604792Y-49984653D01*
X64584242Y-49996971D01*
X64562582Y-50007215D01*
X64540023Y-50015287D01*
X64516781Y-50021109D01*
X64493081Y-50024624D01*
X64469150Y-50025800D01*
X63980850Y-50025800D01*
X63956919Y-50024624D01*
X63933219Y-50021109D01*
X63909977Y-50015287D01*
X63887418Y-50007215D01*
X63865758Y-49996971D01*
X63845208Y-49984653D01*
X63825963Y-49970381D01*
X63808210Y-49954290D01*
X63792119Y-49936537D01*
X63777847Y-49917292D01*
X63765529Y-49896742D01*
X63755285Y-49875082D01*
X63747213Y-49852523D01*
X63741391Y-49829281D01*
X63737876Y-49805581D01*
X63736700Y-49781650D01*
X63736700Y-49218350D01*
X63737876Y-49194419D01*
X63741391Y-49170719D01*
X63747213Y-49147477D01*
X63755285Y-49124918D01*
X63765529Y-49103258D01*
X63777847Y-49082708D01*
X63792119Y-49063463D01*
X63808210Y-49045710D01*
X63825963Y-49029619D01*
X63845208Y-49015347D01*
X63865758Y-49003029D01*
X63887418Y-48992785D01*
X63909977Y-48984713D01*
X63933219Y-48978891D01*
X63956919Y-48975376D01*
X63980850Y-48974200D01*
X64469150Y-48974200D01*
X64493081Y-48975376D01*
G37*
G36*
X22980581Y-48975376D02*
G01*
X23004281Y-48978891D01*
X23027523Y-48984713D01*
X23050082Y-48992785D01*
X23071742Y-49003029D01*
X23092292Y-49015347D01*
X23111537Y-49029619D01*
X23129290Y-49045710D01*
X23145381Y-49063463D01*
X23159653Y-49082708D01*
X23171971Y-49103258D01*
X23182215Y-49124918D01*
X23190287Y-49147477D01*
X23196109Y-49170719D01*
X23199624Y-49194419D01*
X23200800Y-49218350D01*
X23200800Y-49781650D01*
X23199624Y-49805581D01*
X23196109Y-49829281D01*
X23190287Y-49852523D01*
X23182215Y-49875082D01*
X23171971Y-49896742D01*
X23159653Y-49917292D01*
X23145381Y-49936537D01*
X23129290Y-49954290D01*
X23111537Y-49970381D01*
X23092292Y-49984653D01*
X23071742Y-49996971D01*
X23050082Y-50007215D01*
X23027523Y-50015287D01*
X23004281Y-50021109D01*
X22980581Y-50024624D01*
X22956650Y-50025800D01*
X22468350Y-50025800D01*
X22444419Y-50024624D01*
X22420719Y-50021109D01*
X22397477Y-50015287D01*
X22374918Y-50007215D01*
X22353258Y-49996971D01*
X22332708Y-49984653D01*
X22313463Y-49970381D01*
X22295710Y-49954290D01*
X22279619Y-49936537D01*
X22265347Y-49917292D01*
X22253029Y-49896742D01*
X22242785Y-49875082D01*
X22234713Y-49852523D01*
X22228891Y-49829281D01*
X22225376Y-49805581D01*
X22224200Y-49781650D01*
X22224200Y-49218350D01*
X22225376Y-49194419D01*
X22228891Y-49170719D01*
X22234713Y-49147477D01*
X22242785Y-49124918D01*
X22253029Y-49103258D01*
X22265347Y-49082708D01*
X22279619Y-49063463D01*
X22295710Y-49045710D01*
X22313463Y-49029619D01*
X22332708Y-49015347D01*
X22353258Y-49003029D01*
X22374918Y-48992785D01*
X22397477Y-48984713D01*
X22420719Y-48978891D01*
X22444419Y-48975376D01*
X22468350Y-48974200D01*
X22956650Y-48974200D01*
X22980581Y-48975376D01*
G37*
G36*
X24555581Y-48975376D02*
G01*
X24579281Y-48978891D01*
X24602523Y-48984713D01*
X24625082Y-48992785D01*
X24646742Y-49003029D01*
X24667292Y-49015347D01*
X24686537Y-49029619D01*
X24704290Y-49045710D01*
X24720381Y-49063463D01*
X24734653Y-49082708D01*
X24746971Y-49103258D01*
X24757215Y-49124918D01*
X24765287Y-49147477D01*
X24771109Y-49170719D01*
X24774624Y-49194419D01*
X24775800Y-49218350D01*
X24775800Y-49781650D01*
X24774624Y-49805581D01*
X24771109Y-49829281D01*
X24765287Y-49852523D01*
X24757215Y-49875082D01*
X24746971Y-49896742D01*
X24734653Y-49917292D01*
X24720381Y-49936537D01*
X24704290Y-49954290D01*
X24686537Y-49970381D01*
X24667292Y-49984653D01*
X24646742Y-49996971D01*
X24625082Y-50007215D01*
X24602523Y-50015287D01*
X24579281Y-50021109D01*
X24555581Y-50024624D01*
X24531650Y-50025800D01*
X24043350Y-50025800D01*
X24019419Y-50024624D01*
X23995719Y-50021109D01*
X23972477Y-50015287D01*
X23949918Y-50007215D01*
X23928258Y-49996971D01*
X23907708Y-49984653D01*
X23888463Y-49970381D01*
X23870710Y-49954290D01*
X23854619Y-49936537D01*
X23840347Y-49917292D01*
X23828029Y-49896742D01*
X23817785Y-49875082D01*
X23809713Y-49852523D01*
X23803891Y-49829281D01*
X23800376Y-49805581D01*
X23799200Y-49781650D01*
X23799200Y-49218350D01*
X23800376Y-49194419D01*
X23803891Y-49170719D01*
X23809713Y-49147477D01*
X23817785Y-49124918D01*
X23828029Y-49103258D01*
X23840347Y-49082708D01*
X23854619Y-49063463D01*
X23870710Y-49045710D01*
X23888463Y-49029619D01*
X23907708Y-49015347D01*
X23928258Y-49003029D01*
X23949918Y-48992785D01*
X23972477Y-48984713D01*
X23995719Y-48978891D01*
X24019419Y-48975376D01*
X24043350Y-48974200D01*
X24531650Y-48974200D01*
X24555581Y-48975376D01*
G37*
G36*
X63305581Y-42050376D02*
G01*
X63329281Y-42053891D01*
X63352523Y-42059713D01*
X63375082Y-42067785D01*
X63396742Y-42078029D01*
X63417292Y-42090347D01*
X63436537Y-42104619D01*
X63454290Y-42120710D01*
X63470381Y-42138463D01*
X63484653Y-42157708D01*
X63496971Y-42178258D01*
X63507215Y-42199918D01*
X63515287Y-42222477D01*
X63521109Y-42245719D01*
X63524624Y-42269419D01*
X63525800Y-42293350D01*
X63525800Y-42781650D01*
X63524624Y-42805581D01*
X63521109Y-42829281D01*
X63515287Y-42852523D01*
X63507215Y-42875082D01*
X63496971Y-42896742D01*
X63484653Y-42917292D01*
X63470381Y-42936537D01*
X63454290Y-42954290D01*
X63436537Y-42970381D01*
X63417292Y-42984653D01*
X63396742Y-42996971D01*
X63375082Y-43007215D01*
X63352523Y-43015287D01*
X63329281Y-43021109D01*
X63305581Y-43024624D01*
X63281650Y-43025800D01*
X62718350Y-43025800D01*
X62694419Y-43024624D01*
X62670719Y-43021109D01*
X62647477Y-43015287D01*
X62624918Y-43007215D01*
X62603258Y-42996971D01*
X62582708Y-42984653D01*
X62563463Y-42970381D01*
X62545710Y-42954290D01*
X62529619Y-42936537D01*
X62515347Y-42917292D01*
X62503029Y-42896742D01*
X62492785Y-42875082D01*
X62484713Y-42852523D01*
X62478891Y-42829281D01*
X62475376Y-42805581D01*
X62474200Y-42781650D01*
X62474200Y-42293350D01*
X62475376Y-42269419D01*
X62478891Y-42245719D01*
X62484713Y-42222477D01*
X62492785Y-42199918D01*
X62503029Y-42178258D01*
X62515347Y-42157708D01*
X62529619Y-42138463D01*
X62545710Y-42120710D01*
X62563463Y-42104619D01*
X62582708Y-42090347D01*
X62603258Y-42078029D01*
X62624918Y-42067785D01*
X62647477Y-42059713D01*
X62670719Y-42053891D01*
X62694419Y-42050376D01*
X62718350Y-42049200D01*
X63281650Y-42049200D01*
X63305581Y-42050376D01*
G37*
G36*
X63305581Y-40475376D02*
G01*
X63329281Y-40478891D01*
X63352523Y-40484713D01*
X63375082Y-40492785D01*
X63396742Y-40503029D01*
X63417292Y-40515347D01*
X63436537Y-40529619D01*
X63454290Y-40545710D01*
X63470381Y-40563463D01*
X63484653Y-40582708D01*
X63496971Y-40603258D01*
X63507215Y-40624918D01*
X63515287Y-40647477D01*
X63521109Y-40670719D01*
X63524624Y-40694419D01*
X63525800Y-40718350D01*
X63525800Y-41206650D01*
X63524624Y-41230581D01*
X63521109Y-41254281D01*
X63515287Y-41277523D01*
X63507215Y-41300082D01*
X63496971Y-41321742D01*
X63484653Y-41342292D01*
X63470381Y-41361537D01*
X63454290Y-41379290D01*
X63436537Y-41395381D01*
X63417292Y-41409653D01*
X63396742Y-41421971D01*
X63375082Y-41432215D01*
X63352523Y-41440287D01*
X63329281Y-41446109D01*
X63305581Y-41449624D01*
X63281650Y-41450800D01*
X62718350Y-41450800D01*
X62694419Y-41449624D01*
X62670719Y-41446109D01*
X62647477Y-41440287D01*
X62624918Y-41432215D01*
X62603258Y-41421971D01*
X62582708Y-41409653D01*
X62563463Y-41395381D01*
X62545710Y-41379290D01*
X62529619Y-41361537D01*
X62515347Y-41342292D01*
X62503029Y-41321742D01*
X62492785Y-41300082D01*
X62484713Y-41277523D01*
X62478891Y-41254281D01*
X62475376Y-41230581D01*
X62474200Y-41206650D01*
X62474200Y-40718350D01*
X62475376Y-40694419D01*
X62478891Y-40670719D01*
X62484713Y-40647477D01*
X62492785Y-40624918D01*
X62503029Y-40603258D01*
X62515347Y-40582708D01*
X62529619Y-40563463D01*
X62545710Y-40545710D01*
X62563463Y-40529619D01*
X62582708Y-40515347D01*
X62603258Y-40503029D01*
X62624918Y-40492785D01*
X62647477Y-40484713D01*
X62670719Y-40478891D01*
X62694419Y-40475376D01*
X62718350Y-40474200D01*
X63281650Y-40474200D01*
X63305581Y-40475376D01*
G37*
G36*
X21805581Y-53800376D02*
G01*
X21829281Y-53803891D01*
X21852523Y-53809713D01*
X21875082Y-53817785D01*
X21896742Y-53828029D01*
X21917292Y-53840347D01*
X21936537Y-53854619D01*
X21954290Y-53870710D01*
X21970381Y-53888463D01*
X21984653Y-53907708D01*
X21996971Y-53928258D01*
X22007215Y-53949918D01*
X22015287Y-53972477D01*
X22021109Y-53995719D01*
X22024624Y-54019419D01*
X22025800Y-54043350D01*
X22025800Y-54531650D01*
X22024624Y-54555581D01*
X22021109Y-54579281D01*
X22015287Y-54602523D01*
X22007215Y-54625082D01*
X21996971Y-54646742D01*
X21984653Y-54667292D01*
X21970381Y-54686537D01*
X21954290Y-54704290D01*
X21936537Y-54720381D01*
X21917292Y-54734653D01*
X21896742Y-54746971D01*
X21875082Y-54757215D01*
X21852523Y-54765287D01*
X21829281Y-54771109D01*
X21805581Y-54774624D01*
X21781650Y-54775800D01*
X21218350Y-54775800D01*
X21194419Y-54774624D01*
X21170719Y-54771109D01*
X21147477Y-54765287D01*
X21124918Y-54757215D01*
X21103258Y-54746971D01*
X21082708Y-54734653D01*
X21063463Y-54720381D01*
X21045710Y-54704290D01*
X21029619Y-54686537D01*
X21015347Y-54667292D01*
X21003029Y-54646742D01*
X20992785Y-54625082D01*
X20984713Y-54602523D01*
X20978891Y-54579281D01*
X20975376Y-54555581D01*
X20974200Y-54531650D01*
X20974200Y-54043350D01*
X20975376Y-54019419D01*
X20978891Y-53995719D01*
X20984713Y-53972477D01*
X20992785Y-53949918D01*
X21003029Y-53928258D01*
X21015347Y-53907708D01*
X21029619Y-53888463D01*
X21045710Y-53870710D01*
X21063463Y-53854619D01*
X21082708Y-53840347D01*
X21103258Y-53828029D01*
X21124918Y-53817785D01*
X21147477Y-53809713D01*
X21170719Y-53803891D01*
X21194419Y-53800376D01*
X21218350Y-53799200D01*
X21781650Y-53799200D01*
X21805581Y-53800376D01*
G37*
G36*
X21805581Y-52225376D02*
G01*
X21829281Y-52228891D01*
X21852523Y-52234713D01*
X21875082Y-52242785D01*
X21896742Y-52253029D01*
X21917292Y-52265347D01*
X21936537Y-52279619D01*
X21954290Y-52295710D01*
X21970381Y-52313463D01*
X21984653Y-52332708D01*
X21996971Y-52353258D01*
X22007215Y-52374918D01*
X22015287Y-52397477D01*
X22021109Y-52420719D01*
X22024624Y-52444419D01*
X22025800Y-52468350D01*
X22025800Y-52956650D01*
X22024624Y-52980581D01*
X22021109Y-53004281D01*
X22015287Y-53027523D01*
X22007215Y-53050082D01*
X21996971Y-53071742D01*
X21984653Y-53092292D01*
X21970381Y-53111537D01*
X21954290Y-53129290D01*
X21936537Y-53145381D01*
X21917292Y-53159653D01*
X21896742Y-53171971D01*
X21875082Y-53182215D01*
X21852523Y-53190287D01*
X21829281Y-53196109D01*
X21805581Y-53199624D01*
X21781650Y-53200800D01*
X21218350Y-53200800D01*
X21194419Y-53199624D01*
X21170719Y-53196109D01*
X21147477Y-53190287D01*
X21124918Y-53182215D01*
X21103258Y-53171971D01*
X21082708Y-53159653D01*
X21063463Y-53145381D01*
X21045710Y-53129290D01*
X21029619Y-53111537D01*
X21015347Y-53092292D01*
X21003029Y-53071742D01*
X20992785Y-53050082D01*
X20984713Y-53027523D01*
X20978891Y-53004281D01*
X20975376Y-52980581D01*
X20974200Y-52956650D01*
X20974200Y-52468350D01*
X20975376Y-52444419D01*
X20978891Y-52420719D01*
X20984713Y-52397477D01*
X20992785Y-52374918D01*
X21003029Y-52353258D01*
X21015347Y-52332708D01*
X21029619Y-52313463D01*
X21045710Y-52295710D01*
X21063463Y-52279619D01*
X21082708Y-52265347D01*
X21103258Y-52253029D01*
X21124918Y-52242785D01*
X21147477Y-52234713D01*
X21170719Y-52228891D01*
X21194419Y-52225376D01*
X21218350Y-52224200D01*
X21781650Y-52224200D01*
X21805581Y-52225376D01*
G37*
M02*
