G04 #@! TF.GenerationSoftware,KiCad,Pcbnew,(5.1.5-0-10_14)*
G04 #@! TF.CreationDate,2020-04-19T22:53:18-04:00*
G04 #@! TF.ProjectId,RPi-pHat-Thermocouple,5250692d-7048-4617-942d-546865726d6f,rev?*
G04 #@! TF.SameCoordinates,Original*
G04 #@! TF.FileFunction,Soldermask,Bot*
G04 #@! TF.FilePolarity,Negative*
%FSLAX46Y46*%
G04 Gerber Fmt 4.6, Leading zero omitted, Abs format (unit mm)*
G04 Created by KiCad (PCBNEW (5.1.5-0-10_14)) date 2020-04-19 22:53:18*
%MOMM*%
%LPD*%
G04 APERTURE LIST*
%ADD10R,1.801600X1.801600*%
%ADD11O,1.801600X1.801600*%
%ADD12C,6.200000*%
%ADD13C,2.501600*%
%ADD14R,2.501600X2.501600*%
%ADD15C,1.401600*%
%ADD16R,1.401600X1.401600*%
%ADD17C,0.152400*%
G04 APERTURE END LIST*
D10*
X33600000Y-40640000D03*
D11*
X33600000Y-38100000D03*
X36140000Y-40640000D03*
X36140000Y-38100000D03*
X38680000Y-40640000D03*
X38680000Y-38100000D03*
X41220000Y-40640000D03*
X41220000Y-38100000D03*
X43760000Y-40640000D03*
X43760000Y-38100000D03*
X46300000Y-40640000D03*
X46300000Y-38100000D03*
D12*
X74000000Y-77000000D03*
X16000000Y-77000000D03*
D13*
X74962500Y-68516000D03*
X71462500Y-68516000D03*
X67962500Y-68516000D03*
D14*
X64462500Y-68516000D03*
D13*
X58262500Y-68496000D03*
X54762500Y-68496000D03*
D14*
X51262500Y-68496000D03*
D13*
X46762500Y-68516000D03*
D14*
X43262500Y-68516000D03*
D13*
X38762500Y-68516000D03*
D14*
X35262500Y-68516000D03*
D13*
X30762500Y-68516000D03*
D14*
X27262500Y-68516000D03*
D13*
X22762500Y-68516000D03*
D14*
X19262500Y-68516000D03*
D12*
X16000000Y-51000000D03*
X74000000Y-28000000D03*
X74000000Y-51000000D03*
X16000000Y-28000000D03*
D10*
X20870000Y-29270000D03*
D11*
X20870000Y-26730000D03*
X23410000Y-29270000D03*
X23410000Y-26730000D03*
X25950000Y-29270000D03*
X25950000Y-26730000D03*
X28490000Y-29270000D03*
X28490000Y-26730000D03*
X31030000Y-29270000D03*
X31030000Y-26730000D03*
X33570000Y-29270000D03*
X33570000Y-26730000D03*
X36110000Y-29270000D03*
X36110000Y-26730000D03*
X38650000Y-29270000D03*
X38650000Y-26730000D03*
X41190000Y-29270000D03*
X41190000Y-26730000D03*
X43730000Y-29270000D03*
X43730000Y-26730000D03*
X46270000Y-29270000D03*
X46270000Y-26730000D03*
X48810000Y-29270000D03*
X48810000Y-26730000D03*
X51350000Y-29270000D03*
X51350000Y-26730000D03*
X53890000Y-29270000D03*
X53890000Y-26730000D03*
X56430000Y-29270000D03*
X56430000Y-26730000D03*
X58970000Y-29270000D03*
X58970000Y-26730000D03*
X61510000Y-29270000D03*
X61510000Y-26730000D03*
X64050000Y-29270000D03*
X64050000Y-26730000D03*
X66590000Y-29270000D03*
X66590000Y-26730000D03*
X69130000Y-29270000D03*
X69130000Y-26730000D03*
D15*
X33027500Y-45931000D03*
X34297500Y-44661000D03*
D16*
X34297500Y-47201000D03*
D10*
X20828000Y-38100000D03*
D11*
X23368000Y-38100000D03*
X25908000Y-38100000D03*
X28448000Y-38100000D03*
D17*
G36*
X29799824Y-34359911D02*
G01*
X29796933Y-34369440D01*
X29792239Y-34378223D01*
X29785921Y-34385921D01*
X29778223Y-34392239D01*
X29769440Y-34396933D01*
X29759911Y-34399824D01*
X29750000Y-34400800D01*
X28250000Y-34400800D01*
X28240089Y-34399824D01*
X28230560Y-34396933D01*
X28221777Y-34392239D01*
X28214079Y-34385921D01*
X28207761Y-34378223D01*
X28203067Y-34369440D01*
X28200176Y-34359911D01*
X28199200Y-34350000D01*
X28199200Y-33850000D01*
X28199802Y-33843887D01*
X28199802Y-33825466D01*
X28200047Y-33820486D01*
X28204857Y-33771655D01*
X28205588Y-33766725D01*
X28215160Y-33718600D01*
X28216372Y-33713763D01*
X28230616Y-33666808D01*
X28232295Y-33662115D01*
X28251072Y-33616782D01*
X28253204Y-33612274D01*
X28276335Y-33569001D01*
X28278897Y-33564727D01*
X28306157Y-33523928D01*
X28309127Y-33519923D01*
X28340255Y-33481994D01*
X28343603Y-33478300D01*
X28378300Y-33443603D01*
X28381994Y-33440255D01*
X28419923Y-33409127D01*
X28423928Y-33406157D01*
X28464727Y-33378897D01*
X28469001Y-33376335D01*
X28512274Y-33353204D01*
X28516782Y-33351072D01*
X28562115Y-33332295D01*
X28566808Y-33330616D01*
X28613763Y-33316372D01*
X28618600Y-33315160D01*
X28666725Y-33305588D01*
X28671655Y-33304857D01*
X28720486Y-33300047D01*
X28725466Y-33299802D01*
X28743887Y-33299802D01*
X28750000Y-33299200D01*
X29250000Y-33299200D01*
X29256113Y-33299802D01*
X29274534Y-33299802D01*
X29279514Y-33300047D01*
X29328345Y-33304857D01*
X29333275Y-33305588D01*
X29381400Y-33315160D01*
X29386237Y-33316372D01*
X29433192Y-33330616D01*
X29437885Y-33332295D01*
X29483218Y-33351072D01*
X29487726Y-33353204D01*
X29530999Y-33376335D01*
X29535273Y-33378897D01*
X29576072Y-33406157D01*
X29580077Y-33409127D01*
X29618006Y-33440255D01*
X29621700Y-33443603D01*
X29656397Y-33478300D01*
X29659745Y-33481994D01*
X29690873Y-33519923D01*
X29693843Y-33523928D01*
X29721103Y-33564727D01*
X29723665Y-33569001D01*
X29746796Y-33612274D01*
X29748928Y-33616782D01*
X29767705Y-33662115D01*
X29769384Y-33666808D01*
X29783628Y-33713763D01*
X29784840Y-33718600D01*
X29794412Y-33766725D01*
X29795143Y-33771655D01*
X29799953Y-33820486D01*
X29800198Y-33825466D01*
X29800198Y-33843887D01*
X29800800Y-33850000D01*
X29800800Y-34350000D01*
X29799824Y-34359911D01*
G37*
G36*
X29800198Y-35156113D02*
G01*
X29800198Y-35174534D01*
X29799953Y-35179514D01*
X29795143Y-35228345D01*
X29794412Y-35233275D01*
X29784840Y-35281400D01*
X29783628Y-35286237D01*
X29769384Y-35333192D01*
X29767705Y-35337885D01*
X29748928Y-35383218D01*
X29746796Y-35387726D01*
X29723665Y-35430999D01*
X29721103Y-35435273D01*
X29693843Y-35476072D01*
X29690873Y-35480077D01*
X29659745Y-35518006D01*
X29656397Y-35521700D01*
X29621700Y-35556397D01*
X29618006Y-35559745D01*
X29580077Y-35590873D01*
X29576072Y-35593843D01*
X29535273Y-35621103D01*
X29530999Y-35623665D01*
X29487726Y-35646796D01*
X29483218Y-35648928D01*
X29437885Y-35667705D01*
X29433192Y-35669384D01*
X29386237Y-35683628D01*
X29381400Y-35684840D01*
X29333275Y-35694412D01*
X29328345Y-35695143D01*
X29279514Y-35699953D01*
X29274534Y-35700198D01*
X29256113Y-35700198D01*
X29250000Y-35700800D01*
X28750000Y-35700800D01*
X28743887Y-35700198D01*
X28725466Y-35700198D01*
X28720486Y-35699953D01*
X28671655Y-35695143D01*
X28666725Y-35694412D01*
X28618600Y-35684840D01*
X28613763Y-35683628D01*
X28566808Y-35669384D01*
X28562115Y-35667705D01*
X28516782Y-35648928D01*
X28512274Y-35646796D01*
X28469001Y-35623665D01*
X28464727Y-35621103D01*
X28423928Y-35593843D01*
X28419923Y-35590873D01*
X28381994Y-35559745D01*
X28378300Y-35556397D01*
X28343603Y-35521700D01*
X28340255Y-35518006D01*
X28309127Y-35480077D01*
X28306157Y-35476072D01*
X28278897Y-35435273D01*
X28276335Y-35430999D01*
X28253204Y-35387726D01*
X28251072Y-35383218D01*
X28232295Y-35337885D01*
X28230616Y-35333192D01*
X28216372Y-35286237D01*
X28215160Y-35281400D01*
X28205588Y-35233275D01*
X28204857Y-35228345D01*
X28200047Y-35179514D01*
X28199802Y-35174534D01*
X28199802Y-35156113D01*
X28199200Y-35150000D01*
X28199200Y-34650000D01*
X28200176Y-34640089D01*
X28203067Y-34630560D01*
X28207761Y-34621777D01*
X28214079Y-34614079D01*
X28221777Y-34607761D01*
X28230560Y-34603067D01*
X28240089Y-34600176D01*
X28250000Y-34599200D01*
X29750000Y-34599200D01*
X29759911Y-34600176D01*
X29769440Y-34603067D01*
X29778223Y-34607761D01*
X29785921Y-34614079D01*
X29792239Y-34621777D01*
X29796933Y-34630560D01*
X29799824Y-34640089D01*
X29800800Y-34650000D01*
X29800800Y-35150000D01*
X29800198Y-35156113D01*
G37*
G36*
X26800198Y-35156113D02*
G01*
X26800198Y-35174534D01*
X26799953Y-35179514D01*
X26795143Y-35228345D01*
X26794412Y-35233275D01*
X26784840Y-35281400D01*
X26783628Y-35286237D01*
X26769384Y-35333192D01*
X26767705Y-35337885D01*
X26748928Y-35383218D01*
X26746796Y-35387726D01*
X26723665Y-35430999D01*
X26721103Y-35435273D01*
X26693843Y-35476072D01*
X26690873Y-35480077D01*
X26659745Y-35518006D01*
X26656397Y-35521700D01*
X26621700Y-35556397D01*
X26618006Y-35559745D01*
X26580077Y-35590873D01*
X26576072Y-35593843D01*
X26535273Y-35621103D01*
X26530999Y-35623665D01*
X26487726Y-35646796D01*
X26483218Y-35648928D01*
X26437885Y-35667705D01*
X26433192Y-35669384D01*
X26386237Y-35683628D01*
X26381400Y-35684840D01*
X26333275Y-35694412D01*
X26328345Y-35695143D01*
X26279514Y-35699953D01*
X26274534Y-35700198D01*
X26256113Y-35700198D01*
X26250000Y-35700800D01*
X25750000Y-35700800D01*
X25743887Y-35700198D01*
X25725466Y-35700198D01*
X25720486Y-35699953D01*
X25671655Y-35695143D01*
X25666725Y-35694412D01*
X25618600Y-35684840D01*
X25613763Y-35683628D01*
X25566808Y-35669384D01*
X25562115Y-35667705D01*
X25516782Y-35648928D01*
X25512274Y-35646796D01*
X25469001Y-35623665D01*
X25464727Y-35621103D01*
X25423928Y-35593843D01*
X25419923Y-35590873D01*
X25381994Y-35559745D01*
X25378300Y-35556397D01*
X25343603Y-35521700D01*
X25340255Y-35518006D01*
X25309127Y-35480077D01*
X25306157Y-35476072D01*
X25278897Y-35435273D01*
X25276335Y-35430999D01*
X25253204Y-35387726D01*
X25251072Y-35383218D01*
X25232295Y-35337885D01*
X25230616Y-35333192D01*
X25216372Y-35286237D01*
X25215160Y-35281400D01*
X25205588Y-35233275D01*
X25204857Y-35228345D01*
X25200047Y-35179514D01*
X25199802Y-35174534D01*
X25199802Y-35156113D01*
X25199200Y-35150000D01*
X25199200Y-34650000D01*
X25200176Y-34640089D01*
X25203067Y-34630560D01*
X25207761Y-34621777D01*
X25214079Y-34614079D01*
X25221777Y-34607761D01*
X25230560Y-34603067D01*
X25240089Y-34600176D01*
X25250000Y-34599200D01*
X26750000Y-34599200D01*
X26759911Y-34600176D01*
X26769440Y-34603067D01*
X26778223Y-34607761D01*
X26785921Y-34614079D01*
X26792239Y-34621777D01*
X26796933Y-34630560D01*
X26799824Y-34640089D01*
X26800800Y-34650000D01*
X26800800Y-35150000D01*
X26800198Y-35156113D01*
G37*
G36*
X26799824Y-34359911D02*
G01*
X26796933Y-34369440D01*
X26792239Y-34378223D01*
X26785921Y-34385921D01*
X26778223Y-34392239D01*
X26769440Y-34396933D01*
X26759911Y-34399824D01*
X26750000Y-34400800D01*
X25250000Y-34400800D01*
X25240089Y-34399824D01*
X25230560Y-34396933D01*
X25221777Y-34392239D01*
X25214079Y-34385921D01*
X25207761Y-34378223D01*
X25203067Y-34369440D01*
X25200176Y-34359911D01*
X25199200Y-34350000D01*
X25199200Y-33850000D01*
X25199802Y-33843887D01*
X25199802Y-33825466D01*
X25200047Y-33820486D01*
X25204857Y-33771655D01*
X25205588Y-33766725D01*
X25215160Y-33718600D01*
X25216372Y-33713763D01*
X25230616Y-33666808D01*
X25232295Y-33662115D01*
X25251072Y-33616782D01*
X25253204Y-33612274D01*
X25276335Y-33569001D01*
X25278897Y-33564727D01*
X25306157Y-33523928D01*
X25309127Y-33519923D01*
X25340255Y-33481994D01*
X25343603Y-33478300D01*
X25378300Y-33443603D01*
X25381994Y-33440255D01*
X25419923Y-33409127D01*
X25423928Y-33406157D01*
X25464727Y-33378897D01*
X25469001Y-33376335D01*
X25512274Y-33353204D01*
X25516782Y-33351072D01*
X25562115Y-33332295D01*
X25566808Y-33330616D01*
X25613763Y-33316372D01*
X25618600Y-33315160D01*
X25666725Y-33305588D01*
X25671655Y-33304857D01*
X25720486Y-33300047D01*
X25725466Y-33299802D01*
X25743887Y-33299802D01*
X25750000Y-33299200D01*
X26250000Y-33299200D01*
X26256113Y-33299802D01*
X26274534Y-33299802D01*
X26279514Y-33300047D01*
X26328345Y-33304857D01*
X26333275Y-33305588D01*
X26381400Y-33315160D01*
X26386237Y-33316372D01*
X26433192Y-33330616D01*
X26437885Y-33332295D01*
X26483218Y-33351072D01*
X26487726Y-33353204D01*
X26530999Y-33376335D01*
X26535273Y-33378897D01*
X26576072Y-33406157D01*
X26580077Y-33409127D01*
X26618006Y-33440255D01*
X26621700Y-33443603D01*
X26656397Y-33478300D01*
X26659745Y-33481994D01*
X26690873Y-33519923D01*
X26693843Y-33523928D01*
X26721103Y-33564727D01*
X26723665Y-33569001D01*
X26746796Y-33612274D01*
X26748928Y-33616782D01*
X26767705Y-33662115D01*
X26769384Y-33666808D01*
X26783628Y-33713763D01*
X26784840Y-33718600D01*
X26794412Y-33766725D01*
X26795143Y-33771655D01*
X26799953Y-33820486D01*
X26800198Y-33825466D01*
X26800198Y-33843887D01*
X26800800Y-33850000D01*
X26800800Y-34350000D01*
X26799824Y-34359911D01*
G37*
M02*
