G04 #@! TF.GenerationSoftware,KiCad,Pcbnew,(5.1.5-0-10_14)*
G04 #@! TF.CreationDate,2020-04-19T22:53:18-04:00*
G04 #@! TF.ProjectId,RPi-pHat-Thermocouple,5250692d-7048-4617-942d-546865726d6f,rev?*
G04 #@! TF.SameCoordinates,Original*
G04 #@! TF.FileFunction,Legend,Bot*
G04 #@! TF.FilePolarity,Positive*
%FSLAX46Y46*%
G04 Gerber Fmt 4.6, Leading zero omitted, Abs format (unit mm)*
G04 Created by KiCad (PCBNEW (5.1.5-0-10_14)) date 2020-04-19 22:53:18*
%MOMM*%
%LPD*%
G04 APERTURE LIST*
%ADD10C,0.152400*%
%ADD11C,0.300000*%
%ADD12C,0.250000*%
%ADD13C,0.150000*%
%ADD14C,0.254000*%
%ADD15C,0.120000*%
G04 APERTURE END LIST*
D10*
X29926761Y-41959619D02*
X29926761Y-40943619D01*
X29491333Y-41040380D02*
X29442952Y-40992000D01*
X29346190Y-40943619D01*
X29104285Y-40943619D01*
X29007523Y-40992000D01*
X28959142Y-41040380D01*
X28910761Y-41137142D01*
X28910761Y-41233904D01*
X28959142Y-41379047D01*
X29539714Y-41959619D01*
X28910761Y-41959619D01*
X27894761Y-41862857D02*
X27943142Y-41911238D01*
X28088285Y-41959619D01*
X28185047Y-41959619D01*
X28330190Y-41911238D01*
X28426952Y-41814476D01*
X28475333Y-41717714D01*
X28523714Y-41524190D01*
X28523714Y-41379047D01*
X28475333Y-41185523D01*
X28426952Y-41088761D01*
X28330190Y-40992000D01*
X28185047Y-40943619D01*
X28088285Y-40943619D01*
X27943142Y-40992000D01*
X27894761Y-41040380D01*
X26298190Y-41911238D02*
X26394952Y-41959619D01*
X26588476Y-41959619D01*
X26685238Y-41911238D01*
X26733619Y-41814476D01*
X26733619Y-41427428D01*
X26685238Y-41330666D01*
X26588476Y-41282285D01*
X26394952Y-41282285D01*
X26298190Y-41330666D01*
X26249809Y-41427428D01*
X26249809Y-41524190D01*
X26733619Y-41620952D01*
X25911142Y-41959619D02*
X25378952Y-41282285D01*
X25911142Y-41282285D02*
X25378952Y-41959619D01*
X24991904Y-41282285D02*
X24991904Y-42298285D01*
X24991904Y-41330666D02*
X24895142Y-41282285D01*
X24701619Y-41282285D01*
X24604857Y-41330666D01*
X24556476Y-41379047D01*
X24508095Y-41475809D01*
X24508095Y-41766095D01*
X24556476Y-41862857D01*
X24604857Y-41911238D01*
X24701619Y-41959619D01*
X24895142Y-41959619D01*
X24991904Y-41911238D01*
X23637238Y-41959619D02*
X23637238Y-41427428D01*
X23685619Y-41330666D01*
X23782380Y-41282285D01*
X23975904Y-41282285D01*
X24072666Y-41330666D01*
X23637238Y-41911238D02*
X23734000Y-41959619D01*
X23975904Y-41959619D01*
X24072666Y-41911238D01*
X24121047Y-41814476D01*
X24121047Y-41717714D01*
X24072666Y-41620952D01*
X23975904Y-41572571D01*
X23734000Y-41572571D01*
X23637238Y-41524190D01*
X23153428Y-41282285D02*
X23153428Y-41959619D01*
X23153428Y-41379047D02*
X23105047Y-41330666D01*
X23008285Y-41282285D01*
X22863142Y-41282285D01*
X22766380Y-41330666D01*
X22718000Y-41427428D01*
X22718000Y-41959619D01*
X22282571Y-41911238D02*
X22185809Y-41959619D01*
X21992285Y-41959619D01*
X21895523Y-41911238D01*
X21847142Y-41814476D01*
X21847142Y-41766095D01*
X21895523Y-41669333D01*
X21992285Y-41620952D01*
X22137428Y-41620952D01*
X22234190Y-41572571D01*
X22282571Y-41475809D01*
X22282571Y-41427428D01*
X22234190Y-41330666D01*
X22137428Y-41282285D01*
X21992285Y-41282285D01*
X21895523Y-41330666D01*
X21411714Y-41959619D02*
X21411714Y-41282285D01*
X21411714Y-40943619D02*
X21460095Y-40992000D01*
X21411714Y-41040380D01*
X21363333Y-40992000D01*
X21411714Y-40943619D01*
X21411714Y-41040380D01*
X20782761Y-41959619D02*
X20879523Y-41911238D01*
X20927904Y-41862857D01*
X20976285Y-41766095D01*
X20976285Y-41475809D01*
X20927904Y-41379047D01*
X20879523Y-41330666D01*
X20782761Y-41282285D01*
X20637619Y-41282285D01*
X20540857Y-41330666D01*
X20492476Y-41379047D01*
X20444095Y-41475809D01*
X20444095Y-41766095D01*
X20492476Y-41862857D01*
X20540857Y-41911238D01*
X20637619Y-41959619D01*
X20782761Y-41959619D01*
X20008666Y-41282285D02*
X20008666Y-41959619D01*
X20008666Y-41379047D02*
X19960285Y-41330666D01*
X19863523Y-41282285D01*
X19718380Y-41282285D01*
X19621619Y-41330666D01*
X19573238Y-41427428D01*
X19573238Y-41959619D01*
X30500000Y-42500000D02*
X30500000Y-37000000D01*
X18750000Y-42500000D02*
X30500000Y-42500000D01*
X18750000Y-37000000D02*
X18750000Y-42500000D01*
X30500000Y-37000000D02*
X18750000Y-37000000D01*
X48500000Y-77250000D02*
X48500000Y-66750000D01*
X25750000Y-77250000D02*
X48500000Y-77250000D01*
X25750000Y-66750000D02*
X25750000Y-77250000D01*
X48500000Y-66750000D02*
X25750000Y-66750000D01*
X19508000Y-71073038D02*
X19604761Y-71121419D01*
X19798285Y-71121419D01*
X19895047Y-71073038D01*
X19943428Y-70976276D01*
X19943428Y-70589228D01*
X19895047Y-70492466D01*
X19798285Y-70444085D01*
X19604761Y-70444085D01*
X19508000Y-70492466D01*
X19459619Y-70589228D01*
X19459619Y-70685990D01*
X19943428Y-70782752D01*
X19120952Y-71121419D02*
X18588761Y-70444085D01*
X19120952Y-70444085D02*
X18588761Y-71121419D01*
X18346857Y-70444085D02*
X17959809Y-70444085D01*
X18201714Y-70105419D02*
X18201714Y-70976276D01*
X18153333Y-71073038D01*
X18056571Y-71121419D01*
X17959809Y-71121419D01*
X21322285Y-72410771D02*
X20548190Y-72410771D01*
X20935238Y-72797819D02*
X20935238Y-72023723D01*
X19580571Y-71781819D02*
X20064380Y-71781819D01*
X20112761Y-72265628D01*
X20064380Y-72217247D01*
X19967619Y-72168866D01*
X19725714Y-72168866D01*
X19628952Y-72217247D01*
X19580571Y-72265628D01*
X19532190Y-72362390D01*
X19532190Y-72604295D01*
X19580571Y-72701057D01*
X19628952Y-72749438D01*
X19725714Y-72797819D01*
X19967619Y-72797819D01*
X20064380Y-72749438D01*
X20112761Y-72701057D01*
X19241904Y-71781819D02*
X18903238Y-72797819D01*
X18564571Y-71781819D01*
X18225904Y-72797819D02*
X18225904Y-71781819D01*
X17984000Y-71781819D01*
X17838857Y-71830200D01*
X17742095Y-71926961D01*
X17693714Y-72023723D01*
X17645333Y-72217247D01*
X17645333Y-72362390D01*
X17693714Y-72555914D01*
X17742095Y-72652676D01*
X17838857Y-72749438D01*
X17984000Y-72797819D01*
X18225904Y-72797819D01*
X16629333Y-72701057D02*
X16677714Y-72749438D01*
X16822857Y-72797819D01*
X16919619Y-72797819D01*
X17064761Y-72749438D01*
X17161523Y-72652676D01*
X17209904Y-72555914D01*
X17258285Y-72362390D01*
X17258285Y-72217247D01*
X17209904Y-72023723D01*
X17161523Y-71926961D01*
X17064761Y-71830200D01*
X16919619Y-71781819D01*
X16822857Y-71781819D01*
X16677714Y-71830200D01*
X16629333Y-71878580D01*
X23774095Y-70992000D02*
X23870857Y-70943619D01*
X24016000Y-70943619D01*
X24161142Y-70992000D01*
X24257904Y-71088761D01*
X24306285Y-71185523D01*
X24354666Y-71379047D01*
X24354666Y-71524190D01*
X24306285Y-71717714D01*
X24257904Y-71814476D01*
X24161142Y-71911238D01*
X24016000Y-71959619D01*
X23919238Y-71959619D01*
X23774095Y-71911238D01*
X23725714Y-71862857D01*
X23725714Y-71524190D01*
X23919238Y-71524190D01*
X23290285Y-71959619D02*
X23290285Y-70943619D01*
X22709714Y-71959619D01*
X22709714Y-70943619D01*
X22225904Y-71959619D02*
X22225904Y-70943619D01*
X21984000Y-70943619D01*
X21838857Y-70992000D01*
X21742095Y-71088761D01*
X21693714Y-71185523D01*
X21645333Y-71379047D01*
X21645333Y-71524190D01*
X21693714Y-71717714D01*
X21742095Y-71814476D01*
X21838857Y-71911238D01*
X21984000Y-71959619D01*
X22225904Y-71959619D01*
D11*
X23714285Y-57678571D02*
X23357142Y-59178571D01*
X23071428Y-58107142D01*
X22785714Y-59178571D01*
X22428571Y-57678571D01*
X21928571Y-58750000D02*
X21214285Y-58750000D01*
X22071428Y-59178571D02*
X21571428Y-57678571D01*
X21071428Y-59178571D01*
X19714285Y-59178571D02*
X20214285Y-58464285D01*
X20571428Y-59178571D02*
X20571428Y-57678571D01*
X20000000Y-57678571D01*
X19857142Y-57750000D01*
X19785714Y-57821428D01*
X19714285Y-57964285D01*
X19714285Y-58178571D01*
X19785714Y-58321428D01*
X19857142Y-58392857D01*
X20000000Y-58464285D01*
X20571428Y-58464285D01*
X19071428Y-59178571D02*
X19071428Y-57678571D01*
X18214285Y-59178571D01*
X18214285Y-57678571D01*
X17500000Y-59178571D02*
X17500000Y-57678571D01*
X16785714Y-59178571D02*
X16785714Y-57678571D01*
X15928571Y-59178571D01*
X15928571Y-57678571D01*
X14428571Y-57750000D02*
X14571428Y-57678571D01*
X14785714Y-57678571D01*
X15000000Y-57750000D01*
X15142857Y-57892857D01*
X15214285Y-58035714D01*
X15285714Y-58321428D01*
X15285714Y-58535714D01*
X15214285Y-58821428D01*
X15142857Y-58964285D01*
X15000000Y-59107142D01*
X14785714Y-59178571D01*
X14642857Y-59178571D01*
X14428571Y-59107142D01*
X14357142Y-59035714D01*
X14357142Y-58535714D01*
X14642857Y-58535714D01*
D10*
X25500000Y-57000000D02*
X25000000Y-57000000D01*
X25500000Y-73500000D02*
X25500000Y-57000000D01*
X13000000Y-73500000D02*
X25500000Y-73500000D01*
X13000000Y-57000000D02*
X13000000Y-73500000D01*
X25000000Y-57000000D02*
X13000000Y-57000000D01*
D12*
X25089547Y-61298619D02*
X24962547Y-60282619D01*
X24720642Y-60282619D01*
X24581547Y-60331000D01*
X24496880Y-60427761D01*
X24460595Y-60524523D01*
X24436404Y-60718047D01*
X24454547Y-60863190D01*
X24527119Y-61056714D01*
X24587595Y-61153476D01*
X24696452Y-61250238D01*
X24847642Y-61298619D01*
X25089547Y-61298619D01*
X23928404Y-61298619D02*
X24019119Y-61250238D01*
X24061452Y-61201857D01*
X24097738Y-61105095D01*
X24061452Y-60814809D01*
X24000976Y-60718047D01*
X23946547Y-60669666D01*
X23843738Y-60621285D01*
X23698595Y-60621285D01*
X23607880Y-60669666D01*
X23565547Y-60718047D01*
X23529261Y-60814809D01*
X23565547Y-61105095D01*
X23626023Y-61201857D01*
X23680452Y-61250238D01*
X23783261Y-61298619D01*
X23928404Y-61298619D01*
X22295547Y-60621285D02*
X22380214Y-61298619D01*
X22307642Y-60718047D02*
X22253214Y-60669666D01*
X22150404Y-60621285D01*
X22005261Y-60621285D01*
X21914547Y-60669666D01*
X21878261Y-60766428D01*
X21944785Y-61298619D01*
X21315833Y-61298619D02*
X21406547Y-61250238D01*
X21448880Y-61201857D01*
X21485166Y-61105095D01*
X21448880Y-60814809D01*
X21388404Y-60718047D01*
X21333976Y-60669666D01*
X21231166Y-60621285D01*
X21086023Y-60621285D01*
X20995309Y-60669666D01*
X20952976Y-60718047D01*
X20916690Y-60814809D01*
X20952976Y-61105095D01*
X21013452Y-61201857D01*
X21067880Y-61250238D01*
X21170690Y-61298619D01*
X21315833Y-61298619D01*
X20602214Y-60621285D02*
X20215166Y-60621285D01*
X20414738Y-60282619D02*
X20523595Y-61153476D01*
X20487309Y-61250238D01*
X20396595Y-61298619D01*
X20299833Y-61298619D01*
X18745595Y-61250238D02*
X18848404Y-61298619D01*
X19041928Y-61298619D01*
X19132642Y-61250238D01*
X19174976Y-61201857D01*
X19211261Y-61105095D01*
X19174976Y-60814809D01*
X19114500Y-60718047D01*
X19060071Y-60669666D01*
X18957261Y-60621285D01*
X18763738Y-60621285D01*
X18673023Y-60669666D01*
X18171071Y-61298619D02*
X18261785Y-61250238D01*
X18304119Y-61201857D01*
X18340404Y-61105095D01*
X18304119Y-60814809D01*
X18243642Y-60718047D01*
X18189214Y-60669666D01*
X18086404Y-60621285D01*
X17941261Y-60621285D01*
X17850547Y-60669666D01*
X17808214Y-60718047D01*
X17771928Y-60814809D01*
X17808214Y-61105095D01*
X17868690Y-61201857D01*
X17923119Y-61250238D01*
X18025928Y-61298619D01*
X18171071Y-61298619D01*
X17312309Y-60621285D02*
X17396976Y-61298619D01*
X17324404Y-60718047D02*
X17269976Y-60669666D01*
X17167166Y-60621285D01*
X17022023Y-60621285D01*
X16931309Y-60669666D01*
X16895023Y-60766428D01*
X16961547Y-61298619D01*
X16393071Y-60621285D02*
X16477738Y-61298619D01*
X16405166Y-60718047D02*
X16350738Y-60669666D01*
X16247928Y-60621285D01*
X16102785Y-60621285D01*
X16012071Y-60669666D01*
X15975785Y-60766428D01*
X16042309Y-61298619D01*
X15165404Y-61250238D02*
X15268214Y-61298619D01*
X15461738Y-61298619D01*
X15552452Y-61250238D01*
X15588738Y-61153476D01*
X15540357Y-60766428D01*
X15479880Y-60669666D01*
X15377071Y-60621285D01*
X15183547Y-60621285D01*
X15092833Y-60669666D01*
X15056547Y-60766428D01*
X15068642Y-60863190D01*
X15564547Y-60959952D01*
X14246166Y-61250238D02*
X14348976Y-61298619D01*
X14542500Y-61298619D01*
X14633214Y-61250238D01*
X14675547Y-61201857D01*
X14711833Y-61105095D01*
X14675547Y-60814809D01*
X14615071Y-60718047D01*
X14560642Y-60669666D01*
X14457833Y-60621285D01*
X14264309Y-60621285D01*
X14173595Y-60669666D01*
X13877261Y-60621285D02*
X13490214Y-60621285D01*
X13689785Y-60282619D02*
X13798642Y-61153476D01*
X13762357Y-61250238D01*
X13671642Y-61298619D01*
X13574880Y-61298619D01*
X24696452Y-63024238D02*
X24799261Y-63072619D01*
X24992785Y-63072619D01*
X25083500Y-63024238D01*
X25119785Y-62927476D01*
X25071404Y-62540428D01*
X25010928Y-62443666D01*
X24908119Y-62395285D01*
X24714595Y-62395285D01*
X24623880Y-62443666D01*
X24587595Y-62540428D01*
X24599690Y-62637190D01*
X25095595Y-62733952D01*
X24315452Y-63072619D02*
X23698595Y-62395285D01*
X24230785Y-62395285D02*
X23783261Y-63072619D01*
X23456690Y-62395285D02*
X23069642Y-62395285D01*
X23269214Y-62056619D02*
X23378071Y-62927476D01*
X23341785Y-63024238D01*
X23251071Y-63072619D01*
X23154309Y-63072619D01*
X22422547Y-63024238D02*
X22525357Y-63072619D01*
X22718880Y-63072619D01*
X22809595Y-63024238D01*
X22845880Y-62927476D01*
X22797500Y-62540428D01*
X22737023Y-62443666D01*
X22634214Y-62395285D01*
X22440690Y-62395285D01*
X22349976Y-62443666D01*
X22313690Y-62540428D01*
X22325785Y-62637190D01*
X22821690Y-62733952D01*
X21944785Y-63072619D02*
X21860119Y-62395285D01*
X21884309Y-62588809D02*
X21823833Y-62492047D01*
X21769404Y-62443666D01*
X21666595Y-62395285D01*
X21569833Y-62395285D01*
X21231166Y-62395285D02*
X21315833Y-63072619D01*
X21243261Y-62492047D02*
X21188833Y-62443666D01*
X21086023Y-62395285D01*
X20940880Y-62395285D01*
X20850166Y-62443666D01*
X20813880Y-62540428D01*
X20880404Y-63072619D01*
X19961166Y-63072619D02*
X19894642Y-62540428D01*
X19930928Y-62443666D01*
X20021642Y-62395285D01*
X20215166Y-62395285D01*
X20317976Y-62443666D01*
X19955119Y-63024238D02*
X20057928Y-63072619D01*
X20299833Y-63072619D01*
X20390547Y-63024238D01*
X20426833Y-62927476D01*
X20414738Y-62830714D01*
X20354261Y-62733952D01*
X20251452Y-62685571D01*
X20009547Y-62685571D01*
X19906738Y-62637190D01*
X19332214Y-63072619D02*
X19422928Y-63024238D01*
X19459214Y-62927476D01*
X19350357Y-62056619D01*
X18086404Y-62395285D02*
X18213404Y-63411285D01*
X18092452Y-62443666D02*
X17989642Y-62395285D01*
X17796119Y-62395285D01*
X17705404Y-62443666D01*
X17663071Y-62492047D01*
X17626785Y-62588809D01*
X17663071Y-62879095D01*
X17723547Y-62975857D01*
X17777976Y-63024238D01*
X17880785Y-63072619D01*
X18074309Y-63072619D01*
X18165023Y-63024238D01*
X17106690Y-63072619D02*
X17197404Y-63024238D01*
X17239738Y-62975857D01*
X17276023Y-62879095D01*
X17239738Y-62588809D01*
X17179261Y-62492047D01*
X17124833Y-62443666D01*
X17022023Y-62395285D01*
X16876880Y-62395285D01*
X16786166Y-62443666D01*
X16743833Y-62492047D01*
X16707547Y-62588809D01*
X16743833Y-62879095D01*
X16804309Y-62975857D01*
X16858738Y-63024238D01*
X16961547Y-63072619D01*
X17106690Y-63072619D01*
X16344690Y-62395285D02*
X16235833Y-63072619D01*
X15981833Y-62588809D01*
X15848785Y-63072619D01*
X15570595Y-62395285D01*
X14875119Y-63024238D02*
X14977928Y-63072619D01*
X15171452Y-63072619D01*
X15262166Y-63024238D01*
X15298452Y-62927476D01*
X15250071Y-62540428D01*
X15189595Y-62443666D01*
X15086785Y-62395285D01*
X14893261Y-62395285D01*
X14802547Y-62443666D01*
X14766261Y-62540428D01*
X14778357Y-62637190D01*
X15274261Y-62733952D01*
X14397357Y-63072619D02*
X14312690Y-62395285D01*
X14336880Y-62588809D02*
X14276404Y-62492047D01*
X14221976Y-62443666D01*
X14119166Y-62395285D01*
X14022404Y-62395285D01*
X25089547Y-64846619D02*
X25004880Y-64169285D01*
X24962547Y-63830619D02*
X25016976Y-63879000D01*
X24974642Y-63927380D01*
X24920214Y-63879000D01*
X24962547Y-63830619D01*
X24974642Y-63927380D01*
X24666214Y-64169285D02*
X24279166Y-64169285D01*
X24605738Y-64846619D02*
X24496880Y-63975761D01*
X24436404Y-63879000D01*
X24333595Y-63830619D01*
X24236833Y-63830619D01*
X22670500Y-64846619D02*
X22948690Y-64362809D01*
X23251071Y-64846619D02*
X23124071Y-63830619D01*
X22737023Y-63830619D01*
X22646309Y-63879000D01*
X22603976Y-63927380D01*
X22567690Y-64024142D01*
X22585833Y-64169285D01*
X22646309Y-64266047D01*
X22700738Y-64314428D01*
X22803547Y-64362809D01*
X23190595Y-64362809D01*
X21799642Y-64846619D02*
X21733119Y-64314428D01*
X21769404Y-64217666D01*
X21860119Y-64169285D01*
X22053642Y-64169285D01*
X22156452Y-64217666D01*
X21793595Y-64798238D02*
X21896404Y-64846619D01*
X22138309Y-64846619D01*
X22229023Y-64798238D01*
X22265309Y-64701476D01*
X22253214Y-64604714D01*
X22192738Y-64507952D01*
X22089928Y-64459571D01*
X21848023Y-64459571D01*
X21745214Y-64411190D01*
X21358166Y-64798238D02*
X21267452Y-64846619D01*
X21073928Y-64846619D01*
X20971119Y-64798238D01*
X20910642Y-64701476D01*
X20904595Y-64653095D01*
X20940880Y-64556333D01*
X21031595Y-64507952D01*
X21176738Y-64507952D01*
X21267452Y-64459571D01*
X21303738Y-64362809D01*
X21297690Y-64314428D01*
X21237214Y-64217666D01*
X21134404Y-64169285D01*
X20989261Y-64169285D01*
X20898547Y-64217666D01*
X20408690Y-64169285D02*
X20535690Y-65185285D01*
X20414738Y-64217666D02*
X20311928Y-64169285D01*
X20118404Y-64169285D01*
X20027690Y-64217666D01*
X19985357Y-64266047D01*
X19949071Y-64362809D01*
X19985357Y-64653095D01*
X20045833Y-64749857D01*
X20100261Y-64798238D01*
X20203071Y-64846619D01*
X20396595Y-64846619D01*
X20487309Y-64798238D01*
X19574119Y-64846619D02*
X19447119Y-63830619D01*
X19495500Y-64217666D02*
X19392690Y-64169285D01*
X19199166Y-64169285D01*
X19108452Y-64217666D01*
X19066119Y-64266047D01*
X19029833Y-64362809D01*
X19066119Y-64653095D01*
X19126595Y-64749857D01*
X19181023Y-64798238D01*
X19283833Y-64846619D01*
X19477357Y-64846619D01*
X19568071Y-64798238D01*
X18261785Y-64798238D02*
X18364595Y-64846619D01*
X18558119Y-64846619D01*
X18648833Y-64798238D01*
X18685119Y-64701476D01*
X18636738Y-64314428D01*
X18576261Y-64217666D01*
X18473452Y-64169285D01*
X18279928Y-64169285D01*
X18189214Y-64217666D01*
X18152928Y-64314428D01*
X18165023Y-64411190D01*
X18660928Y-64507952D01*
X17784023Y-64846619D02*
X17699357Y-64169285D01*
X17723547Y-64362809D02*
X17663071Y-64266047D01*
X17608642Y-64217666D01*
X17505833Y-64169285D01*
X17409071Y-64169285D01*
X17155071Y-64846619D02*
X17070404Y-64169285D01*
X17094595Y-64362809D02*
X17034119Y-64266047D01*
X16979690Y-64217666D01*
X16876880Y-64169285D01*
X16780119Y-64169285D01*
X16538214Y-64169285D02*
X16380976Y-64846619D01*
X16054404Y-64169285D02*
X16380976Y-64846619D01*
X16507976Y-65088523D01*
X16562404Y-65136904D01*
X16665214Y-65185285D01*
X14977928Y-64846619D02*
X14850928Y-63830619D01*
X14463880Y-63830619D01*
X14373166Y-63879000D01*
X14330833Y-63927380D01*
X14294547Y-64024142D01*
X14312690Y-64169285D01*
X14373166Y-64266047D01*
X14427595Y-64314428D01*
X14530404Y-64362809D01*
X14917452Y-64362809D01*
X13961928Y-64846619D02*
X13877261Y-64169285D01*
X13834928Y-63830619D02*
X13889357Y-63879000D01*
X13847023Y-63927380D01*
X13792595Y-63879000D01*
X13834928Y-63830619D01*
X13847023Y-63927380D01*
X25089547Y-66620619D02*
X25004880Y-65943285D01*
X24962547Y-65604619D02*
X25016976Y-65653000D01*
X24974642Y-65701380D01*
X24920214Y-65653000D01*
X24962547Y-65604619D01*
X24974642Y-65701380D01*
X24648071Y-66572238D02*
X24557357Y-66620619D01*
X24363833Y-66620619D01*
X24261023Y-66572238D01*
X24200547Y-66475476D01*
X24194500Y-66427095D01*
X24230785Y-66330333D01*
X24321500Y-66281952D01*
X24466642Y-66281952D01*
X24557357Y-66233571D01*
X24593642Y-66136809D01*
X24587595Y-66088428D01*
X24527119Y-65991666D01*
X24424309Y-65943285D01*
X24279166Y-65943285D01*
X24188452Y-65991666D01*
X22882166Y-65604619D02*
X22984976Y-66427095D01*
X22948690Y-66523857D01*
X22906357Y-66572238D01*
X22815642Y-66620619D01*
X22622119Y-66620619D01*
X22519309Y-66572238D01*
X22464880Y-66523857D01*
X22404404Y-66427095D01*
X22301595Y-65604619D01*
X21987119Y-66572238D02*
X21848023Y-66620619D01*
X21606119Y-66620619D01*
X21503309Y-66572238D01*
X21448880Y-66523857D01*
X21388404Y-66427095D01*
X21376309Y-66330333D01*
X21412595Y-66233571D01*
X21454928Y-66185190D01*
X21545642Y-66136809D01*
X21733119Y-66088428D01*
X21823833Y-66040047D01*
X21866166Y-65991666D01*
X21902452Y-65894904D01*
X21890357Y-65798142D01*
X21829880Y-65701380D01*
X21775452Y-65653000D01*
X21672642Y-65604619D01*
X21430738Y-65604619D01*
X21291642Y-65653000D01*
X20571976Y-66088428D02*
X20432880Y-66136809D01*
X20390547Y-66185190D01*
X20354261Y-66281952D01*
X20372404Y-66427095D01*
X20432880Y-66523857D01*
X20487309Y-66572238D01*
X20590119Y-66620619D01*
X20977166Y-66620619D01*
X20850166Y-65604619D01*
X20511500Y-65604619D01*
X20420785Y-65653000D01*
X20378452Y-65701380D01*
X20342166Y-65798142D01*
X20354261Y-65894904D01*
X20414738Y-65991666D01*
X20469166Y-66040047D01*
X20571976Y-66088428D01*
X20910642Y-66088428D01*
X19187071Y-66620619D02*
X19060071Y-65604619D01*
X18673023Y-65604619D01*
X18582309Y-65653000D01*
X18539976Y-65701380D01*
X18503690Y-65798142D01*
X18521833Y-65943285D01*
X18582309Y-66040047D01*
X18636738Y-66088428D01*
X18739547Y-66136809D01*
X19126595Y-66136809D01*
X18025928Y-66620619D02*
X18116642Y-66572238D01*
X18158976Y-66523857D01*
X18195261Y-66427095D01*
X18158976Y-66136809D01*
X18098500Y-66040047D01*
X18044071Y-65991666D01*
X17941261Y-65943285D01*
X17796119Y-65943285D01*
X17705404Y-65991666D01*
X17663071Y-66040047D01*
X17626785Y-66136809D01*
X17663071Y-66427095D01*
X17723547Y-66523857D01*
X17777976Y-66572238D01*
X17880785Y-66620619D01*
X18025928Y-66620619D01*
X17263928Y-65943285D02*
X17155071Y-66620619D01*
X16901071Y-66136809D01*
X16768023Y-66620619D01*
X16489833Y-65943285D01*
X15794357Y-66572238D02*
X15897166Y-66620619D01*
X16090690Y-66620619D01*
X16181404Y-66572238D01*
X16217690Y-66475476D01*
X16169309Y-66088428D01*
X16108833Y-65991666D01*
X16006023Y-65943285D01*
X15812500Y-65943285D01*
X15721785Y-65991666D01*
X15685500Y-66088428D01*
X15697595Y-66185190D01*
X16193500Y-66281952D01*
X15316595Y-66620619D02*
X15231928Y-65943285D01*
X15256119Y-66136809D02*
X15195642Y-66040047D01*
X15141214Y-65991666D01*
X15038404Y-65943285D01*
X14941642Y-65943285D01*
X14294547Y-66572238D02*
X14397357Y-66620619D01*
X14590880Y-66620619D01*
X14681595Y-66572238D01*
X14717880Y-66475476D01*
X14669500Y-66088428D01*
X14609023Y-65991666D01*
X14506214Y-65943285D01*
X14312690Y-65943285D01*
X14221976Y-65991666D01*
X14185690Y-66088428D01*
X14197785Y-66185190D01*
X14693690Y-66281952D01*
X13381357Y-66620619D02*
X13254357Y-65604619D01*
X13375309Y-66572238D02*
X13478119Y-66620619D01*
X13671642Y-66620619D01*
X13762357Y-66572238D01*
X13804690Y-66523857D01*
X13840976Y-66427095D01*
X13804690Y-66136809D01*
X13744214Y-66040047D01*
X13689785Y-65991666D01*
X13586976Y-65943285D01*
X13393452Y-65943285D01*
X13302738Y-65991666D01*
D10*
X60000000Y-66750000D02*
X60000000Y-67250000D01*
X49000000Y-66750000D02*
X60000000Y-66750000D01*
X49000000Y-67500000D02*
X49000000Y-66750000D01*
X60000000Y-76750000D02*
X60000000Y-67250000D01*
X49000000Y-76750000D02*
X49000000Y-67500000D01*
X50000000Y-76750000D02*
X49000000Y-76750000D01*
X60000000Y-76750000D02*
X50000000Y-76750000D01*
D13*
X29776190Y-40323809D02*
X29661904Y-40361904D01*
X29471428Y-40361904D01*
X29395238Y-40323809D01*
X29357142Y-40285714D01*
X29319047Y-40209523D01*
X29319047Y-40133333D01*
X29357142Y-40057142D01*
X29395238Y-40019047D01*
X29471428Y-39980952D01*
X29623809Y-39942857D01*
X29700000Y-39904761D01*
X29738095Y-39866666D01*
X29776190Y-39790476D01*
X29776190Y-39714285D01*
X29738095Y-39638095D01*
X29700000Y-39600000D01*
X29623809Y-39561904D01*
X29433333Y-39561904D01*
X29319047Y-39600000D01*
X28519047Y-40285714D02*
X28557142Y-40323809D01*
X28671428Y-40361904D01*
X28747619Y-40361904D01*
X28861904Y-40323809D01*
X28938095Y-40247619D01*
X28976190Y-40171428D01*
X29014285Y-40019047D01*
X29014285Y-39904761D01*
X28976190Y-39752380D01*
X28938095Y-39676190D01*
X28861904Y-39600000D01*
X28747619Y-39561904D01*
X28671428Y-39561904D01*
X28557142Y-39600000D01*
X28519047Y-39638095D01*
X27795238Y-40361904D02*
X28176190Y-40361904D01*
X28176190Y-39561904D01*
X26957142Y-40323809D02*
X26842857Y-40361904D01*
X26652380Y-40361904D01*
X26576190Y-40323809D01*
X26538095Y-40285714D01*
X26500000Y-40209523D01*
X26500000Y-40133333D01*
X26538095Y-40057142D01*
X26576190Y-40019047D01*
X26652380Y-39980952D01*
X26804761Y-39942857D01*
X26880952Y-39904761D01*
X26919047Y-39866666D01*
X26957142Y-39790476D01*
X26957142Y-39714285D01*
X26919047Y-39638095D01*
X26880952Y-39600000D01*
X26804761Y-39561904D01*
X26614285Y-39561904D01*
X26500000Y-39600000D01*
X26157142Y-40361904D02*
X26157142Y-39561904D01*
X25966666Y-39561904D01*
X25852380Y-39600000D01*
X25776190Y-39676190D01*
X25738095Y-39752380D01*
X25700000Y-39904761D01*
X25700000Y-40019047D01*
X25738095Y-40171428D01*
X25776190Y-40247619D01*
X25852380Y-40323809D01*
X25966666Y-40361904D01*
X26157142Y-40361904D01*
X25395238Y-40133333D02*
X25014285Y-40133333D01*
X25471428Y-40361904D02*
X25204761Y-39561904D01*
X24938095Y-40361904D01*
X24138095Y-39561904D02*
X23642857Y-39561904D01*
X23909523Y-39866666D01*
X23795238Y-39866666D01*
X23719047Y-39904761D01*
X23680952Y-39942857D01*
X23642857Y-40019047D01*
X23642857Y-40209523D01*
X23680952Y-40285714D01*
X23719047Y-40323809D01*
X23795238Y-40361904D01*
X24023809Y-40361904D01*
X24100000Y-40323809D01*
X24138095Y-40285714D01*
X23376190Y-39828571D02*
X23185714Y-40361904D01*
X22995238Y-39828571D01*
X22766666Y-39561904D02*
X22271428Y-39561904D01*
X22538095Y-39866666D01*
X22423809Y-39866666D01*
X22347619Y-39904761D01*
X22309523Y-39942857D01*
X22271428Y-40019047D01*
X22271428Y-40209523D01*
X22309523Y-40285714D01*
X22347619Y-40323809D01*
X22423809Y-40361904D01*
X22652380Y-40361904D01*
X22728571Y-40323809D01*
X22766666Y-40285714D01*
X20900000Y-39600000D02*
X20976190Y-39561904D01*
X21090476Y-39561904D01*
X21204761Y-39600000D01*
X21280952Y-39676190D01*
X21319047Y-39752380D01*
X21357142Y-39904761D01*
X21357142Y-40019047D01*
X21319047Y-40171428D01*
X21280952Y-40247619D01*
X21204761Y-40323809D01*
X21090476Y-40361904D01*
X21014285Y-40361904D01*
X20900000Y-40323809D01*
X20861904Y-40285714D01*
X20861904Y-40019047D01*
X21014285Y-40019047D01*
X20519047Y-40361904D02*
X20519047Y-39561904D01*
X20061904Y-40361904D01*
X20061904Y-39561904D01*
X19680952Y-40361904D02*
X19680952Y-39561904D01*
X19490476Y-39561904D01*
X19376190Y-39600000D01*
X19300000Y-39676190D01*
X19261904Y-39752380D01*
X19223809Y-39904761D01*
X19223809Y-40019047D01*
X19261904Y-40171428D01*
X19300000Y-40247619D01*
X19376190Y-40323809D01*
X19490476Y-40361904D01*
X19680952Y-40361904D01*
D10*
X47161726Y-34024657D02*
X47210107Y-34073038D01*
X47355250Y-34121419D01*
X47452012Y-34121419D01*
X47597155Y-34073038D01*
X47693917Y-33976276D01*
X47742298Y-33879514D01*
X47790679Y-33685990D01*
X47790679Y-33540847D01*
X47742298Y-33347323D01*
X47693917Y-33250561D01*
X47597155Y-33153800D01*
X47452012Y-33105419D01*
X47355250Y-33105419D01*
X47210107Y-33153800D01*
X47161726Y-33202180D01*
X46290869Y-33444085D02*
X46290869Y-34121419D01*
X46726298Y-33444085D02*
X46726298Y-33976276D01*
X46677917Y-34073038D01*
X46581155Y-34121419D01*
X46436012Y-34121419D01*
X46339250Y-34073038D01*
X46290869Y-34024657D01*
X45952202Y-33444085D02*
X45565155Y-33444085D01*
X45807060Y-33105419D02*
X45807060Y-33976276D01*
X45758679Y-34073038D01*
X45661917Y-34121419D01*
X45565155Y-34121419D01*
X44307250Y-34121419D02*
X44404012Y-34073038D01*
X44452393Y-33976276D01*
X44452393Y-33105419D01*
X43920202Y-34121419D02*
X43920202Y-33444085D01*
X43920202Y-33105419D02*
X43968583Y-33153800D01*
X43920202Y-33202180D01*
X43871821Y-33153800D01*
X43920202Y-33105419D01*
X43920202Y-33202180D01*
X43436393Y-33444085D02*
X43436393Y-34121419D01*
X43436393Y-33540847D02*
X43388012Y-33492466D01*
X43291250Y-33444085D01*
X43146107Y-33444085D01*
X43049345Y-33492466D01*
X43000964Y-33589228D01*
X43000964Y-34121419D01*
X42517155Y-34121419D02*
X42517155Y-33105419D01*
X42420393Y-33734371D02*
X42130107Y-34121419D01*
X42130107Y-33444085D02*
X42517155Y-33831133D01*
X41743060Y-34073038D02*
X41646298Y-34121419D01*
X41452774Y-34121419D01*
X41356012Y-34073038D01*
X41307631Y-33976276D01*
X41307631Y-33927895D01*
X41356012Y-33831133D01*
X41452774Y-33782752D01*
X41597917Y-33782752D01*
X41694679Y-33734371D01*
X41743060Y-33637609D01*
X41743060Y-33589228D01*
X41694679Y-33492466D01*
X41597917Y-33444085D01*
X41452774Y-33444085D01*
X41356012Y-33492466D01*
X40243250Y-33444085D02*
X39856202Y-33444085D01*
X40098107Y-33105419D02*
X40098107Y-33976276D01*
X40049726Y-34073038D01*
X39952964Y-34121419D01*
X39856202Y-34121419D01*
X39372393Y-34121419D02*
X39469155Y-34073038D01*
X39517536Y-34024657D01*
X39565917Y-33927895D01*
X39565917Y-33637609D01*
X39517536Y-33540847D01*
X39469155Y-33492466D01*
X39372393Y-33444085D01*
X39227250Y-33444085D01*
X39130488Y-33492466D01*
X39082107Y-33540847D01*
X39033726Y-33637609D01*
X39033726Y-33927895D01*
X39082107Y-34024657D01*
X39130488Y-34073038D01*
X39227250Y-34121419D01*
X39372393Y-34121419D01*
X37388774Y-34121419D02*
X37388774Y-33105419D01*
X37388774Y-34073038D02*
X37485536Y-34121419D01*
X37679060Y-34121419D01*
X37775821Y-34073038D01*
X37824202Y-34024657D01*
X37872583Y-33927895D01*
X37872583Y-33637609D01*
X37824202Y-33540847D01*
X37775821Y-33492466D01*
X37679060Y-33444085D01*
X37485536Y-33444085D01*
X37388774Y-33492466D01*
X36904964Y-34121419D02*
X36904964Y-33444085D01*
X36904964Y-33105419D02*
X36953345Y-33153800D01*
X36904964Y-33202180D01*
X36856583Y-33153800D01*
X36904964Y-33105419D01*
X36904964Y-33202180D01*
X36469536Y-34073038D02*
X36372774Y-34121419D01*
X36179250Y-34121419D01*
X36082488Y-34073038D01*
X36034107Y-33976276D01*
X36034107Y-33927895D01*
X36082488Y-33831133D01*
X36179250Y-33782752D01*
X36324393Y-33782752D01*
X36421155Y-33734371D01*
X36469536Y-33637609D01*
X36469536Y-33589228D01*
X36421155Y-33492466D01*
X36324393Y-33444085D01*
X36179250Y-33444085D01*
X36082488Y-33492466D01*
X35163250Y-34121419D02*
X35163250Y-33589228D01*
X35211631Y-33492466D01*
X35308393Y-33444085D01*
X35501917Y-33444085D01*
X35598679Y-33492466D01*
X35163250Y-34073038D02*
X35260012Y-34121419D01*
X35501917Y-34121419D01*
X35598679Y-34073038D01*
X35647060Y-33976276D01*
X35647060Y-33879514D01*
X35598679Y-33782752D01*
X35501917Y-33734371D01*
X35260012Y-33734371D01*
X35163250Y-33685990D01*
X34679440Y-34121419D02*
X34679440Y-33105419D01*
X34679440Y-33492466D02*
X34582679Y-33444085D01*
X34389155Y-33444085D01*
X34292393Y-33492466D01*
X34244012Y-33540847D01*
X34195631Y-33637609D01*
X34195631Y-33927895D01*
X34244012Y-34024657D01*
X34292393Y-34073038D01*
X34389155Y-34121419D01*
X34582679Y-34121419D01*
X34679440Y-34073038D01*
X33615060Y-34121419D02*
X33711821Y-34073038D01*
X33760202Y-33976276D01*
X33760202Y-33105419D01*
X32840964Y-34073038D02*
X32937726Y-34121419D01*
X33131250Y-34121419D01*
X33228012Y-34073038D01*
X33276393Y-33976276D01*
X33276393Y-33589228D01*
X33228012Y-33492466D01*
X33131250Y-33444085D01*
X32937726Y-33444085D01*
X32840964Y-33492466D01*
X32792583Y-33589228D01*
X32792583Y-33685990D01*
X33276393Y-33782752D01*
X42420393Y-35797819D02*
X42420393Y-34781819D01*
X41984964Y-34878580D02*
X41936583Y-34830200D01*
X41839821Y-34781819D01*
X41597917Y-34781819D01*
X41501155Y-34830200D01*
X41452774Y-34878580D01*
X41404393Y-34975342D01*
X41404393Y-35072104D01*
X41452774Y-35217247D01*
X42033345Y-35797819D01*
X41404393Y-35797819D01*
X40388393Y-35701057D02*
X40436774Y-35749438D01*
X40581917Y-35797819D01*
X40678679Y-35797819D01*
X40823821Y-35749438D01*
X40920583Y-35652676D01*
X40968964Y-35555914D01*
X41017345Y-35362390D01*
X41017345Y-35217247D01*
X40968964Y-35023723D01*
X40920583Y-34926961D01*
X40823821Y-34830200D01*
X40678679Y-34781819D01*
X40581917Y-34781819D01*
X40436774Y-34830200D01*
X40388393Y-34878580D01*
X39178869Y-35120485D02*
X39178869Y-36136485D01*
X39178869Y-35168866D02*
X39082107Y-35120485D01*
X38888583Y-35120485D01*
X38791821Y-35168866D01*
X38743440Y-35217247D01*
X38695060Y-35314009D01*
X38695060Y-35604295D01*
X38743440Y-35701057D01*
X38791821Y-35749438D01*
X38888583Y-35797819D01*
X39082107Y-35797819D01*
X39178869Y-35749438D01*
X37824202Y-35120485D02*
X37824202Y-35797819D01*
X38259631Y-35120485D02*
X38259631Y-35652676D01*
X38211250Y-35749438D01*
X38114488Y-35797819D01*
X37969345Y-35797819D01*
X37872583Y-35749438D01*
X37824202Y-35701057D01*
X37195250Y-35797819D02*
X37292012Y-35749438D01*
X37340393Y-35652676D01*
X37340393Y-34781819D01*
X36663060Y-35797819D02*
X36759821Y-35749438D01*
X36808202Y-35652676D01*
X36808202Y-34781819D01*
X36276012Y-35410771D02*
X35501917Y-35410771D01*
X34582679Y-35120485D02*
X34582679Y-35797819D01*
X35018107Y-35120485D02*
X35018107Y-35652676D01*
X34969726Y-35749438D01*
X34872964Y-35797819D01*
X34727821Y-35797819D01*
X34631060Y-35749438D01*
X34582679Y-35701057D01*
X34098869Y-35120485D02*
X34098869Y-36136485D01*
X34098869Y-35168866D02*
X34002107Y-35120485D01*
X33808583Y-35120485D01*
X33711821Y-35168866D01*
X33663440Y-35217247D01*
X33615060Y-35314009D01*
X33615060Y-35604295D01*
X33663440Y-35701057D01*
X33711821Y-35749438D01*
X33808583Y-35797819D01*
X34002107Y-35797819D01*
X34098869Y-35749438D01*
X33228012Y-35749438D02*
X33131250Y-35797819D01*
X32937726Y-35797819D01*
X32840964Y-35749438D01*
X32792583Y-35652676D01*
X32792583Y-35604295D01*
X32840964Y-35507533D01*
X32937726Y-35459152D01*
X33082869Y-35459152D01*
X33179631Y-35410771D01*
X33228012Y-35314009D01*
X33228012Y-35265628D01*
X33179631Y-35168866D01*
X33082869Y-35120485D01*
X32937726Y-35120485D01*
X32840964Y-35168866D01*
X24661238Y-31339047D02*
X24709619Y-31484190D01*
X24709619Y-31726095D01*
X24661238Y-31822857D01*
X24612857Y-31871238D01*
X24516095Y-31919619D01*
X24419333Y-31919619D01*
X24322571Y-31871238D01*
X24274190Y-31822857D01*
X24225809Y-31726095D01*
X24177428Y-31532571D01*
X24129047Y-31435809D01*
X24080666Y-31387428D01*
X23983904Y-31339047D01*
X23887142Y-31339047D01*
X23790380Y-31387428D01*
X23742000Y-31435809D01*
X23693619Y-31532571D01*
X23693619Y-31774476D01*
X23742000Y-31919619D01*
X24709619Y-32355047D02*
X23693619Y-32355047D01*
X23693619Y-32596952D01*
X23742000Y-32742095D01*
X23838761Y-32838857D01*
X23935523Y-32887238D01*
X24129047Y-32935619D01*
X24274190Y-32935619D01*
X24467714Y-32887238D01*
X24564476Y-32838857D01*
X24661238Y-32742095D01*
X24709619Y-32596952D01*
X24709619Y-32355047D01*
X24419333Y-33322666D02*
X24419333Y-33806476D01*
X24709619Y-33225904D02*
X23693619Y-33564571D01*
X24709619Y-33903238D01*
X24709619Y-35016000D02*
X23693619Y-35016000D01*
X23693619Y-35403047D01*
X23742000Y-35499809D01*
X23790380Y-35548190D01*
X23887142Y-35596571D01*
X24032285Y-35596571D01*
X24129047Y-35548190D01*
X24177428Y-35499809D01*
X24225809Y-35403047D01*
X24225809Y-35016000D01*
X23693619Y-36032000D02*
X24516095Y-36032000D01*
X24612857Y-36080380D01*
X24661238Y-36128761D01*
X24709619Y-36225523D01*
X24709619Y-36419047D01*
X24661238Y-36515809D01*
X24612857Y-36564190D01*
X24516095Y-36612571D01*
X23693619Y-36612571D01*
X31161238Y-31363238D02*
X31209619Y-31508380D01*
X31209619Y-31750285D01*
X31161238Y-31847047D01*
X31112857Y-31895428D01*
X31016095Y-31943809D01*
X30919333Y-31943809D01*
X30822571Y-31895428D01*
X30774190Y-31847047D01*
X30725809Y-31750285D01*
X30677428Y-31556761D01*
X30629047Y-31460000D01*
X30580666Y-31411619D01*
X30483904Y-31363238D01*
X30387142Y-31363238D01*
X30290380Y-31411619D01*
X30242000Y-31460000D01*
X30193619Y-31556761D01*
X30193619Y-31798666D01*
X30242000Y-31943809D01*
X31112857Y-32959809D02*
X31161238Y-32911428D01*
X31209619Y-32766285D01*
X31209619Y-32669523D01*
X31161238Y-32524380D01*
X31064476Y-32427619D01*
X30967714Y-32379238D01*
X30774190Y-32330857D01*
X30629047Y-32330857D01*
X30435523Y-32379238D01*
X30338761Y-32427619D01*
X30242000Y-32524380D01*
X30193619Y-32669523D01*
X30193619Y-32766285D01*
X30242000Y-32911428D01*
X30290380Y-32959809D01*
X31209619Y-33879047D02*
X31209619Y-33395238D01*
X30193619Y-33395238D01*
X31209619Y-34991809D02*
X30193619Y-34991809D01*
X30193619Y-35378857D01*
X30242000Y-35475619D01*
X30290380Y-35524000D01*
X30387142Y-35572380D01*
X30532285Y-35572380D01*
X30629047Y-35524000D01*
X30677428Y-35475619D01*
X30725809Y-35378857D01*
X30725809Y-34991809D01*
X30193619Y-36007809D02*
X31016095Y-36007809D01*
X31112857Y-36056190D01*
X31161238Y-36104571D01*
X31209619Y-36201333D01*
X31209619Y-36394857D01*
X31161238Y-36491619D01*
X31112857Y-36540000D01*
X31016095Y-36588380D01*
X30193619Y-36588380D01*
X69789904Y-47015600D02*
X69886666Y-46967219D01*
X70031809Y-46967219D01*
X70176952Y-47015600D01*
X70273714Y-47112361D01*
X70322095Y-47209123D01*
X70370476Y-47402647D01*
X70370476Y-47547790D01*
X70322095Y-47741314D01*
X70273714Y-47838076D01*
X70176952Y-47934838D01*
X70031809Y-47983219D01*
X69935047Y-47983219D01*
X69789904Y-47934838D01*
X69741523Y-47886457D01*
X69741523Y-47547790D01*
X69935047Y-47547790D01*
X68919047Y-47934838D02*
X69015809Y-47983219D01*
X69209333Y-47983219D01*
X69306095Y-47934838D01*
X69354476Y-47838076D01*
X69354476Y-47451028D01*
X69306095Y-47354266D01*
X69209333Y-47305885D01*
X69015809Y-47305885D01*
X68919047Y-47354266D01*
X68870666Y-47451028D01*
X68870666Y-47547790D01*
X69354476Y-47644552D01*
X68435238Y-47305885D02*
X68435238Y-47983219D01*
X68435238Y-47402647D02*
X68386857Y-47354266D01*
X68290095Y-47305885D01*
X68144952Y-47305885D01*
X68048190Y-47354266D01*
X67999809Y-47451028D01*
X67999809Y-47983219D01*
X67128952Y-47934838D02*
X67225714Y-47983219D01*
X67419238Y-47983219D01*
X67516000Y-47934838D01*
X67564380Y-47838076D01*
X67564380Y-47451028D01*
X67516000Y-47354266D01*
X67419238Y-47305885D01*
X67225714Y-47305885D01*
X67128952Y-47354266D01*
X67080571Y-47451028D01*
X67080571Y-47547790D01*
X67564380Y-47644552D01*
X66645142Y-47983219D02*
X66645142Y-47305885D01*
X66645142Y-47499409D02*
X66596761Y-47402647D01*
X66548380Y-47354266D01*
X66451619Y-47305885D01*
X66354857Y-47305885D01*
X65580761Y-47983219D02*
X65580761Y-47451028D01*
X65629142Y-47354266D01*
X65725904Y-47305885D01*
X65919428Y-47305885D01*
X66016190Y-47354266D01*
X65580761Y-47934838D02*
X65677523Y-47983219D01*
X65919428Y-47983219D01*
X66016190Y-47934838D01*
X66064571Y-47838076D01*
X66064571Y-47741314D01*
X66016190Y-47644552D01*
X65919428Y-47596171D01*
X65677523Y-47596171D01*
X65580761Y-47547790D01*
X65242095Y-47305885D02*
X64855047Y-47305885D01*
X65096952Y-46967219D02*
X65096952Y-47838076D01*
X65048571Y-47934838D01*
X64951809Y-47983219D01*
X64855047Y-47983219D01*
X64371238Y-47983219D02*
X64468000Y-47934838D01*
X64516380Y-47886457D01*
X64564761Y-47789695D01*
X64564761Y-47499409D01*
X64516380Y-47402647D01*
X64468000Y-47354266D01*
X64371238Y-47305885D01*
X64226095Y-47305885D01*
X64129333Y-47354266D01*
X64080952Y-47402647D01*
X64032571Y-47499409D01*
X64032571Y-47789695D01*
X64080952Y-47886457D01*
X64129333Y-47934838D01*
X64226095Y-47983219D01*
X64371238Y-47983219D01*
X63597142Y-47983219D02*
X63597142Y-47305885D01*
X63597142Y-47499409D02*
X63548761Y-47402647D01*
X63500380Y-47354266D01*
X63403619Y-47305885D01*
X63306857Y-47305885D01*
X69281904Y-49659619D02*
X69281904Y-48643619D01*
X68846476Y-49611238D02*
X68749714Y-49659619D01*
X68556190Y-49659619D01*
X68459428Y-49611238D01*
X68411047Y-49514476D01*
X68411047Y-49466095D01*
X68459428Y-49369333D01*
X68556190Y-49320952D01*
X68701333Y-49320952D01*
X68798095Y-49272571D01*
X68846476Y-49175809D01*
X68846476Y-49127428D01*
X68798095Y-49030666D01*
X68701333Y-48982285D01*
X68556190Y-48982285D01*
X68459428Y-49030666D01*
X67830476Y-49659619D02*
X67927238Y-49611238D01*
X67975619Y-49562857D01*
X68024000Y-49466095D01*
X68024000Y-49175809D01*
X67975619Y-49079047D01*
X67927238Y-49030666D01*
X67830476Y-48982285D01*
X67685333Y-48982285D01*
X67588571Y-49030666D01*
X67540190Y-49079047D01*
X67491809Y-49175809D01*
X67491809Y-49466095D01*
X67540190Y-49562857D01*
X67588571Y-49611238D01*
X67685333Y-49659619D01*
X67830476Y-49659619D01*
X66911238Y-49659619D02*
X67008000Y-49611238D01*
X67056380Y-49514476D01*
X67056380Y-48643619D01*
X66088761Y-49659619D02*
X66088761Y-49127428D01*
X66137142Y-49030666D01*
X66233904Y-48982285D01*
X66427428Y-48982285D01*
X66524190Y-49030666D01*
X66088761Y-49611238D02*
X66185523Y-49659619D01*
X66427428Y-49659619D01*
X66524190Y-49611238D01*
X66572571Y-49514476D01*
X66572571Y-49417714D01*
X66524190Y-49320952D01*
X66427428Y-49272571D01*
X66185523Y-49272571D01*
X66088761Y-49224190D01*
X65750095Y-48982285D02*
X65363047Y-48982285D01*
X65604952Y-48643619D02*
X65604952Y-49514476D01*
X65556571Y-49611238D01*
X65459809Y-49659619D01*
X65363047Y-49659619D01*
X64637333Y-49611238D02*
X64734095Y-49659619D01*
X64927619Y-49659619D01*
X65024380Y-49611238D01*
X65072761Y-49514476D01*
X65072761Y-49127428D01*
X65024380Y-49030666D01*
X64927619Y-48982285D01*
X64734095Y-48982285D01*
X64637333Y-49030666D01*
X64588952Y-49127428D01*
X64588952Y-49224190D01*
X65072761Y-49320952D01*
X63718095Y-49659619D02*
X63718095Y-48643619D01*
X63718095Y-49611238D02*
X63814857Y-49659619D01*
X64008380Y-49659619D01*
X64105142Y-49611238D01*
X64153523Y-49562857D01*
X64201904Y-49466095D01*
X64201904Y-49175809D01*
X64153523Y-49079047D01*
X64105142Y-49030666D01*
X64008380Y-48982285D01*
X63814857Y-48982285D01*
X63718095Y-49030666D01*
X68532000Y-50948971D02*
X67757904Y-50948971D01*
X68144952Y-51336019D02*
X68144952Y-50561923D01*
X67370857Y-50320019D02*
X66741904Y-50320019D01*
X67080571Y-50707066D01*
X66935428Y-50707066D01*
X66838666Y-50755447D01*
X66790285Y-50803828D01*
X66741904Y-50900590D01*
X66741904Y-51142495D01*
X66790285Y-51239257D01*
X66838666Y-51287638D01*
X66935428Y-51336019D01*
X67225714Y-51336019D01*
X67322476Y-51287638D01*
X67370857Y-51239257D01*
X66306476Y-51239257D02*
X66258095Y-51287638D01*
X66306476Y-51336019D01*
X66354857Y-51287638D01*
X66306476Y-51239257D01*
X66306476Y-51336019D01*
X65919428Y-50320019D02*
X65290476Y-50320019D01*
X65629142Y-50707066D01*
X65484000Y-50707066D01*
X65387238Y-50755447D01*
X65338857Y-50803828D01*
X65290476Y-50900590D01*
X65290476Y-51142495D01*
X65338857Y-51239257D01*
X65387238Y-51287638D01*
X65484000Y-51336019D01*
X65774285Y-51336019D01*
X65871047Y-51287638D01*
X65919428Y-51239257D01*
X65000190Y-50320019D02*
X64661523Y-51336019D01*
X64322857Y-50320019D01*
X76534666Y-43259619D02*
X76534666Y-42243619D01*
X76099238Y-43259619D02*
X76099238Y-42727428D01*
X76147619Y-42630666D01*
X76244380Y-42582285D01*
X76389523Y-42582285D01*
X76486285Y-42630666D01*
X76534666Y-42679047D01*
X75760571Y-42582285D02*
X75373523Y-42582285D01*
X75615428Y-42243619D02*
X75615428Y-43114476D01*
X75567047Y-43211238D01*
X75470285Y-43259619D01*
X75373523Y-43259619D01*
X75180000Y-42582285D02*
X74792952Y-42582285D01*
X75034857Y-42243619D02*
X75034857Y-43114476D01*
X74986476Y-43211238D01*
X74889714Y-43259619D01*
X74792952Y-43259619D01*
X74454285Y-42582285D02*
X74454285Y-43598285D01*
X74454285Y-42630666D02*
X74357523Y-42582285D01*
X74164000Y-42582285D01*
X74067238Y-42630666D01*
X74018857Y-42679047D01*
X73970476Y-42775809D01*
X73970476Y-43066095D01*
X74018857Y-43162857D01*
X74067238Y-43211238D01*
X74164000Y-43259619D01*
X74357523Y-43259619D01*
X74454285Y-43211238D01*
X73583428Y-43211238D02*
X73486666Y-43259619D01*
X73293142Y-43259619D01*
X73196380Y-43211238D01*
X73148000Y-43114476D01*
X73148000Y-43066095D01*
X73196380Y-42969333D01*
X73293142Y-42920952D01*
X73438285Y-42920952D01*
X73535047Y-42872571D01*
X73583428Y-42775809D01*
X73583428Y-42727428D01*
X73535047Y-42630666D01*
X73438285Y-42582285D01*
X73293142Y-42582285D01*
X73196380Y-42630666D01*
X72712571Y-43162857D02*
X72664190Y-43211238D01*
X72712571Y-43259619D01*
X72760952Y-43211238D01*
X72712571Y-43162857D01*
X72712571Y-43259619D01*
X72712571Y-42630666D02*
X72664190Y-42679047D01*
X72712571Y-42727428D01*
X72760952Y-42679047D01*
X72712571Y-42630666D01*
X72712571Y-42727428D01*
X71503047Y-42195238D02*
X72373904Y-43501523D01*
X70438666Y-42195238D02*
X71309523Y-43501523D01*
X70196761Y-42582285D02*
X70003238Y-43259619D01*
X69809714Y-42775809D01*
X69616190Y-43259619D01*
X69422666Y-42582285D01*
X69132380Y-42582285D02*
X68938857Y-43259619D01*
X68745333Y-42775809D01*
X68551809Y-43259619D01*
X68358285Y-42582285D01*
X68068000Y-42582285D02*
X67874476Y-43259619D01*
X67680952Y-42775809D01*
X67487428Y-43259619D01*
X67293904Y-42582285D01*
X66906857Y-43162857D02*
X66858476Y-43211238D01*
X66906857Y-43259619D01*
X66955238Y-43211238D01*
X66906857Y-43162857D01*
X66906857Y-43259619D01*
X66568190Y-42582285D02*
X66181142Y-42582285D01*
X66423047Y-42243619D02*
X66423047Y-43114476D01*
X66374666Y-43211238D01*
X66277904Y-43259619D01*
X66181142Y-43259619D01*
X65842476Y-43259619D02*
X65842476Y-42582285D01*
X65842476Y-42775809D02*
X65794095Y-42679047D01*
X65745714Y-42630666D01*
X65648952Y-42582285D01*
X65552190Y-42582285D01*
X64778095Y-43259619D02*
X64778095Y-42727428D01*
X64826476Y-42630666D01*
X64923238Y-42582285D01*
X65116761Y-42582285D01*
X65213523Y-42630666D01*
X64778095Y-43211238D02*
X64874857Y-43259619D01*
X65116761Y-43259619D01*
X65213523Y-43211238D01*
X65261904Y-43114476D01*
X65261904Y-43017714D01*
X65213523Y-42920952D01*
X65116761Y-42872571D01*
X64874857Y-42872571D01*
X64778095Y-42824190D01*
X64294285Y-42582285D02*
X64294285Y-43259619D01*
X64294285Y-42679047D02*
X64245904Y-42630666D01*
X64149142Y-42582285D01*
X64004000Y-42582285D01*
X63907238Y-42630666D01*
X63858857Y-42727428D01*
X63858857Y-43259619D01*
X63423428Y-43211238D02*
X63326666Y-43259619D01*
X63133142Y-43259619D01*
X63036380Y-43211238D01*
X62988000Y-43114476D01*
X62988000Y-43066095D01*
X63036380Y-42969333D01*
X63133142Y-42920952D01*
X63278285Y-42920952D01*
X63375047Y-42872571D01*
X63423428Y-42775809D01*
X63423428Y-42727428D01*
X63375047Y-42630666D01*
X63278285Y-42582285D01*
X63133142Y-42582285D01*
X63036380Y-42630666D01*
X62600952Y-43211238D02*
X62504190Y-43259619D01*
X62310666Y-43259619D01*
X62213904Y-43211238D01*
X62165523Y-43114476D01*
X62165523Y-43066095D01*
X62213904Y-42969333D01*
X62310666Y-42920952D01*
X62455809Y-42920952D01*
X62552571Y-42872571D01*
X62600952Y-42775809D01*
X62600952Y-42727428D01*
X62552571Y-42630666D01*
X62455809Y-42582285D01*
X62310666Y-42582285D01*
X62213904Y-42630666D01*
X61826857Y-42582285D02*
X61584952Y-43259619D01*
X61343047Y-42582285D02*
X61584952Y-43259619D01*
X61681714Y-43501523D01*
X61730095Y-43549904D01*
X61826857Y-43598285D01*
X61004380Y-43211238D02*
X60907619Y-43259619D01*
X60714095Y-43259619D01*
X60617333Y-43211238D01*
X60568952Y-43114476D01*
X60568952Y-43066095D01*
X60617333Y-42969333D01*
X60714095Y-42920952D01*
X60859238Y-42920952D01*
X60956000Y-42872571D01*
X61004380Y-42775809D01*
X61004380Y-42727428D01*
X60956000Y-42630666D01*
X60859238Y-42582285D01*
X60714095Y-42582285D01*
X60617333Y-42630666D01*
X60133523Y-43162857D02*
X60085142Y-43211238D01*
X60133523Y-43259619D01*
X60181904Y-43211238D01*
X60133523Y-43162857D01*
X60133523Y-43259619D01*
X59214285Y-43211238D02*
X59311047Y-43259619D01*
X59504571Y-43259619D01*
X59601333Y-43211238D01*
X59649714Y-43162857D01*
X59698095Y-43066095D01*
X59698095Y-42775809D01*
X59649714Y-42679047D01*
X59601333Y-42630666D01*
X59504571Y-42582285D01*
X59311047Y-42582285D01*
X59214285Y-42630666D01*
X58633714Y-43259619D02*
X58730476Y-43211238D01*
X58778857Y-43162857D01*
X58827238Y-43066095D01*
X58827238Y-42775809D01*
X58778857Y-42679047D01*
X58730476Y-42630666D01*
X58633714Y-42582285D01*
X58488571Y-42582285D01*
X58391809Y-42630666D01*
X58343428Y-42679047D01*
X58295047Y-42775809D01*
X58295047Y-43066095D01*
X58343428Y-43162857D01*
X58391809Y-43211238D01*
X58488571Y-43259619D01*
X58633714Y-43259619D01*
X57859619Y-43259619D02*
X57859619Y-42582285D01*
X57859619Y-42679047D02*
X57811238Y-42630666D01*
X57714476Y-42582285D01*
X57569333Y-42582285D01*
X57472571Y-42630666D01*
X57424190Y-42727428D01*
X57424190Y-43259619D01*
X57424190Y-42727428D02*
X57375809Y-42630666D01*
X57279047Y-42582285D01*
X57133904Y-42582285D01*
X57037142Y-42630666D01*
X56988761Y-42727428D01*
X56988761Y-43259619D01*
X55779238Y-42195238D02*
X56650095Y-43501523D01*
X55440571Y-42582285D02*
X55440571Y-43598285D01*
X55440571Y-42630666D02*
X55343809Y-42582285D01*
X55150285Y-42582285D01*
X55053523Y-42630666D01*
X55005142Y-42679047D01*
X54956761Y-42775809D01*
X54956761Y-43066095D01*
X55005142Y-43162857D01*
X55053523Y-43211238D01*
X55150285Y-43259619D01*
X55343809Y-43259619D01*
X55440571Y-43211238D01*
X54376190Y-43259619D02*
X54472952Y-43211238D01*
X54521333Y-43162857D01*
X54569714Y-43066095D01*
X54569714Y-42775809D01*
X54521333Y-42679047D01*
X54472952Y-42630666D01*
X54376190Y-42582285D01*
X54231047Y-42582285D01*
X54134285Y-42630666D01*
X54085904Y-42679047D01*
X54037523Y-42775809D01*
X54037523Y-43066095D01*
X54085904Y-43162857D01*
X54134285Y-43211238D01*
X54231047Y-43259619D01*
X54376190Y-43259619D01*
X53650476Y-43211238D02*
X53553714Y-43259619D01*
X53360190Y-43259619D01*
X53263428Y-43211238D01*
X53215047Y-43114476D01*
X53215047Y-43066095D01*
X53263428Y-42969333D01*
X53360190Y-42920952D01*
X53505333Y-42920952D01*
X53602095Y-42872571D01*
X53650476Y-42775809D01*
X53650476Y-42727428D01*
X53602095Y-42630666D01*
X53505333Y-42582285D01*
X53360190Y-42582285D01*
X53263428Y-42630666D01*
X52924761Y-42582285D02*
X52537714Y-42582285D01*
X52779619Y-42243619D02*
X52779619Y-43114476D01*
X52731238Y-43211238D01*
X52634476Y-43259619D01*
X52537714Y-43259619D01*
X52247428Y-43211238D02*
X52150666Y-43259619D01*
X51957142Y-43259619D01*
X51860380Y-43211238D01*
X51812000Y-43114476D01*
X51812000Y-43066095D01*
X51860380Y-42969333D01*
X51957142Y-42920952D01*
X52102285Y-42920952D01*
X52199047Y-42872571D01*
X52247428Y-42775809D01*
X52247428Y-42727428D01*
X52199047Y-42630666D01*
X52102285Y-42582285D01*
X51957142Y-42582285D01*
X51860380Y-42630666D01*
X50650857Y-42195238D02*
X51521714Y-43501523D01*
X49876761Y-42582285D02*
X49876761Y-43404761D01*
X49925142Y-43501523D01*
X49973523Y-43549904D01*
X50070285Y-43598285D01*
X50215428Y-43598285D01*
X50312190Y-43549904D01*
X49876761Y-43211238D02*
X49973523Y-43259619D01*
X50167047Y-43259619D01*
X50263809Y-43211238D01*
X50312190Y-43162857D01*
X50360571Y-43066095D01*
X50360571Y-42775809D01*
X50312190Y-42679047D01*
X50263809Y-42630666D01*
X50167047Y-42582285D01*
X49973523Y-42582285D01*
X49876761Y-42630666D01*
X49005904Y-43211238D02*
X49102666Y-43259619D01*
X49296190Y-43259619D01*
X49392952Y-43211238D01*
X49441333Y-43114476D01*
X49441333Y-42727428D01*
X49392952Y-42630666D01*
X49296190Y-42582285D01*
X49102666Y-42582285D01*
X49005904Y-42630666D01*
X48957523Y-42727428D01*
X48957523Y-42824190D01*
X49441333Y-42920952D01*
X48522095Y-42582285D02*
X48522095Y-43259619D01*
X48522095Y-42679047D02*
X48473714Y-42630666D01*
X48376952Y-42582285D01*
X48231809Y-42582285D01*
X48135047Y-42630666D01*
X48086666Y-42727428D01*
X48086666Y-43259619D01*
X47602857Y-43259619D02*
X47602857Y-42582285D01*
X47602857Y-42679047D02*
X47554476Y-42630666D01*
X47457714Y-42582285D01*
X47312571Y-42582285D01*
X47215809Y-42630666D01*
X47167428Y-42727428D01*
X47167428Y-43259619D01*
X47167428Y-42727428D02*
X47119047Y-42630666D01*
X47022285Y-42582285D01*
X46877142Y-42582285D01*
X46780380Y-42630666D01*
X46732000Y-42727428D01*
X46732000Y-43259619D01*
X46103047Y-43259619D02*
X46199809Y-43211238D01*
X46248190Y-43162857D01*
X46296571Y-43066095D01*
X46296571Y-42775809D01*
X46248190Y-42679047D01*
X46199809Y-42630666D01*
X46103047Y-42582285D01*
X45957904Y-42582285D01*
X45861142Y-42630666D01*
X45812761Y-42679047D01*
X45764380Y-42775809D01*
X45764380Y-43066095D01*
X45812761Y-43162857D01*
X45861142Y-43211238D01*
X45957904Y-43259619D01*
X46103047Y-43259619D01*
X45328952Y-42582285D02*
X45328952Y-43259619D01*
X45328952Y-42679047D02*
X45280571Y-42630666D01*
X45183809Y-42582285D01*
X45038666Y-42582285D01*
X44941904Y-42630666D01*
X44893523Y-42727428D01*
X44893523Y-43259619D01*
X44409714Y-42872571D02*
X43635619Y-42872571D01*
X43151809Y-43259619D02*
X43151809Y-42243619D01*
X43151809Y-42630666D02*
X43055047Y-42582285D01*
X42861523Y-42582285D01*
X42764761Y-42630666D01*
X42716380Y-42679047D01*
X42668000Y-42775809D01*
X42668000Y-43066095D01*
X42716380Y-43162857D01*
X42764761Y-43211238D01*
X42861523Y-43259619D01*
X43055047Y-43259619D01*
X43151809Y-43211238D01*
X42087428Y-43259619D02*
X42184190Y-43211238D01*
X42232571Y-43162857D01*
X42280952Y-43066095D01*
X42280952Y-42775809D01*
X42232571Y-42679047D01*
X42184190Y-42630666D01*
X42087428Y-42582285D01*
X41942285Y-42582285D01*
X41845523Y-42630666D01*
X41797142Y-42679047D01*
X41748761Y-42775809D01*
X41748761Y-43066095D01*
X41797142Y-43162857D01*
X41845523Y-43211238D01*
X41942285Y-43259619D01*
X42087428Y-43259619D01*
X40877904Y-43259619D02*
X40877904Y-42727428D01*
X40926285Y-42630666D01*
X41023047Y-42582285D01*
X41216571Y-42582285D01*
X41313333Y-42630666D01*
X40877904Y-43211238D02*
X40974666Y-43259619D01*
X41216571Y-43259619D01*
X41313333Y-43211238D01*
X41361714Y-43114476D01*
X41361714Y-43017714D01*
X41313333Y-42920952D01*
X41216571Y-42872571D01*
X40974666Y-42872571D01*
X40877904Y-42824190D01*
X40394095Y-43259619D02*
X40394095Y-42582285D01*
X40394095Y-42775809D02*
X40345714Y-42679047D01*
X40297333Y-42630666D01*
X40200571Y-42582285D01*
X40103809Y-42582285D01*
X39329714Y-43259619D02*
X39329714Y-42243619D01*
X39329714Y-43211238D02*
X39426476Y-43259619D01*
X39620000Y-43259619D01*
X39716761Y-43211238D01*
X39765142Y-43162857D01*
X39813523Y-43066095D01*
X39813523Y-42775809D01*
X39765142Y-42679047D01*
X39716761Y-42630666D01*
X39620000Y-42582285D01*
X39426476Y-42582285D01*
X39329714Y-42630666D01*
X38120190Y-42195238D02*
X38991047Y-43501523D01*
D11*
X47369047Y-72653571D02*
X46626190Y-72653571D01*
X46997619Y-74153571D02*
X46997619Y-72653571D01*
X46316666Y-73153571D02*
X46007142Y-74153571D01*
X45697619Y-73153571D02*
X46007142Y-74153571D01*
X46130952Y-74510714D01*
X46192857Y-74582142D01*
X46316666Y-74653571D01*
X45202380Y-73153571D02*
X45202380Y-74653571D01*
X45202380Y-73225000D02*
X45078571Y-73153571D01*
X44830952Y-73153571D01*
X44707142Y-73225000D01*
X44645238Y-73296428D01*
X44583333Y-73439285D01*
X44583333Y-73867857D01*
X44645238Y-74010714D01*
X44707142Y-74082142D01*
X44830952Y-74153571D01*
X45078571Y-74153571D01*
X45202380Y-74082142D01*
X43530952Y-74082142D02*
X43654761Y-74153571D01*
X43902380Y-74153571D01*
X44026190Y-74082142D01*
X44088095Y-73939285D01*
X44088095Y-73367857D01*
X44026190Y-73225000D01*
X43902380Y-73153571D01*
X43654761Y-73153571D01*
X43530952Y-73225000D01*
X43469047Y-73367857D01*
X43469047Y-73510714D01*
X44088095Y-73653571D01*
X41921428Y-74153571D02*
X41921428Y-72653571D01*
X41178571Y-74153571D02*
X41735714Y-73296428D01*
X41178571Y-72653571D02*
X41921428Y-73510714D01*
X39816666Y-72653571D02*
X39073809Y-72653571D01*
X39445238Y-74153571D02*
X39445238Y-72653571D01*
X38640476Y-74153571D02*
X38640476Y-72653571D01*
X38083333Y-74153571D02*
X38083333Y-73367857D01*
X38145238Y-73225000D01*
X38269047Y-73153571D01*
X38454761Y-73153571D01*
X38578571Y-73225000D01*
X38640476Y-73296428D01*
X36969047Y-74082142D02*
X37092857Y-74153571D01*
X37340476Y-74153571D01*
X37464285Y-74082142D01*
X37526190Y-73939285D01*
X37526190Y-73367857D01*
X37464285Y-73225000D01*
X37340476Y-73153571D01*
X37092857Y-73153571D01*
X36969047Y-73225000D01*
X36907142Y-73367857D01*
X36907142Y-73510714D01*
X37526190Y-73653571D01*
X36350000Y-74153571D02*
X36350000Y-73153571D01*
X36350000Y-73439285D02*
X36288095Y-73296428D01*
X36226190Y-73225000D01*
X36102380Y-73153571D01*
X35978571Y-73153571D01*
X35545238Y-74153571D02*
X35545238Y-73153571D01*
X35545238Y-73296428D02*
X35483333Y-73225000D01*
X35359523Y-73153571D01*
X35173809Y-73153571D01*
X35050000Y-73225000D01*
X34988095Y-73367857D01*
X34988095Y-74153571D01*
X34988095Y-73367857D02*
X34926190Y-73225000D01*
X34802380Y-73153571D01*
X34616666Y-73153571D01*
X34492857Y-73225000D01*
X34430952Y-73367857D01*
X34430952Y-74153571D01*
X33626190Y-74153571D02*
X33750000Y-74082142D01*
X33811904Y-74010714D01*
X33873809Y-73867857D01*
X33873809Y-73439285D01*
X33811904Y-73296428D01*
X33750000Y-73225000D01*
X33626190Y-73153571D01*
X33440476Y-73153571D01*
X33316666Y-73225000D01*
X33254761Y-73296428D01*
X33192857Y-73439285D01*
X33192857Y-73867857D01*
X33254761Y-74010714D01*
X33316666Y-74082142D01*
X33440476Y-74153571D01*
X33626190Y-74153571D01*
X32078571Y-74082142D02*
X32202380Y-74153571D01*
X32450000Y-74153571D01*
X32573809Y-74082142D01*
X32635714Y-74010714D01*
X32697619Y-73867857D01*
X32697619Y-73439285D01*
X32635714Y-73296428D01*
X32573809Y-73225000D01*
X32450000Y-73153571D01*
X32202380Y-73153571D01*
X32078571Y-73225000D01*
X31335714Y-74153571D02*
X31459523Y-74082142D01*
X31521428Y-74010714D01*
X31583333Y-73867857D01*
X31583333Y-73439285D01*
X31521428Y-73296428D01*
X31459523Y-73225000D01*
X31335714Y-73153571D01*
X31150000Y-73153571D01*
X31026190Y-73225000D01*
X30964285Y-73296428D01*
X30902380Y-73439285D01*
X30902380Y-73867857D01*
X30964285Y-74010714D01*
X31026190Y-74082142D01*
X31150000Y-74153571D01*
X31335714Y-74153571D01*
X29788095Y-73153571D02*
X29788095Y-74153571D01*
X30345238Y-73153571D02*
X30345238Y-73939285D01*
X30283333Y-74082142D01*
X30159523Y-74153571D01*
X29973809Y-74153571D01*
X29850000Y-74082142D01*
X29788095Y-74010714D01*
X29169047Y-73153571D02*
X29169047Y-74653571D01*
X29169047Y-73225000D02*
X29045238Y-73153571D01*
X28797619Y-73153571D01*
X28673809Y-73225000D01*
X28611904Y-73296428D01*
X28550000Y-73439285D01*
X28550000Y-73867857D01*
X28611904Y-74010714D01*
X28673809Y-74082142D01*
X28797619Y-74153571D01*
X29045238Y-74153571D01*
X29169047Y-74082142D01*
X27807142Y-74153571D02*
X27930952Y-74082142D01*
X27992857Y-73939285D01*
X27992857Y-72653571D01*
X26816666Y-74082142D02*
X26940476Y-74153571D01*
X27188095Y-74153571D01*
X27311904Y-74082142D01*
X27373809Y-73939285D01*
X27373809Y-73367857D01*
X27311904Y-73225000D01*
X27188095Y-73153571D01*
X26940476Y-73153571D01*
X26816666Y-73225000D01*
X26754761Y-73367857D01*
X26754761Y-73510714D01*
X27373809Y-73653571D01*
X41859523Y-76560714D02*
X41921428Y-76632142D01*
X42107142Y-76703571D01*
X42230952Y-76703571D01*
X42416666Y-76632142D01*
X42540476Y-76489285D01*
X42602380Y-76346428D01*
X42664285Y-76060714D01*
X42664285Y-75846428D01*
X42602380Y-75560714D01*
X42540476Y-75417857D01*
X42416666Y-75275000D01*
X42230952Y-75203571D01*
X42107142Y-75203571D01*
X41921428Y-75275000D01*
X41859523Y-75346428D01*
X41116666Y-76703571D02*
X41240476Y-76632142D01*
X41302380Y-76560714D01*
X41364285Y-76417857D01*
X41364285Y-75989285D01*
X41302380Y-75846428D01*
X41240476Y-75775000D01*
X41116666Y-75703571D01*
X40930952Y-75703571D01*
X40807142Y-75775000D01*
X40745238Y-75846428D01*
X40683333Y-75989285D01*
X40683333Y-76417857D01*
X40745238Y-76560714D01*
X40807142Y-76632142D01*
X40930952Y-76703571D01*
X41116666Y-76703571D01*
X40126190Y-75703571D02*
X40126190Y-76703571D01*
X40126190Y-75846428D02*
X40064285Y-75775000D01*
X39940476Y-75703571D01*
X39754761Y-75703571D01*
X39630952Y-75775000D01*
X39569047Y-75917857D01*
X39569047Y-76703571D01*
X38950000Y-75703571D02*
X38950000Y-76703571D01*
X38950000Y-75846428D02*
X38888095Y-75775000D01*
X38764285Y-75703571D01*
X38578571Y-75703571D01*
X38454761Y-75775000D01*
X38392857Y-75917857D01*
X38392857Y-76703571D01*
X37278571Y-76632142D02*
X37402380Y-76703571D01*
X37650000Y-76703571D01*
X37773809Y-76632142D01*
X37835714Y-76489285D01*
X37835714Y-75917857D01*
X37773809Y-75775000D01*
X37650000Y-75703571D01*
X37402380Y-75703571D01*
X37278571Y-75775000D01*
X37216666Y-75917857D01*
X37216666Y-76060714D01*
X37835714Y-76203571D01*
X36102380Y-76632142D02*
X36226190Y-76703571D01*
X36473809Y-76703571D01*
X36597619Y-76632142D01*
X36659523Y-76560714D01*
X36721428Y-76417857D01*
X36721428Y-75989285D01*
X36659523Y-75846428D01*
X36597619Y-75775000D01*
X36473809Y-75703571D01*
X36226190Y-75703571D01*
X36102380Y-75775000D01*
X35730952Y-75703571D02*
X35235714Y-75703571D01*
X35545238Y-75203571D02*
X35545238Y-76489285D01*
X35483333Y-76632142D01*
X35359523Y-76703571D01*
X35235714Y-76703571D01*
X34802380Y-76703571D02*
X34802380Y-75703571D01*
X34802380Y-75203571D02*
X34864285Y-75275000D01*
X34802380Y-75346428D01*
X34740476Y-75275000D01*
X34802380Y-75203571D01*
X34802380Y-75346428D01*
X33997619Y-76703571D02*
X34121428Y-76632142D01*
X34183333Y-76560714D01*
X34245238Y-76417857D01*
X34245238Y-75989285D01*
X34183333Y-75846428D01*
X34121428Y-75775000D01*
X33997619Y-75703571D01*
X33811904Y-75703571D01*
X33688095Y-75775000D01*
X33626190Y-75846428D01*
X33564285Y-75989285D01*
X33564285Y-76417857D01*
X33626190Y-76560714D01*
X33688095Y-76632142D01*
X33811904Y-76703571D01*
X33997619Y-76703571D01*
X33007142Y-75703571D02*
X33007142Y-76703571D01*
X33007142Y-75846428D02*
X32945238Y-75775000D01*
X32821428Y-75703571D01*
X32635714Y-75703571D01*
X32511904Y-75775000D01*
X32450000Y-75917857D01*
X32450000Y-76703571D01*
X31892857Y-76632142D02*
X31769047Y-76703571D01*
X31521428Y-76703571D01*
X31397619Y-76632142D01*
X31335714Y-76489285D01*
X31335714Y-76417857D01*
X31397619Y-76275000D01*
X31521428Y-76203571D01*
X31707142Y-76203571D01*
X31830952Y-76132142D01*
X31892857Y-75989285D01*
X31892857Y-75917857D01*
X31830952Y-75775000D01*
X31707142Y-75703571D01*
X31521428Y-75703571D01*
X31397619Y-75775000D01*
D10*
X60304178Y-77452180D02*
X60110654Y-77307038D01*
X59917130Y-77452180D01*
X58804368Y-77839228D02*
X58465701Y-77839228D01*
X58320559Y-78371419D02*
X58804368Y-78371419D01*
X58804368Y-77355419D01*
X58320559Y-77355419D01*
X57981892Y-78371419D02*
X57449701Y-77694085D01*
X57981892Y-77694085D02*
X57449701Y-78371419D01*
X57207797Y-77694085D02*
X56820749Y-77694085D01*
X57062654Y-77355419D02*
X57062654Y-78226276D01*
X57014273Y-78323038D01*
X56917511Y-78371419D01*
X56820749Y-78371419D01*
X56095035Y-78323038D02*
X56191797Y-78371419D01*
X56385320Y-78371419D01*
X56482082Y-78323038D01*
X56530463Y-78226276D01*
X56530463Y-77839228D01*
X56482082Y-77742466D01*
X56385320Y-77694085D01*
X56191797Y-77694085D01*
X56095035Y-77742466D01*
X56046654Y-77839228D01*
X56046654Y-77935990D01*
X56530463Y-78032752D01*
X55611225Y-78371419D02*
X55611225Y-77694085D01*
X55611225Y-77887609D02*
X55562844Y-77790847D01*
X55514463Y-77742466D01*
X55417701Y-77694085D01*
X55320940Y-77694085D01*
X54982273Y-77694085D02*
X54982273Y-78371419D01*
X54982273Y-77790847D02*
X54933892Y-77742466D01*
X54837130Y-77694085D01*
X54691987Y-77694085D01*
X54595225Y-77742466D01*
X54546844Y-77839228D01*
X54546844Y-78371419D01*
X53627606Y-78371419D02*
X53627606Y-77839228D01*
X53675987Y-77742466D01*
X53772749Y-77694085D01*
X53966273Y-77694085D01*
X54063035Y-77742466D01*
X53627606Y-78323038D02*
X53724368Y-78371419D01*
X53966273Y-78371419D01*
X54063035Y-78323038D01*
X54111416Y-78226276D01*
X54111416Y-78129514D01*
X54063035Y-78032752D01*
X53966273Y-77984371D01*
X53724368Y-77984371D01*
X53627606Y-77935990D01*
X52998654Y-78371419D02*
X53095416Y-78323038D01*
X53143797Y-78226276D01*
X53143797Y-77355419D01*
X51837511Y-78371419D02*
X51837511Y-77355419D01*
X51595606Y-77355419D01*
X51450463Y-77403800D01*
X51353701Y-77500561D01*
X51305320Y-77597323D01*
X51256940Y-77790847D01*
X51256940Y-77935990D01*
X51305320Y-78129514D01*
X51353701Y-78226276D01*
X51450463Y-78323038D01*
X51595606Y-78371419D01*
X51837511Y-78371419D01*
X50869892Y-78323038D02*
X50724749Y-78371419D01*
X50482844Y-78371419D01*
X50386082Y-78323038D01*
X50337701Y-78274657D01*
X50289320Y-78177895D01*
X50289320Y-78081133D01*
X50337701Y-77984371D01*
X50386082Y-77935990D01*
X50482844Y-77887609D01*
X50676368Y-77839228D01*
X50773130Y-77790847D01*
X50821511Y-77742466D01*
X50869892Y-77645704D01*
X50869892Y-77548942D01*
X50821511Y-77452180D01*
X50773130Y-77403800D01*
X50676368Y-77355419D01*
X50434463Y-77355419D01*
X50289320Y-77403800D01*
X49321701Y-78371419D02*
X49902273Y-78371419D01*
X49611987Y-78371419D02*
X49611987Y-77355419D01*
X49708749Y-77500561D01*
X49805511Y-77597323D01*
X49902273Y-77645704D01*
X48741130Y-77790847D02*
X48837892Y-77742466D01*
X48886273Y-77694085D01*
X48934654Y-77597323D01*
X48934654Y-77548942D01*
X48886273Y-77452180D01*
X48837892Y-77403800D01*
X48741130Y-77355419D01*
X48547606Y-77355419D01*
X48450844Y-77403800D01*
X48402463Y-77452180D01*
X48354082Y-77548942D01*
X48354082Y-77597323D01*
X48402463Y-77694085D01*
X48450844Y-77742466D01*
X48547606Y-77790847D01*
X48741130Y-77790847D01*
X48837892Y-77839228D01*
X48886273Y-77887609D01*
X48934654Y-77984371D01*
X48934654Y-78177895D01*
X48886273Y-78274657D01*
X48837892Y-78323038D01*
X48741130Y-78371419D01*
X48547606Y-78371419D01*
X48450844Y-78323038D01*
X48402463Y-78274657D01*
X48354082Y-78177895D01*
X48354082Y-77984371D01*
X48402463Y-77887609D01*
X48450844Y-77839228D01*
X48547606Y-77790847D01*
X47579987Y-77839228D02*
X47434844Y-77887609D01*
X47386463Y-77935990D01*
X47338082Y-78032752D01*
X47338082Y-78177895D01*
X47386463Y-78274657D01*
X47434844Y-78323038D01*
X47531606Y-78371419D01*
X47918654Y-78371419D01*
X47918654Y-77355419D01*
X47579987Y-77355419D01*
X47483225Y-77403800D01*
X47434844Y-77452180D01*
X47386463Y-77548942D01*
X47386463Y-77645704D01*
X47434844Y-77742466D01*
X47483225Y-77790847D01*
X47579987Y-77839228D01*
X47918654Y-77839228D01*
X46951035Y-77452180D02*
X46902654Y-77403800D01*
X46805892Y-77355419D01*
X46563987Y-77355419D01*
X46467225Y-77403800D01*
X46418844Y-77452180D01*
X46370463Y-77548942D01*
X46370463Y-77645704D01*
X46418844Y-77790847D01*
X46999416Y-78371419D01*
X46370463Y-78371419D01*
X45741511Y-77355419D02*
X45644749Y-77355419D01*
X45547987Y-77403800D01*
X45499606Y-77452180D01*
X45451225Y-77548942D01*
X45402844Y-77742466D01*
X45402844Y-77984371D01*
X45451225Y-78177895D01*
X45499606Y-78274657D01*
X45547987Y-78323038D01*
X45644749Y-78371419D01*
X45741511Y-78371419D01*
X45838273Y-78323038D01*
X45886654Y-78274657D01*
X45935035Y-78177895D01*
X45983416Y-77984371D01*
X45983416Y-77742466D01*
X45935035Y-77548942D01*
X45886654Y-77452180D01*
X45838273Y-77403800D01*
X45741511Y-77355419D01*
X60304178Y-79370485D02*
X59917130Y-79370485D01*
X60159035Y-79031819D02*
X60159035Y-79902676D01*
X60110654Y-79999438D01*
X60013892Y-80047819D01*
X59917130Y-80047819D01*
X59191416Y-79999438D02*
X59288178Y-80047819D01*
X59481701Y-80047819D01*
X59578463Y-79999438D01*
X59626844Y-79902676D01*
X59626844Y-79515628D01*
X59578463Y-79418866D01*
X59481701Y-79370485D01*
X59288178Y-79370485D01*
X59191416Y-79418866D01*
X59143035Y-79515628D01*
X59143035Y-79612390D01*
X59626844Y-79709152D01*
X58707606Y-80047819D02*
X58707606Y-79370485D01*
X58707606Y-79467247D02*
X58659225Y-79418866D01*
X58562463Y-79370485D01*
X58417320Y-79370485D01*
X58320559Y-79418866D01*
X58272178Y-79515628D01*
X58272178Y-80047819D01*
X58272178Y-79515628D02*
X58223797Y-79418866D01*
X58127035Y-79370485D01*
X57981892Y-79370485D01*
X57885130Y-79418866D01*
X57836749Y-79515628D01*
X57836749Y-80047819D01*
X57352940Y-79370485D02*
X57352940Y-80386485D01*
X57352940Y-79418866D02*
X57256178Y-79370485D01*
X57062654Y-79370485D01*
X56965892Y-79418866D01*
X56917511Y-79467247D01*
X56869130Y-79564009D01*
X56869130Y-79854295D01*
X56917511Y-79951057D01*
X56965892Y-79999438D01*
X57062654Y-80047819D01*
X57256178Y-80047819D01*
X57352940Y-79999438D01*
X56046654Y-79999438D02*
X56143416Y-80047819D01*
X56336940Y-80047819D01*
X56433701Y-79999438D01*
X56482082Y-79902676D01*
X56482082Y-79515628D01*
X56433701Y-79418866D01*
X56336940Y-79370485D01*
X56143416Y-79370485D01*
X56046654Y-79418866D01*
X55998273Y-79515628D01*
X55998273Y-79612390D01*
X56482082Y-79709152D01*
X55562844Y-80047819D02*
X55562844Y-79370485D01*
X55562844Y-79564009D02*
X55514463Y-79467247D01*
X55466082Y-79418866D01*
X55369320Y-79370485D01*
X55272559Y-79370485D01*
X54498463Y-80047819D02*
X54498463Y-79515628D01*
X54546844Y-79418866D01*
X54643606Y-79370485D01*
X54837130Y-79370485D01*
X54933892Y-79418866D01*
X54498463Y-79999438D02*
X54595225Y-80047819D01*
X54837130Y-80047819D01*
X54933892Y-79999438D01*
X54982273Y-79902676D01*
X54982273Y-79805914D01*
X54933892Y-79709152D01*
X54837130Y-79660771D01*
X54595225Y-79660771D01*
X54498463Y-79612390D01*
X54159797Y-79370485D02*
X53772749Y-79370485D01*
X54014654Y-79031819D02*
X54014654Y-79902676D01*
X53966273Y-79999438D01*
X53869511Y-80047819D01*
X53772749Y-80047819D01*
X52998654Y-79370485D02*
X52998654Y-80047819D01*
X53434082Y-79370485D02*
X53434082Y-79902676D01*
X53385701Y-79999438D01*
X53288940Y-80047819D01*
X53143797Y-80047819D01*
X53047035Y-79999438D01*
X52998654Y-79951057D01*
X52514844Y-80047819D02*
X52514844Y-79370485D01*
X52514844Y-79564009D02*
X52466463Y-79467247D01*
X52418082Y-79418866D01*
X52321320Y-79370485D01*
X52224559Y-79370485D01*
X51498844Y-79999438D02*
X51595606Y-80047819D01*
X51789130Y-80047819D01*
X51885892Y-79999438D01*
X51934273Y-79902676D01*
X51934273Y-79515628D01*
X51885892Y-79418866D01*
X51789130Y-79370485D01*
X51595606Y-79370485D01*
X51498844Y-79418866D01*
X51450463Y-79515628D01*
X51450463Y-79612390D01*
X51934273Y-79709152D01*
X50289320Y-79999438D02*
X50192559Y-80047819D01*
X49999035Y-80047819D01*
X49902273Y-79999438D01*
X49853892Y-79902676D01*
X49853892Y-79854295D01*
X49902273Y-79757533D01*
X49999035Y-79709152D01*
X50144178Y-79709152D01*
X50240940Y-79660771D01*
X50289320Y-79564009D01*
X50289320Y-79515628D01*
X50240940Y-79418866D01*
X50144178Y-79370485D01*
X49999035Y-79370485D01*
X49902273Y-79418866D01*
X49031416Y-79999438D02*
X49128178Y-80047819D01*
X49321701Y-80047819D01*
X49418463Y-79999438D01*
X49466844Y-79902676D01*
X49466844Y-79515628D01*
X49418463Y-79418866D01*
X49321701Y-79370485D01*
X49128178Y-79370485D01*
X49031416Y-79418866D01*
X48983035Y-79515628D01*
X48983035Y-79612390D01*
X49466844Y-79709152D01*
X48547606Y-79370485D02*
X48547606Y-80047819D01*
X48547606Y-79467247D02*
X48499225Y-79418866D01*
X48402463Y-79370485D01*
X48257320Y-79370485D01*
X48160559Y-79418866D01*
X48112178Y-79515628D01*
X48112178Y-80047819D01*
X47676749Y-79999438D02*
X47579987Y-80047819D01*
X47386463Y-80047819D01*
X47289701Y-79999438D01*
X47241320Y-79902676D01*
X47241320Y-79854295D01*
X47289701Y-79757533D01*
X47386463Y-79709152D01*
X47531606Y-79709152D01*
X47628368Y-79660771D01*
X47676749Y-79564009D01*
X47676749Y-79515628D01*
X47628368Y-79418866D01*
X47531606Y-79370485D01*
X47386463Y-79370485D01*
X47289701Y-79418866D01*
X46660749Y-80047819D02*
X46757511Y-79999438D01*
X46805892Y-79951057D01*
X46854273Y-79854295D01*
X46854273Y-79564009D01*
X46805892Y-79467247D01*
X46757511Y-79418866D01*
X46660749Y-79370485D01*
X46515606Y-79370485D01*
X46418844Y-79418866D01*
X46370463Y-79467247D01*
X46322082Y-79564009D01*
X46322082Y-79854295D01*
X46370463Y-79951057D01*
X46418844Y-79999438D01*
X46515606Y-80047819D01*
X46660749Y-80047819D01*
X45886654Y-80047819D02*
X45886654Y-79370485D01*
X45886654Y-79564009D02*
X45838273Y-79467247D01*
X45789892Y-79418866D01*
X45693130Y-79370485D01*
X45596368Y-79370485D01*
X44048178Y-79999438D02*
X44144940Y-80047819D01*
X44338463Y-80047819D01*
X44435225Y-79999438D01*
X44483606Y-79951057D01*
X44531987Y-79854295D01*
X44531987Y-79564009D01*
X44483606Y-79467247D01*
X44435225Y-79418866D01*
X44338463Y-79370485D01*
X44144940Y-79370485D01*
X44048178Y-79418866D01*
X43467606Y-80047819D02*
X43564368Y-79999438D01*
X43612749Y-79951057D01*
X43661130Y-79854295D01*
X43661130Y-79564009D01*
X43612749Y-79467247D01*
X43564368Y-79418866D01*
X43467606Y-79370485D01*
X43322463Y-79370485D01*
X43225701Y-79418866D01*
X43177320Y-79467247D01*
X43128940Y-79564009D01*
X43128940Y-79854295D01*
X43177320Y-79951057D01*
X43225701Y-79999438D01*
X43322463Y-80047819D01*
X43467606Y-80047819D01*
X42693511Y-79370485D02*
X42693511Y-80047819D01*
X42693511Y-79467247D02*
X42645130Y-79418866D01*
X42548368Y-79370485D01*
X42403225Y-79370485D01*
X42306463Y-79418866D01*
X42258082Y-79515628D01*
X42258082Y-80047819D01*
X41774273Y-79370485D02*
X41774273Y-80047819D01*
X41774273Y-79467247D02*
X41725892Y-79418866D01*
X41629130Y-79370485D01*
X41483987Y-79370485D01*
X41387225Y-79418866D01*
X41338844Y-79515628D01*
X41338844Y-80047819D01*
X40467987Y-79999438D02*
X40564749Y-80047819D01*
X40758273Y-80047819D01*
X40855035Y-79999438D01*
X40903416Y-79902676D01*
X40903416Y-79515628D01*
X40855035Y-79418866D01*
X40758273Y-79370485D01*
X40564749Y-79370485D01*
X40467987Y-79418866D01*
X40419606Y-79515628D01*
X40419606Y-79612390D01*
X40903416Y-79709152D01*
X39548749Y-79999438D02*
X39645511Y-80047819D01*
X39839035Y-80047819D01*
X39935797Y-79999438D01*
X39984178Y-79951057D01*
X40032559Y-79854295D01*
X40032559Y-79564009D01*
X39984178Y-79467247D01*
X39935797Y-79418866D01*
X39839035Y-79370485D01*
X39645511Y-79370485D01*
X39548749Y-79418866D01*
X39258463Y-79370485D02*
X38871416Y-79370485D01*
X39113320Y-79031819D02*
X39113320Y-79902676D01*
X39064940Y-79999438D01*
X38968178Y-80047819D01*
X38871416Y-80047819D01*
X38532749Y-80047819D02*
X38532749Y-79370485D01*
X38532749Y-79031819D02*
X38581130Y-79080200D01*
X38532749Y-79128580D01*
X38484368Y-79080200D01*
X38532749Y-79031819D01*
X38532749Y-79128580D01*
X37903797Y-80047819D02*
X38000559Y-79999438D01*
X38048940Y-79951057D01*
X38097320Y-79854295D01*
X38097320Y-79564009D01*
X38048940Y-79467247D01*
X38000559Y-79418866D01*
X37903797Y-79370485D01*
X37758654Y-79370485D01*
X37661892Y-79418866D01*
X37613511Y-79467247D01*
X37565130Y-79564009D01*
X37565130Y-79854295D01*
X37613511Y-79951057D01*
X37661892Y-79999438D01*
X37758654Y-80047819D01*
X37903797Y-80047819D01*
X37129701Y-79370485D02*
X37129701Y-80047819D01*
X37129701Y-79467247D02*
X37081320Y-79418866D01*
X36984559Y-79370485D01*
X36839416Y-79370485D01*
X36742654Y-79418866D01*
X36694273Y-79515628D01*
X36694273Y-80047819D01*
X36210463Y-79951057D02*
X36162082Y-79999438D01*
X36210463Y-80047819D01*
X36258844Y-79999438D01*
X36210463Y-79951057D01*
X36210463Y-80047819D01*
X30939642Y-71188571D02*
X30165547Y-71188571D01*
X30552595Y-71575619D02*
X30552595Y-70801523D01*
X27359452Y-71188571D02*
X26585357Y-71188571D01*
X38939642Y-71188571D02*
X38165547Y-71188571D01*
X38552595Y-71575619D02*
X38552595Y-70801523D01*
X35359452Y-71188571D02*
X34585357Y-71188571D01*
X46939642Y-71188571D02*
X46165547Y-71188571D01*
X46552595Y-71575619D02*
X46552595Y-70801523D01*
X43359452Y-71188571D02*
X42585357Y-71188571D01*
X77062500Y-75316000D02*
X77062500Y-66750000D01*
X61262500Y-75216000D02*
X77062500Y-75316000D01*
X61262500Y-66750000D02*
X61262500Y-75216000D01*
X77000000Y-66750000D02*
X61262500Y-66750000D01*
X75616774Y-70615600D02*
X75713536Y-70567219D01*
X75858679Y-70567219D01*
X76003821Y-70615600D01*
X76100583Y-70712361D01*
X76148964Y-70809123D01*
X76197345Y-71002647D01*
X76197345Y-71147790D01*
X76148964Y-71341314D01*
X76100583Y-71438076D01*
X76003821Y-71534838D01*
X75858679Y-71583219D01*
X75761917Y-71583219D01*
X75616774Y-71534838D01*
X75568393Y-71486457D01*
X75568393Y-71147790D01*
X75761917Y-71147790D01*
X75132964Y-71583219D02*
X75132964Y-70567219D01*
X74552393Y-71583219D01*
X74552393Y-70567219D01*
X74068583Y-71583219D02*
X74068583Y-70567219D01*
X73826679Y-70567219D01*
X73681536Y-70615600D01*
X73584774Y-70712361D01*
X73536393Y-70809123D01*
X73488012Y-71002647D01*
X73488012Y-71147790D01*
X73536393Y-71341314D01*
X73584774Y-71438076D01*
X73681536Y-71534838D01*
X73826679Y-71583219D01*
X74068583Y-71583219D01*
X71649536Y-70567219D02*
X71068964Y-70567219D01*
X71359250Y-71583219D02*
X71359250Y-70567219D01*
X70827060Y-70567219D02*
X70149726Y-71583219D01*
X70149726Y-70567219D02*
X70827060Y-71583219D01*
X67633917Y-71583219D02*
X67972583Y-71099409D01*
X68214488Y-71583219D02*
X68214488Y-70567219D01*
X67827440Y-70567219D01*
X67730679Y-70615600D01*
X67682298Y-70663980D01*
X67633917Y-70760742D01*
X67633917Y-70905885D01*
X67682298Y-71002647D01*
X67730679Y-71051028D01*
X67827440Y-71099409D01*
X68214488Y-71099409D01*
X67295250Y-70567219D02*
X66617917Y-71583219D01*
X66617917Y-70567219D02*
X67295250Y-71583219D01*
X64682679Y-71196171D02*
X63908583Y-71196171D01*
X64295631Y-71583219D02*
X64295631Y-70809123D01*
X62940964Y-70567219D02*
X63424774Y-70567219D01*
X63473155Y-71051028D01*
X63424774Y-71002647D01*
X63328012Y-70954266D01*
X63086107Y-70954266D01*
X62989345Y-71002647D01*
X62940964Y-71051028D01*
X62892583Y-71147790D01*
X62892583Y-71389695D01*
X62940964Y-71486457D01*
X62989345Y-71534838D01*
X63086107Y-71583219D01*
X63328012Y-71583219D01*
X63424774Y-71534838D01*
X63473155Y-71486457D01*
X76632774Y-73259619D02*
X76632774Y-72243619D01*
X76197345Y-73211238D02*
X76100583Y-73259619D01*
X75907060Y-73259619D01*
X75810298Y-73211238D01*
X75761917Y-73114476D01*
X75761917Y-73066095D01*
X75810298Y-72969333D01*
X75907060Y-72920952D01*
X76052202Y-72920952D01*
X76148964Y-72872571D01*
X76197345Y-72775809D01*
X76197345Y-72727428D01*
X76148964Y-72630666D01*
X76052202Y-72582285D01*
X75907060Y-72582285D01*
X75810298Y-72630666D01*
X75181345Y-73259619D02*
X75278107Y-73211238D01*
X75326488Y-73162857D01*
X75374869Y-73066095D01*
X75374869Y-72775809D01*
X75326488Y-72679047D01*
X75278107Y-72630666D01*
X75181345Y-72582285D01*
X75036202Y-72582285D01*
X74939440Y-72630666D01*
X74891060Y-72679047D01*
X74842679Y-72775809D01*
X74842679Y-73066095D01*
X74891060Y-73162857D01*
X74939440Y-73211238D01*
X75036202Y-73259619D01*
X75181345Y-73259619D01*
X74262107Y-73259619D02*
X74358869Y-73211238D01*
X74407250Y-73114476D01*
X74407250Y-72243619D01*
X73439631Y-73259619D02*
X73439631Y-72727428D01*
X73488012Y-72630666D01*
X73584774Y-72582285D01*
X73778298Y-72582285D01*
X73875060Y-72630666D01*
X73439631Y-73211238D02*
X73536393Y-73259619D01*
X73778298Y-73259619D01*
X73875060Y-73211238D01*
X73923440Y-73114476D01*
X73923440Y-73017714D01*
X73875060Y-72920952D01*
X73778298Y-72872571D01*
X73536393Y-72872571D01*
X73439631Y-72824190D01*
X73100964Y-72582285D02*
X72713917Y-72582285D01*
X72955821Y-72243619D02*
X72955821Y-73114476D01*
X72907440Y-73211238D01*
X72810679Y-73259619D01*
X72713917Y-73259619D01*
X71988202Y-73211238D02*
X72084964Y-73259619D01*
X72278488Y-73259619D01*
X72375250Y-73211238D01*
X72423631Y-73114476D01*
X72423631Y-72727428D01*
X72375250Y-72630666D01*
X72278488Y-72582285D01*
X72084964Y-72582285D01*
X71988202Y-72630666D01*
X71939821Y-72727428D01*
X71939821Y-72824190D01*
X72423631Y-72920952D01*
X71068964Y-73259619D02*
X71068964Y-72243619D01*
X71068964Y-73211238D02*
X71165726Y-73259619D01*
X71359250Y-73259619D01*
X71456012Y-73211238D01*
X71504393Y-73162857D01*
X71552774Y-73066095D01*
X71552774Y-72775809D01*
X71504393Y-72679047D01*
X71456012Y-72630666D01*
X71359250Y-72582285D01*
X71165726Y-72582285D01*
X71068964Y-72630666D01*
X69278869Y-72292000D02*
X69375631Y-72243619D01*
X69520774Y-72243619D01*
X69665917Y-72292000D01*
X69762679Y-72388761D01*
X69811060Y-72485523D01*
X69859440Y-72679047D01*
X69859440Y-72824190D01*
X69811060Y-73017714D01*
X69762679Y-73114476D01*
X69665917Y-73211238D01*
X69520774Y-73259619D01*
X69424012Y-73259619D01*
X69278869Y-73211238D01*
X69230488Y-73162857D01*
X69230488Y-72824190D01*
X69424012Y-72824190D01*
X68408012Y-73211238D02*
X68504774Y-73259619D01*
X68698298Y-73259619D01*
X68795060Y-73211238D01*
X68843440Y-73114476D01*
X68843440Y-72727428D01*
X68795060Y-72630666D01*
X68698298Y-72582285D01*
X68504774Y-72582285D01*
X68408012Y-72630666D01*
X68359631Y-72727428D01*
X68359631Y-72824190D01*
X68843440Y-72920952D01*
X67924202Y-72582285D02*
X67924202Y-73259619D01*
X67924202Y-72679047D02*
X67875821Y-72630666D01*
X67779060Y-72582285D01*
X67633917Y-72582285D01*
X67537155Y-72630666D01*
X67488774Y-72727428D01*
X67488774Y-73259619D01*
X66617917Y-73211238D02*
X66714679Y-73259619D01*
X66908202Y-73259619D01*
X67004964Y-73211238D01*
X67053345Y-73114476D01*
X67053345Y-72727428D01*
X67004964Y-72630666D01*
X66908202Y-72582285D01*
X66714679Y-72582285D01*
X66617917Y-72630666D01*
X66569536Y-72727428D01*
X66569536Y-72824190D01*
X67053345Y-72920952D01*
X66134107Y-73259619D02*
X66134107Y-72582285D01*
X66134107Y-72775809D02*
X66085726Y-72679047D01*
X66037345Y-72630666D01*
X65940583Y-72582285D01*
X65843821Y-72582285D01*
X65069726Y-73259619D02*
X65069726Y-72727428D01*
X65118107Y-72630666D01*
X65214869Y-72582285D01*
X65408393Y-72582285D01*
X65505155Y-72630666D01*
X65069726Y-73211238D02*
X65166488Y-73259619D01*
X65408393Y-73259619D01*
X65505155Y-73211238D01*
X65553536Y-73114476D01*
X65553536Y-73017714D01*
X65505155Y-72920952D01*
X65408393Y-72872571D01*
X65166488Y-72872571D01*
X65069726Y-72824190D01*
X64731060Y-72582285D02*
X64344012Y-72582285D01*
X64585917Y-72243619D02*
X64585917Y-73114476D01*
X64537536Y-73211238D01*
X64440774Y-73259619D01*
X64344012Y-73259619D01*
X63860202Y-73259619D02*
X63956964Y-73211238D01*
X64005345Y-73162857D01*
X64053726Y-73066095D01*
X64053726Y-72775809D01*
X64005345Y-72679047D01*
X63956964Y-72630666D01*
X63860202Y-72582285D01*
X63715060Y-72582285D01*
X63618298Y-72630666D01*
X63569917Y-72679047D01*
X63521536Y-72775809D01*
X63521536Y-73066095D01*
X63569917Y-73162857D01*
X63618298Y-73211238D01*
X63715060Y-73259619D01*
X63860202Y-73259619D01*
X63086107Y-73259619D02*
X63086107Y-72582285D01*
X63086107Y-72775809D02*
X63037726Y-72679047D01*
X62989345Y-72630666D01*
X62892583Y-72582285D01*
X62795821Y-72582285D01*
X68069345Y-74887638D02*
X67924202Y-74936019D01*
X67682298Y-74936019D01*
X67585536Y-74887638D01*
X67537155Y-74839257D01*
X67488774Y-74742495D01*
X67488774Y-74645733D01*
X67537155Y-74548971D01*
X67585536Y-74500590D01*
X67682298Y-74452209D01*
X67875821Y-74403828D01*
X67972583Y-74355447D01*
X68020964Y-74307066D01*
X68069345Y-74210304D01*
X68069345Y-74113542D01*
X68020964Y-74016780D01*
X67972583Y-73968400D01*
X67875821Y-73920019D01*
X67633917Y-73920019D01*
X67488774Y-73968400D01*
X67053345Y-74936019D02*
X67053345Y-74258685D01*
X67053345Y-73920019D02*
X67101726Y-73968400D01*
X67053345Y-74016780D01*
X67004964Y-73968400D01*
X67053345Y-73920019D01*
X67053345Y-74016780D01*
X66134107Y-74258685D02*
X66134107Y-75081161D01*
X66182488Y-75177923D01*
X66230869Y-75226304D01*
X66327631Y-75274685D01*
X66472774Y-75274685D01*
X66569536Y-75226304D01*
X66134107Y-74887638D02*
X66230869Y-74936019D01*
X66424393Y-74936019D01*
X66521155Y-74887638D01*
X66569536Y-74839257D01*
X66617917Y-74742495D01*
X66617917Y-74452209D01*
X66569536Y-74355447D01*
X66521155Y-74307066D01*
X66424393Y-74258685D01*
X66230869Y-74258685D01*
X66134107Y-74307066D01*
X65650298Y-74258685D02*
X65650298Y-74936019D01*
X65650298Y-74355447D02*
X65601917Y-74307066D01*
X65505155Y-74258685D01*
X65360012Y-74258685D01*
X65263250Y-74307066D01*
X65214869Y-74403828D01*
X65214869Y-74936019D01*
X64295631Y-74936019D02*
X64295631Y-74403828D01*
X64344012Y-74307066D01*
X64440774Y-74258685D01*
X64634298Y-74258685D01*
X64731060Y-74307066D01*
X64295631Y-74887638D02*
X64392393Y-74936019D01*
X64634298Y-74936019D01*
X64731060Y-74887638D01*
X64779440Y-74790876D01*
X64779440Y-74694114D01*
X64731060Y-74597352D01*
X64634298Y-74548971D01*
X64392393Y-74548971D01*
X64295631Y-74500590D01*
X63666679Y-74936019D02*
X63763440Y-74887638D01*
X63811821Y-74790876D01*
X63811821Y-73920019D01*
X63328012Y-74887638D02*
X63231250Y-74936019D01*
X63037726Y-74936019D01*
X62940964Y-74887638D01*
X62892583Y-74790876D01*
X62892583Y-74742495D01*
X62940964Y-74645733D01*
X63037726Y-74597352D01*
X63182869Y-74597352D01*
X63279631Y-74548971D01*
X63328012Y-74452209D01*
X63328012Y-74403828D01*
X63279631Y-74307066D01*
X63182869Y-74258685D01*
X63037726Y-74258685D01*
X62940964Y-74307066D01*
X75626844Y-60315600D02*
X75723606Y-60267219D01*
X75868749Y-60267219D01*
X76013892Y-60315600D01*
X76110654Y-60412361D01*
X76159035Y-60509123D01*
X76207416Y-60702647D01*
X76207416Y-60847790D01*
X76159035Y-61041314D01*
X76110654Y-61138076D01*
X76013892Y-61234838D01*
X75868749Y-61283219D01*
X75771987Y-61283219D01*
X75626844Y-61234838D01*
X75578463Y-61186457D01*
X75578463Y-60847790D01*
X75771987Y-60847790D01*
X74755987Y-61234838D02*
X74852749Y-61283219D01*
X75046273Y-61283219D01*
X75143035Y-61234838D01*
X75191416Y-61138076D01*
X75191416Y-60751028D01*
X75143035Y-60654266D01*
X75046273Y-60605885D01*
X74852749Y-60605885D01*
X74755987Y-60654266D01*
X74707606Y-60751028D01*
X74707606Y-60847790D01*
X75191416Y-60944552D01*
X74272178Y-60605885D02*
X74272178Y-61283219D01*
X74272178Y-60702647D02*
X74223797Y-60654266D01*
X74127035Y-60605885D01*
X73981892Y-60605885D01*
X73885130Y-60654266D01*
X73836749Y-60751028D01*
X73836749Y-61283219D01*
X72965892Y-61234838D02*
X73062654Y-61283219D01*
X73256178Y-61283219D01*
X73352940Y-61234838D01*
X73401320Y-61138076D01*
X73401320Y-60751028D01*
X73352940Y-60654266D01*
X73256178Y-60605885D01*
X73062654Y-60605885D01*
X72965892Y-60654266D01*
X72917511Y-60751028D01*
X72917511Y-60847790D01*
X73401320Y-60944552D01*
X72482082Y-61283219D02*
X72482082Y-60605885D01*
X72482082Y-60799409D02*
X72433701Y-60702647D01*
X72385320Y-60654266D01*
X72288559Y-60605885D01*
X72191797Y-60605885D01*
X71417701Y-61283219D02*
X71417701Y-60751028D01*
X71466082Y-60654266D01*
X71562844Y-60605885D01*
X71756368Y-60605885D01*
X71853130Y-60654266D01*
X71417701Y-61234838D02*
X71514463Y-61283219D01*
X71756368Y-61283219D01*
X71853130Y-61234838D01*
X71901511Y-61138076D01*
X71901511Y-61041314D01*
X71853130Y-60944552D01*
X71756368Y-60896171D01*
X71514463Y-60896171D01*
X71417701Y-60847790D01*
X71079035Y-60605885D02*
X70691987Y-60605885D01*
X70933892Y-60267219D02*
X70933892Y-61138076D01*
X70885511Y-61234838D01*
X70788749Y-61283219D01*
X70691987Y-61283219D01*
X70208178Y-61283219D02*
X70304940Y-61234838D01*
X70353320Y-61186457D01*
X70401701Y-61089695D01*
X70401701Y-60799409D01*
X70353320Y-60702647D01*
X70304940Y-60654266D01*
X70208178Y-60605885D01*
X70063035Y-60605885D01*
X69966273Y-60654266D01*
X69917892Y-60702647D01*
X69869511Y-60799409D01*
X69869511Y-61089695D01*
X69917892Y-61186457D01*
X69966273Y-61234838D01*
X70063035Y-61283219D01*
X70208178Y-61283219D01*
X69434082Y-61283219D02*
X69434082Y-60605885D01*
X69434082Y-60799409D02*
X69385701Y-60702647D01*
X69337320Y-60654266D01*
X69240559Y-60605885D01*
X69143797Y-60605885D01*
X75578463Y-62862857D02*
X75626844Y-62911238D01*
X75771987Y-62959619D01*
X75868749Y-62959619D01*
X76013892Y-62911238D01*
X76110654Y-62814476D01*
X76159035Y-62717714D01*
X76207416Y-62524190D01*
X76207416Y-62379047D01*
X76159035Y-62185523D01*
X76110654Y-62088761D01*
X76013892Y-61992000D01*
X75868749Y-61943619D01*
X75771987Y-61943619D01*
X75626844Y-61992000D01*
X75578463Y-62040380D01*
X74997892Y-62959619D02*
X75094654Y-62911238D01*
X75143035Y-62862857D01*
X75191416Y-62766095D01*
X75191416Y-62475809D01*
X75143035Y-62379047D01*
X75094654Y-62330666D01*
X74997892Y-62282285D01*
X74852749Y-62282285D01*
X74755987Y-62330666D01*
X74707606Y-62379047D01*
X74659225Y-62475809D01*
X74659225Y-62766095D01*
X74707606Y-62862857D01*
X74755987Y-62911238D01*
X74852749Y-62959619D01*
X74997892Y-62959619D01*
X74223797Y-62282285D02*
X74223797Y-62959619D01*
X74223797Y-62379047D02*
X74175416Y-62330666D01*
X74078654Y-62282285D01*
X73933511Y-62282285D01*
X73836749Y-62330666D01*
X73788368Y-62427428D01*
X73788368Y-62959619D01*
X73449701Y-62282285D02*
X73062654Y-62282285D01*
X73304559Y-61943619D02*
X73304559Y-62814476D01*
X73256178Y-62911238D01*
X73159416Y-62959619D01*
X73062654Y-62959619D01*
X72723987Y-62959619D02*
X72723987Y-62282285D01*
X72723987Y-62475809D02*
X72675606Y-62379047D01*
X72627225Y-62330666D01*
X72530463Y-62282285D01*
X72433701Y-62282285D01*
X71949892Y-62959619D02*
X72046654Y-62911238D01*
X72095035Y-62862857D01*
X72143416Y-62766095D01*
X72143416Y-62475809D01*
X72095035Y-62379047D01*
X72046654Y-62330666D01*
X71949892Y-62282285D01*
X71804749Y-62282285D01*
X71707987Y-62330666D01*
X71659606Y-62379047D01*
X71611225Y-62475809D01*
X71611225Y-62766095D01*
X71659606Y-62862857D01*
X71707987Y-62911238D01*
X71804749Y-62959619D01*
X71949892Y-62959619D01*
X71030654Y-62959619D02*
X71127416Y-62911238D01*
X71175797Y-62814476D01*
X71175797Y-61943619D01*
X70498463Y-62959619D02*
X70595225Y-62911238D01*
X70643606Y-62814476D01*
X70643606Y-61943619D01*
X69724368Y-62911238D02*
X69821130Y-62959619D01*
X70014654Y-62959619D01*
X70111416Y-62911238D01*
X70159797Y-62814476D01*
X70159797Y-62427428D01*
X70111416Y-62330666D01*
X70014654Y-62282285D01*
X69821130Y-62282285D01*
X69724368Y-62330666D01*
X69675987Y-62427428D01*
X69675987Y-62524190D01*
X70159797Y-62620952D01*
X69240559Y-62959619D02*
X69240559Y-62282285D01*
X69240559Y-62475809D02*
X69192178Y-62379047D01*
X69143797Y-62330666D01*
X69047035Y-62282285D01*
X68950273Y-62282285D01*
X76159035Y-64636019D02*
X76159035Y-63620019D01*
X75723606Y-64587638D02*
X75626844Y-64636019D01*
X75433320Y-64636019D01*
X75336559Y-64587638D01*
X75288178Y-64490876D01*
X75288178Y-64442495D01*
X75336559Y-64345733D01*
X75433320Y-64297352D01*
X75578463Y-64297352D01*
X75675225Y-64248971D01*
X75723606Y-64152209D01*
X75723606Y-64103828D01*
X75675225Y-64007066D01*
X75578463Y-63958685D01*
X75433320Y-63958685D01*
X75336559Y-64007066D01*
X74707606Y-64636019D02*
X74804368Y-64587638D01*
X74852749Y-64539257D01*
X74901130Y-64442495D01*
X74901130Y-64152209D01*
X74852749Y-64055447D01*
X74804368Y-64007066D01*
X74707606Y-63958685D01*
X74562463Y-63958685D01*
X74465701Y-64007066D01*
X74417320Y-64055447D01*
X74368940Y-64152209D01*
X74368940Y-64442495D01*
X74417320Y-64539257D01*
X74465701Y-64587638D01*
X74562463Y-64636019D01*
X74707606Y-64636019D01*
X73788368Y-64636019D02*
X73885130Y-64587638D01*
X73933511Y-64490876D01*
X73933511Y-63620019D01*
X72965892Y-64636019D02*
X72965892Y-64103828D01*
X73014273Y-64007066D01*
X73111035Y-63958685D01*
X73304559Y-63958685D01*
X73401320Y-64007066D01*
X72965892Y-64587638D02*
X73062654Y-64636019D01*
X73304559Y-64636019D01*
X73401320Y-64587638D01*
X73449701Y-64490876D01*
X73449701Y-64394114D01*
X73401320Y-64297352D01*
X73304559Y-64248971D01*
X73062654Y-64248971D01*
X72965892Y-64200590D01*
X72627225Y-63958685D02*
X72240178Y-63958685D01*
X72482082Y-63620019D02*
X72482082Y-64490876D01*
X72433701Y-64587638D01*
X72336940Y-64636019D01*
X72240178Y-64636019D01*
X71514463Y-64587638D02*
X71611225Y-64636019D01*
X71804749Y-64636019D01*
X71901511Y-64587638D01*
X71949892Y-64490876D01*
X71949892Y-64103828D01*
X71901511Y-64007066D01*
X71804749Y-63958685D01*
X71611225Y-63958685D01*
X71514463Y-64007066D01*
X71466082Y-64103828D01*
X71466082Y-64200590D01*
X71949892Y-64297352D01*
X70595225Y-64636019D02*
X70595225Y-63620019D01*
X70595225Y-64587638D02*
X70691987Y-64636019D01*
X70885511Y-64636019D01*
X70982273Y-64587638D01*
X71030654Y-64539257D01*
X71079035Y-64442495D01*
X71079035Y-64152209D01*
X71030654Y-64055447D01*
X70982273Y-64007066D01*
X70885511Y-63958685D01*
X70691987Y-63958685D01*
X70595225Y-64007066D01*
X69337320Y-64248971D02*
X68563225Y-64248971D01*
X68950273Y-64636019D02*
X68950273Y-63861923D01*
X67595606Y-63620019D02*
X68079416Y-63620019D01*
X68127797Y-64103828D01*
X68079416Y-64055447D01*
X67982654Y-64007066D01*
X67740749Y-64007066D01*
X67643987Y-64055447D01*
X67595606Y-64103828D01*
X67547225Y-64200590D01*
X67547225Y-64442495D01*
X67595606Y-64539257D01*
X67643987Y-64587638D01*
X67740749Y-64636019D01*
X67982654Y-64636019D01*
X68079416Y-64587638D01*
X68127797Y-64539257D01*
X67256940Y-63620019D02*
X66918273Y-64636019D01*
X66579606Y-63620019D01*
X31032000Y-46072571D02*
X30257904Y-46072571D01*
X30644952Y-46459619D02*
X30644952Y-45685523D01*
X29870857Y-45443619D02*
X29241904Y-45443619D01*
X29580571Y-45830666D01*
X29435428Y-45830666D01*
X29338666Y-45879047D01*
X29290285Y-45927428D01*
X29241904Y-46024190D01*
X29241904Y-46266095D01*
X29290285Y-46362857D01*
X29338666Y-46411238D01*
X29435428Y-46459619D01*
X29725714Y-46459619D01*
X29822476Y-46411238D01*
X29870857Y-46362857D01*
X28806476Y-46362857D02*
X28758095Y-46411238D01*
X28806476Y-46459619D01*
X28854857Y-46411238D01*
X28806476Y-46362857D01*
X28806476Y-46459619D01*
X28419428Y-45443619D02*
X27790476Y-45443619D01*
X28129142Y-45830666D01*
X27984000Y-45830666D01*
X27887238Y-45879047D01*
X27838857Y-45927428D01*
X27790476Y-46024190D01*
X27790476Y-46266095D01*
X27838857Y-46362857D01*
X27887238Y-46411238D01*
X27984000Y-46459619D01*
X28274285Y-46459619D01*
X28371047Y-46411238D01*
X28419428Y-46362857D01*
X27500190Y-45443619D02*
X27161523Y-46459619D01*
X26822857Y-45443619D01*
X21765628Y-54910857D02*
X21765628Y-54136761D01*
X21378580Y-54523809D02*
X22152676Y-54523809D01*
X22394580Y-53169142D02*
X22394580Y-53652952D01*
X21910771Y-53701333D01*
X21959152Y-53652952D01*
X22007533Y-53556190D01*
X22007533Y-53314285D01*
X21959152Y-53217523D01*
X21910771Y-53169142D01*
X21814009Y-53120761D01*
X21572104Y-53120761D01*
X21475342Y-53169142D01*
X21426961Y-53217523D01*
X21378580Y-53314285D01*
X21378580Y-53556190D01*
X21426961Y-53652952D01*
X21475342Y-53701333D01*
X21378580Y-52685333D02*
X22394580Y-52685333D01*
X22394580Y-52443428D01*
X22346200Y-52298285D01*
X22249438Y-52201523D01*
X22152676Y-52153142D01*
X21959152Y-52104761D01*
X21814009Y-52104761D01*
X21620485Y-52153142D01*
X21523723Y-52201523D01*
X21426961Y-52298285D01*
X21378580Y-52443428D01*
X21378580Y-52685333D01*
X21475342Y-51088761D02*
X21426961Y-51137142D01*
X21378580Y-51282285D01*
X21378580Y-51379047D01*
X21426961Y-51524190D01*
X21523723Y-51620952D01*
X21620485Y-51669333D01*
X21814009Y-51717714D01*
X21959152Y-51717714D01*
X22152676Y-51669333D01*
X22249438Y-51620952D01*
X22346200Y-51524190D01*
X22394580Y-51379047D01*
X22394580Y-51282285D01*
X22346200Y-51137142D01*
X22297819Y-51088761D01*
X22055914Y-50024380D02*
X22055914Y-49637333D01*
X22394580Y-49879238D02*
X21523723Y-49879238D01*
X21426961Y-49830857D01*
X21378580Y-49734095D01*
X21378580Y-49637333D01*
X21378580Y-49153523D02*
X21426961Y-49250285D01*
X21475342Y-49298666D01*
X21572104Y-49347047D01*
X21862390Y-49347047D01*
X21959152Y-49298666D01*
X22007533Y-49250285D01*
X22055914Y-49153523D01*
X22055914Y-49008380D01*
X22007533Y-48911619D01*
X21959152Y-48863238D01*
X21862390Y-48814857D01*
X21572104Y-48814857D01*
X21475342Y-48863238D01*
X21426961Y-48911619D01*
X21378580Y-49008380D01*
X21378580Y-49153523D01*
X19702180Y-55564000D02*
X20185990Y-55902666D01*
X19702180Y-56144571D02*
X20718180Y-56144571D01*
X20718180Y-55757523D01*
X20669800Y-55660761D01*
X20621419Y-55612380D01*
X20524657Y-55564000D01*
X20379514Y-55564000D01*
X20282752Y-55612380D01*
X20234371Y-55660761D01*
X20185990Y-55757523D01*
X20185990Y-56144571D01*
X19702180Y-54693142D02*
X20234371Y-54693142D01*
X20331133Y-54741523D01*
X20379514Y-54838285D01*
X20379514Y-55031809D01*
X20331133Y-55128571D01*
X19750561Y-54693142D02*
X19702180Y-54789904D01*
X19702180Y-55031809D01*
X19750561Y-55128571D01*
X19847323Y-55176952D01*
X19944085Y-55176952D01*
X20040847Y-55128571D01*
X20089228Y-55031809D01*
X20089228Y-54789904D01*
X20137609Y-54693142D01*
X19750561Y-54257714D02*
X19702180Y-54160952D01*
X19702180Y-53967428D01*
X19750561Y-53870666D01*
X19847323Y-53822285D01*
X19895704Y-53822285D01*
X19992466Y-53870666D01*
X20040847Y-53967428D01*
X20040847Y-54112571D01*
X20089228Y-54209333D01*
X20185990Y-54257714D01*
X20234371Y-54257714D01*
X20331133Y-54209333D01*
X20379514Y-54112571D01*
X20379514Y-53967428D01*
X20331133Y-53870666D01*
X20379514Y-53386857D02*
X19363514Y-53386857D01*
X20331133Y-53386857D02*
X20379514Y-53290095D01*
X20379514Y-53096571D01*
X20331133Y-52999809D01*
X20282752Y-52951428D01*
X20185990Y-52903047D01*
X19895704Y-52903047D01*
X19798942Y-52951428D01*
X19750561Y-52999809D01*
X19702180Y-53096571D01*
X19702180Y-53290095D01*
X19750561Y-53386857D01*
X19702180Y-52467619D02*
X20718180Y-52467619D01*
X20331133Y-52467619D02*
X20379514Y-52370857D01*
X20379514Y-52177333D01*
X20331133Y-52080571D01*
X20282752Y-52032190D01*
X20185990Y-51983809D01*
X19895704Y-51983809D01*
X19798942Y-52032190D01*
X19750561Y-52080571D01*
X19702180Y-52177333D01*
X19702180Y-52370857D01*
X19750561Y-52467619D01*
X19750561Y-51161333D02*
X19702180Y-51258095D01*
X19702180Y-51451619D01*
X19750561Y-51548380D01*
X19847323Y-51596761D01*
X20234371Y-51596761D01*
X20331133Y-51548380D01*
X20379514Y-51451619D01*
X20379514Y-51258095D01*
X20331133Y-51161333D01*
X20234371Y-51112952D01*
X20137609Y-51112952D01*
X20040847Y-51596761D01*
X19702180Y-50677523D02*
X20379514Y-50677523D01*
X20185990Y-50677523D02*
X20282752Y-50629142D01*
X20331133Y-50580761D01*
X20379514Y-50484000D01*
X20379514Y-50387238D01*
X19702180Y-50048571D02*
X20379514Y-50048571D01*
X20185990Y-50048571D02*
X20282752Y-50000190D01*
X20331133Y-49951809D01*
X20379514Y-49855047D01*
X20379514Y-49758285D01*
X20379514Y-49516380D02*
X19702180Y-49274476D01*
X20379514Y-49032571D02*
X19702180Y-49274476D01*
X19460276Y-49371238D01*
X19411895Y-49419619D01*
X19363514Y-49516380D01*
X19702180Y-47871428D02*
X20718180Y-47871428D01*
X20718180Y-47484380D01*
X20669800Y-47387619D01*
X20621419Y-47339238D01*
X20524657Y-47290857D01*
X20379514Y-47290857D01*
X20282752Y-47339238D01*
X20234371Y-47387619D01*
X20185990Y-47484380D01*
X20185990Y-47871428D01*
X19702180Y-46855428D02*
X20379514Y-46855428D01*
X20718180Y-46855428D02*
X20669800Y-46903809D01*
X20621419Y-46855428D01*
X20669800Y-46807047D01*
X20718180Y-46855428D01*
X20621419Y-46855428D01*
D13*
X54889880Y-71475404D02*
X54889880Y-70903976D01*
X54889880Y-71189690D02*
X53889880Y-71189690D01*
X54032738Y-71094452D01*
X54127976Y-70999214D01*
X54175595Y-70903976D01*
X54508928Y-71903976D02*
X54508928Y-72665880D01*
X53889880Y-73046833D02*
X54889880Y-73284928D01*
X54175595Y-73475404D01*
X54889880Y-73665880D01*
X53889880Y-73903976D01*
X54889880Y-74284928D02*
X54223214Y-74284928D01*
X53889880Y-74284928D02*
X53937500Y-74237309D01*
X53985119Y-74284928D01*
X53937500Y-74332547D01*
X53889880Y-74284928D01*
X53985119Y-74284928D01*
X54889880Y-74761119D02*
X54223214Y-74761119D01*
X54413690Y-74761119D02*
X54318452Y-74808738D01*
X54270833Y-74856357D01*
X54223214Y-74951595D01*
X54223214Y-75046833D01*
X54842261Y-75761119D02*
X54889880Y-75665880D01*
X54889880Y-75475404D01*
X54842261Y-75380166D01*
X54747023Y-75332547D01*
X54366071Y-75332547D01*
X54270833Y-75380166D01*
X54223214Y-75475404D01*
X54223214Y-75665880D01*
X54270833Y-75761119D01*
X54366071Y-75808738D01*
X54461309Y-75808738D01*
X54556547Y-75332547D01*
X56016071Y-71284928D02*
X56063690Y-71427785D01*
X56111309Y-71475404D01*
X56206547Y-71523023D01*
X56349404Y-71523023D01*
X56444642Y-71475404D01*
X56492261Y-71427785D01*
X56539880Y-71332547D01*
X56539880Y-70951595D01*
X55539880Y-70951595D01*
X55539880Y-71284928D01*
X55587500Y-71380166D01*
X55635119Y-71427785D01*
X55730357Y-71475404D01*
X55825595Y-71475404D01*
X55920833Y-71427785D01*
X55968452Y-71380166D01*
X56016071Y-71284928D01*
X56016071Y-70951595D01*
X55873214Y-72380166D02*
X56539880Y-72380166D01*
X55873214Y-71951595D02*
X56397023Y-71951595D01*
X56492261Y-71999214D01*
X56539880Y-72094452D01*
X56539880Y-72237309D01*
X56492261Y-72332547D01*
X56444642Y-72380166D01*
X56492261Y-72808738D02*
X56539880Y-72903976D01*
X56539880Y-73094452D01*
X56492261Y-73189690D01*
X56397023Y-73237309D01*
X56349404Y-73237309D01*
X56254166Y-73189690D01*
X56206547Y-73094452D01*
X56206547Y-72951595D01*
X56158928Y-72856357D01*
X56063690Y-72808738D01*
X56016071Y-72808738D01*
X55920833Y-72856357D01*
X55873214Y-72951595D01*
X55873214Y-73094452D01*
X55920833Y-73189690D01*
X58262500Y-71475404D02*
X58214880Y-71380166D01*
X58214880Y-71237309D01*
X58262500Y-71094452D01*
X58357738Y-70999214D01*
X58452976Y-70951595D01*
X58643452Y-70903976D01*
X58786309Y-70903976D01*
X58976785Y-70951595D01*
X59072023Y-70999214D01*
X59167261Y-71094452D01*
X59214880Y-71237309D01*
X59214880Y-71332547D01*
X59167261Y-71475404D01*
X59119642Y-71523023D01*
X58786309Y-71523023D01*
X58786309Y-71332547D01*
X59214880Y-71951595D02*
X58214880Y-71951595D01*
X59214880Y-72523023D01*
X58214880Y-72523023D01*
X59214880Y-72999214D02*
X58214880Y-72999214D01*
X58214880Y-73237309D01*
X58262500Y-73380166D01*
X58357738Y-73475404D01*
X58452976Y-73523023D01*
X58643452Y-73570642D01*
X58786309Y-73570642D01*
X58976785Y-73523023D01*
X59072023Y-73475404D01*
X59167261Y-73380166D01*
X59214880Y-73237309D01*
X59214880Y-72999214D01*
X49389880Y-70356357D02*
X49389880Y-70975404D01*
X49770833Y-70642071D01*
X49770833Y-70784928D01*
X49818452Y-70880166D01*
X49866071Y-70927785D01*
X49961309Y-70975404D01*
X50199404Y-70975404D01*
X50294642Y-70927785D01*
X50342261Y-70880166D01*
X50389880Y-70784928D01*
X50389880Y-70499214D01*
X50342261Y-70403976D01*
X50294642Y-70356357D01*
X50294642Y-71403976D02*
X50342261Y-71451595D01*
X50389880Y-71403976D01*
X50342261Y-71356357D01*
X50294642Y-71403976D01*
X50389880Y-71403976D01*
X49389880Y-71784928D02*
X49389880Y-72403976D01*
X49770833Y-72070642D01*
X49770833Y-72213500D01*
X49818452Y-72308738D01*
X49866071Y-72356357D01*
X49961309Y-72403976D01*
X50199404Y-72403976D01*
X50294642Y-72356357D01*
X50342261Y-72308738D01*
X50389880Y-72213500D01*
X50389880Y-71927785D01*
X50342261Y-71832547D01*
X50294642Y-71784928D01*
X49389880Y-72689690D02*
X50389880Y-73023023D01*
X49389880Y-73356357D01*
X50389880Y-74594452D02*
X50342261Y-74499214D01*
X50294642Y-74451595D01*
X50199404Y-74403976D01*
X49913690Y-74403976D01*
X49818452Y-74451595D01*
X49770833Y-74499214D01*
X49723214Y-74594452D01*
X49723214Y-74737309D01*
X49770833Y-74832547D01*
X49818452Y-74880166D01*
X49913690Y-74927785D01*
X50199404Y-74927785D01*
X50294642Y-74880166D01*
X50342261Y-74832547D01*
X50389880Y-74737309D01*
X50389880Y-74594452D01*
X49723214Y-75784928D02*
X50389880Y-75784928D01*
X49723214Y-75356357D02*
X50247023Y-75356357D01*
X50342261Y-75403976D01*
X50389880Y-75499214D01*
X50389880Y-75642071D01*
X50342261Y-75737309D01*
X50294642Y-75784928D01*
X49723214Y-76118261D02*
X49723214Y-76499214D01*
X49389880Y-76261119D02*
X50247023Y-76261119D01*
X50342261Y-76308738D01*
X50389880Y-76403976D01*
X50389880Y-76499214D01*
X52420833Y-70737309D02*
X52373214Y-70689690D01*
X52230357Y-70594452D01*
X52135119Y-70546833D01*
X51992261Y-70499214D01*
X51754166Y-70451595D01*
X51563690Y-70451595D01*
X51325595Y-70499214D01*
X51182738Y-70546833D01*
X51087500Y-70594452D01*
X50944642Y-70689690D01*
X50897023Y-70737309D01*
X51373214Y-70975404D02*
X51373214Y-71356357D01*
X52039880Y-71118261D02*
X51182738Y-71118261D01*
X51087500Y-71165880D01*
X51039880Y-71261119D01*
X51039880Y-71356357D01*
X51373214Y-72118261D02*
X52039880Y-72118261D01*
X51373214Y-71689690D02*
X51897023Y-71689690D01*
X51992261Y-71737309D01*
X52039880Y-71832547D01*
X52039880Y-71975404D01*
X51992261Y-72070642D01*
X51944642Y-72118261D01*
X51992261Y-72546833D02*
X52039880Y-72642071D01*
X52039880Y-72832547D01*
X51992261Y-72927785D01*
X51897023Y-72975404D01*
X51849404Y-72975404D01*
X51754166Y-72927785D01*
X51706547Y-72832547D01*
X51706547Y-72689690D01*
X51658928Y-72594452D01*
X51563690Y-72546833D01*
X51516071Y-72546833D01*
X51420833Y-72594452D01*
X51373214Y-72689690D01*
X51373214Y-72832547D01*
X51420833Y-72927785D01*
X51992261Y-73784928D02*
X52039880Y-73689690D01*
X52039880Y-73499214D01*
X51992261Y-73403976D01*
X51897023Y-73356357D01*
X51516071Y-73356357D01*
X51420833Y-73403976D01*
X51373214Y-73499214D01*
X51373214Y-73689690D01*
X51420833Y-73784928D01*
X51516071Y-73832547D01*
X51611309Y-73832547D01*
X51706547Y-73356357D01*
X52039880Y-74689690D02*
X51039880Y-74689690D01*
X51992261Y-74689690D02*
X52039880Y-74594452D01*
X52039880Y-74403976D01*
X51992261Y-74308738D01*
X51944642Y-74261119D01*
X51849404Y-74213500D01*
X51563690Y-74213500D01*
X51468452Y-74261119D01*
X51420833Y-74308738D01*
X51373214Y-74403976D01*
X51373214Y-74594452D01*
X51420833Y-74689690D01*
X52420833Y-75070642D02*
X52373214Y-75118261D01*
X52230357Y-75213500D01*
X52135119Y-75261119D01*
X51992261Y-75308738D01*
X51754166Y-75356357D01*
X51563690Y-75356357D01*
X51325595Y-75308738D01*
X51182738Y-75261119D01*
X51087500Y-75213500D01*
X50944642Y-75118261D01*
X50897023Y-75070642D01*
D11*
X30655357Y-64794571D02*
X29798214Y-64794571D01*
X30226785Y-66294571D02*
X30226785Y-64794571D01*
X28441071Y-66151714D02*
X28512500Y-66223142D01*
X28726785Y-66294571D01*
X28869642Y-66294571D01*
X29083928Y-66223142D01*
X29226785Y-66080285D01*
X29298214Y-65937428D01*
X29369642Y-65651714D01*
X29369642Y-65437428D01*
X29298214Y-65151714D01*
X29226785Y-65008857D01*
X29083928Y-64866000D01*
X28869642Y-64794571D01*
X28726785Y-64794571D01*
X28512500Y-64866000D01*
X28441071Y-64937428D01*
X27012500Y-66294571D02*
X27869642Y-66294571D01*
X27441071Y-66294571D02*
X27441071Y-64794571D01*
X27583928Y-65008857D01*
X27726785Y-65151714D01*
X27869642Y-65223142D01*
X47155357Y-64794571D02*
X46298214Y-64794571D01*
X46726785Y-66294571D02*
X46726785Y-64794571D01*
X44941071Y-66151714D02*
X45012500Y-66223142D01*
X45226785Y-66294571D01*
X45369642Y-66294571D01*
X45583928Y-66223142D01*
X45726785Y-66080285D01*
X45798214Y-65937428D01*
X45869642Y-65651714D01*
X45869642Y-65437428D01*
X45798214Y-65151714D01*
X45726785Y-65008857D01*
X45583928Y-64866000D01*
X45369642Y-64794571D01*
X45226785Y-64794571D01*
X45012500Y-64866000D01*
X44941071Y-64937428D01*
X44441071Y-64794571D02*
X43512500Y-64794571D01*
X44012500Y-65366000D01*
X43798214Y-65366000D01*
X43655357Y-65437428D01*
X43583928Y-65508857D01*
X43512500Y-65651714D01*
X43512500Y-66008857D01*
X43583928Y-66151714D01*
X43655357Y-66223142D01*
X43798214Y-66294571D01*
X44226785Y-66294571D01*
X44369642Y-66223142D01*
X44441071Y-66151714D01*
X38655357Y-64794571D02*
X37798214Y-64794571D01*
X38226785Y-66294571D02*
X38226785Y-64794571D01*
X36441071Y-66151714D02*
X36512500Y-66223142D01*
X36726785Y-66294571D01*
X36869642Y-66294571D01*
X37083928Y-66223142D01*
X37226785Y-66080285D01*
X37298214Y-65937428D01*
X37369642Y-65651714D01*
X37369642Y-65437428D01*
X37298214Y-65151714D01*
X37226785Y-65008857D01*
X37083928Y-64866000D01*
X36869642Y-64794571D01*
X36726785Y-64794571D01*
X36512500Y-64866000D01*
X36441071Y-64937428D01*
X35869642Y-64937428D02*
X35798214Y-64866000D01*
X35655357Y-64794571D01*
X35298214Y-64794571D01*
X35155357Y-64866000D01*
X35083928Y-64937428D01*
X35012500Y-65080285D01*
X35012500Y-65223142D01*
X35083928Y-65437428D01*
X35941071Y-66294571D01*
X35012500Y-66294571D01*
D14*
X75606804Y-39095023D02*
X76030138Y-38490261D01*
X76332519Y-39095023D02*
X76332519Y-37825023D01*
X75848709Y-37825023D01*
X75727757Y-37885500D01*
X75667280Y-37945976D01*
X75606804Y-38066928D01*
X75606804Y-38248357D01*
X75667280Y-38369309D01*
X75727757Y-38429785D01*
X75848709Y-38490261D01*
X76332519Y-38490261D01*
X74578709Y-39034547D02*
X74699661Y-39095023D01*
X74941566Y-39095023D01*
X75062519Y-39034547D01*
X75122995Y-38913595D01*
X75122995Y-38429785D01*
X75062519Y-38308833D01*
X74941566Y-38248357D01*
X74699661Y-38248357D01*
X74578709Y-38308833D01*
X74518233Y-38429785D01*
X74518233Y-38550738D01*
X75122995Y-38671690D01*
X74094900Y-38248357D02*
X73792519Y-39095023D01*
X73490138Y-38248357D01*
X72159661Y-37825023D02*
X71373471Y-37825023D01*
X71796804Y-38308833D01*
X71615376Y-38308833D01*
X71494423Y-38369309D01*
X71433947Y-38429785D01*
X71373471Y-38550738D01*
X71373471Y-38853119D01*
X71433947Y-38974071D01*
X71494423Y-39034547D01*
X71615376Y-39095023D01*
X71978233Y-39095023D01*
X72099185Y-39034547D01*
X72159661Y-38974071D01*
X70829185Y-38974071D02*
X70768709Y-39034547D01*
X70829185Y-39095023D01*
X70889661Y-39034547D01*
X70829185Y-38974071D01*
X70829185Y-39095023D01*
X69559185Y-39095023D02*
X70284900Y-39095023D01*
X69922042Y-39095023D02*
X69922042Y-37825023D01*
X70042995Y-38006452D01*
X70163947Y-38127404D01*
X70284900Y-38187880D01*
X76392995Y-40891166D02*
X75788233Y-40891166D01*
X76513947Y-41254023D02*
X76090614Y-39984023D01*
X75667280Y-41254023D01*
X75243947Y-40407357D02*
X75243947Y-41677357D01*
X75243947Y-40467833D02*
X75122995Y-40407357D01*
X74881090Y-40407357D01*
X74760138Y-40467833D01*
X74699661Y-40528309D01*
X74639185Y-40649261D01*
X74639185Y-41012119D01*
X74699661Y-41133071D01*
X74760138Y-41193547D01*
X74881090Y-41254023D01*
X75122995Y-41254023D01*
X75243947Y-41193547D01*
X74094900Y-41254023D02*
X74094900Y-40407357D01*
X74094900Y-40649261D02*
X74034423Y-40528309D01*
X73973947Y-40467833D01*
X73852995Y-40407357D01*
X73732042Y-40407357D01*
X73308709Y-41254023D02*
X73308709Y-40407357D01*
X73308709Y-39984023D02*
X73369185Y-40044500D01*
X73308709Y-40104976D01*
X73248233Y-40044500D01*
X73308709Y-39984023D01*
X73308709Y-40104976D01*
X72522519Y-41254023D02*
X72643471Y-41193547D01*
X72703947Y-41072595D01*
X72703947Y-39984023D01*
X71131566Y-40104976D02*
X71071090Y-40044500D01*
X70950138Y-39984023D01*
X70647757Y-39984023D01*
X70526804Y-40044500D01*
X70466328Y-40104976D01*
X70405852Y-40225928D01*
X70405852Y-40346880D01*
X70466328Y-40528309D01*
X71192042Y-41254023D01*
X70405852Y-41254023D01*
X69619661Y-39984023D02*
X69498709Y-39984023D01*
X69377757Y-40044500D01*
X69317280Y-40104976D01*
X69256804Y-40225928D01*
X69196328Y-40467833D01*
X69196328Y-40770214D01*
X69256804Y-41012119D01*
X69317280Y-41133071D01*
X69377757Y-41193547D01*
X69498709Y-41254023D01*
X69619661Y-41254023D01*
X69740614Y-41193547D01*
X69801090Y-41133071D01*
X69861566Y-41012119D01*
X69922042Y-40770214D01*
X69922042Y-40467833D01*
X69861566Y-40225928D01*
X69801090Y-40104976D01*
X69740614Y-40044500D01*
X69619661Y-39984023D01*
X68712519Y-40104976D02*
X68652042Y-40044500D01*
X68531090Y-39984023D01*
X68228709Y-39984023D01*
X68107757Y-40044500D01*
X68047280Y-40104976D01*
X67986804Y-40225928D01*
X67986804Y-40346880D01*
X68047280Y-40528309D01*
X68772995Y-41254023D01*
X67986804Y-41254023D01*
X67200614Y-39984023D02*
X67079661Y-39984023D01*
X66958709Y-40044500D01*
X66898233Y-40104976D01*
X66837757Y-40225928D01*
X66777280Y-40467833D01*
X66777280Y-40770214D01*
X66837757Y-41012119D01*
X66898233Y-41133071D01*
X66958709Y-41193547D01*
X67079661Y-41254023D01*
X67200614Y-41254023D01*
X67321566Y-41193547D01*
X67382042Y-41133071D01*
X67442519Y-41012119D01*
X67502995Y-40770214D01*
X67502995Y-40467833D01*
X67442519Y-40225928D01*
X67382042Y-40104976D01*
X67321566Y-40044500D01*
X67200614Y-39984023D01*
D13*
X76559642Y-32578571D02*
X75702500Y-32578571D01*
X76131071Y-34078571D02*
X76131071Y-32578571D01*
X75202500Y-34078571D02*
X75202500Y-32578571D01*
X74559642Y-34078571D02*
X74559642Y-33292857D01*
X74631071Y-33150000D01*
X74773928Y-33078571D01*
X74988214Y-33078571D01*
X75131071Y-33150000D01*
X75202500Y-33221428D01*
X73273928Y-34007142D02*
X73416785Y-34078571D01*
X73702500Y-34078571D01*
X73845357Y-34007142D01*
X73916785Y-33864285D01*
X73916785Y-33292857D01*
X73845357Y-33150000D01*
X73702500Y-33078571D01*
X73416785Y-33078571D01*
X73273928Y-33150000D01*
X73202500Y-33292857D01*
X73202500Y-33435714D01*
X73916785Y-33578571D01*
X72559642Y-34078571D02*
X72559642Y-33078571D01*
X72559642Y-33364285D02*
X72488214Y-33221428D01*
X72416785Y-33150000D01*
X72273928Y-33078571D01*
X72131071Y-33078571D01*
X71631071Y-34078571D02*
X71631071Y-33078571D01*
X71631071Y-33221428D02*
X71559642Y-33150000D01*
X71416785Y-33078571D01*
X71202500Y-33078571D01*
X71059642Y-33150000D01*
X70988214Y-33292857D01*
X70988214Y-34078571D01*
X70988214Y-33292857D02*
X70916785Y-33150000D01*
X70773928Y-33078571D01*
X70559642Y-33078571D01*
X70416785Y-33150000D01*
X70345357Y-33292857D01*
X70345357Y-34078571D01*
X69416785Y-34078571D02*
X69559642Y-34007142D01*
X69631071Y-33935714D01*
X69702500Y-33792857D01*
X69702500Y-33364285D01*
X69631071Y-33221428D01*
X69559642Y-33150000D01*
X69416785Y-33078571D01*
X69202500Y-33078571D01*
X69059642Y-33150000D01*
X68988214Y-33221428D01*
X68916785Y-33364285D01*
X68916785Y-33792857D01*
X68988214Y-33935714D01*
X69059642Y-34007142D01*
X69202500Y-34078571D01*
X69416785Y-34078571D01*
X67631071Y-34007142D02*
X67773928Y-34078571D01*
X68059642Y-34078571D01*
X68202500Y-34007142D01*
X68273928Y-33935714D01*
X68345357Y-33792857D01*
X68345357Y-33364285D01*
X68273928Y-33221428D01*
X68202500Y-33150000D01*
X68059642Y-33078571D01*
X67773928Y-33078571D01*
X67631071Y-33150000D01*
X66773928Y-34078571D02*
X66916785Y-34007142D01*
X66988214Y-33935714D01*
X67059642Y-33792857D01*
X67059642Y-33364285D01*
X66988214Y-33221428D01*
X66916785Y-33150000D01*
X66773928Y-33078571D01*
X66559642Y-33078571D01*
X66416785Y-33150000D01*
X66345357Y-33221428D01*
X66273928Y-33364285D01*
X66273928Y-33792857D01*
X66345357Y-33935714D01*
X66416785Y-34007142D01*
X66559642Y-34078571D01*
X66773928Y-34078571D01*
X64988214Y-33078571D02*
X64988214Y-34078571D01*
X65631071Y-33078571D02*
X65631071Y-33864285D01*
X65559642Y-34007142D01*
X65416785Y-34078571D01*
X65202500Y-34078571D01*
X65059642Y-34007142D01*
X64988214Y-33935714D01*
X64273928Y-33078571D02*
X64273928Y-34578571D01*
X64273928Y-33150000D02*
X64131071Y-33078571D01*
X63845357Y-33078571D01*
X63702500Y-33150000D01*
X63631071Y-33221428D01*
X63559642Y-33364285D01*
X63559642Y-33792857D01*
X63631071Y-33935714D01*
X63702500Y-34007142D01*
X63845357Y-34078571D01*
X64131071Y-34078571D01*
X64273928Y-34007142D01*
X62702500Y-34078571D02*
X62845357Y-34007142D01*
X62916785Y-33864285D01*
X62916785Y-32578571D01*
X61559642Y-34007142D02*
X61702500Y-34078571D01*
X61988214Y-34078571D01*
X62131071Y-34007142D01*
X62202500Y-33864285D01*
X62202500Y-33292857D01*
X62131071Y-33150000D01*
X61988214Y-33078571D01*
X61702500Y-33078571D01*
X61559642Y-33150000D01*
X61488214Y-33292857D01*
X61488214Y-33435714D01*
X62202500Y-33578571D01*
X59702500Y-34078571D02*
X59702500Y-32578571D01*
X59702500Y-33292857D02*
X58845357Y-33292857D01*
X58845357Y-34078571D02*
X58845357Y-32578571D01*
X57488214Y-34078571D02*
X57488214Y-33292857D01*
X57559642Y-33150000D01*
X57702500Y-33078571D01*
X57988214Y-33078571D01*
X58131071Y-33150000D01*
X57488214Y-34007142D02*
X57631071Y-34078571D01*
X57988214Y-34078571D01*
X58131071Y-34007142D01*
X58202500Y-33864285D01*
X58202500Y-33721428D01*
X58131071Y-33578571D01*
X57988214Y-33507142D01*
X57631071Y-33507142D01*
X57488214Y-33435714D01*
X56988214Y-33078571D02*
X56416785Y-33078571D01*
X56773928Y-32578571D02*
X56773928Y-33864285D01*
X56702500Y-34007142D01*
X56559642Y-34078571D01*
X56416785Y-34078571D01*
X76345357Y-36478571D02*
X76345357Y-34978571D01*
X76345357Y-35550000D02*
X76202500Y-35478571D01*
X75916785Y-35478571D01*
X75773928Y-35550000D01*
X75702500Y-35621428D01*
X75631071Y-35764285D01*
X75631071Y-36192857D01*
X75702500Y-36335714D01*
X75773928Y-36407142D01*
X75916785Y-36478571D01*
X76202500Y-36478571D01*
X76345357Y-36407142D01*
X75131071Y-35478571D02*
X74773928Y-36478571D01*
X74416785Y-35478571D02*
X74773928Y-36478571D01*
X74916785Y-36835714D01*
X74988214Y-36907142D01*
X75131071Y-36978571D01*
X71988214Y-36478571D02*
X72702500Y-36478571D01*
X72702500Y-34978571D01*
X71273928Y-36478571D02*
X71416785Y-36407142D01*
X71488214Y-36335714D01*
X71559642Y-36192857D01*
X71559642Y-35764285D01*
X71488214Y-35621428D01*
X71416785Y-35550000D01*
X71273928Y-35478571D01*
X71059642Y-35478571D01*
X70916785Y-35550000D01*
X70845357Y-35621428D01*
X70773928Y-35764285D01*
X70773928Y-36192857D01*
X70845357Y-36335714D01*
X70916785Y-36407142D01*
X71059642Y-36478571D01*
X71273928Y-36478571D01*
X69488214Y-35478571D02*
X69488214Y-36478571D01*
X70131071Y-35478571D02*
X70131071Y-36264285D01*
X70059642Y-36407142D01*
X69916785Y-36478571D01*
X69702500Y-36478571D01*
X69559642Y-36407142D01*
X69488214Y-36335714D01*
X68773928Y-36478571D02*
X68773928Y-35478571D01*
X68773928Y-34978571D02*
X68845357Y-35050000D01*
X68773928Y-35121428D01*
X68702500Y-35050000D01*
X68773928Y-34978571D01*
X68773928Y-35121428D01*
X68131071Y-36407142D02*
X67988214Y-36478571D01*
X67702500Y-36478571D01*
X67559642Y-36407142D01*
X67488214Y-36264285D01*
X67488214Y-36192857D01*
X67559642Y-36050000D01*
X67702500Y-35978571D01*
X67916785Y-35978571D01*
X68059642Y-35907142D01*
X68131071Y-35764285D01*
X68131071Y-35692857D01*
X68059642Y-35550000D01*
X67916785Y-35478571D01*
X67702500Y-35478571D01*
X67559642Y-35550000D01*
X65702500Y-36478571D02*
X65702500Y-34978571D01*
X65202500Y-36050000D01*
X64702500Y-34978571D01*
X64702500Y-36478571D01*
X63345357Y-36478571D02*
X63345357Y-35692857D01*
X63416785Y-35550000D01*
X63559642Y-35478571D01*
X63845357Y-35478571D01*
X63988214Y-35550000D01*
X63345357Y-36407142D02*
X63488214Y-36478571D01*
X63845357Y-36478571D01*
X63988214Y-36407142D01*
X64059642Y-36264285D01*
X64059642Y-36121428D01*
X63988214Y-35978571D01*
X63845357Y-35907142D01*
X63488214Y-35907142D01*
X63345357Y-35835714D01*
X62631071Y-36478571D02*
X62631071Y-35478571D01*
X62631071Y-35621428D02*
X62559642Y-35550000D01*
X62416785Y-35478571D01*
X62202500Y-35478571D01*
X62059642Y-35550000D01*
X61988214Y-35692857D01*
X61988214Y-36478571D01*
X61988214Y-35692857D02*
X61916785Y-35550000D01*
X61773928Y-35478571D01*
X61559642Y-35478571D01*
X61416785Y-35550000D01*
X61345357Y-35692857D01*
X61345357Y-36478571D01*
X59988214Y-36478571D02*
X59988214Y-35692857D01*
X60059642Y-35550000D01*
X60202500Y-35478571D01*
X60488214Y-35478571D01*
X60631071Y-35550000D01*
X59988214Y-36407142D02*
X60131071Y-36478571D01*
X60488214Y-36478571D01*
X60631071Y-36407142D01*
X60702500Y-36264285D01*
X60702500Y-36121428D01*
X60631071Y-35978571D01*
X60488214Y-35907142D01*
X60131071Y-35907142D01*
X59988214Y-35835714D01*
X59273928Y-36478571D02*
X59273928Y-34978571D01*
X59131071Y-35907142D02*
X58702500Y-36478571D01*
X58702500Y-35478571D02*
X59273928Y-36050000D01*
X57845357Y-36478571D02*
X57988214Y-36407142D01*
X58059642Y-36335714D01*
X58131071Y-36192857D01*
X58131071Y-35764285D01*
X58059642Y-35621428D01*
X57988214Y-35550000D01*
X57845357Y-35478571D01*
X57631071Y-35478571D01*
X57488214Y-35550000D01*
X57416785Y-35621428D01*
X57345357Y-35764285D01*
X57345357Y-36192857D01*
X57416785Y-36335714D01*
X57488214Y-36407142D01*
X57631071Y-36478571D01*
X57845357Y-36478571D01*
X56773928Y-36407142D02*
X56631071Y-36478571D01*
X56345357Y-36478571D01*
X56202500Y-36407142D01*
X56131071Y-36264285D01*
X56131071Y-36192857D01*
X56202500Y-36050000D01*
X56345357Y-35978571D01*
X56559642Y-35978571D01*
X56702500Y-35907142D01*
X56773928Y-35764285D01*
X56773928Y-35692857D01*
X56702500Y-35550000D01*
X56559642Y-35478571D01*
X56345357Y-35478571D01*
X56202500Y-35550000D01*
D15*
X19540000Y-25400000D02*
X19540000Y-28000000D01*
X19540000Y-25400000D02*
X70460000Y-25400000D01*
X70460000Y-25400000D02*
X70460000Y-30600000D01*
X22140000Y-30600000D02*
X70460000Y-30600000D01*
X22140000Y-28000000D02*
X22140000Y-30600000D01*
X19540000Y-28000000D02*
X22140000Y-28000000D01*
X19540000Y-30600000D02*
X20870000Y-30600000D01*
X19540000Y-29270000D02*
X19540000Y-30600000D01*
X28000000Y-33800000D02*
X28000000Y-35200000D01*
X28700000Y-35900000D02*
X29300000Y-35900000D01*
X30000000Y-35200000D02*
X30000000Y-33800000D01*
X29300000Y-33100000D02*
X28700000Y-33100000D01*
X28700000Y-33100000D02*
G75*
G03X28000000Y-33800000I0J-700000D01*
G01*
X30000000Y-33800000D02*
G75*
G03X29300000Y-33100000I-700000J0D01*
G01*
X29300000Y-35900000D02*
G75*
G03X30000000Y-35200000I0J700000D01*
G01*
X28000000Y-35200000D02*
G75*
G03X28700000Y-35900000I700000J0D01*
G01*
X25000000Y-35200000D02*
G75*
G03X25700000Y-35900000I700000J0D01*
G01*
X26300000Y-35900000D02*
G75*
G03X27000000Y-35200000I0J700000D01*
G01*
X27000000Y-33800000D02*
G75*
G03X26300000Y-33100000I-700000J0D01*
G01*
X25700000Y-33100000D02*
G75*
G03X25000000Y-33800000I0J-700000D01*
G01*
X26300000Y-33100000D02*
X25700000Y-33100000D01*
X27000000Y-35200000D02*
X27000000Y-33800000D01*
X25700000Y-35900000D02*
X26300000Y-35900000D01*
X25000000Y-33800000D02*
X25000000Y-35200000D01*
D10*
X21166666Y-30939619D02*
X21166666Y-31665333D01*
X21215047Y-31810476D01*
X21311809Y-31907238D01*
X21456952Y-31955619D01*
X21553714Y-31955619D01*
X20731238Y-31036380D02*
X20682857Y-30988000D01*
X20586095Y-30939619D01*
X20344190Y-30939619D01*
X20247428Y-30988000D01*
X20199047Y-31036380D01*
X20150666Y-31133142D01*
X20150666Y-31229904D01*
X20199047Y-31375047D01*
X20779619Y-31955619D01*
X20150666Y-31955619D01*
D13*
X28452380Y-31166666D02*
X29166666Y-31166666D01*
X29309523Y-31119047D01*
X29404761Y-31023809D01*
X29452380Y-30880952D01*
X29452380Y-30785714D01*
X29452380Y-31642857D02*
X28452380Y-31642857D01*
X28452380Y-32023809D01*
X28500000Y-32119047D01*
X28547619Y-32166666D01*
X28642857Y-32214285D01*
X28785714Y-32214285D01*
X28880952Y-32166666D01*
X28928571Y-32119047D01*
X28976190Y-32023809D01*
X28976190Y-31642857D01*
X29452380Y-33166666D02*
X29452380Y-32595238D01*
X29452380Y-32880952D02*
X28452380Y-32880952D01*
X28595238Y-32785714D01*
X28690476Y-32690476D01*
X28738095Y-32595238D01*
X25452380Y-31166666D02*
X26166666Y-31166666D01*
X26309523Y-31119047D01*
X26404761Y-31023809D01*
X26452380Y-30880952D01*
X26452380Y-30785714D01*
X26452380Y-31642857D02*
X25452380Y-31642857D01*
X25452380Y-32023809D01*
X25500000Y-32119047D01*
X25547619Y-32166666D01*
X25642857Y-32214285D01*
X25785714Y-32214285D01*
X25880952Y-32166666D01*
X25928571Y-32119047D01*
X25976190Y-32023809D01*
X25976190Y-31642857D01*
X25547619Y-32595238D02*
X25500000Y-32642857D01*
X25452380Y-32738095D01*
X25452380Y-32976190D01*
X25500000Y-33071428D01*
X25547619Y-33119047D01*
X25642857Y-33166666D01*
X25738095Y-33166666D01*
X25880952Y-33119047D01*
X26452380Y-32547619D01*
X26452380Y-33166666D01*
M02*
