M48
; DRILL file {KiCad (5.1.5-0-10_14)} date Sunday, April 19, 2020 at 10:53:22 PM
; FORMAT={-:-/ absolute / inch / decimal}
; #@! TF.CreationDate,2020-04-19T22:53:22-04:00
; #@! TF.GenerationSoftware,Kicad,Pcbnew,(5.1.5-0-10_14)
FMAT,2
INCH
T1C0.0100
T2C0.0150
T3C0.0250
T4C0.0295
T5C0.0394
T6C0.0472
T7C0.1083
%
G90
G05
T1
X0.8661Y-1.2638
X1.1063Y-1.2953
X1.3228Y-1.2598
X1.4331Y-1.2598
X1.5059Y-1.9675
X1.5276Y-1.2598
X1.6299Y-1.2598
X1.7323Y-1.256
X1.8189Y-1.2598
X1.9252Y-1.9646
X2.658Y-1.4809
T2
X0.748Y-1.2441
X0.748Y-1.3071
X0.748Y-1.4016
X0.748Y-1.5197
X0.748Y-1.6535
X0.7584Y-1.792
X2.3622Y-1.479
X2.6678Y-1.9435
X2.6973Y-1.8254
X2.7269Y-1.4073
X2.874Y-1.5157
T3
X0.6969Y-1.5984
X0.8386Y-1.6024
X0.8469Y-1.914
X1.2382Y-2.3839
X1.626Y-2.3819
X1.7628Y-1.9646
X1.9395Y-1.7861
X2.0655Y-2.3746
X2.2505Y-2.3678
X2.6678Y-2.0518
X2.6678Y-2.3274
X2.6678Y-2.4455
T4
X1.3003Y-1.8083
X1.3503Y-1.7583
X1.3503Y-1.8583
T5
X0.82Y-1.5
X0.92Y-1.5
X1.02Y-1.5
X1.12Y-1.5
X1.3228Y-1.5
X1.3228Y-1.6
X1.4228Y-1.5
X1.4228Y-1.6
X1.5228Y-1.5
X1.5228Y-1.6
X1.6228Y-1.5
X1.6228Y-1.6
X1.7228Y-1.5
X1.7228Y-1.6
X1.8228Y-1.5
X1.8228Y-1.6
X0.8217Y-1.0524
X0.8217Y-1.1524
X0.9217Y-1.0524
X0.9217Y-1.1524
X1.0217Y-1.0524
X1.0217Y-1.1524
X1.1217Y-1.0524
X1.1217Y-1.1524
X1.2217Y-1.0524
X1.2217Y-1.1524
X1.3217Y-1.0524
X1.3217Y-1.1524
X1.4217Y-1.0524
X1.4217Y-1.1524
X1.5217Y-1.0524
X1.5217Y-1.1524
X1.6217Y-1.0524
X1.6217Y-1.1524
X1.7217Y-1.0524
X1.7217Y-1.1524
X1.8217Y-1.0524
X1.8217Y-1.1524
X1.9217Y-1.0524
X1.9217Y-1.1524
X2.0217Y-1.0524
X2.0217Y-1.1524
X2.1217Y-1.0524
X2.1217Y-1.1524
X2.2217Y-1.0524
X2.2217Y-1.1524
X2.3217Y-1.0524
X2.3217Y-1.1524
X2.4217Y-1.0524
X2.4217Y-1.1524
X2.5217Y-1.0524
X2.5217Y-1.1524
X2.6217Y-1.0524
X2.6217Y-1.1524
X2.7217Y-1.0524
X2.7217Y-1.1524
T6
X0.7584Y-2.6975
X0.8962Y-2.6975
X1.0733Y-2.6975
X1.2111Y-2.6975
X1.3883Y-2.6975
X1.5261Y-2.6975
X1.7032Y-2.6975
X1.841Y-2.6975
X2.5379Y-2.6975
X2.6757Y-2.6975
X2.8135Y-2.6975
X2.9513Y-2.6975
X2.0182Y-2.6967
X2.156Y-2.6967
X2.2938Y-2.6967
T7
X0.6299Y-2.0079
X0.6299Y-1.1024
X0.6299Y-3.0315
X2.9134Y-1.1024
X2.9134Y-2.0079
X2.9134Y-3.0315
T0
M30
