G04 #@! TF.GenerationSoftware,KiCad,Pcbnew,(5.1.5-0-10_14)*
G04 #@! TF.CreationDate,2020-04-19T22:53:18-04:00*
G04 #@! TF.ProjectId,RPi-pHat-Thermocouple,5250692d-7048-4617-942d-546865726d6f,rev?*
G04 #@! TF.SameCoordinates,Original*
G04 #@! TF.FileFunction,Other,Fab,Top*
%FSLAX46Y46*%
G04 Gerber Fmt 4.6, Leading zero omitted, Abs format (unit mm)*
G04 Created by KiCad (PCBNEW (5.1.5-0-10_14)) date 2020-04-19 22:53:18*
%MOMM*%
%LPD*%
G04 APERTURE LIST*
%ADD10C,0.150000*%
%ADD11C,0.100000*%
%ADD12C,0.060000*%
%ADD13C,0.075000*%
%ADD14C,0.120000*%
%ADD15C,0.080000*%
%ADD16C,0.090000*%
G04 APERTURE END LIST*
D10*
X41453529Y-86835755D02*
X40977339Y-86835804D01*
X40929769Y-87312000D01*
X40977383Y-87264376D01*
X41072616Y-87216747D01*
X41310712Y-87216722D01*
X41405955Y-87264331D01*
X41453579Y-87311945D01*
X41501207Y-87407178D01*
X41501232Y-87645274D01*
X41453623Y-87740517D01*
X41406009Y-87788141D01*
X41310776Y-87835770D01*
X41072680Y-87835794D01*
X40977437Y-87788185D01*
X40929813Y-87740571D01*
X42072621Y-87264262D02*
X41977378Y-87216653D01*
X41929754Y-87169039D01*
X41882125Y-87073806D01*
X41882120Y-87026187D01*
X41929730Y-86930944D01*
X41977344Y-86883320D01*
X42072577Y-86835691D01*
X42263053Y-86835671D01*
X42358296Y-86883280D01*
X42405920Y-86930894D01*
X42453549Y-87026128D01*
X42453554Y-87073747D01*
X42405945Y-87168990D01*
X42358331Y-87216614D01*
X42263097Y-87264243D01*
X42072621Y-87264262D01*
X41977388Y-87311891D01*
X41929774Y-87359515D01*
X41882165Y-87454758D01*
X41882184Y-87645234D01*
X41929813Y-87740467D01*
X41977437Y-87788082D01*
X42072680Y-87835691D01*
X42263157Y-87835671D01*
X42358390Y-87788042D01*
X42406004Y-87740418D01*
X42453613Y-87645175D01*
X42453593Y-87454699D01*
X42405964Y-87359466D01*
X42358340Y-87311852D01*
X42263097Y-87264243D01*
X42882194Y-87740369D02*
X42929818Y-87787983D01*
X42882204Y-87835607D01*
X42834580Y-87787993D01*
X42882194Y-87740369D01*
X42882204Y-87835607D01*
X43548767Y-86835538D02*
X43644005Y-86835528D01*
X43739248Y-86883137D01*
X43786872Y-86930752D01*
X43834501Y-87025985D01*
X43882140Y-87216456D01*
X43882165Y-87454551D01*
X43834565Y-87645032D01*
X43786956Y-87740275D01*
X43739342Y-87787899D01*
X43644109Y-87835528D01*
X43548871Y-87835538D01*
X43453628Y-87787929D01*
X43406004Y-87740315D01*
X43358375Y-87645082D01*
X43310736Y-87454610D01*
X43310712Y-87216515D01*
X43358311Y-87026034D01*
X43405920Y-86930791D01*
X43453534Y-86883167D01*
X43548767Y-86835538D01*
X44501148Y-86835440D02*
X44596386Y-86835430D01*
X44691629Y-86883039D01*
X44739253Y-86930653D01*
X44786882Y-87025886D01*
X44834521Y-87216357D01*
X44834546Y-87454453D01*
X44786946Y-87644934D01*
X44739337Y-87740177D01*
X44691723Y-87787801D01*
X44596490Y-87835430D01*
X44501252Y-87835440D01*
X44406009Y-87787830D01*
X44358385Y-87740216D01*
X44310756Y-87644983D01*
X44263117Y-87454512D01*
X44263092Y-87216417D01*
X44310692Y-87025935D01*
X44358301Y-86930692D01*
X44405915Y-86883068D01*
X44501148Y-86835440D01*
X45453529Y-86835341D02*
X45548767Y-86835331D01*
X45644010Y-86882940D01*
X45691634Y-86930555D01*
X45739263Y-87025788D01*
X45786902Y-87216259D01*
X45786927Y-87454354D01*
X45739327Y-87644835D01*
X45691718Y-87740078D01*
X45644104Y-87787702D01*
X45548871Y-87835331D01*
X45453633Y-87835341D01*
X45358390Y-87787732D01*
X45310766Y-87740118D01*
X45263137Y-87644885D01*
X45215498Y-87454413D01*
X45215473Y-87216318D01*
X45263073Y-87025837D01*
X45310682Y-86930594D01*
X45358296Y-86882970D01*
X45453529Y-86835341D01*
X46977442Y-87835183D02*
X46977373Y-87168517D01*
X46977383Y-87263755D02*
X47024997Y-87216131D01*
X47120230Y-87168502D01*
X47263088Y-87168487D01*
X47358331Y-87216096D01*
X47405959Y-87311330D01*
X47406014Y-87835139D01*
X47405959Y-87311330D02*
X47453569Y-87216087D01*
X47548802Y-87168458D01*
X47691659Y-87168443D01*
X47786902Y-87216052D01*
X47834531Y-87311285D01*
X47834585Y-87835095D01*
X48310776Y-87835045D02*
X48310707Y-87168379D01*
X48310716Y-87263617D02*
X48358331Y-87215993D01*
X48453564Y-87168364D01*
X48596421Y-87168349D01*
X48691664Y-87215958D01*
X48739293Y-87311192D01*
X48739347Y-87835001D01*
X48739293Y-87311192D02*
X48786902Y-87215949D01*
X48882135Y-87168320D01*
X49024992Y-87168305D01*
X49120235Y-87215914D01*
X49167864Y-87311147D01*
X49167918Y-87834957D01*
X16072500Y-86086000D02*
X74072500Y-86080000D01*
X16071567Y-77067136D02*
X16072561Y-86672421D01*
X74071567Y-77061136D02*
X74072561Y-86666421D01*
X74072500Y-86080000D02*
X72946057Y-86666537D01*
X74072500Y-86080000D02*
X72945936Y-85493696D01*
X16072500Y-86086000D02*
X17199064Y-86672304D01*
X16072500Y-86086000D02*
X17198943Y-85499463D01*
X10164880Y-35353142D02*
X10212500Y-35400761D01*
X10260119Y-35496000D01*
X10260119Y-35734095D01*
X10212500Y-35829333D01*
X10164880Y-35876952D01*
X10069642Y-35924571D01*
X9974404Y-35924571D01*
X9831547Y-35876952D01*
X9260119Y-35305523D01*
X9260119Y-35924571D01*
X10260119Y-36257904D02*
X10260119Y-36876952D01*
X9879166Y-36543619D01*
X9879166Y-36686476D01*
X9831547Y-36781714D01*
X9783928Y-36829333D01*
X9688690Y-36876952D01*
X9450595Y-36876952D01*
X9355357Y-36829333D01*
X9307738Y-36781714D01*
X9260119Y-36686476D01*
X9260119Y-36400761D01*
X9307738Y-36305523D01*
X9355357Y-36257904D01*
X9355357Y-37305523D02*
X9307738Y-37353142D01*
X9260119Y-37305523D01*
X9307738Y-37257904D01*
X9355357Y-37305523D01*
X9260119Y-37305523D01*
X10260119Y-37972190D02*
X10260119Y-38067428D01*
X10212500Y-38162666D01*
X10164880Y-38210285D01*
X10069642Y-38257904D01*
X9879166Y-38305523D01*
X9641071Y-38305523D01*
X9450595Y-38257904D01*
X9355357Y-38210285D01*
X9307738Y-38162666D01*
X9260119Y-38067428D01*
X9260119Y-37972190D01*
X9307738Y-37876952D01*
X9355357Y-37829333D01*
X9450595Y-37781714D01*
X9641071Y-37734095D01*
X9879166Y-37734095D01*
X10069642Y-37781714D01*
X10164880Y-37829333D01*
X10212500Y-37876952D01*
X10260119Y-37972190D01*
X10260119Y-38924571D02*
X10260119Y-39019809D01*
X10212500Y-39115047D01*
X10164880Y-39162666D01*
X10069642Y-39210285D01*
X9879166Y-39257904D01*
X9641071Y-39257904D01*
X9450595Y-39210285D01*
X9355357Y-39162666D01*
X9307738Y-39115047D01*
X9260119Y-39019809D01*
X9260119Y-38924571D01*
X9307738Y-38829333D01*
X9355357Y-38781714D01*
X9450595Y-38734095D01*
X9641071Y-38686476D01*
X9879166Y-38686476D01*
X10069642Y-38734095D01*
X10164880Y-38781714D01*
X10212500Y-38829333D01*
X10260119Y-38924571D01*
X10260119Y-39876952D02*
X10260119Y-39972190D01*
X10212500Y-40067428D01*
X10164880Y-40115047D01*
X10069642Y-40162666D01*
X9879166Y-40210285D01*
X9641071Y-40210285D01*
X9450595Y-40162666D01*
X9355357Y-40115047D01*
X9307738Y-40067428D01*
X9260119Y-39972190D01*
X9260119Y-39876952D01*
X9307738Y-39781714D01*
X9355357Y-39734095D01*
X9450595Y-39686476D01*
X9641071Y-39638857D01*
X9879166Y-39638857D01*
X10069642Y-39686476D01*
X10164880Y-39734095D01*
X10212500Y-39781714D01*
X10260119Y-39876952D01*
X9260119Y-41400761D02*
X9926785Y-41400761D01*
X9831547Y-41400761D02*
X9879166Y-41448380D01*
X9926785Y-41543619D01*
X9926785Y-41686476D01*
X9879166Y-41781714D01*
X9783928Y-41829333D01*
X9260119Y-41829333D01*
X9783928Y-41829333D02*
X9879166Y-41876952D01*
X9926785Y-41972190D01*
X9926785Y-42115047D01*
X9879166Y-42210285D01*
X9783928Y-42257904D01*
X9260119Y-42257904D01*
X9260119Y-42734095D02*
X9926785Y-42734095D01*
X9831547Y-42734095D02*
X9879166Y-42781714D01*
X9926785Y-42876952D01*
X9926785Y-43019809D01*
X9879166Y-43115047D01*
X9783928Y-43162666D01*
X9260119Y-43162666D01*
X9783928Y-43162666D02*
X9879166Y-43210285D01*
X9926785Y-43305523D01*
X9926785Y-43448380D01*
X9879166Y-43543619D01*
X9783928Y-43591238D01*
X9260119Y-43591238D01*
X11012500Y-27996000D02*
X11012500Y-50996000D01*
X16012500Y-27996000D02*
X10426079Y-27996000D01*
X16012500Y-50996000D02*
X10426079Y-50996000D01*
X11012500Y-50996000D02*
X10426079Y-49869496D01*
X11012500Y-50996000D02*
X11598921Y-49869496D01*
X11012500Y-27996000D02*
X10426079Y-29122504D01*
X11012500Y-27996000D02*
X11598921Y-29122504D01*
X4165472Y-49313137D02*
X3498806Y-49313137D01*
X4546425Y-49075042D02*
X3832139Y-48836947D01*
X3832139Y-49455994D01*
X3498806Y-49884566D02*
X3498806Y-50075042D01*
X3546425Y-50170280D01*
X3594044Y-50217899D01*
X3736901Y-50313137D01*
X3927377Y-50360756D01*
X4308329Y-50360756D01*
X4403567Y-50313137D01*
X4451187Y-50265518D01*
X4498806Y-50170280D01*
X4498806Y-49979804D01*
X4451187Y-49884566D01*
X4403567Y-49836947D01*
X4308329Y-49789328D01*
X4070234Y-49789328D01*
X3974996Y-49836947D01*
X3927377Y-49884566D01*
X3879758Y-49979804D01*
X3879758Y-50170280D01*
X3927377Y-50265518D01*
X3974996Y-50313137D01*
X4070234Y-50360756D01*
X3594044Y-50789328D02*
X3546425Y-50836947D01*
X3498806Y-50789328D01*
X3546425Y-50741709D01*
X3594044Y-50789328D01*
X3498806Y-50789328D01*
X4498806Y-51455994D02*
X4498806Y-51551233D01*
X4451187Y-51646471D01*
X4403567Y-51694090D01*
X4308329Y-51741709D01*
X4117853Y-51789328D01*
X3879758Y-51789328D01*
X3689282Y-51741709D01*
X3594044Y-51694090D01*
X3546425Y-51646471D01*
X3498806Y-51551233D01*
X3498806Y-51455994D01*
X3546425Y-51360756D01*
X3594044Y-51313137D01*
X3689282Y-51265518D01*
X3879758Y-51217899D01*
X4117853Y-51217899D01*
X4308329Y-51265518D01*
X4403567Y-51313137D01*
X4451187Y-51360756D01*
X4498806Y-51455994D01*
X4498806Y-52408375D02*
X4498806Y-52503614D01*
X4451187Y-52598852D01*
X4403567Y-52646471D01*
X4308329Y-52694090D01*
X4117853Y-52741709D01*
X3879758Y-52741709D01*
X3689282Y-52694090D01*
X3594044Y-52646471D01*
X3546425Y-52598852D01*
X3498806Y-52503614D01*
X3498806Y-52408375D01*
X3546425Y-52313137D01*
X3594044Y-52265518D01*
X3689282Y-52217899D01*
X3879758Y-52170280D01*
X4117853Y-52170280D01*
X4308329Y-52217899D01*
X4403567Y-52265518D01*
X4451187Y-52313137D01*
X4498806Y-52408375D01*
X3498806Y-53932185D02*
X4165472Y-53932185D01*
X4070234Y-53932185D02*
X4117853Y-53979804D01*
X4165472Y-54075042D01*
X4165472Y-54217899D01*
X4117853Y-54313137D01*
X4022615Y-54360756D01*
X3498806Y-54360756D01*
X4022615Y-54360756D02*
X4117853Y-54408375D01*
X4165472Y-54503614D01*
X4165472Y-54646471D01*
X4117853Y-54741709D01*
X4022615Y-54789328D01*
X3498806Y-54789328D01*
X3498806Y-55265518D02*
X4165472Y-55265518D01*
X4070234Y-55265518D02*
X4117853Y-55313137D01*
X4165472Y-55408375D01*
X4165472Y-55551233D01*
X4117853Y-55646471D01*
X4022615Y-55694090D01*
X3498806Y-55694090D01*
X4022615Y-55694090D02*
X4117853Y-55741709D01*
X4165472Y-55836947D01*
X4165472Y-55979804D01*
X4117853Y-56075042D01*
X4022615Y-56122661D01*
X3498806Y-56122661D01*
X5249937Y-28000548D02*
X5252437Y-77006548D01*
X16000000Y-28000000D02*
X4663516Y-28000578D01*
X16002500Y-77006000D02*
X4666016Y-77006578D01*
X5252437Y-77006548D02*
X4665959Y-75880074D01*
X5252437Y-77006548D02*
X5838800Y-75880014D01*
X5249937Y-28000548D02*
X4663574Y-29127082D01*
X5249937Y-28000548D02*
X5836415Y-29127022D01*
X86727961Y-47035130D02*
X86727833Y-46320845D01*
X86013535Y-46249544D01*
X86084976Y-46320960D01*
X86156430Y-46463804D01*
X86156494Y-46820947D01*
X86085091Y-46963817D01*
X86013675Y-47035258D01*
X85870831Y-47106712D01*
X85513688Y-47106776D01*
X85370818Y-47035373D01*
X85299377Y-46963957D01*
X85227922Y-46821113D01*
X85227859Y-46463970D01*
X85299262Y-46321100D01*
X85370678Y-46249659D01*
X86728203Y-48392273D02*
X86728152Y-48106559D01*
X86656698Y-47963715D01*
X86585257Y-47892299D01*
X86370945Y-47749480D01*
X86085218Y-47678102D01*
X85513790Y-47678204D01*
X85370945Y-47749659D01*
X85299530Y-47821100D01*
X85228127Y-47963970D01*
X85228178Y-48249684D01*
X85299632Y-48392528D01*
X85371073Y-48463944D01*
X85513943Y-48535347D01*
X85871086Y-48535284D01*
X86013930Y-48463829D01*
X86085346Y-48392388D01*
X86156749Y-48249518D01*
X86156698Y-47963804D01*
X86085244Y-47820960D01*
X86013803Y-47749544D01*
X85870933Y-47678141D01*
X85371200Y-49178230D02*
X85299785Y-49249671D01*
X85228343Y-49178255D01*
X85299759Y-49106814D01*
X85371200Y-49178230D01*
X85228343Y-49178255D01*
X86728522Y-50177988D02*
X86728547Y-50320845D01*
X86657144Y-50463715D01*
X86585729Y-50535156D01*
X86442884Y-50606610D01*
X86157183Y-50678090D01*
X85800040Y-50678153D01*
X85514313Y-50606776D01*
X85371443Y-50535373D01*
X85300002Y-50463957D01*
X85228547Y-50321113D01*
X85228522Y-50178255D01*
X85299925Y-50035386D01*
X85371341Y-49963944D01*
X85514185Y-49892490D01*
X85799887Y-49821011D01*
X86157030Y-49820947D01*
X86442757Y-49892324D01*
X86585626Y-49963727D01*
X86657068Y-50035143D01*
X86728522Y-50177988D01*
X86728777Y-51606559D02*
X86728803Y-51749416D01*
X86657399Y-51892286D01*
X86585984Y-51963727D01*
X86443139Y-52035181D01*
X86157438Y-52106661D01*
X85800295Y-52106725D01*
X85514568Y-52035347D01*
X85371698Y-51963944D01*
X85300257Y-51892528D01*
X85228803Y-51749684D01*
X85228777Y-51606827D01*
X85300180Y-51463957D01*
X85371596Y-51392516D01*
X85514440Y-51321062D01*
X85800142Y-51249582D01*
X86157285Y-51249518D01*
X86443012Y-51320896D01*
X86585882Y-51392299D01*
X86657323Y-51463715D01*
X86728777Y-51606559D01*
X86729032Y-53035130D02*
X86729058Y-53177988D01*
X86657655Y-53320857D01*
X86586239Y-53392299D01*
X86443394Y-53463753D01*
X86157693Y-53535232D01*
X85800550Y-53535296D01*
X85514823Y-53463919D01*
X85371953Y-53392516D01*
X85300512Y-53321100D01*
X85229058Y-53178255D01*
X85229032Y-53035398D01*
X85300435Y-52892528D01*
X85371851Y-52821087D01*
X85514695Y-52749633D01*
X85800397Y-52678153D01*
X86157540Y-52678090D01*
X86443267Y-52749467D01*
X86586137Y-52820870D01*
X86657578Y-52892286D01*
X86729032Y-53035130D01*
X85229440Y-55321112D02*
X86229440Y-55320934D01*
X86086583Y-55320959D02*
X86158024Y-55392375D01*
X86229479Y-55535220D01*
X86229517Y-55749505D01*
X86158114Y-55892375D01*
X86015269Y-55963829D01*
X85229555Y-55963970D01*
X86015269Y-55963829D02*
X86158139Y-56035232D01*
X86229593Y-56178077D01*
X86229632Y-56392362D01*
X86158229Y-56535232D01*
X86015384Y-56606686D01*
X85229670Y-56606827D01*
X85229797Y-57321112D02*
X86229797Y-57320934D01*
X86086940Y-57320959D02*
X86158382Y-57392375D01*
X86229836Y-57535220D01*
X86229874Y-57749505D01*
X86158471Y-57892375D01*
X86015626Y-57963829D01*
X85229912Y-57963970D01*
X86015626Y-57963829D02*
X86158496Y-58035232D01*
X86229950Y-58178077D01*
X86229989Y-58392362D01*
X86158586Y-58535232D01*
X86015741Y-58606686D01*
X85230027Y-58606827D01*
X84102502Y-24464170D02*
X84112502Y-80464170D01*
X73852500Y-24466000D02*
X84688923Y-24464065D01*
X73862500Y-80466000D02*
X84698923Y-80464065D01*
X84112502Y-80464170D02*
X83525880Y-79337771D01*
X84112502Y-80464170D02*
X84698722Y-79337562D01*
X84102502Y-24464170D02*
X83516282Y-25590778D01*
X84102502Y-24464170D02*
X84689124Y-25590569D01*
X39481867Y-16459533D02*
X39196152Y-16459797D01*
X39053361Y-16531357D01*
X38981999Y-16602852D01*
X38839339Y-16817269D01*
X38768175Y-17103049D01*
X38768702Y-17674478D01*
X38840262Y-17817269D01*
X38911757Y-17888631D01*
X39054680Y-17959928D01*
X39340394Y-17959664D01*
X39483185Y-17888104D01*
X39554548Y-17816610D01*
X39625845Y-17673687D01*
X39625515Y-17316544D01*
X39553954Y-17173753D01*
X39482460Y-17102390D01*
X39339537Y-17031093D01*
X39053823Y-17031357D01*
X38911032Y-17102918D01*
X38839669Y-17174412D01*
X38768372Y-17317335D01*
X40981866Y-16458149D02*
X40267581Y-16458808D01*
X40196811Y-17173159D01*
X40268174Y-17101665D01*
X40410965Y-17030104D01*
X40768108Y-17029775D01*
X40911031Y-17101071D01*
X40982525Y-17172434D01*
X41054086Y-17315225D01*
X41054415Y-17672368D01*
X40983119Y-17815291D01*
X40911756Y-17886785D01*
X40768965Y-17958346D01*
X40411822Y-17958675D01*
X40268899Y-17887379D01*
X40197405Y-17816016D01*
X41697404Y-17814632D02*
X41768899Y-17885994D01*
X41697536Y-17957489D01*
X41626042Y-17886126D01*
X41697404Y-17814632D01*
X41697536Y-17957489D01*
X42696151Y-16456566D02*
X42839008Y-16456434D01*
X42981931Y-16527731D01*
X43053426Y-16599094D01*
X43124986Y-16741885D01*
X43196678Y-17027533D01*
X43197008Y-17384676D01*
X43125843Y-17670456D01*
X43054546Y-17813379D01*
X42983184Y-17884873D01*
X42840393Y-17956434D01*
X42697536Y-17956566D01*
X42554613Y-17885269D01*
X42483118Y-17813906D01*
X42411558Y-17671115D01*
X42339865Y-17385467D01*
X42339536Y-17028324D01*
X42410701Y-16742544D01*
X42481997Y-16599621D01*
X42553360Y-16528127D01*
X42696151Y-16456566D01*
X44124722Y-16455247D02*
X44267579Y-16455116D01*
X44410502Y-16526412D01*
X44481996Y-16597775D01*
X44553557Y-16740566D01*
X44625249Y-17026214D01*
X44625579Y-17383357D01*
X44554414Y-17669137D01*
X44483117Y-17812060D01*
X44411755Y-17883555D01*
X44268963Y-17955115D01*
X44126106Y-17955247D01*
X43983183Y-17883950D01*
X43911689Y-17812588D01*
X43840128Y-17669796D01*
X43768436Y-17384148D01*
X43768107Y-17027005D01*
X43839271Y-16741225D01*
X43910568Y-16598302D01*
X43981931Y-16526808D01*
X44124722Y-16455247D01*
X45553293Y-16453929D02*
X45696150Y-16453797D01*
X45839073Y-16525094D01*
X45910567Y-16596456D01*
X45982128Y-16739247D01*
X46053820Y-17024896D01*
X46054150Y-17382038D01*
X45982985Y-17667818D01*
X45911688Y-17810741D01*
X45840325Y-17882236D01*
X45697534Y-17953796D01*
X45554677Y-17953928D01*
X45411754Y-17882631D01*
X45340260Y-17811269D01*
X45268699Y-17668478D01*
X45197007Y-17382830D01*
X45196677Y-17025687D01*
X45267842Y-16739907D01*
X45339139Y-16596984D01*
X45410501Y-16525489D01*
X45553293Y-16453929D01*
X47840391Y-17951818D02*
X47839467Y-16951819D01*
X47839599Y-17094676D02*
X47910962Y-17023181D01*
X48053753Y-16951621D01*
X48268039Y-16951423D01*
X48410962Y-17022720D01*
X48482522Y-17165511D01*
X48483247Y-17951225D01*
X48482522Y-17165511D02*
X48553819Y-17022588D01*
X48696610Y-16951027D01*
X48910896Y-16950830D01*
X49053819Y-17022126D01*
X49125379Y-17164918D01*
X49126104Y-17950631D01*
X49840390Y-17949972D02*
X49839467Y-16949973D01*
X49839598Y-17092830D02*
X49910961Y-17021335D01*
X50053752Y-16949775D01*
X50268038Y-16949577D01*
X50410961Y-17020874D01*
X50482521Y-17163665D01*
X50483247Y-17949379D01*
X50482521Y-17163665D02*
X50553818Y-17020742D01*
X50696609Y-16949181D01*
X50910895Y-16948984D01*
X51053818Y-17020280D01*
X51125378Y-17163071D01*
X51126103Y-17948785D01*
X12484285Y-19105884D02*
X77484285Y-19045884D01*
X12492500Y-28006000D02*
X12483743Y-18519463D01*
X77492500Y-27946000D02*
X77483743Y-18459463D01*
X77484285Y-19045884D02*
X76358323Y-19633344D01*
X77484285Y-19045884D02*
X76357240Y-18460503D01*
X12484285Y-19105884D02*
X13611330Y-19691265D01*
X12484285Y-19105884D02*
X13610247Y-18518424D01*
D11*
X32330000Y-40640000D02*
X32330000Y-36830000D01*
X32330000Y-36830000D02*
X47570000Y-36830000D01*
X47570000Y-36830000D02*
X47570000Y-41910000D01*
X47570000Y-41910000D02*
X33600000Y-41910000D01*
X33600000Y-41910000D02*
X32330000Y-40640000D01*
D10*
X65412500Y-39566000D02*
X65412500Y-35266000D01*
X65412500Y-35266000D02*
X71612500Y-35266000D01*
X71612500Y-35266000D02*
X71612500Y-40566000D01*
X71612500Y-40566000D02*
X66412500Y-40566000D01*
X66412500Y-40566000D02*
X65412500Y-39566000D01*
X77100000Y-77000000D02*
G75*
G03X77100000Y-77000000I-3100000J0D01*
G01*
X75375000Y-77000000D02*
G75*
G03X75375000Y-77000000I-1375000J0D01*
G01*
X19100000Y-77000000D02*
G75*
G03X19100000Y-77000000I-3100000J0D01*
G01*
X17375000Y-77000000D02*
G75*
G03X17375000Y-77000000I-1375000J0D01*
G01*
D11*
X28800000Y-62700000D02*
X28800000Y-61100000D01*
X29600000Y-62700000D02*
X28800000Y-62700000D01*
X29600000Y-61100000D02*
X29600000Y-62700000D01*
X28800000Y-61100000D02*
X29600000Y-61100000D01*
X75917500Y-67378000D02*
X73825500Y-69471000D01*
X76100500Y-67561000D02*
X74008500Y-69654000D01*
X72417500Y-67378000D02*
X70325500Y-69471000D01*
X72600500Y-67561000D02*
X70508500Y-69654000D01*
X68917500Y-67378000D02*
X66825500Y-69471000D01*
X69100500Y-67561000D02*
X67008500Y-69654000D01*
X65417500Y-67378000D02*
X63324500Y-69471000D01*
X65600500Y-67561000D02*
X63507500Y-69654000D01*
X62712500Y-71516000D02*
X76712500Y-71516000D01*
X62712500Y-72616000D02*
X76712500Y-72616000D01*
X62712500Y-72616000D02*
X62712500Y-65416000D01*
X63112500Y-73016000D02*
X62712500Y-72616000D01*
X76712500Y-73016000D02*
X63112500Y-73016000D01*
X76712500Y-65416000D02*
X76712500Y-73016000D01*
X62712500Y-65416000D02*
X76712500Y-65416000D01*
X76462500Y-68516000D02*
G75*
G03X76462500Y-68516000I-1500000J0D01*
G01*
X72962500Y-68516000D02*
G75*
G03X72962500Y-68516000I-1500000J0D01*
G01*
X69462500Y-68516000D02*
G75*
G03X69462500Y-68516000I-1500000J0D01*
G01*
X65962500Y-68516000D02*
G75*
G03X65962500Y-68516000I-1500000J0D01*
G01*
X55762500Y-38066000D02*
X52837500Y-38066000D01*
X52837500Y-38066000D02*
X52837500Y-33166000D01*
X52837500Y-33166000D02*
X56737500Y-33166000D01*
X56737500Y-33166000D02*
X56737500Y-37091000D01*
X56737500Y-37091000D02*
X55762500Y-38066000D01*
X59217500Y-67358000D02*
X57125500Y-69451000D01*
X59400500Y-67541000D02*
X57308500Y-69634000D01*
X55717500Y-67358000D02*
X53625500Y-69451000D01*
X55900500Y-67541000D02*
X53808500Y-69634000D01*
X52217500Y-67358000D02*
X50124500Y-69451000D01*
X52400500Y-67541000D02*
X50307500Y-69634000D01*
X49512500Y-71496000D02*
X60012500Y-71496000D01*
X49512500Y-72596000D02*
X60012500Y-72596000D01*
X49512500Y-72596000D02*
X49512500Y-65396000D01*
X49912500Y-72996000D02*
X49512500Y-72596000D01*
X60012500Y-72996000D02*
X49912500Y-72996000D01*
X60012500Y-65396000D02*
X60012500Y-72996000D01*
X49512500Y-65396000D02*
X60012500Y-65396000D01*
X59762500Y-68496000D02*
G75*
G03X59762500Y-68496000I-1500000J0D01*
G01*
X56262500Y-68496000D02*
G75*
G03X56262500Y-68496000I-1500000J0D01*
G01*
X52762500Y-68496000D02*
G75*
G03X52762500Y-68496000I-1500000J0D01*
G01*
X47717500Y-67378000D02*
X45625500Y-69471000D01*
X47900500Y-67561000D02*
X45808500Y-69654000D01*
X44217500Y-67378000D02*
X42124500Y-69471000D01*
X44400500Y-67561000D02*
X42307500Y-69654000D01*
X41512500Y-71516000D02*
X48512500Y-71516000D01*
X41512500Y-72616000D02*
X48512500Y-72616000D01*
X41512500Y-72616000D02*
X41512500Y-65416000D01*
X41912500Y-73016000D02*
X41512500Y-72616000D01*
X48512500Y-73016000D02*
X41912500Y-73016000D01*
X48512500Y-65416000D02*
X48512500Y-73016000D01*
X41512500Y-65416000D02*
X48512500Y-65416000D01*
X48262500Y-68516000D02*
G75*
G03X48262500Y-68516000I-1500000J0D01*
G01*
X44762500Y-68516000D02*
G75*
G03X44762500Y-68516000I-1500000J0D01*
G01*
X39717500Y-67378000D02*
X37625500Y-69471000D01*
X39900500Y-67561000D02*
X37808500Y-69654000D01*
X36217500Y-67378000D02*
X34124500Y-69471000D01*
X36400500Y-67561000D02*
X34307500Y-69654000D01*
X33512500Y-71516000D02*
X40512500Y-71516000D01*
X33512500Y-72616000D02*
X40512500Y-72616000D01*
X33512500Y-72616000D02*
X33512500Y-65416000D01*
X33912500Y-73016000D02*
X33512500Y-72616000D01*
X40512500Y-73016000D02*
X33912500Y-73016000D01*
X40512500Y-65416000D02*
X40512500Y-73016000D01*
X33512500Y-65416000D02*
X40512500Y-65416000D01*
X40262500Y-68516000D02*
G75*
G03X40262500Y-68516000I-1500000J0D01*
G01*
X36762500Y-68516000D02*
G75*
G03X36762500Y-68516000I-1500000J0D01*
G01*
X31717500Y-67378000D02*
X29625500Y-69471000D01*
X31900500Y-67561000D02*
X29808500Y-69654000D01*
X28217500Y-67378000D02*
X26124500Y-69471000D01*
X28400500Y-67561000D02*
X26307500Y-69654000D01*
X25512500Y-71516000D02*
X32512500Y-71516000D01*
X25512500Y-72616000D02*
X32512500Y-72616000D01*
X25512500Y-72616000D02*
X25512500Y-65416000D01*
X25912500Y-73016000D02*
X25512500Y-72616000D01*
X32512500Y-73016000D02*
X25912500Y-73016000D01*
X32512500Y-65416000D02*
X32512500Y-73016000D01*
X25512500Y-65416000D02*
X32512500Y-65416000D01*
X32262500Y-68516000D02*
G75*
G03X32262500Y-68516000I-1500000J0D01*
G01*
X28762500Y-68516000D02*
G75*
G03X28762500Y-68516000I-1500000J0D01*
G01*
X23717500Y-67378000D02*
X21625500Y-69471000D01*
X23900500Y-67561000D02*
X21808500Y-69654000D01*
X20217500Y-67378000D02*
X18124500Y-69471000D01*
X20400500Y-67561000D02*
X18307500Y-69654000D01*
X17512500Y-71516000D02*
X24512500Y-71516000D01*
X17512500Y-72616000D02*
X24512500Y-72616000D01*
X17512500Y-72616000D02*
X17512500Y-65416000D01*
X17912500Y-73016000D02*
X17512500Y-72616000D01*
X24512500Y-73016000D02*
X17912500Y-73016000D01*
X24512500Y-65416000D02*
X24512500Y-73016000D01*
X17512500Y-65416000D02*
X24512500Y-65416000D01*
X24262500Y-68516000D02*
G75*
G03X24262500Y-68516000I-1500000J0D01*
G01*
X20762500Y-68516000D02*
G75*
G03X20762500Y-68516000I-1500000J0D01*
G01*
X14500000Y-32600000D02*
X16500000Y-32600000D01*
X14500000Y-33800000D02*
X14500000Y-32600000D01*
X16500000Y-33800000D02*
X14500000Y-33800000D01*
X16500000Y-32600000D02*
X16500000Y-33800000D01*
X27512500Y-61416000D02*
X25062500Y-61416000D01*
X28082500Y-61966000D02*
X28082500Y-62816000D01*
X27512500Y-61416000D02*
X28082500Y-61966000D01*
X28082500Y-62816000D02*
X25042500Y-62816000D01*
X25042500Y-61416000D02*
X25042500Y-62816000D01*
D10*
X17375000Y-51000000D02*
G75*
G03X17375000Y-51000000I-1375000J0D01*
G01*
X19100000Y-51000000D02*
G75*
G03X19100000Y-51000000I-3100000J0D01*
G01*
X75375000Y-28000000D02*
G75*
G03X75375000Y-28000000I-1375000J0D01*
G01*
X77100000Y-28000000D02*
G75*
G03X77100000Y-28000000I-3100000J0D01*
G01*
X75375000Y-51000000D02*
G75*
G03X75375000Y-51000000I-1375000J0D01*
G01*
X77100000Y-51000000D02*
G75*
G03X77100000Y-51000000I-3100000J0D01*
G01*
X17375000Y-28000000D02*
G75*
G03X17375000Y-28000000I-1375000J0D01*
G01*
X19100000Y-28000000D02*
G75*
G03X19100000Y-28000000I-3100000J0D01*
G01*
D11*
X29200000Y-56550000D02*
X30800000Y-56550000D01*
X29200000Y-57350000D02*
X29200000Y-56550000D01*
X30800000Y-57350000D02*
X29200000Y-57350000D01*
X30800000Y-56550000D02*
X30800000Y-57350000D01*
X27350000Y-58178000D02*
X27350000Y-58978000D01*
X27350000Y-58978000D02*
X25750000Y-58978000D01*
X25750000Y-58978000D02*
X25750000Y-58178000D01*
X25750000Y-58178000D02*
X27350000Y-58178000D01*
X37787500Y-46366000D02*
X37787500Y-44766000D01*
X38587500Y-46366000D02*
X37787500Y-46366000D01*
X38587500Y-44766000D02*
X38587500Y-46366000D01*
X37787500Y-44766000D02*
X38587500Y-44766000D01*
X39700000Y-56300000D02*
X41300000Y-56300000D01*
X39700000Y-57100000D02*
X39700000Y-56300000D01*
X41300000Y-57100000D02*
X39700000Y-57100000D01*
X41300000Y-56300000D02*
X41300000Y-57100000D01*
X37260000Y-57928000D02*
X37260000Y-58728000D01*
X37260000Y-58728000D02*
X35660000Y-58728000D01*
X35660000Y-58728000D02*
X35660000Y-57928000D01*
X35660000Y-57928000D02*
X37260000Y-57928000D01*
X50187500Y-56491000D02*
X51787500Y-56491000D01*
X50187500Y-57291000D02*
X50187500Y-56491000D01*
X51787500Y-57291000D02*
X50187500Y-57291000D01*
X51787500Y-56491000D02*
X51787500Y-57291000D01*
X47920000Y-57928000D02*
X47920000Y-58728000D01*
X47920000Y-58728000D02*
X46320000Y-58728000D01*
X46320000Y-58728000D02*
X46320000Y-57928000D01*
X46320000Y-57928000D02*
X47920000Y-57928000D01*
X30800000Y-59000000D02*
X29200000Y-59000000D01*
X30800000Y-58200000D02*
X30800000Y-59000000D01*
X29200000Y-58200000D02*
X30800000Y-58200000D01*
X29200000Y-59000000D02*
X29200000Y-58200000D01*
X39700000Y-58710000D02*
X39700000Y-57910000D01*
X39700000Y-57910000D02*
X41300000Y-57910000D01*
X41300000Y-57910000D02*
X41300000Y-58710000D01*
X41300000Y-58710000D02*
X39700000Y-58710000D01*
X51800000Y-58850000D02*
X50200000Y-58850000D01*
X51800000Y-58050000D02*
X51800000Y-58850000D01*
X50200000Y-58050000D02*
X51800000Y-58050000D01*
X50200000Y-58850000D02*
X50200000Y-58050000D01*
X28862500Y-44716000D02*
X28862500Y-42716000D01*
X30062500Y-44716000D02*
X28862500Y-44716000D01*
X30062500Y-42716000D02*
X30062500Y-44716000D01*
X28862500Y-42716000D02*
X30062500Y-42716000D01*
X21172500Y-43766000D02*
X22372500Y-43766000D01*
X22372500Y-43766000D02*
X22372500Y-45766000D01*
X22372500Y-45766000D02*
X21172500Y-45766000D01*
X21172500Y-45766000D02*
X21172500Y-43766000D01*
X57712500Y-56541000D02*
X57712500Y-57341000D01*
X57712500Y-57341000D02*
X56112500Y-57341000D01*
X56112500Y-57341000D02*
X56112500Y-56541000D01*
X56112500Y-56541000D02*
X57712500Y-56541000D01*
D10*
X25685000Y-54625000D02*
X25685000Y-51625000D01*
X25685000Y-51625000D02*
X28685000Y-51625000D01*
X28685000Y-51625000D02*
X28685000Y-55625000D01*
X28685000Y-55625000D02*
X26685000Y-55625000D01*
X26685000Y-55625000D02*
X25685000Y-54625000D01*
D11*
X36047500Y-47701000D02*
X36047500Y-44201000D01*
X36051125Y-44177375D02*
G75*
G03X31817500Y-45931000I-1753625J-1753625D01*
G01*
X36051125Y-47684625D02*
G75*
G02X31817500Y-45931000I-1753625J1753625D01*
G01*
D10*
X36595000Y-55375000D02*
X35595000Y-54375000D01*
X38595000Y-55375000D02*
X36595000Y-55375000D01*
X38595000Y-51375000D02*
X38595000Y-55375000D01*
X35595000Y-51375000D02*
X38595000Y-51375000D01*
X35595000Y-54375000D02*
X35595000Y-51375000D01*
X46255000Y-54370000D02*
X46255000Y-51370000D01*
X46255000Y-51370000D02*
X49255000Y-51370000D01*
X49255000Y-51370000D02*
X49255000Y-55370000D01*
X49255000Y-55370000D02*
X47255000Y-55370000D01*
X47255000Y-55370000D02*
X46255000Y-54370000D01*
D11*
X24092500Y-45519800D02*
X23302500Y-44729800D01*
X23302500Y-42919800D02*
X27902500Y-42919800D01*
X27902500Y-42919800D02*
X27902500Y-45519800D01*
X27902500Y-45519800D02*
X24092500Y-45519800D01*
X23302500Y-44729800D02*
X23302500Y-42919800D01*
X23500000Y-61100000D02*
X24300000Y-61100000D01*
X24300000Y-61100000D02*
X24300000Y-62700000D01*
X24300000Y-62700000D02*
X23500000Y-62700000D01*
X23500000Y-62700000D02*
X23500000Y-61100000D01*
X38600000Y-62100000D02*
X38600000Y-60500000D01*
X39400000Y-62100000D02*
X38600000Y-62100000D01*
X39400000Y-60500000D02*
X39400000Y-62100000D01*
X38600000Y-60500000D02*
X39400000Y-60500000D01*
X33300000Y-60500000D02*
X34100000Y-60500000D01*
X34100000Y-60500000D02*
X34100000Y-62100000D01*
X34100000Y-62100000D02*
X33300000Y-62100000D01*
X33300000Y-62100000D02*
X33300000Y-60500000D01*
X49250000Y-62000000D02*
X49250000Y-60400000D01*
X50050000Y-62000000D02*
X49250000Y-62000000D01*
X50050000Y-60400000D02*
X50050000Y-62000000D01*
X49250000Y-60400000D02*
X50050000Y-60400000D01*
X44000000Y-60387500D02*
X44800000Y-60387500D01*
X44800000Y-60387500D02*
X44800000Y-61987500D01*
X44800000Y-61987500D02*
X44000000Y-61987500D01*
X44000000Y-61987500D02*
X44000000Y-60387500D01*
X37310000Y-60814000D02*
X34860000Y-60814000D01*
X37880000Y-61364000D02*
X37880000Y-62214000D01*
X37310000Y-60814000D02*
X37880000Y-61364000D01*
X37880000Y-62214000D02*
X34840000Y-62214000D01*
X34840000Y-60814000D02*
X34840000Y-62214000D01*
X45500000Y-60714000D02*
X45500000Y-62114000D01*
X48540000Y-62114000D02*
X45500000Y-62114000D01*
X47970000Y-60714000D02*
X48540000Y-61264000D01*
X48540000Y-61264000D02*
X48540000Y-62114000D01*
X47970000Y-60714000D02*
X45520000Y-60714000D01*
X73712500Y-34816000D02*
X74512500Y-34816000D01*
X74512500Y-34816000D02*
X74512500Y-36416000D01*
X74512500Y-36416000D02*
X73712500Y-36416000D01*
X73712500Y-36416000D02*
X73712500Y-34816000D01*
X70312500Y-44516000D02*
X68712500Y-44516000D01*
X70312500Y-43716000D02*
X70312500Y-44516000D01*
X68712500Y-43716000D02*
X70312500Y-43716000D01*
X68712500Y-44516000D02*
X68712500Y-43716000D01*
X65600000Y-44316000D02*
X66400000Y-44316000D01*
X66400000Y-44316000D02*
X66400000Y-45916000D01*
X66400000Y-45916000D02*
X65600000Y-45916000D01*
X65600000Y-45916000D02*
X65600000Y-44316000D01*
X74512500Y-39116000D02*
X74512500Y-40716000D01*
X73712500Y-39116000D02*
X74512500Y-39116000D01*
X73712500Y-40716000D02*
X73712500Y-39116000D01*
X74512500Y-40716000D02*
X73712500Y-40716000D01*
X57792500Y-41346000D02*
X57792500Y-39746000D01*
X58592500Y-41346000D02*
X57792500Y-41346000D01*
X58592500Y-39746000D02*
X58592500Y-41346000D01*
X57792500Y-39746000D02*
X58592500Y-39746000D01*
X50262500Y-39816000D02*
X51062500Y-39816000D01*
X51062500Y-39816000D02*
X51062500Y-41416000D01*
X51062500Y-41416000D02*
X50262500Y-41416000D01*
X50262500Y-41416000D02*
X50262500Y-39816000D01*
X55662500Y-63216000D02*
X54062500Y-63216000D01*
X54062500Y-63216000D02*
X54062500Y-60016000D01*
X54062500Y-60016000D02*
X55662500Y-60016000D01*
X55662500Y-60016000D02*
X55662500Y-63216000D01*
X64012500Y-60966000D02*
X64012500Y-59766000D01*
X64012500Y-59766000D02*
X66012500Y-59766000D01*
X66012500Y-59766000D02*
X66012500Y-60966000D01*
X66012500Y-60966000D02*
X64012500Y-60966000D01*
X66000000Y-52600000D02*
X64000000Y-52600000D01*
X66000000Y-51400000D02*
X66000000Y-52600000D01*
X64000000Y-51400000D02*
X66000000Y-51400000D01*
X64000000Y-52600000D02*
X64000000Y-51400000D01*
X67182500Y-57226000D02*
X66392500Y-58016000D01*
X64582500Y-58016000D02*
X64582500Y-53416000D01*
X64582500Y-53416000D02*
X67182500Y-53416000D01*
X67182500Y-53416000D02*
X67182500Y-57226000D01*
X66392500Y-58016000D02*
X64582500Y-58016000D01*
X19558000Y-38735000D02*
X19558000Y-36830000D01*
X19558000Y-36830000D02*
X29718000Y-36830000D01*
X29718000Y-36830000D02*
X29718000Y-39370000D01*
X29718000Y-39370000D02*
X20193000Y-39370000D01*
X20193000Y-39370000D02*
X19558000Y-38735000D01*
X33200000Y-34800000D02*
X33200000Y-33200000D01*
X34000000Y-34800000D02*
X33200000Y-34800000D01*
X34000000Y-33200000D02*
X34000000Y-34800000D01*
X33200000Y-33200000D02*
X34000000Y-33200000D01*
X38200000Y-34800000D02*
X38200000Y-33200000D01*
X39000000Y-34800000D02*
X38200000Y-34800000D01*
X39000000Y-33200000D02*
X39000000Y-34800000D01*
X38200000Y-33200000D02*
X39000000Y-33200000D01*
X43400000Y-34800000D02*
X43400000Y-33200000D01*
X44200000Y-34800000D02*
X43400000Y-34800000D01*
X44200000Y-33200000D02*
X44200000Y-34800000D01*
X43400000Y-33200000D02*
X44200000Y-33200000D01*
X35800000Y-33200000D02*
X36600000Y-33200000D01*
X36600000Y-33200000D02*
X36600000Y-34800000D01*
X36600000Y-34800000D02*
X35800000Y-34800000D01*
X35800000Y-34800000D02*
X35800000Y-33200000D01*
X40800000Y-33200000D02*
X41600000Y-33200000D01*
X41600000Y-33200000D02*
X41600000Y-34800000D01*
X41600000Y-34800000D02*
X40800000Y-34800000D01*
X40800000Y-34800000D02*
X40800000Y-33200000D01*
X45800000Y-33200000D02*
X46600000Y-33200000D01*
X46600000Y-33200000D02*
X46600000Y-34800000D01*
X46600000Y-34800000D02*
X45800000Y-34800000D01*
X45800000Y-34800000D02*
X45800000Y-33200000D01*
X29400000Y-33100000D02*
X29400000Y-34700000D01*
X28600000Y-33100000D02*
X29400000Y-33100000D01*
X28600000Y-34700000D02*
X28600000Y-33100000D01*
X29400000Y-34700000D02*
X28600000Y-34700000D01*
X24500000Y-31700000D02*
X24500000Y-32500000D01*
X24500000Y-32500000D02*
X22900000Y-32500000D01*
X22900000Y-32500000D02*
X22900000Y-31700000D01*
X22900000Y-31700000D02*
X24500000Y-31700000D01*
X64200000Y-63950000D02*
X65500000Y-63950000D01*
X65500000Y-63950000D02*
X65800000Y-63650000D01*
X65800000Y-63650000D02*
X65800000Y-63150000D01*
X65800000Y-63150000D02*
X64200000Y-63150000D01*
X64200000Y-63150000D02*
X64200000Y-63950000D01*
X65812500Y-49900000D02*
X64212500Y-49900000D01*
X65812500Y-49100000D02*
X65812500Y-49900000D01*
X64212500Y-49100000D02*
X65812500Y-49100000D01*
X64212500Y-49900000D02*
X64212500Y-49100000D01*
X22700000Y-49900000D02*
X22700000Y-49100000D01*
X22700000Y-49100000D02*
X24300000Y-49100000D01*
X24300000Y-49100000D02*
X24300000Y-49900000D01*
X24300000Y-49900000D02*
X22700000Y-49900000D01*
X62600000Y-42550000D02*
X63400000Y-42550000D01*
X62600000Y-40950000D02*
X62600000Y-42550000D01*
X63100000Y-40950000D02*
X62600000Y-40950000D01*
X63400000Y-41250000D02*
X63100000Y-40950000D01*
X63400000Y-42550000D02*
X63400000Y-41250000D01*
X21100000Y-52700000D02*
X21100000Y-54000000D01*
X21100000Y-54000000D02*
X21400000Y-54300000D01*
X21400000Y-54300000D02*
X21900000Y-54300000D01*
X21900000Y-54300000D02*
X21900000Y-52700000D01*
X21900000Y-52700000D02*
X21100000Y-52700000D01*
D10*
X39616666Y-38822380D02*
X39616666Y-39536666D01*
X39569047Y-39679523D01*
X39473809Y-39774761D01*
X39330952Y-39822380D01*
X39235714Y-39822380D01*
X40235714Y-39250952D02*
X40140476Y-39203333D01*
X40092857Y-39155714D01*
X40045238Y-39060476D01*
X40045238Y-39012857D01*
X40092857Y-38917619D01*
X40140476Y-38870000D01*
X40235714Y-38822380D01*
X40426190Y-38822380D01*
X40521428Y-38870000D01*
X40569047Y-38917619D01*
X40616666Y-39012857D01*
X40616666Y-39060476D01*
X40569047Y-39155714D01*
X40521428Y-39203333D01*
X40426190Y-39250952D01*
X40235714Y-39250952D01*
X40140476Y-39298571D01*
X40092857Y-39346190D01*
X40045238Y-39441428D01*
X40045238Y-39631904D01*
X40092857Y-39727142D01*
X40140476Y-39774761D01*
X40235714Y-39822380D01*
X40426190Y-39822380D01*
X40521428Y-39774761D01*
X40569047Y-39727142D01*
X40616666Y-39631904D01*
X40616666Y-39441428D01*
X40569047Y-39346190D01*
X40521428Y-39298571D01*
X40426190Y-39250952D01*
X68074404Y-38525523D02*
X68722023Y-38525523D01*
X68798214Y-38487428D01*
X68836309Y-38449333D01*
X68874404Y-38373142D01*
X68874404Y-38220761D01*
X68836309Y-38144571D01*
X68798214Y-38106476D01*
X68722023Y-38068380D01*
X68074404Y-38068380D01*
X68074404Y-37344571D02*
X68074404Y-37496952D01*
X68112500Y-37573142D01*
X68150595Y-37611238D01*
X68264880Y-37687428D01*
X68417261Y-37725523D01*
X68722023Y-37725523D01*
X68798214Y-37687428D01*
X68836309Y-37649333D01*
X68874404Y-37573142D01*
X68874404Y-37420761D01*
X68836309Y-37344571D01*
X68798214Y-37306476D01*
X68722023Y-37268380D01*
X68531547Y-37268380D01*
X68455357Y-37306476D01*
X68417261Y-37344571D01*
X68379166Y-37420761D01*
X68379166Y-37573142D01*
X68417261Y-37649333D01*
X68455357Y-37687428D01*
X68531547Y-37725523D01*
D12*
X29171428Y-62233333D02*
X29171428Y-62366666D01*
X29380952Y-62366666D02*
X28980952Y-62366666D01*
X28980952Y-62176190D01*
X29171428Y-61890476D02*
X29190476Y-61833333D01*
X29209523Y-61814285D01*
X29247619Y-61795238D01*
X29304761Y-61795238D01*
X29342857Y-61814285D01*
X29361904Y-61833333D01*
X29380952Y-61871428D01*
X29380952Y-62023809D01*
X28980952Y-62023809D01*
X28980952Y-61890476D01*
X29000000Y-61852380D01*
X29019047Y-61833333D01*
X29057142Y-61814285D01*
X29095238Y-61814285D01*
X29133333Y-61833333D01*
X29152380Y-61852380D01*
X29171428Y-61890476D01*
X29171428Y-62023809D01*
X29380952Y-61414285D02*
X29380952Y-61642857D01*
X29380952Y-61528571D02*
X28980952Y-61528571D01*
X29038095Y-61566666D01*
X29076190Y-61604761D01*
X29095238Y-61642857D01*
D10*
X69379166Y-70368380D02*
X69379166Y-71082666D01*
X69331547Y-71225523D01*
X69236309Y-71320761D01*
X69093452Y-71368380D01*
X68998214Y-71368380D01*
X69760119Y-70368380D02*
X70426785Y-70368380D01*
X69998214Y-71368380D01*
X54040833Y-35079333D02*
X54040833Y-35872666D01*
X54087500Y-35966000D01*
X54134166Y-36012666D01*
X54227500Y-36059333D01*
X54414166Y-36059333D01*
X54507500Y-36012666D01*
X54554166Y-35966000D01*
X54600833Y-35872666D01*
X54600833Y-35079333D01*
X54974166Y-35079333D02*
X55627500Y-35079333D01*
X55207500Y-36059333D01*
X54429166Y-70348380D02*
X54429166Y-71062666D01*
X54381547Y-71205523D01*
X54286309Y-71300761D01*
X54143452Y-71348380D01*
X54048214Y-71348380D01*
X55333928Y-70348380D02*
X55143452Y-70348380D01*
X55048214Y-70396000D01*
X55000595Y-70443619D01*
X54905357Y-70586476D01*
X54857738Y-70776952D01*
X54857738Y-71157904D01*
X54905357Y-71253142D01*
X54952976Y-71300761D01*
X55048214Y-71348380D01*
X55238690Y-71348380D01*
X55333928Y-71300761D01*
X55381547Y-71253142D01*
X55429166Y-71157904D01*
X55429166Y-70919809D01*
X55381547Y-70824571D01*
X55333928Y-70776952D01*
X55238690Y-70729333D01*
X55048214Y-70729333D01*
X54952976Y-70776952D01*
X54905357Y-70824571D01*
X54857738Y-70919809D01*
X44679166Y-70368380D02*
X44679166Y-71082666D01*
X44631547Y-71225523D01*
X44536309Y-71320761D01*
X44393452Y-71368380D01*
X44298214Y-71368380D01*
X45631547Y-70368380D02*
X45155357Y-70368380D01*
X45107738Y-70844571D01*
X45155357Y-70796952D01*
X45250595Y-70749333D01*
X45488690Y-70749333D01*
X45583928Y-70796952D01*
X45631547Y-70844571D01*
X45679166Y-70939809D01*
X45679166Y-71177904D01*
X45631547Y-71273142D01*
X45583928Y-71320761D01*
X45488690Y-71368380D01*
X45250595Y-71368380D01*
X45155357Y-71320761D01*
X45107738Y-71273142D01*
X36679166Y-70368380D02*
X36679166Y-71082666D01*
X36631547Y-71225523D01*
X36536309Y-71320761D01*
X36393452Y-71368380D01*
X36298214Y-71368380D01*
X37583928Y-70701714D02*
X37583928Y-71368380D01*
X37345833Y-70320761D02*
X37107738Y-71035047D01*
X37726785Y-71035047D01*
X28679166Y-70368380D02*
X28679166Y-71082666D01*
X28631547Y-71225523D01*
X28536309Y-71320761D01*
X28393452Y-71368380D01*
X28298214Y-71368380D01*
X29060119Y-70368380D02*
X29679166Y-70368380D01*
X29345833Y-70749333D01*
X29488690Y-70749333D01*
X29583928Y-70796952D01*
X29631547Y-70844571D01*
X29679166Y-70939809D01*
X29679166Y-71177904D01*
X29631547Y-71273142D01*
X29583928Y-71320761D01*
X29488690Y-71368380D01*
X29202976Y-71368380D01*
X29107738Y-71320761D01*
X29060119Y-71273142D01*
X20679166Y-70368380D02*
X20679166Y-71082666D01*
X20631547Y-71225523D01*
X20536309Y-71320761D01*
X20393452Y-71368380D01*
X20298214Y-71368380D01*
X21679166Y-71368380D02*
X21107738Y-71368380D01*
X21393452Y-71368380D02*
X21393452Y-70368380D01*
X21298214Y-70511238D01*
X21202976Y-70606476D01*
X21107738Y-70654095D01*
X15233333Y-33557142D02*
X15185714Y-33604761D01*
X15042857Y-33652380D01*
X14947619Y-33652380D01*
X14804761Y-33604761D01*
X14709523Y-33509523D01*
X14661904Y-33414285D01*
X14614285Y-33223809D01*
X14614285Y-33080952D01*
X14661904Y-32890476D01*
X14709523Y-32795238D01*
X14804761Y-32700000D01*
X14947619Y-32652380D01*
X15042857Y-32652380D01*
X15185714Y-32700000D01*
X15233333Y-32747619D01*
X16090476Y-32985714D02*
X16090476Y-33652380D01*
X15852380Y-32604761D02*
X15614285Y-33319047D01*
X16233333Y-33319047D01*
D13*
X26193452Y-62342190D02*
X26193452Y-61842190D01*
X26312500Y-61842190D01*
X26383928Y-61866000D01*
X26431547Y-61913619D01*
X26455357Y-61961238D01*
X26479166Y-62056476D01*
X26479166Y-62127904D01*
X26455357Y-62223142D01*
X26431547Y-62270761D01*
X26383928Y-62318380D01*
X26312500Y-62342190D01*
X26193452Y-62342190D01*
X26955357Y-62342190D02*
X26669642Y-62342190D01*
X26812500Y-62342190D02*
X26812500Y-61842190D01*
X26764880Y-61913619D01*
X26717261Y-61961238D01*
X26669642Y-61985047D01*
D10*
X29819642Y-43882666D02*
X29867261Y-43930285D01*
X29914880Y-44073142D01*
X29914880Y-44168380D01*
X29867261Y-44311238D01*
X29772023Y-44406476D01*
X29676785Y-44454095D01*
X29486309Y-44501714D01*
X29343452Y-44501714D01*
X29152976Y-44454095D01*
X29057738Y-44406476D01*
X28962500Y-44311238D01*
X28914880Y-44168380D01*
X28914880Y-44073142D01*
X28962500Y-43930285D01*
X29010119Y-43882666D01*
X29010119Y-43501714D02*
X28962500Y-43454095D01*
X28914880Y-43358857D01*
X28914880Y-43120761D01*
X28962500Y-43025523D01*
X29010119Y-42977904D01*
X29105357Y-42930285D01*
X29200595Y-42930285D01*
X29343452Y-42977904D01*
X29914880Y-43549333D01*
X29914880Y-42930285D01*
X22129642Y-44932666D02*
X22177261Y-44980285D01*
X22224880Y-45123142D01*
X22224880Y-45218380D01*
X22177261Y-45361238D01*
X22082023Y-45456476D01*
X21986785Y-45504095D01*
X21796309Y-45551714D01*
X21653452Y-45551714D01*
X21462976Y-45504095D01*
X21367738Y-45456476D01*
X21272500Y-45361238D01*
X21224880Y-45218380D01*
X21224880Y-45123142D01*
X21272500Y-44980285D01*
X21320119Y-44932666D01*
X22224880Y-43980285D02*
X22224880Y-44551714D01*
X22224880Y-44266000D02*
X21224880Y-44266000D01*
X21367738Y-44361238D01*
X21462976Y-44456476D01*
X21510595Y-44551714D01*
X24840595Y-43672180D02*
X24840595Y-44481704D01*
X24888214Y-44576942D01*
X24935833Y-44624561D01*
X25031071Y-44672180D01*
X25221547Y-44672180D01*
X25316785Y-44624561D01*
X25364404Y-44576942D01*
X25412023Y-44481704D01*
X25412023Y-43672180D01*
X26412023Y-44672180D02*
X25840595Y-44672180D01*
X26126309Y-44672180D02*
X26126309Y-43672180D01*
X26031071Y-43815038D01*
X25935833Y-43910276D01*
X25840595Y-43957895D01*
D12*
X23871428Y-62233333D02*
X23871428Y-62366666D01*
X24080952Y-62366666D02*
X23680952Y-62366666D01*
X23680952Y-62176190D01*
X23871428Y-61890476D02*
X23890476Y-61833333D01*
X23909523Y-61814285D01*
X23947619Y-61795238D01*
X24004761Y-61795238D01*
X24042857Y-61814285D01*
X24061904Y-61833333D01*
X24080952Y-61871428D01*
X24080952Y-62023809D01*
X23680952Y-62023809D01*
X23680952Y-61890476D01*
X23700000Y-61852380D01*
X23719047Y-61833333D01*
X23757142Y-61814285D01*
X23795238Y-61814285D01*
X23833333Y-61833333D01*
X23852380Y-61852380D01*
X23871428Y-61890476D01*
X23871428Y-62023809D01*
X23719047Y-61642857D02*
X23700000Y-61623809D01*
X23680952Y-61585714D01*
X23680952Y-61490476D01*
X23700000Y-61452380D01*
X23719047Y-61433333D01*
X23757142Y-61414285D01*
X23795238Y-61414285D01*
X23852380Y-61433333D01*
X24080952Y-61661904D01*
X24080952Y-61414285D01*
D13*
X35990952Y-61740190D02*
X35990952Y-61240190D01*
X36110000Y-61240190D01*
X36181428Y-61264000D01*
X36229047Y-61311619D01*
X36252857Y-61359238D01*
X36276666Y-61454476D01*
X36276666Y-61525904D01*
X36252857Y-61621142D01*
X36229047Y-61668761D01*
X36181428Y-61716380D01*
X36110000Y-61740190D01*
X35990952Y-61740190D01*
X36467142Y-61287809D02*
X36490952Y-61264000D01*
X36538571Y-61240190D01*
X36657619Y-61240190D01*
X36705238Y-61264000D01*
X36729047Y-61287809D01*
X36752857Y-61335428D01*
X36752857Y-61383047D01*
X36729047Y-61454476D01*
X36443333Y-61740190D01*
X36752857Y-61740190D01*
X46650952Y-61640190D02*
X46650952Y-61140190D01*
X46770000Y-61140190D01*
X46841428Y-61164000D01*
X46889047Y-61211619D01*
X46912857Y-61259238D01*
X46936666Y-61354476D01*
X46936666Y-61425904D01*
X46912857Y-61521142D01*
X46889047Y-61568761D01*
X46841428Y-61616380D01*
X46770000Y-61640190D01*
X46650952Y-61640190D01*
X47103333Y-61140190D02*
X47412857Y-61140190D01*
X47246190Y-61330666D01*
X47317619Y-61330666D01*
X47365238Y-61354476D01*
X47389047Y-61378285D01*
X47412857Y-61425904D01*
X47412857Y-61544952D01*
X47389047Y-61592571D01*
X47365238Y-61616380D01*
X47317619Y-61640190D01*
X47174761Y-61640190D01*
X47127142Y-61616380D01*
X47103333Y-61592571D01*
D12*
X74255357Y-35873142D02*
X74274404Y-35892190D01*
X74293452Y-35949333D01*
X74293452Y-35987428D01*
X74274404Y-36044571D01*
X74236309Y-36082666D01*
X74198214Y-36101714D01*
X74122023Y-36120761D01*
X74064880Y-36120761D01*
X73988690Y-36101714D01*
X73950595Y-36082666D01*
X73912500Y-36044571D01*
X73893452Y-35987428D01*
X73893452Y-35949333D01*
X73912500Y-35892190D01*
X73931547Y-35873142D01*
X74293452Y-35492190D02*
X74293452Y-35720761D01*
X74293452Y-35606476D02*
X73893452Y-35606476D01*
X73950595Y-35644571D01*
X73988690Y-35682666D01*
X74007738Y-35720761D01*
X74026785Y-35149333D02*
X74293452Y-35149333D01*
X73874404Y-35244571D02*
X74160119Y-35339809D01*
X74160119Y-35092190D01*
X69255357Y-44258857D02*
X69236309Y-44277904D01*
X69179166Y-44296952D01*
X69141071Y-44296952D01*
X69083928Y-44277904D01*
X69045833Y-44239809D01*
X69026785Y-44201714D01*
X69007738Y-44125523D01*
X69007738Y-44068380D01*
X69026785Y-43992190D01*
X69045833Y-43954095D01*
X69083928Y-43916000D01*
X69141071Y-43896952D01*
X69179166Y-43896952D01*
X69236309Y-43916000D01*
X69255357Y-43935047D01*
X69636309Y-44296952D02*
X69407738Y-44296952D01*
X69522023Y-44296952D02*
X69522023Y-43896952D01*
X69483928Y-43954095D01*
X69445833Y-43992190D01*
X69407738Y-44011238D01*
X69998214Y-43896952D02*
X69807738Y-43896952D01*
X69788690Y-44087428D01*
X69807738Y-44068380D01*
X69845833Y-44049333D01*
X69941071Y-44049333D01*
X69979166Y-44068380D01*
X69998214Y-44087428D01*
X70017261Y-44125523D01*
X70017261Y-44220761D01*
X69998214Y-44258857D01*
X69979166Y-44277904D01*
X69941071Y-44296952D01*
X69845833Y-44296952D01*
X69807738Y-44277904D01*
X69788690Y-44258857D01*
X66142857Y-45373142D02*
X66161904Y-45392190D01*
X66180952Y-45449333D01*
X66180952Y-45487428D01*
X66161904Y-45544571D01*
X66123809Y-45582666D01*
X66085714Y-45601714D01*
X66009523Y-45620761D01*
X65952380Y-45620761D01*
X65876190Y-45601714D01*
X65838095Y-45582666D01*
X65800000Y-45544571D01*
X65780952Y-45487428D01*
X65780952Y-45449333D01*
X65800000Y-45392190D01*
X65819047Y-45373142D01*
X66180952Y-44992190D02*
X66180952Y-45220761D01*
X66180952Y-45106476D02*
X65780952Y-45106476D01*
X65838095Y-45144571D01*
X65876190Y-45182666D01*
X65895238Y-45220761D01*
X65780952Y-44649333D02*
X65780952Y-44725523D01*
X65800000Y-44763619D01*
X65819047Y-44782666D01*
X65876190Y-44820761D01*
X65952380Y-44839809D01*
X66104761Y-44839809D01*
X66142857Y-44820761D01*
X66161904Y-44801714D01*
X66180952Y-44763619D01*
X66180952Y-44687428D01*
X66161904Y-44649333D01*
X66142857Y-44630285D01*
X66104761Y-44611238D01*
X66009523Y-44611238D01*
X65971428Y-44630285D01*
X65952380Y-44649333D01*
X65933333Y-44687428D01*
X65933333Y-44763619D01*
X65952380Y-44801714D01*
X65971428Y-44820761D01*
X66009523Y-44839809D01*
X74255357Y-40173142D02*
X74274404Y-40192190D01*
X74293452Y-40249333D01*
X74293452Y-40287428D01*
X74274404Y-40344571D01*
X74236309Y-40382666D01*
X74198214Y-40401714D01*
X74122023Y-40420761D01*
X74064880Y-40420761D01*
X73988690Y-40401714D01*
X73950595Y-40382666D01*
X73912500Y-40344571D01*
X73893452Y-40287428D01*
X73893452Y-40249333D01*
X73912500Y-40192190D01*
X73931547Y-40173142D01*
X74293452Y-39792190D02*
X74293452Y-40020761D01*
X74293452Y-39906476D02*
X73893452Y-39906476D01*
X73950595Y-39944571D01*
X73988690Y-39982666D01*
X74007738Y-40020761D01*
X73893452Y-39658857D02*
X73893452Y-39392190D01*
X74293452Y-39563619D01*
X58335357Y-40803142D02*
X58354404Y-40822190D01*
X58373452Y-40879333D01*
X58373452Y-40917428D01*
X58354404Y-40974571D01*
X58316309Y-41012666D01*
X58278214Y-41031714D01*
X58202023Y-41050761D01*
X58144880Y-41050761D01*
X58068690Y-41031714D01*
X58030595Y-41012666D01*
X57992500Y-40974571D01*
X57973452Y-40917428D01*
X57973452Y-40879333D01*
X57992500Y-40822190D01*
X58011547Y-40803142D01*
X58373452Y-40422190D02*
X58373452Y-40650761D01*
X58373452Y-40536476D02*
X57973452Y-40536476D01*
X58030595Y-40574571D01*
X58068690Y-40612666D01*
X58087738Y-40650761D01*
X58144880Y-40193619D02*
X58125833Y-40231714D01*
X58106785Y-40250761D01*
X58068690Y-40269809D01*
X58049642Y-40269809D01*
X58011547Y-40250761D01*
X57992500Y-40231714D01*
X57973452Y-40193619D01*
X57973452Y-40117428D01*
X57992500Y-40079333D01*
X58011547Y-40060285D01*
X58049642Y-40041238D01*
X58068690Y-40041238D01*
X58106785Y-40060285D01*
X58125833Y-40079333D01*
X58144880Y-40117428D01*
X58144880Y-40193619D01*
X58163928Y-40231714D01*
X58182976Y-40250761D01*
X58221071Y-40269809D01*
X58297261Y-40269809D01*
X58335357Y-40250761D01*
X58354404Y-40231714D01*
X58373452Y-40193619D01*
X58373452Y-40117428D01*
X58354404Y-40079333D01*
X58335357Y-40060285D01*
X58297261Y-40041238D01*
X58221071Y-40041238D01*
X58182976Y-40060285D01*
X58163928Y-40079333D01*
X58144880Y-40117428D01*
X50805357Y-40873142D02*
X50824404Y-40892190D01*
X50843452Y-40949333D01*
X50843452Y-40987428D01*
X50824404Y-41044571D01*
X50786309Y-41082666D01*
X50748214Y-41101714D01*
X50672023Y-41120761D01*
X50614880Y-41120761D01*
X50538690Y-41101714D01*
X50500595Y-41082666D01*
X50462500Y-41044571D01*
X50443452Y-40987428D01*
X50443452Y-40949333D01*
X50462500Y-40892190D01*
X50481547Y-40873142D01*
X50843452Y-40492190D02*
X50843452Y-40720761D01*
X50843452Y-40606476D02*
X50443452Y-40606476D01*
X50500595Y-40644571D01*
X50538690Y-40682666D01*
X50557738Y-40720761D01*
X50843452Y-40301714D02*
X50843452Y-40225523D01*
X50824404Y-40187428D01*
X50805357Y-40168380D01*
X50748214Y-40130285D01*
X50672023Y-40111238D01*
X50519642Y-40111238D01*
X50481547Y-40130285D01*
X50462500Y-40149333D01*
X50443452Y-40187428D01*
X50443452Y-40263619D01*
X50462500Y-40301714D01*
X50481547Y-40320761D01*
X50519642Y-40339809D01*
X50614880Y-40339809D01*
X50652976Y-40320761D01*
X50672023Y-40301714D01*
X50691071Y-40263619D01*
X50691071Y-40187428D01*
X50672023Y-40149333D01*
X50652976Y-40130285D01*
X50614880Y-40111238D01*
D14*
X54805357Y-61882666D02*
X54805357Y-62149333D01*
X55224404Y-62149333D02*
X54424404Y-62149333D01*
X54424404Y-61768380D01*
X55224404Y-61044571D02*
X55224404Y-61501714D01*
X55224404Y-61273142D02*
X54424404Y-61273142D01*
X54538690Y-61349333D01*
X54614880Y-61425523D01*
X54652976Y-61501714D01*
D15*
X64691071Y-60544571D02*
X64667261Y-60568380D01*
X64595833Y-60592190D01*
X64548214Y-60592190D01*
X64476785Y-60568380D01*
X64429166Y-60520761D01*
X64405357Y-60473142D01*
X64381547Y-60377904D01*
X64381547Y-60306476D01*
X64405357Y-60211238D01*
X64429166Y-60163619D01*
X64476785Y-60116000D01*
X64548214Y-60092190D01*
X64595833Y-60092190D01*
X64667261Y-60116000D01*
X64691071Y-60139809D01*
X64881547Y-60139809D02*
X64905357Y-60116000D01*
X64952976Y-60092190D01*
X65072023Y-60092190D01*
X65119642Y-60116000D01*
X65143452Y-60139809D01*
X65167261Y-60187428D01*
X65167261Y-60235047D01*
X65143452Y-60306476D01*
X64857738Y-60592190D01*
X65167261Y-60592190D01*
X65476785Y-60092190D02*
X65524404Y-60092190D01*
X65572023Y-60116000D01*
X65595833Y-60139809D01*
X65619642Y-60187428D01*
X65643452Y-60282666D01*
X65643452Y-60401714D01*
X65619642Y-60496952D01*
X65595833Y-60544571D01*
X65572023Y-60568380D01*
X65524404Y-60592190D01*
X65476785Y-60592190D01*
X65429166Y-60568380D01*
X65405357Y-60544571D01*
X65381547Y-60496952D01*
X65357738Y-60401714D01*
X65357738Y-60282666D01*
X65381547Y-60187428D01*
X65405357Y-60139809D01*
X65429166Y-60116000D01*
X65476785Y-60092190D01*
X64678571Y-52178571D02*
X64654761Y-52202380D01*
X64583333Y-52226190D01*
X64535714Y-52226190D01*
X64464285Y-52202380D01*
X64416666Y-52154761D01*
X64392857Y-52107142D01*
X64369047Y-52011904D01*
X64369047Y-51940476D01*
X64392857Y-51845238D01*
X64416666Y-51797619D01*
X64464285Y-51750000D01*
X64535714Y-51726190D01*
X64583333Y-51726190D01*
X64654761Y-51750000D01*
X64678571Y-51773809D01*
X64869047Y-51773809D02*
X64892857Y-51750000D01*
X64940476Y-51726190D01*
X65059523Y-51726190D01*
X65107142Y-51750000D01*
X65130952Y-51773809D01*
X65154761Y-51821428D01*
X65154761Y-51869047D01*
X65130952Y-51940476D01*
X64845238Y-52226190D01*
X65154761Y-52226190D01*
X65630952Y-52226190D02*
X65345238Y-52226190D01*
X65488095Y-52226190D02*
X65488095Y-51726190D01*
X65440476Y-51797619D01*
X65392857Y-51845238D01*
X65345238Y-51869047D01*
D16*
X65553928Y-56173142D02*
X66039642Y-56173142D01*
X66096785Y-56144571D01*
X66125357Y-56116000D01*
X66153928Y-56058857D01*
X66153928Y-55944571D01*
X66125357Y-55887428D01*
X66096785Y-55858857D01*
X66039642Y-55830285D01*
X65553928Y-55830285D01*
X65811071Y-55458857D02*
X65782500Y-55516000D01*
X65753928Y-55544571D01*
X65696785Y-55573142D01*
X65668214Y-55573142D01*
X65611071Y-55544571D01*
X65582500Y-55516000D01*
X65553928Y-55458857D01*
X65553928Y-55344571D01*
X65582500Y-55287428D01*
X65611071Y-55258857D01*
X65668214Y-55230285D01*
X65696785Y-55230285D01*
X65753928Y-55258857D01*
X65782500Y-55287428D01*
X65811071Y-55344571D01*
X65811071Y-55458857D01*
X65839642Y-55516000D01*
X65868214Y-55544571D01*
X65925357Y-55573142D01*
X66039642Y-55573142D01*
X66096785Y-55544571D01*
X66125357Y-55516000D01*
X66153928Y-55458857D01*
X66153928Y-55344571D01*
X66125357Y-55287428D01*
X66096785Y-55258857D01*
X66039642Y-55230285D01*
X65925357Y-55230285D01*
X65868214Y-55258857D01*
X65839642Y-55287428D01*
X65811071Y-55344571D01*
D10*
X24304666Y-37552380D02*
X24304666Y-38266666D01*
X24257047Y-38409523D01*
X24161809Y-38504761D01*
X24018952Y-38552380D01*
X23923714Y-38552380D01*
X24828476Y-38552380D02*
X25018952Y-38552380D01*
X25114190Y-38504761D01*
X25161809Y-38457142D01*
X25257047Y-38314285D01*
X25304666Y-38123809D01*
X25304666Y-37742857D01*
X25257047Y-37647619D01*
X25209428Y-37600000D01*
X25114190Y-37552380D01*
X24923714Y-37552380D01*
X24828476Y-37600000D01*
X24780857Y-37647619D01*
X24733238Y-37742857D01*
X24733238Y-37980952D01*
X24780857Y-38076190D01*
X24828476Y-38123809D01*
X24923714Y-38171428D01*
X25114190Y-38171428D01*
X25209428Y-38123809D01*
X25257047Y-38076190D01*
X25304666Y-37980952D01*
D12*
X33780952Y-34066666D02*
X33590476Y-34200000D01*
X33780952Y-34295238D02*
X33380952Y-34295238D01*
X33380952Y-34142857D01*
X33400000Y-34104761D01*
X33419047Y-34085714D01*
X33457142Y-34066666D01*
X33514285Y-34066666D01*
X33552380Y-34085714D01*
X33571428Y-34104761D01*
X33590476Y-34142857D01*
X33590476Y-34295238D01*
X33419047Y-33914285D02*
X33400000Y-33895238D01*
X33380952Y-33857142D01*
X33380952Y-33761904D01*
X33400000Y-33723809D01*
X33419047Y-33704761D01*
X33457142Y-33685714D01*
X33495238Y-33685714D01*
X33552380Y-33704761D01*
X33780952Y-33933333D01*
X33780952Y-33685714D01*
X38780952Y-34066666D02*
X38590476Y-34200000D01*
X38780952Y-34295238D02*
X38380952Y-34295238D01*
X38380952Y-34142857D01*
X38400000Y-34104761D01*
X38419047Y-34085714D01*
X38457142Y-34066666D01*
X38514285Y-34066666D01*
X38552380Y-34085714D01*
X38571428Y-34104761D01*
X38590476Y-34142857D01*
X38590476Y-34295238D01*
X38514285Y-33723809D02*
X38780952Y-33723809D01*
X38361904Y-33819047D02*
X38647619Y-33914285D01*
X38647619Y-33666666D01*
X43980952Y-34066666D02*
X43790476Y-34200000D01*
X43980952Y-34295238D02*
X43580952Y-34295238D01*
X43580952Y-34142857D01*
X43600000Y-34104761D01*
X43619047Y-34085714D01*
X43657142Y-34066666D01*
X43714285Y-34066666D01*
X43752380Y-34085714D01*
X43771428Y-34104761D01*
X43790476Y-34142857D01*
X43790476Y-34295238D01*
X43580952Y-33723809D02*
X43580952Y-33800000D01*
X43600000Y-33838095D01*
X43619047Y-33857142D01*
X43676190Y-33895238D01*
X43752380Y-33914285D01*
X43904761Y-33914285D01*
X43942857Y-33895238D01*
X43961904Y-33876190D01*
X43980952Y-33838095D01*
X43980952Y-33761904D01*
X43961904Y-33723809D01*
X43942857Y-33704761D01*
X43904761Y-33685714D01*
X43809523Y-33685714D01*
X43771428Y-33704761D01*
X43752380Y-33723809D01*
X43733333Y-33761904D01*
X43733333Y-33838095D01*
X43752380Y-33876190D01*
X43771428Y-33895238D01*
X43809523Y-33914285D01*
X36380952Y-34066666D02*
X36190476Y-34200000D01*
X36380952Y-34295238D02*
X35980952Y-34295238D01*
X35980952Y-34142857D01*
X36000000Y-34104761D01*
X36019047Y-34085714D01*
X36057142Y-34066666D01*
X36114285Y-34066666D01*
X36152380Y-34085714D01*
X36171428Y-34104761D01*
X36190476Y-34142857D01*
X36190476Y-34295238D01*
X35980952Y-33933333D02*
X35980952Y-33685714D01*
X36133333Y-33819047D01*
X36133333Y-33761904D01*
X36152380Y-33723809D01*
X36171428Y-33704761D01*
X36209523Y-33685714D01*
X36304761Y-33685714D01*
X36342857Y-33704761D01*
X36361904Y-33723809D01*
X36380952Y-33761904D01*
X36380952Y-33876190D01*
X36361904Y-33914285D01*
X36342857Y-33933333D01*
X41380952Y-34066666D02*
X41190476Y-34200000D01*
X41380952Y-34295238D02*
X40980952Y-34295238D01*
X40980952Y-34142857D01*
X41000000Y-34104761D01*
X41019047Y-34085714D01*
X41057142Y-34066666D01*
X41114285Y-34066666D01*
X41152380Y-34085714D01*
X41171428Y-34104761D01*
X41190476Y-34142857D01*
X41190476Y-34295238D01*
X40980952Y-33704761D02*
X40980952Y-33895238D01*
X41171428Y-33914285D01*
X41152380Y-33895238D01*
X41133333Y-33857142D01*
X41133333Y-33761904D01*
X41152380Y-33723809D01*
X41171428Y-33704761D01*
X41209523Y-33685714D01*
X41304761Y-33685714D01*
X41342857Y-33704761D01*
X41361904Y-33723809D01*
X41380952Y-33761904D01*
X41380952Y-33857142D01*
X41361904Y-33895238D01*
X41342857Y-33914285D01*
X46380952Y-34066666D02*
X46190476Y-34200000D01*
X46380952Y-34295238D02*
X45980952Y-34295238D01*
X45980952Y-34142857D01*
X46000000Y-34104761D01*
X46019047Y-34085714D01*
X46057142Y-34066666D01*
X46114285Y-34066666D01*
X46152380Y-34085714D01*
X46171428Y-34104761D01*
X46190476Y-34142857D01*
X46190476Y-34295238D01*
X45980952Y-33933333D02*
X45980952Y-33666666D01*
X46380952Y-33838095D01*
X29180952Y-33966666D02*
X28990476Y-34100000D01*
X29180952Y-34195238D02*
X28780952Y-34195238D01*
X28780952Y-34042857D01*
X28800000Y-34004761D01*
X28819047Y-33985714D01*
X28857142Y-33966666D01*
X28914285Y-33966666D01*
X28952380Y-33985714D01*
X28971428Y-34004761D01*
X28990476Y-34042857D01*
X28990476Y-34195238D01*
X28952380Y-33738095D02*
X28933333Y-33776190D01*
X28914285Y-33795238D01*
X28876190Y-33814285D01*
X28857142Y-33814285D01*
X28819047Y-33795238D01*
X28800000Y-33776190D01*
X28780952Y-33738095D01*
X28780952Y-33661904D01*
X28800000Y-33623809D01*
X28819047Y-33604761D01*
X28857142Y-33585714D01*
X28876190Y-33585714D01*
X28914285Y-33604761D01*
X28933333Y-33623809D01*
X28952380Y-33661904D01*
X28952380Y-33738095D01*
X28971428Y-33776190D01*
X28990476Y-33795238D01*
X29028571Y-33814285D01*
X29104761Y-33814285D01*
X29142857Y-33795238D01*
X29161904Y-33776190D01*
X29180952Y-33738095D01*
X29180952Y-33661904D01*
X29161904Y-33623809D01*
X29142857Y-33604761D01*
X29104761Y-33585714D01*
X29028571Y-33585714D01*
X28990476Y-33604761D01*
X28971428Y-33623809D01*
X28952380Y-33661904D01*
X23633333Y-32280952D02*
X23500000Y-32090476D01*
X23404761Y-32280952D02*
X23404761Y-31880952D01*
X23557142Y-31880952D01*
X23595238Y-31900000D01*
X23614285Y-31919047D01*
X23633333Y-31957142D01*
X23633333Y-32014285D01*
X23614285Y-32052380D01*
X23595238Y-32071428D01*
X23557142Y-32090476D01*
X23404761Y-32090476D01*
X23823809Y-32280952D02*
X23900000Y-32280952D01*
X23938095Y-32261904D01*
X23957142Y-32242857D01*
X23995238Y-32185714D01*
X24014285Y-32109523D01*
X24014285Y-31957142D01*
X23995238Y-31919047D01*
X23976190Y-31900000D01*
X23938095Y-31880952D01*
X23861904Y-31880952D01*
X23823809Y-31900000D01*
X23804761Y-31919047D01*
X23785714Y-31957142D01*
X23785714Y-32052380D01*
X23804761Y-32090476D01*
X23823809Y-32109523D01*
X23861904Y-32128571D01*
X23938095Y-32128571D01*
X23976190Y-32109523D01*
X23995238Y-32090476D01*
X24014285Y-32052380D01*
X64514285Y-63730952D02*
X64514285Y-63330952D01*
X64609523Y-63330952D01*
X64666666Y-63350000D01*
X64704761Y-63388095D01*
X64723809Y-63426190D01*
X64742857Y-63502380D01*
X64742857Y-63559523D01*
X64723809Y-63635714D01*
X64704761Y-63673809D01*
X64666666Y-63711904D01*
X64609523Y-63730952D01*
X64514285Y-63730952D01*
X64895238Y-63369047D02*
X64914285Y-63350000D01*
X64952380Y-63330952D01*
X65047619Y-63330952D01*
X65085714Y-63350000D01*
X65104761Y-63369047D01*
X65123809Y-63407142D01*
X65123809Y-63445238D01*
X65104761Y-63502380D01*
X64876190Y-63730952D01*
X65123809Y-63730952D01*
X65504761Y-63730952D02*
X65276190Y-63730952D01*
X65390476Y-63730952D02*
X65390476Y-63330952D01*
X65352380Y-63388095D01*
X65314285Y-63426190D01*
X65276190Y-63445238D01*
X64755357Y-49680952D02*
X64622023Y-49490476D01*
X64526785Y-49680952D02*
X64526785Y-49280952D01*
X64679166Y-49280952D01*
X64717261Y-49300000D01*
X64736309Y-49319047D01*
X64755357Y-49357142D01*
X64755357Y-49414285D01*
X64736309Y-49452380D01*
X64717261Y-49471428D01*
X64679166Y-49490476D01*
X64526785Y-49490476D01*
X64907738Y-49319047D02*
X64926785Y-49300000D01*
X64964880Y-49280952D01*
X65060119Y-49280952D01*
X65098214Y-49300000D01*
X65117261Y-49319047D01*
X65136309Y-49357142D01*
X65136309Y-49395238D01*
X65117261Y-49452380D01*
X64888690Y-49680952D01*
X65136309Y-49680952D01*
X65383928Y-49280952D02*
X65422023Y-49280952D01*
X65460119Y-49300000D01*
X65479166Y-49319047D01*
X65498214Y-49357142D01*
X65517261Y-49433333D01*
X65517261Y-49528571D01*
X65498214Y-49604761D01*
X65479166Y-49642857D01*
X65460119Y-49661904D01*
X65422023Y-49680952D01*
X65383928Y-49680952D01*
X65345833Y-49661904D01*
X65326785Y-49642857D01*
X65307738Y-49604761D01*
X65288690Y-49528571D01*
X65288690Y-49433333D01*
X65307738Y-49357142D01*
X65326785Y-49319047D01*
X65345833Y-49300000D01*
X65383928Y-49280952D01*
X23242857Y-49680952D02*
X23109523Y-49490476D01*
X23014285Y-49680952D02*
X23014285Y-49280952D01*
X23166666Y-49280952D01*
X23204761Y-49300000D01*
X23223809Y-49319047D01*
X23242857Y-49357142D01*
X23242857Y-49414285D01*
X23223809Y-49452380D01*
X23204761Y-49471428D01*
X23166666Y-49490476D01*
X23014285Y-49490476D01*
X23623809Y-49680952D02*
X23395238Y-49680952D01*
X23509523Y-49680952D02*
X23509523Y-49280952D01*
X23471428Y-49338095D01*
X23433333Y-49376190D01*
X23395238Y-49395238D01*
X23871428Y-49280952D02*
X23909523Y-49280952D01*
X23947619Y-49300000D01*
X23966666Y-49319047D01*
X23985714Y-49357142D01*
X24004761Y-49433333D01*
X24004761Y-49528571D01*
X23985714Y-49604761D01*
X23966666Y-49642857D01*
X23947619Y-49661904D01*
X23909523Y-49680952D01*
X23871428Y-49680952D01*
X23833333Y-49661904D01*
X23814285Y-49642857D01*
X23795238Y-49604761D01*
X23776190Y-49528571D01*
X23776190Y-49433333D01*
X23795238Y-49357142D01*
X23814285Y-49319047D01*
X23833333Y-49300000D01*
X23871428Y-49280952D01*
X63180952Y-42235714D02*
X62780952Y-42235714D01*
X62780952Y-42140476D01*
X62800000Y-42083333D01*
X62838095Y-42045238D01*
X62876190Y-42026190D01*
X62952380Y-42007142D01*
X63009523Y-42007142D01*
X63085714Y-42026190D01*
X63123809Y-42045238D01*
X63161904Y-42083333D01*
X63180952Y-42140476D01*
X63180952Y-42235714D01*
X62819047Y-41854761D02*
X62800000Y-41835714D01*
X62780952Y-41797619D01*
X62780952Y-41702380D01*
X62800000Y-41664285D01*
X62819047Y-41645238D01*
X62857142Y-41626190D01*
X62895238Y-41626190D01*
X62952380Y-41645238D01*
X63180952Y-41873809D01*
X63180952Y-41626190D01*
X62780952Y-41378571D02*
X62780952Y-41340476D01*
X62800000Y-41302380D01*
X62819047Y-41283333D01*
X62857142Y-41264285D01*
X62933333Y-41245238D01*
X63028571Y-41245238D01*
X63104761Y-41264285D01*
X63142857Y-41283333D01*
X63161904Y-41302380D01*
X63180952Y-41340476D01*
X63180952Y-41378571D01*
X63161904Y-41416666D01*
X63142857Y-41435714D01*
X63104761Y-41454761D01*
X63028571Y-41473809D01*
X62933333Y-41473809D01*
X62857142Y-41454761D01*
X62819047Y-41435714D01*
X62800000Y-41416666D01*
X62780952Y-41378571D01*
X21680952Y-53795238D02*
X21280952Y-53795238D01*
X21280952Y-53700000D01*
X21300000Y-53642857D01*
X21338095Y-53604761D01*
X21376190Y-53585714D01*
X21452380Y-53566666D01*
X21509523Y-53566666D01*
X21585714Y-53585714D01*
X21623809Y-53604761D01*
X21661904Y-53642857D01*
X21680952Y-53700000D01*
X21680952Y-53795238D01*
X21280952Y-53204761D02*
X21280952Y-53395238D01*
X21471428Y-53414285D01*
X21452380Y-53395238D01*
X21433333Y-53357142D01*
X21433333Y-53261904D01*
X21452380Y-53223809D01*
X21471428Y-53204761D01*
X21509523Y-53185714D01*
X21604761Y-53185714D01*
X21642857Y-53204761D01*
X21661904Y-53223809D01*
X21680952Y-53261904D01*
X21680952Y-53357142D01*
X21661904Y-53395238D01*
X21642857Y-53414285D01*
M02*
