G04 #@! TF.GenerationSoftware,KiCad,Pcbnew,(5.1.5-0-10_14)*
G04 #@! TF.CreationDate,2020-04-19T22:53:18-04:00*
G04 #@! TF.ProjectId,RPi-pHat-Thermocouple,5250692d-7048-4617-942d-546865726d6f,rev?*
G04 #@! TF.SameCoordinates,Original*
G04 #@! TF.FileFunction,Legend,Top*
G04 #@! TF.FilePolarity,Positive*
%FSLAX46Y46*%
G04 Gerber Fmt 4.6, Leading zero omitted, Abs format (unit mm)*
G04 Created by KiCad (PCBNEW (5.1.5-0-10_14)) date 2020-04-19 22:53:18*
%MOMM*%
%LPD*%
G04 APERTURE LIST*
%ADD10C,0.200000*%
%ADD11C,0.152400*%
%ADD12C,0.250000*%
%ADD13C,0.150000*%
%ADD14C,0.300000*%
%ADD15C,0.120000*%
G04 APERTURE END LIST*
D10*
X14597619Y-44604571D02*
X14113809Y-44943238D01*
X14597619Y-45185142D02*
X13581619Y-45185142D01*
X13581619Y-44798095D01*
X13630000Y-44701333D01*
X13678380Y-44652952D01*
X13775142Y-44604571D01*
X13920285Y-44604571D01*
X14017047Y-44652952D01*
X14065428Y-44701333D01*
X14113809Y-44798095D01*
X14113809Y-45185142D01*
X14549238Y-43782095D02*
X14597619Y-43878857D01*
X14597619Y-44072380D01*
X14549238Y-44169142D01*
X14452476Y-44217523D01*
X14065428Y-44217523D01*
X13968666Y-44169142D01*
X13920285Y-44072380D01*
X13920285Y-43878857D01*
X13968666Y-43782095D01*
X14065428Y-43733714D01*
X14162190Y-43733714D01*
X14258952Y-44217523D01*
X13920285Y-43395047D02*
X14597619Y-43153142D01*
X13920285Y-42911238D01*
X13581619Y-41846857D02*
X13581619Y-41217904D01*
X13968666Y-41556571D01*
X13968666Y-41411428D01*
X14017047Y-41314666D01*
X14065428Y-41266285D01*
X14162190Y-41217904D01*
X14404095Y-41217904D01*
X14500857Y-41266285D01*
X14549238Y-41314666D01*
X14597619Y-41411428D01*
X14597619Y-41701714D01*
X14549238Y-41798476D01*
X14500857Y-41846857D01*
X14500857Y-40782476D02*
X14549238Y-40734095D01*
X14597619Y-40782476D01*
X14549238Y-40830857D01*
X14500857Y-40782476D01*
X14597619Y-40782476D01*
X14597619Y-39766476D02*
X14597619Y-40347047D01*
X14597619Y-40056761D02*
X13581619Y-40056761D01*
X13726761Y-40153523D01*
X13823523Y-40250285D01*
X13871904Y-40347047D01*
X16031333Y-46346285D02*
X16031333Y-45862476D01*
X16321619Y-46443047D02*
X15305619Y-46104380D01*
X16321619Y-45765714D01*
X15644285Y-45427047D02*
X16660285Y-45427047D01*
X15692666Y-45427047D02*
X15644285Y-45330285D01*
X15644285Y-45136761D01*
X15692666Y-45040000D01*
X15741047Y-44991619D01*
X15837809Y-44943238D01*
X16128095Y-44943238D01*
X16224857Y-44991619D01*
X16273238Y-45040000D01*
X16321619Y-45136761D01*
X16321619Y-45330285D01*
X16273238Y-45427047D01*
X16321619Y-44507809D02*
X15644285Y-44507809D01*
X15837809Y-44507809D02*
X15741047Y-44459428D01*
X15692666Y-44411047D01*
X15644285Y-44314285D01*
X15644285Y-44217523D01*
X16321619Y-43878857D02*
X15644285Y-43878857D01*
X15305619Y-43878857D02*
X15354000Y-43927238D01*
X15402380Y-43878857D01*
X15354000Y-43830476D01*
X15305619Y-43878857D01*
X15402380Y-43878857D01*
X16321619Y-43249904D02*
X16273238Y-43346666D01*
X16176476Y-43395047D01*
X15305619Y-43395047D01*
X15402380Y-42137142D02*
X15354000Y-42088761D01*
X15305619Y-41992000D01*
X15305619Y-41750095D01*
X15354000Y-41653333D01*
X15402380Y-41604952D01*
X15499142Y-41556571D01*
X15595904Y-41556571D01*
X15741047Y-41604952D01*
X16321619Y-42185523D01*
X16321619Y-41556571D01*
X15305619Y-40927619D02*
X15305619Y-40830857D01*
X15354000Y-40734095D01*
X15402380Y-40685714D01*
X15499142Y-40637333D01*
X15692666Y-40588952D01*
X15934571Y-40588952D01*
X16128095Y-40637333D01*
X16224857Y-40685714D01*
X16273238Y-40734095D01*
X16321619Y-40830857D01*
X16321619Y-40927619D01*
X16273238Y-41024380D01*
X16224857Y-41072761D01*
X16128095Y-41121142D01*
X15934571Y-41169523D01*
X15692666Y-41169523D01*
X15499142Y-41121142D01*
X15402380Y-41072761D01*
X15354000Y-41024380D01*
X15305619Y-40927619D01*
X15402380Y-40201904D02*
X15354000Y-40153523D01*
X15305619Y-40056761D01*
X15305619Y-39814857D01*
X15354000Y-39718095D01*
X15402380Y-39669714D01*
X15499142Y-39621333D01*
X15595904Y-39621333D01*
X15741047Y-39669714D01*
X16321619Y-40250285D01*
X16321619Y-39621333D01*
X15305619Y-38992380D02*
X15305619Y-38895619D01*
X15354000Y-38798857D01*
X15402380Y-38750476D01*
X15499142Y-38702095D01*
X15692666Y-38653714D01*
X15934571Y-38653714D01*
X16128095Y-38702095D01*
X16224857Y-38750476D01*
X16273238Y-38798857D01*
X16321619Y-38895619D01*
X16321619Y-38992380D01*
X16273238Y-39089142D01*
X16224857Y-39137523D01*
X16128095Y-39185904D01*
X15934571Y-39234285D01*
X15692666Y-39234285D01*
X15499142Y-39185904D01*
X15402380Y-39137523D01*
X15354000Y-39089142D01*
X15305619Y-38992380D01*
D11*
X41750000Y-42750000D02*
X46750000Y-42750000D01*
X33000000Y-42750000D02*
X38000000Y-42750000D01*
D12*
X60071428Y-43250000D02*
X59928571Y-43178571D01*
X59714285Y-43178571D01*
X59500000Y-43250000D01*
X59357142Y-43392857D01*
X59285714Y-43535714D01*
X59214285Y-43821428D01*
X59214285Y-44035714D01*
X59285714Y-44321428D01*
X59357142Y-44464285D01*
X59500000Y-44607142D01*
X59714285Y-44678571D01*
X59857142Y-44678571D01*
X60071428Y-44607142D01*
X60142857Y-44535714D01*
X60142857Y-44035714D01*
X59857142Y-44035714D01*
X61357142Y-44607142D02*
X61214285Y-44678571D01*
X60928571Y-44678571D01*
X60785714Y-44607142D01*
X60714285Y-44464285D01*
X60714285Y-43892857D01*
X60785714Y-43750000D01*
X60928571Y-43678571D01*
X61214285Y-43678571D01*
X61357142Y-43750000D01*
X61428571Y-43892857D01*
X61428571Y-44035714D01*
X60714285Y-44178571D01*
X62071428Y-43678571D02*
X62071428Y-44678571D01*
X62071428Y-43821428D02*
X62142857Y-43750000D01*
X62285714Y-43678571D01*
X62500000Y-43678571D01*
X62642857Y-43750000D01*
X62714285Y-43892857D01*
X62714285Y-44678571D01*
X59000000Y-47178571D02*
X59000000Y-45678571D01*
X59571428Y-45678571D01*
X59714285Y-45750000D01*
X59785714Y-45821428D01*
X59857142Y-45964285D01*
X59857142Y-46178571D01*
X59785714Y-46321428D01*
X59714285Y-46392857D01*
X59571428Y-46464285D01*
X59000000Y-46464285D01*
X60357142Y-45678571D02*
X60714285Y-47178571D01*
X61000000Y-46107142D01*
X61285714Y-47178571D01*
X61642857Y-45678571D01*
X63071428Y-47178571D02*
X62571428Y-46464285D01*
X62214285Y-47178571D02*
X62214285Y-45678571D01*
X62785714Y-45678571D01*
X62928571Y-45750000D01*
X63000000Y-45821428D01*
X63071428Y-45964285D01*
X63071428Y-46178571D01*
X63000000Y-46321428D01*
X62928571Y-46392857D01*
X62785714Y-46464285D01*
X62214285Y-46464285D01*
X19500000Y-57178571D02*
X19500000Y-55678571D01*
X20071428Y-55678571D01*
X20214285Y-55750000D01*
X20285714Y-55821428D01*
X20357142Y-55964285D01*
X20357142Y-56178571D01*
X20285714Y-56321428D01*
X20214285Y-56392857D01*
X20071428Y-56464285D01*
X19500000Y-56464285D01*
X20857142Y-55678571D02*
X21214285Y-57178571D01*
X21500000Y-56107142D01*
X21785714Y-57178571D01*
X22142857Y-55678571D01*
X23571428Y-57178571D02*
X23071428Y-56464285D01*
X22714285Y-57178571D02*
X22714285Y-55678571D01*
X23285714Y-55678571D01*
X23428571Y-55750000D01*
X23500000Y-55821428D01*
X23571428Y-55964285D01*
X23571428Y-56178571D01*
X23500000Y-56321428D01*
X23428571Y-56392857D01*
X23285714Y-56464285D01*
X22714285Y-56464285D01*
D11*
X20485714Y-40100000D02*
X20409523Y-40061904D01*
X20295238Y-40061904D01*
X20180952Y-40100000D01*
X20104761Y-40176190D01*
X20066666Y-40252380D01*
X20028571Y-40404761D01*
X20028571Y-40519047D01*
X20066666Y-40671428D01*
X20104761Y-40747619D01*
X20180952Y-40823809D01*
X20295238Y-40861904D01*
X20371428Y-40861904D01*
X20485714Y-40823809D01*
X20523809Y-40785714D01*
X20523809Y-40519047D01*
X20371428Y-40519047D01*
X20866666Y-40328571D02*
X20866666Y-40861904D01*
X20866666Y-40404761D02*
X20904761Y-40366666D01*
X20980952Y-40328571D01*
X21095238Y-40328571D01*
X21171428Y-40366666D01*
X21209523Y-40442857D01*
X21209523Y-40861904D01*
X21933333Y-40861904D02*
X21933333Y-40061904D01*
X21933333Y-40823809D02*
X21857142Y-40861904D01*
X21704761Y-40861904D01*
X21628571Y-40823809D01*
X21590476Y-40785714D01*
X21552380Y-40709523D01*
X21552380Y-40480952D01*
X21590476Y-40404761D01*
X21628571Y-40366666D01*
X21704761Y-40328571D01*
X21857142Y-40328571D01*
X21933333Y-40366666D01*
X22547619Y-40061904D02*
X23042857Y-40061904D01*
X22776190Y-40366666D01*
X22890476Y-40366666D01*
X22966666Y-40404761D01*
X23004761Y-40442857D01*
X23042857Y-40519047D01*
X23042857Y-40709523D01*
X23004761Y-40785714D01*
X22966666Y-40823809D01*
X22890476Y-40861904D01*
X22661904Y-40861904D01*
X22585714Y-40823809D01*
X22547619Y-40785714D01*
X23309523Y-40328571D02*
X23500000Y-40861904D01*
X23690476Y-40328571D01*
X23919047Y-40061904D02*
X24414285Y-40061904D01*
X24147619Y-40366666D01*
X24261904Y-40366666D01*
X24338095Y-40404761D01*
X24376190Y-40442857D01*
X24414285Y-40519047D01*
X24414285Y-40709523D01*
X24376190Y-40785714D01*
X24338095Y-40823809D01*
X24261904Y-40861904D01*
X24033333Y-40861904D01*
X23957142Y-40823809D01*
X23919047Y-40785714D01*
X25028571Y-40823809D02*
X25142857Y-40861904D01*
X25333333Y-40861904D01*
X25409523Y-40823809D01*
X25447619Y-40785714D01*
X25485714Y-40709523D01*
X25485714Y-40633333D01*
X25447619Y-40557142D01*
X25409523Y-40519047D01*
X25333333Y-40480952D01*
X25180952Y-40442857D01*
X25104761Y-40404761D01*
X25066666Y-40366666D01*
X25028571Y-40290476D01*
X25028571Y-40214285D01*
X25066666Y-40138095D01*
X25104761Y-40100000D01*
X25180952Y-40061904D01*
X25371428Y-40061904D01*
X25485714Y-40100000D01*
X25828571Y-40861904D02*
X25828571Y-40061904D01*
X26019047Y-40061904D01*
X26133333Y-40100000D01*
X26209523Y-40176190D01*
X26247619Y-40252380D01*
X26285714Y-40404761D01*
X26285714Y-40519047D01*
X26247619Y-40671428D01*
X26209523Y-40747619D01*
X26133333Y-40823809D01*
X26019047Y-40861904D01*
X25828571Y-40861904D01*
X26590476Y-40633333D02*
X26971428Y-40633333D01*
X26514285Y-40861904D02*
X26780952Y-40061904D01*
X27047619Y-40861904D01*
X27547619Y-40823809D02*
X27661904Y-40861904D01*
X27852380Y-40861904D01*
X27928571Y-40823809D01*
X27966666Y-40785714D01*
X28004761Y-40709523D01*
X28004761Y-40633333D01*
X27966666Y-40557142D01*
X27928571Y-40519047D01*
X27852380Y-40480952D01*
X27700000Y-40442857D01*
X27623809Y-40404761D01*
X27585714Y-40366666D01*
X27547619Y-40290476D01*
X27547619Y-40214285D01*
X27585714Y-40138095D01*
X27623809Y-40100000D01*
X27700000Y-40061904D01*
X27890476Y-40061904D01*
X28004761Y-40100000D01*
X28804761Y-40785714D02*
X28766666Y-40823809D01*
X28652380Y-40861904D01*
X28576190Y-40861904D01*
X28461904Y-40823809D01*
X28385714Y-40747619D01*
X28347619Y-40671428D01*
X28309523Y-40519047D01*
X28309523Y-40404761D01*
X28347619Y-40252380D01*
X28385714Y-40176190D01*
X28461904Y-40100000D01*
X28576190Y-40061904D01*
X28652380Y-40061904D01*
X28766666Y-40100000D01*
X28804761Y-40138095D01*
X29528571Y-40861904D02*
X29147619Y-40861904D01*
X29147619Y-40061904D01*
X19690285Y-29859619D02*
X19109714Y-29859619D01*
X19400000Y-29859619D02*
X19400000Y-28843619D01*
X19303238Y-28988761D01*
X19206476Y-29085523D01*
X19109714Y-29133904D01*
D10*
X14633333Y-70033333D02*
X14633333Y-70700000D01*
X13233333Y-70700000D01*
X14633333Y-69366666D02*
X14566666Y-69500000D01*
X14500000Y-69566666D01*
X14366666Y-69633333D01*
X13966666Y-69633333D01*
X13833333Y-69566666D01*
X13766666Y-69500000D01*
X13700000Y-69366666D01*
X13700000Y-69166666D01*
X13766666Y-69033333D01*
X13833333Y-68966666D01*
X13966666Y-68900000D01*
X14366666Y-68900000D01*
X14500000Y-68966666D01*
X14566666Y-69033333D01*
X14633333Y-69166666D01*
X14633333Y-69366666D01*
X13700000Y-67700000D02*
X14633333Y-67700000D01*
X13700000Y-68300000D02*
X14433333Y-68300000D01*
X14566666Y-68233333D01*
X14633333Y-68100000D01*
X14633333Y-67900000D01*
X14566666Y-67766666D01*
X14500000Y-67700000D01*
X14633333Y-67033333D02*
X13700000Y-67033333D01*
X13233333Y-67033333D02*
X13300000Y-67100000D01*
X13366666Y-67033333D01*
X13300000Y-66966666D01*
X13233333Y-67033333D01*
X13366666Y-67033333D01*
X14566666Y-66433333D02*
X14633333Y-66300000D01*
X14633333Y-66033333D01*
X14566666Y-65900000D01*
X14433333Y-65833333D01*
X14366666Y-65833333D01*
X14233333Y-65900000D01*
X14166666Y-66033333D01*
X14166666Y-66233333D01*
X14100000Y-66366666D01*
X13966666Y-66433333D01*
X13900000Y-66433333D01*
X13766666Y-66366666D01*
X13700000Y-66233333D01*
X13700000Y-66033333D01*
X13766666Y-65900000D01*
X14633333Y-64166666D02*
X13233333Y-64166666D01*
X14233333Y-63700000D01*
X13233333Y-63233333D01*
X14633333Y-63233333D01*
X14633333Y-61966666D02*
X13900000Y-61966666D01*
X13766666Y-62033333D01*
X13700000Y-62166666D01*
X13700000Y-62433333D01*
X13766666Y-62566666D01*
X14566666Y-61966666D02*
X14633333Y-62100000D01*
X14633333Y-62433333D01*
X14566666Y-62566666D01*
X14433333Y-62633333D01*
X14300000Y-62633333D01*
X14166666Y-62566666D01*
X14100000Y-62433333D01*
X14100000Y-62100000D01*
X14033333Y-61966666D01*
X14633333Y-61300000D02*
X13700000Y-61300000D01*
X13833333Y-61300000D02*
X13766666Y-61233333D01*
X13700000Y-61100000D01*
X13700000Y-60900000D01*
X13766666Y-60766666D01*
X13900000Y-60700000D01*
X14633333Y-60700000D01*
X13900000Y-60700000D02*
X13766666Y-60633333D01*
X13700000Y-60500000D01*
X13700000Y-60300000D01*
X13766666Y-60166666D01*
X13900000Y-60100000D01*
X14633333Y-60100000D01*
X14633333Y-58833333D02*
X13900000Y-58833333D01*
X13766666Y-58900000D01*
X13700000Y-59033333D01*
X13700000Y-59300000D01*
X13766666Y-59433333D01*
X14566666Y-58833333D02*
X14633333Y-58966666D01*
X14633333Y-59300000D01*
X14566666Y-59433333D01*
X14433333Y-59500000D01*
X14300000Y-59500000D01*
X14166666Y-59433333D01*
X14100000Y-59300000D01*
X14100000Y-58966666D01*
X14033333Y-58833333D01*
X14633333Y-58166666D02*
X13233333Y-58166666D01*
X14100000Y-58033333D02*
X14633333Y-57633333D01*
X13700000Y-57633333D02*
X14233333Y-58166666D01*
X14633333Y-56833333D02*
X14566666Y-56966666D01*
X14500000Y-57033333D01*
X14366666Y-57100000D01*
X13966666Y-57100000D01*
X13833333Y-57033333D01*
X13766666Y-56966666D01*
X13700000Y-56833333D01*
X13700000Y-56633333D01*
X13766666Y-56500000D01*
X13833333Y-56433333D01*
X13966666Y-56366666D01*
X14366666Y-56366666D01*
X14500000Y-56433333D01*
X14566666Y-56500000D01*
X14633333Y-56633333D01*
X14633333Y-56833333D01*
X14566666Y-55833333D02*
X14633333Y-55700000D01*
X14633333Y-55433333D01*
X14566666Y-55300000D01*
X14433333Y-55233333D01*
X14366666Y-55233333D01*
X14233333Y-55300000D01*
X14166666Y-55433333D01*
X14166666Y-55633333D01*
X14100000Y-55766666D01*
X13966666Y-55833333D01*
X13900000Y-55833333D01*
X13766666Y-55766666D01*
X13700000Y-55633333D01*
X13700000Y-55433333D01*
X13766666Y-55300000D01*
D11*
X74488404Y-64108000D02*
X74391642Y-64059619D01*
X74246500Y-64059619D01*
X74101357Y-64108000D01*
X74004595Y-64204761D01*
X73956214Y-64301523D01*
X73907833Y-64495047D01*
X73907833Y-64640190D01*
X73956214Y-64833714D01*
X74004595Y-64930476D01*
X74101357Y-65027238D01*
X74246500Y-65075619D01*
X74343261Y-65075619D01*
X74488404Y-65027238D01*
X74536785Y-64978857D01*
X74536785Y-64640190D01*
X74343261Y-64640190D01*
X74972214Y-65075619D02*
X74972214Y-64059619D01*
X75552785Y-65075619D01*
X75552785Y-64059619D01*
X76036595Y-65075619D02*
X76036595Y-64059619D01*
X76278500Y-64059619D01*
X76423642Y-64108000D01*
X76520404Y-64204761D01*
X76568785Y-64301523D01*
X76617166Y-64495047D01*
X76617166Y-64640190D01*
X76568785Y-64833714D01*
X76520404Y-64930476D01*
X76423642Y-65027238D01*
X76278500Y-65075619D01*
X76036595Y-65075619D01*
X31292000Y-35824000D02*
X31243619Y-35920761D01*
X31243619Y-36065904D01*
X31292000Y-36211047D01*
X31388761Y-36307809D01*
X31485523Y-36356190D01*
X31679047Y-36404571D01*
X31824190Y-36404571D01*
X32017714Y-36356190D01*
X32114476Y-36307809D01*
X32211238Y-36211047D01*
X32259619Y-36065904D01*
X32259619Y-35969142D01*
X32211238Y-35824000D01*
X32162857Y-35775619D01*
X31824190Y-35775619D01*
X31824190Y-35969142D01*
X32259619Y-35340190D02*
X31243619Y-35340190D01*
X31243619Y-34953142D01*
X31292000Y-34856380D01*
X31340380Y-34808000D01*
X31437142Y-34759619D01*
X31582285Y-34759619D01*
X31679047Y-34808000D01*
X31727428Y-34856380D01*
X31775809Y-34953142D01*
X31775809Y-35340190D01*
X32259619Y-34324190D02*
X31243619Y-34324190D01*
X31243619Y-33646857D02*
X31243619Y-33453333D01*
X31292000Y-33356571D01*
X31388761Y-33259809D01*
X31582285Y-33211428D01*
X31920952Y-33211428D01*
X32114476Y-33259809D01*
X32211238Y-33356571D01*
X32259619Y-33453333D01*
X32259619Y-33646857D01*
X32211238Y-33743619D01*
X32114476Y-33840380D01*
X31920952Y-33888761D01*
X31582285Y-33888761D01*
X31388761Y-33840380D01*
X31292000Y-33743619D01*
X31243619Y-33646857D01*
X31582285Y-32824380D02*
X31582285Y-32098666D01*
X31146857Y-32534095D02*
X32453142Y-32824380D01*
X32017714Y-32195428D02*
X32017714Y-32921142D01*
X32453142Y-32485714D02*
X31146857Y-32195428D01*
X39225904Y-42242000D02*
X39129142Y-42193619D01*
X38984000Y-42193619D01*
X38838857Y-42242000D01*
X38742095Y-42338761D01*
X38693714Y-42435523D01*
X38645333Y-42629047D01*
X38645333Y-42774190D01*
X38693714Y-42967714D01*
X38742095Y-43064476D01*
X38838857Y-43161238D01*
X38984000Y-43209619D01*
X39080761Y-43209619D01*
X39225904Y-43161238D01*
X39274285Y-43112857D01*
X39274285Y-42774190D01*
X39080761Y-42774190D01*
X39709714Y-43209619D02*
X39709714Y-42193619D01*
X40290285Y-43209619D01*
X40290285Y-42193619D01*
X40774095Y-43209619D02*
X40774095Y-42193619D01*
X41016000Y-42193619D01*
X41161142Y-42242000D01*
X41257904Y-42338761D01*
X41306285Y-42435523D01*
X41354666Y-42629047D01*
X41354666Y-42774190D01*
X41306285Y-42967714D01*
X41257904Y-43064476D01*
X41161142Y-43161238D01*
X41016000Y-43209619D01*
X40774095Y-43209619D01*
X45861333Y-35443619D02*
X46538666Y-35443619D01*
X46103238Y-36459619D01*
X43406476Y-36459619D02*
X43600000Y-36459619D01*
X43696761Y-36411238D01*
X43745142Y-36362857D01*
X43841904Y-36217714D01*
X43890285Y-36024190D01*
X43890285Y-35637142D01*
X43841904Y-35540380D01*
X43793523Y-35492000D01*
X43696761Y-35443619D01*
X43503238Y-35443619D01*
X43406476Y-35492000D01*
X43358095Y-35540380D01*
X43309714Y-35637142D01*
X43309714Y-35879047D01*
X43358095Y-35975809D01*
X43406476Y-36024190D01*
X43503238Y-36072571D01*
X43696761Y-36072571D01*
X43793523Y-36024190D01*
X43841904Y-35975809D01*
X43890285Y-35879047D01*
X41103238Y-35879047D02*
X41006476Y-35830666D01*
X40958095Y-35782285D01*
X40909714Y-35685523D01*
X40909714Y-35637142D01*
X40958095Y-35540380D01*
X41006476Y-35492000D01*
X41103238Y-35443619D01*
X41296761Y-35443619D01*
X41393523Y-35492000D01*
X41441904Y-35540380D01*
X41490285Y-35637142D01*
X41490285Y-35685523D01*
X41441904Y-35782285D01*
X41393523Y-35830666D01*
X41296761Y-35879047D01*
X41103238Y-35879047D01*
X41006476Y-35927428D01*
X40958095Y-35975809D01*
X40909714Y-36072571D01*
X40909714Y-36266095D01*
X40958095Y-36362857D01*
X41006476Y-36411238D01*
X41103238Y-36459619D01*
X41296761Y-36459619D01*
X41393523Y-36411238D01*
X41441904Y-36362857D01*
X41490285Y-36266095D01*
X41490285Y-36072571D01*
X41441904Y-35975809D01*
X41393523Y-35927428D01*
X41296761Y-35879047D01*
X37825904Y-35540380D02*
X37874285Y-35492000D01*
X37971047Y-35443619D01*
X38212952Y-35443619D01*
X38309714Y-35492000D01*
X38358095Y-35540380D01*
X38406476Y-35637142D01*
X38406476Y-35733904D01*
X38358095Y-35879047D01*
X37777523Y-36459619D01*
X38406476Y-36459619D01*
X39325714Y-35443619D02*
X38841904Y-35443619D01*
X38793523Y-35927428D01*
X38841904Y-35879047D01*
X38938666Y-35830666D01*
X39180571Y-35830666D01*
X39277333Y-35879047D01*
X39325714Y-35927428D01*
X39374095Y-36024190D01*
X39374095Y-36266095D01*
X39325714Y-36362857D01*
X39277333Y-36411238D01*
X39180571Y-36459619D01*
X38938666Y-36459619D01*
X38841904Y-36411238D01*
X38793523Y-36362857D01*
X35425904Y-35540380D02*
X35474285Y-35492000D01*
X35571047Y-35443619D01*
X35812952Y-35443619D01*
X35909714Y-35492000D01*
X35958095Y-35540380D01*
X36006476Y-35637142D01*
X36006476Y-35733904D01*
X35958095Y-35879047D01*
X35377523Y-36459619D01*
X36006476Y-36459619D01*
X36877333Y-35782285D02*
X36877333Y-36459619D01*
X36635428Y-35395238D02*
X36393523Y-36120952D01*
X37022476Y-36120952D01*
X32825904Y-35540380D02*
X32874285Y-35492000D01*
X32971047Y-35443619D01*
X33212952Y-35443619D01*
X33309714Y-35492000D01*
X33358095Y-35540380D01*
X33406476Y-35637142D01*
X33406476Y-35733904D01*
X33358095Y-35879047D01*
X32777523Y-36459619D01*
X33406476Y-36459619D01*
X33745142Y-35443619D02*
X34374095Y-35443619D01*
X34035428Y-35830666D01*
X34180571Y-35830666D01*
X34277333Y-35879047D01*
X34325714Y-35927428D01*
X34374095Y-36024190D01*
X34374095Y-36266095D01*
X34325714Y-36362857D01*
X34277333Y-36411238D01*
X34180571Y-36459619D01*
X33890285Y-36459619D01*
X33793523Y-36411238D01*
X33745142Y-36362857D01*
X43085357Y-74188571D02*
X43859452Y-74188571D01*
X46665547Y-74188571D02*
X47439642Y-74188571D01*
X47052595Y-74575619D02*
X47052595Y-73801523D01*
X35085357Y-74188571D02*
X35859452Y-74188571D01*
X38665547Y-74188571D02*
X39439642Y-74188571D01*
X39052595Y-74575619D02*
X39052595Y-73801523D01*
X26685357Y-73988571D02*
X27459452Y-73988571D01*
X30265547Y-73988571D02*
X31039642Y-73988571D01*
X30652595Y-74375619D02*
X30652595Y-73601523D01*
X58254500Y-76890095D02*
X58206119Y-76986857D01*
X58206119Y-77132000D01*
X58254500Y-77277142D01*
X58351261Y-77373904D01*
X58448023Y-77422285D01*
X58641547Y-77470666D01*
X58786690Y-77470666D01*
X58980214Y-77422285D01*
X59076976Y-77373904D01*
X59173738Y-77277142D01*
X59222119Y-77132000D01*
X59222119Y-77035238D01*
X59173738Y-76890095D01*
X59125357Y-76841714D01*
X58786690Y-76841714D01*
X58786690Y-77035238D01*
X59222119Y-76406285D02*
X58206119Y-76406285D01*
X59222119Y-75825714D01*
X58206119Y-75825714D01*
X59222119Y-75341904D02*
X58206119Y-75341904D01*
X58206119Y-75100000D01*
X58254500Y-74954857D01*
X58351261Y-74858095D01*
X58448023Y-74809714D01*
X58641547Y-74761333D01*
X58786690Y-74761333D01*
X58980214Y-74809714D01*
X59076976Y-74858095D01*
X59173738Y-74954857D01*
X59222119Y-75100000D01*
X59222119Y-75341904D01*
X49867919Y-79712380D02*
X49867919Y-79083428D01*
X50254966Y-79422095D01*
X50254966Y-79276952D01*
X50303347Y-79180190D01*
X50351728Y-79131809D01*
X50448490Y-79083428D01*
X50690395Y-79083428D01*
X50787157Y-79131809D01*
X50835538Y-79180190D01*
X50883919Y-79276952D01*
X50883919Y-79567238D01*
X50835538Y-79664000D01*
X50787157Y-79712380D01*
X50787157Y-78648000D02*
X50835538Y-78599619D01*
X50883919Y-78648000D01*
X50835538Y-78696380D01*
X50787157Y-78648000D01*
X50883919Y-78648000D01*
X49867919Y-78260952D02*
X49867919Y-77632000D01*
X50254966Y-77970666D01*
X50254966Y-77825523D01*
X50303347Y-77728761D01*
X50351728Y-77680380D01*
X50448490Y-77632000D01*
X50690395Y-77632000D01*
X50787157Y-77680380D01*
X50835538Y-77728761D01*
X50883919Y-77825523D01*
X50883919Y-78115809D01*
X50835538Y-78212571D01*
X50787157Y-78260952D01*
X49867919Y-77341714D02*
X50883919Y-77003047D01*
X49867919Y-76664380D01*
X50883919Y-75406476D02*
X50835538Y-75503238D01*
X50787157Y-75551619D01*
X50690395Y-75600000D01*
X50400109Y-75600000D01*
X50303347Y-75551619D01*
X50254966Y-75503238D01*
X50206585Y-75406476D01*
X50206585Y-75261333D01*
X50254966Y-75164571D01*
X50303347Y-75116190D01*
X50400109Y-75067809D01*
X50690395Y-75067809D01*
X50787157Y-75116190D01*
X50835538Y-75164571D01*
X50883919Y-75261333D01*
X50883919Y-75406476D01*
X50206585Y-74196952D02*
X50883919Y-74196952D01*
X50206585Y-74632380D02*
X50738776Y-74632380D01*
X50835538Y-74584000D01*
X50883919Y-74487238D01*
X50883919Y-74342095D01*
X50835538Y-74245333D01*
X50787157Y-74196952D01*
X50206585Y-73858285D02*
X50206585Y-73471238D01*
X49867919Y-73713142D02*
X50738776Y-73713142D01*
X50835538Y-73664761D01*
X50883919Y-73568000D01*
X50883919Y-73471238D01*
X51882985Y-78575428D02*
X51882985Y-78188380D01*
X52560319Y-78430285D02*
X51689461Y-78430285D01*
X51592700Y-78381904D01*
X51544319Y-78285142D01*
X51544319Y-78188380D01*
X51882985Y-77414285D02*
X52560319Y-77414285D01*
X51882985Y-77849714D02*
X52415176Y-77849714D01*
X52511938Y-77801333D01*
X52560319Y-77704571D01*
X52560319Y-77559428D01*
X52511938Y-77462666D01*
X52463557Y-77414285D01*
X52511938Y-76978857D02*
X52560319Y-76882095D01*
X52560319Y-76688571D01*
X52511938Y-76591809D01*
X52415176Y-76543428D01*
X52366795Y-76543428D01*
X52270033Y-76591809D01*
X52221652Y-76688571D01*
X52221652Y-76833714D01*
X52173271Y-76930476D01*
X52076509Y-76978857D01*
X52028128Y-76978857D01*
X51931366Y-76930476D01*
X51882985Y-76833714D01*
X51882985Y-76688571D01*
X51931366Y-76591809D01*
X52511938Y-75720952D02*
X52560319Y-75817714D01*
X52560319Y-76011238D01*
X52511938Y-76108000D01*
X52415176Y-76156380D01*
X52028128Y-76156380D01*
X51931366Y-76108000D01*
X51882985Y-76011238D01*
X51882985Y-75817714D01*
X51931366Y-75720952D01*
X52028128Y-75672571D01*
X52124890Y-75672571D01*
X52221652Y-76156380D01*
X52560319Y-74801714D02*
X51544319Y-74801714D01*
X52511938Y-74801714D02*
X52560319Y-74898476D01*
X52560319Y-75092000D01*
X52511938Y-75188761D01*
X52463557Y-75237142D01*
X52366795Y-75285523D01*
X52076509Y-75285523D01*
X51979747Y-75237142D01*
X51931366Y-75188761D01*
X51882985Y-75092000D01*
X51882985Y-74898476D01*
X51931366Y-74801714D01*
X69897142Y-60653800D02*
X69800380Y-60605419D01*
X69655238Y-60605419D01*
X69510095Y-60653800D01*
X69413333Y-60750561D01*
X69364952Y-60847323D01*
X69316571Y-61040847D01*
X69316571Y-61185990D01*
X69364952Y-61379514D01*
X69413333Y-61476276D01*
X69510095Y-61573038D01*
X69655238Y-61621419D01*
X69752000Y-61621419D01*
X69897142Y-61573038D01*
X69945523Y-61524657D01*
X69945523Y-61185990D01*
X69752000Y-61185990D01*
X70768000Y-61573038D02*
X70671238Y-61621419D01*
X70477714Y-61621419D01*
X70380952Y-61573038D01*
X70332571Y-61476276D01*
X70332571Y-61089228D01*
X70380952Y-60992466D01*
X70477714Y-60944085D01*
X70671238Y-60944085D01*
X70768000Y-60992466D01*
X70816380Y-61089228D01*
X70816380Y-61185990D01*
X70332571Y-61282752D01*
X71251809Y-60944085D02*
X71251809Y-61621419D01*
X71251809Y-61040847D02*
X71300190Y-60992466D01*
X71396952Y-60944085D01*
X71542095Y-60944085D01*
X71638857Y-60992466D01*
X71687238Y-61089228D01*
X71687238Y-61621419D01*
X72558095Y-61573038D02*
X72461333Y-61621419D01*
X72267809Y-61621419D01*
X72171047Y-61573038D01*
X72122666Y-61476276D01*
X72122666Y-61089228D01*
X72171047Y-60992466D01*
X72267809Y-60944085D01*
X72461333Y-60944085D01*
X72558095Y-60992466D01*
X72606476Y-61089228D01*
X72606476Y-61185990D01*
X72122666Y-61282752D01*
X73041904Y-61621419D02*
X73041904Y-60944085D01*
X73041904Y-61137609D02*
X73090285Y-61040847D01*
X73138666Y-60992466D01*
X73235428Y-60944085D01*
X73332190Y-60944085D01*
X74106285Y-61621419D02*
X74106285Y-61089228D01*
X74057904Y-60992466D01*
X73961142Y-60944085D01*
X73767619Y-60944085D01*
X73670857Y-60992466D01*
X74106285Y-61573038D02*
X74009523Y-61621419D01*
X73767619Y-61621419D01*
X73670857Y-61573038D01*
X73622476Y-61476276D01*
X73622476Y-61379514D01*
X73670857Y-61282752D01*
X73767619Y-61234371D01*
X74009523Y-61234371D01*
X74106285Y-61185990D01*
X74444952Y-60944085D02*
X74832000Y-60944085D01*
X74590095Y-60605419D02*
X74590095Y-61476276D01*
X74638476Y-61573038D01*
X74735238Y-61621419D01*
X74832000Y-61621419D01*
X75315809Y-61621419D02*
X75219047Y-61573038D01*
X75170666Y-61524657D01*
X75122285Y-61427895D01*
X75122285Y-61137609D01*
X75170666Y-61040847D01*
X75219047Y-60992466D01*
X75315809Y-60944085D01*
X75460952Y-60944085D01*
X75557714Y-60992466D01*
X75606095Y-61040847D01*
X75654476Y-61137609D01*
X75654476Y-61427895D01*
X75606095Y-61524657D01*
X75557714Y-61573038D01*
X75460952Y-61621419D01*
X75315809Y-61621419D01*
X76089904Y-61621419D02*
X76089904Y-60944085D01*
X76089904Y-61137609D02*
X76138285Y-61040847D01*
X76186666Y-60992466D01*
X76283428Y-60944085D01*
X76380190Y-60944085D01*
X69631047Y-63684866D02*
X69582666Y-63636485D01*
X69485904Y-63491342D01*
X69437523Y-63394580D01*
X69389142Y-63249438D01*
X69340761Y-63007533D01*
X69340761Y-62814009D01*
X69389142Y-62572104D01*
X69437523Y-62426961D01*
X69485904Y-62330200D01*
X69582666Y-62185057D01*
X69631047Y-62136676D01*
X70018095Y-63297819D02*
X70018095Y-62281819D01*
X70453523Y-63249438D02*
X70550285Y-63297819D01*
X70743809Y-63297819D01*
X70840571Y-63249438D01*
X70888952Y-63152676D01*
X70888952Y-63104295D01*
X70840571Y-63007533D01*
X70743809Y-62959152D01*
X70598666Y-62959152D01*
X70501904Y-62910771D01*
X70453523Y-62814009D01*
X70453523Y-62765628D01*
X70501904Y-62668866D01*
X70598666Y-62620485D01*
X70743809Y-62620485D01*
X70840571Y-62668866D01*
X71469523Y-63297819D02*
X71372761Y-63249438D01*
X71324380Y-63201057D01*
X71276000Y-63104295D01*
X71276000Y-62814009D01*
X71324380Y-62717247D01*
X71372761Y-62668866D01*
X71469523Y-62620485D01*
X71614666Y-62620485D01*
X71711428Y-62668866D01*
X71759809Y-62717247D01*
X71808190Y-62814009D01*
X71808190Y-63104295D01*
X71759809Y-63201057D01*
X71711428Y-63249438D01*
X71614666Y-63297819D01*
X71469523Y-63297819D01*
X72388761Y-63297819D02*
X72292000Y-63249438D01*
X72243619Y-63152676D01*
X72243619Y-62281819D01*
X73211238Y-63297819D02*
X73211238Y-62765628D01*
X73162857Y-62668866D01*
X73066095Y-62620485D01*
X72872571Y-62620485D01*
X72775809Y-62668866D01*
X73211238Y-63249438D02*
X73114476Y-63297819D01*
X72872571Y-63297819D01*
X72775809Y-63249438D01*
X72727428Y-63152676D01*
X72727428Y-63055914D01*
X72775809Y-62959152D01*
X72872571Y-62910771D01*
X73114476Y-62910771D01*
X73211238Y-62862390D01*
X73549904Y-62620485D02*
X73936952Y-62620485D01*
X73695047Y-62281819D02*
X73695047Y-63152676D01*
X73743428Y-63249438D01*
X73840190Y-63297819D01*
X73936952Y-63297819D01*
X74662666Y-63249438D02*
X74565904Y-63297819D01*
X74372380Y-63297819D01*
X74275619Y-63249438D01*
X74227238Y-63152676D01*
X74227238Y-62765628D01*
X74275619Y-62668866D01*
X74372380Y-62620485D01*
X74565904Y-62620485D01*
X74662666Y-62668866D01*
X74711047Y-62765628D01*
X74711047Y-62862390D01*
X74227238Y-62959152D01*
X75581904Y-63297819D02*
X75581904Y-62281819D01*
X75581904Y-63249438D02*
X75485142Y-63297819D01*
X75291619Y-63297819D01*
X75194857Y-63249438D01*
X75146476Y-63201057D01*
X75098095Y-63104295D01*
X75098095Y-62814009D01*
X75146476Y-62717247D01*
X75194857Y-62668866D01*
X75291619Y-62620485D01*
X75485142Y-62620485D01*
X75581904Y-62668866D01*
X75968952Y-63684866D02*
X76017333Y-63636485D01*
X76114095Y-63491342D01*
X76162476Y-63394580D01*
X76210857Y-63249438D01*
X76259238Y-63007533D01*
X76259238Y-62814009D01*
X76210857Y-62572104D01*
X76162476Y-62426961D01*
X76114095Y-62330200D01*
X76017333Y-62185057D01*
X75968952Y-62136676D01*
X74825904Y-73092000D02*
X74729142Y-73043619D01*
X74584000Y-73043619D01*
X74438857Y-73092000D01*
X74342095Y-73188761D01*
X74293714Y-73285523D01*
X74245333Y-73479047D01*
X74245333Y-73624190D01*
X74293714Y-73817714D01*
X74342095Y-73914476D01*
X74438857Y-74011238D01*
X74584000Y-74059619D01*
X74680761Y-74059619D01*
X74825904Y-74011238D01*
X74874285Y-73962857D01*
X74874285Y-73624190D01*
X74680761Y-73624190D01*
X75309714Y-74059619D02*
X75309714Y-73043619D01*
X75890285Y-74059619D01*
X75890285Y-73043619D01*
X76374095Y-74059619D02*
X76374095Y-73043619D01*
X76616000Y-73043619D01*
X76761142Y-73092000D01*
X76857904Y-73188761D01*
X76906285Y-73285523D01*
X76954666Y-73479047D01*
X76954666Y-73624190D01*
X76906285Y-73817714D01*
X76857904Y-73914476D01*
X76761142Y-74011238D01*
X76616000Y-74059619D01*
X76374095Y-74059619D01*
X67859619Y-78657904D02*
X67375809Y-78996571D01*
X67859619Y-79238476D02*
X66843619Y-79238476D01*
X66843619Y-78851428D01*
X66892000Y-78754666D01*
X66940380Y-78706285D01*
X67037142Y-78657904D01*
X67182285Y-78657904D01*
X67279047Y-78706285D01*
X67327428Y-78754666D01*
X67375809Y-78851428D01*
X67375809Y-79238476D01*
X66843619Y-78319238D02*
X67859619Y-77641904D01*
X66843619Y-77641904D02*
X67859619Y-78319238D01*
X67859619Y-76480761D02*
X67182285Y-76480761D01*
X66843619Y-76480761D02*
X66892000Y-76529142D01*
X66940380Y-76480761D01*
X66892000Y-76432380D01*
X66843619Y-76480761D01*
X66940380Y-76480761D01*
X67182285Y-75996952D02*
X67859619Y-75996952D01*
X67279047Y-75996952D02*
X67230666Y-75948571D01*
X67182285Y-75851809D01*
X67182285Y-75706666D01*
X67230666Y-75609904D01*
X67327428Y-75561523D01*
X67859619Y-75561523D01*
X69643619Y-79770666D02*
X69643619Y-79190095D01*
X70659619Y-79480380D02*
X69643619Y-79480380D01*
X69643619Y-78948190D02*
X70659619Y-78270857D01*
X69643619Y-78270857D02*
X70659619Y-78948190D01*
X70659619Y-76964571D02*
X70611238Y-77061333D01*
X70562857Y-77109714D01*
X70466095Y-77158095D01*
X70175809Y-77158095D01*
X70079047Y-77109714D01*
X70030666Y-77061333D01*
X69982285Y-76964571D01*
X69982285Y-76819428D01*
X70030666Y-76722666D01*
X70079047Y-76674285D01*
X70175809Y-76625904D01*
X70466095Y-76625904D01*
X70562857Y-76674285D01*
X70611238Y-76722666D01*
X70659619Y-76819428D01*
X70659619Y-76964571D01*
X69982285Y-75755047D02*
X70659619Y-75755047D01*
X69982285Y-76190476D02*
X70514476Y-76190476D01*
X70611238Y-76142095D01*
X70659619Y-76045333D01*
X70659619Y-75900190D01*
X70611238Y-75803428D01*
X70562857Y-75755047D01*
X69982285Y-75416380D02*
X69982285Y-75029333D01*
X69643619Y-75271238D02*
X70514476Y-75271238D01*
X70611238Y-75222857D01*
X70659619Y-75126095D01*
X70659619Y-75029333D01*
X64268976Y-76559619D02*
X63785166Y-76559619D01*
X63736785Y-77043428D01*
X63785166Y-76995047D01*
X63881928Y-76946666D01*
X64123833Y-76946666D01*
X64220595Y-76995047D01*
X64268976Y-77043428D01*
X64317357Y-77140190D01*
X64317357Y-77382095D01*
X64268976Y-77478857D01*
X64220595Y-77527238D01*
X64123833Y-77575619D01*
X63881928Y-77575619D01*
X63785166Y-77527238D01*
X63736785Y-77478857D01*
X64607642Y-76559619D02*
X64946309Y-77575619D01*
X65284976Y-76559619D01*
X15082714Y-71863060D02*
X15082714Y-71427631D01*
X15844714Y-71645345D02*
X15082714Y-71645345D01*
X15844714Y-71173631D02*
X15336714Y-71173631D01*
X15481857Y-71173631D02*
X15409285Y-71137345D01*
X15372999Y-71101060D01*
X15336714Y-71028488D01*
X15336714Y-70955917D01*
X15844714Y-70375345D02*
X15445571Y-70375345D01*
X15372999Y-70411631D01*
X15336714Y-70484202D01*
X15336714Y-70629345D01*
X15372999Y-70701917D01*
X15808428Y-70375345D02*
X15844714Y-70447917D01*
X15844714Y-70629345D01*
X15808428Y-70701917D01*
X15735857Y-70738202D01*
X15663285Y-70738202D01*
X15590714Y-70701917D01*
X15554428Y-70629345D01*
X15554428Y-70447917D01*
X15518142Y-70375345D01*
X15336714Y-70012488D02*
X15844714Y-70012488D01*
X15409285Y-70012488D02*
X15373000Y-69976202D01*
X15336714Y-69903631D01*
X15336714Y-69794774D01*
X15373000Y-69722202D01*
X15445571Y-69685917D01*
X15844714Y-69685917D01*
X15808428Y-69359345D02*
X15844714Y-69286774D01*
X15844714Y-69141631D01*
X15808428Y-69069060D01*
X15735857Y-69032774D01*
X15699571Y-69032774D01*
X15627000Y-69069060D01*
X15590714Y-69141631D01*
X15590714Y-69250488D01*
X15554428Y-69323060D01*
X15481857Y-69359345D01*
X15445571Y-69359345D01*
X15373000Y-69323060D01*
X15336714Y-69250488D01*
X15336714Y-69141631D01*
X15373000Y-69069060D01*
X15808428Y-68742488D02*
X15844714Y-68633631D01*
X15844714Y-68452202D01*
X15808428Y-68379631D01*
X15772142Y-68343345D01*
X15699571Y-68307060D01*
X15627000Y-68307060D01*
X15554428Y-68343345D01*
X15518142Y-68379631D01*
X15481857Y-68452202D01*
X15445571Y-68597345D01*
X15409285Y-68669917D01*
X15373000Y-68706202D01*
X15300428Y-68742488D01*
X15227857Y-68742488D01*
X15155285Y-68706202D01*
X15119000Y-68669917D01*
X15082714Y-68597345D01*
X15082714Y-68415917D01*
X15119000Y-68307060D01*
X15336714Y-68053060D02*
X15844714Y-67871631D01*
X15336714Y-67690202D02*
X15844714Y-67871631D01*
X16026142Y-67944202D01*
X16062428Y-67980488D01*
X16098714Y-68053060D01*
X15808428Y-67436202D02*
X15844714Y-67363631D01*
X15844714Y-67218488D01*
X15808428Y-67145917D01*
X15735857Y-67109631D01*
X15699571Y-67109631D01*
X15627000Y-67145917D01*
X15590714Y-67218488D01*
X15590714Y-67327345D01*
X15554428Y-67399917D01*
X15481857Y-67436202D01*
X15445571Y-67436202D01*
X15373000Y-67399917D01*
X15336714Y-67327345D01*
X15336714Y-67218488D01*
X15373000Y-67145917D01*
X15844714Y-66202488D02*
X15082714Y-66202488D01*
X15336714Y-65839631D02*
X15844714Y-65839631D01*
X15409285Y-65839631D02*
X15373000Y-65803345D01*
X15336714Y-65730774D01*
X15336714Y-65621917D01*
X15373000Y-65549345D01*
X15445571Y-65513060D01*
X15844714Y-65513060D01*
X15336714Y-65259060D02*
X15336714Y-64968774D01*
X15082714Y-65150202D02*
X15735857Y-65150202D01*
X15808428Y-65113917D01*
X15844714Y-65041345D01*
X15844714Y-64968774D01*
X15808428Y-64424488D02*
X15844714Y-64497060D01*
X15844714Y-64642202D01*
X15808428Y-64714774D01*
X15735857Y-64751060D01*
X15445571Y-64751060D01*
X15373000Y-64714774D01*
X15336714Y-64642202D01*
X15336714Y-64497060D01*
X15373000Y-64424488D01*
X15445571Y-64388202D01*
X15518142Y-64388202D01*
X15590714Y-64751060D01*
X15844714Y-64061631D02*
X15336714Y-64061631D01*
X15481857Y-64061631D02*
X15409285Y-64025345D01*
X15373000Y-63989060D01*
X15336714Y-63916488D01*
X15336714Y-63843917D01*
X15336714Y-63589917D02*
X15844714Y-63589917D01*
X15409285Y-63589917D02*
X15373000Y-63553631D01*
X15336714Y-63481060D01*
X15336714Y-63372202D01*
X15373000Y-63299631D01*
X15445571Y-63263345D01*
X15844714Y-63263345D01*
X15808428Y-62610202D02*
X15844714Y-62682774D01*
X15844714Y-62827917D01*
X15808428Y-62900488D01*
X15735857Y-62936774D01*
X15445571Y-62936774D01*
X15373000Y-62900488D01*
X15336714Y-62827917D01*
X15336714Y-62682774D01*
X15373000Y-62610202D01*
X15445571Y-62573917D01*
X15518142Y-62573917D01*
X15590714Y-62936774D01*
X15336714Y-62356202D02*
X15336714Y-62065917D01*
X15082714Y-62247345D02*
X15735857Y-62247345D01*
X15808428Y-62211060D01*
X15844714Y-62138488D01*
X15844714Y-62065917D01*
X15336714Y-61884488D02*
X15844714Y-61739345D01*
X15481857Y-61594202D01*
X15844714Y-61449060D01*
X15336714Y-61303917D01*
X15844714Y-60904774D02*
X15808428Y-60977345D01*
X15772142Y-61013631D01*
X15699571Y-61049917D01*
X15481857Y-61049917D01*
X15409285Y-61013631D01*
X15373000Y-60977345D01*
X15336714Y-60904774D01*
X15336714Y-60795917D01*
X15373000Y-60723345D01*
X15409285Y-60687060D01*
X15481857Y-60650774D01*
X15699571Y-60650774D01*
X15772142Y-60687060D01*
X15808428Y-60723345D01*
X15844714Y-60795917D01*
X15844714Y-60904774D01*
X15844714Y-60324202D02*
X15336714Y-60324202D01*
X15481857Y-60324202D02*
X15409285Y-60287917D01*
X15373000Y-60251631D01*
X15336714Y-60179060D01*
X15336714Y-60106488D01*
X15844714Y-59852488D02*
X15082714Y-59852488D01*
X15554428Y-59779917D02*
X15844714Y-59562202D01*
X15336714Y-59562202D02*
X15627000Y-59852488D01*
X15844714Y-59235631D02*
X15336714Y-59235631D01*
X15082714Y-59235631D02*
X15119000Y-59271917D01*
X15155285Y-59235631D01*
X15119000Y-59199345D01*
X15082714Y-59235631D01*
X15155285Y-59235631D01*
X15336714Y-58872774D02*
X15844714Y-58872774D01*
X15409285Y-58872774D02*
X15373000Y-58836488D01*
X15336714Y-58763917D01*
X15336714Y-58655060D01*
X15373000Y-58582488D01*
X15445571Y-58546202D01*
X15844714Y-58546202D01*
X15336714Y-57856774D02*
X15953571Y-57856774D01*
X16026142Y-57893060D01*
X16062428Y-57929345D01*
X16098714Y-58001917D01*
X16098714Y-58110774D01*
X16062428Y-58183345D01*
X15808428Y-57856774D02*
X15844714Y-57929345D01*
X15844714Y-58074488D01*
X15808428Y-58147060D01*
X15772142Y-58183345D01*
X15699571Y-58219631D01*
X15481857Y-58219631D01*
X15409285Y-58183345D01*
X15373000Y-58147060D01*
X15336714Y-58074488D01*
X15336714Y-57929345D01*
X15373000Y-57856774D01*
X15844714Y-56550488D02*
X15844714Y-56913345D01*
X15082714Y-56913345D01*
X15844714Y-55933631D02*
X15844714Y-56296488D01*
X15082714Y-56296488D01*
X15772142Y-55244202D02*
X15808428Y-55280488D01*
X15844714Y-55389345D01*
X15844714Y-55461917D01*
X15808428Y-55570774D01*
X15735857Y-55643345D01*
X15663285Y-55679631D01*
X15518142Y-55715917D01*
X15409285Y-55715917D01*
X15264142Y-55679631D01*
X15191571Y-55643345D01*
X15119000Y-55570774D01*
X15082714Y-55461917D01*
X15082714Y-55389345D01*
X15119000Y-55280488D01*
X15155285Y-55244202D01*
D13*
X22500000Y-76583214D02*
X22452380Y-76678452D01*
X22452380Y-76821309D01*
X22500000Y-76964166D01*
X22595238Y-77059404D01*
X22690476Y-77107023D01*
X22880952Y-77154642D01*
X23023809Y-77154642D01*
X23214285Y-77107023D01*
X23309523Y-77059404D01*
X23404761Y-76964166D01*
X23452380Y-76821309D01*
X23452380Y-76726071D01*
X23404761Y-76583214D01*
X23357142Y-76535595D01*
X23023809Y-76535595D01*
X23023809Y-76726071D01*
X23452380Y-76107023D02*
X22452380Y-76107023D01*
X23452380Y-75535595D01*
X22452380Y-75535595D01*
X23452380Y-75059404D02*
X22452380Y-75059404D01*
X22452380Y-74821309D01*
X22500000Y-74678452D01*
X22595238Y-74583214D01*
X22690476Y-74535595D01*
X22880952Y-74487976D01*
X23023809Y-74487976D01*
X23214285Y-74535595D01*
X23309523Y-74583214D01*
X23404761Y-74678452D01*
X23452380Y-74821309D01*
X23452380Y-75059404D01*
X54889880Y-79237309D02*
X54889880Y-79808738D01*
X54889880Y-79523023D02*
X53889880Y-79523023D01*
X54032738Y-79618261D01*
X54127976Y-79713500D01*
X54175595Y-79808738D01*
X54508928Y-78808738D02*
X54508928Y-78046833D01*
X53889880Y-77665880D02*
X54889880Y-77427785D01*
X54175595Y-77237309D01*
X54889880Y-77046833D01*
X53889880Y-76808738D01*
X54889880Y-76427785D02*
X54223214Y-76427785D01*
X53889880Y-76427785D02*
X53937500Y-76475404D01*
X53985119Y-76427785D01*
X53937500Y-76380166D01*
X53889880Y-76427785D01*
X53985119Y-76427785D01*
X54889880Y-75951595D02*
X54223214Y-75951595D01*
X54413690Y-75951595D02*
X54318452Y-75903976D01*
X54270833Y-75856357D01*
X54223214Y-75761119D01*
X54223214Y-75665880D01*
X54842261Y-74951595D02*
X54889880Y-75046833D01*
X54889880Y-75237309D01*
X54842261Y-75332547D01*
X54747023Y-75380166D01*
X54366071Y-75380166D01*
X54270833Y-75332547D01*
X54223214Y-75237309D01*
X54223214Y-75046833D01*
X54270833Y-74951595D01*
X54366071Y-74903976D01*
X54461309Y-74903976D01*
X54556547Y-75380166D01*
X56016071Y-76856357D02*
X56063690Y-76713500D01*
X56111309Y-76665880D01*
X56206547Y-76618261D01*
X56349404Y-76618261D01*
X56444642Y-76665880D01*
X56492261Y-76713500D01*
X56539880Y-76808738D01*
X56539880Y-77189690D01*
X55539880Y-77189690D01*
X55539880Y-76856357D01*
X55587500Y-76761119D01*
X55635119Y-76713500D01*
X55730357Y-76665880D01*
X55825595Y-76665880D01*
X55920833Y-76713500D01*
X55968452Y-76761119D01*
X56016071Y-76856357D01*
X56016071Y-77189690D01*
X55873214Y-75761119D02*
X56539880Y-75761119D01*
X55873214Y-76189690D02*
X56397023Y-76189690D01*
X56492261Y-76142071D01*
X56539880Y-76046833D01*
X56539880Y-75903976D01*
X56492261Y-75808738D01*
X56444642Y-75761119D01*
X56492261Y-75332547D02*
X56539880Y-75237309D01*
X56539880Y-75046833D01*
X56492261Y-74951595D01*
X56397023Y-74903976D01*
X56349404Y-74903976D01*
X56254166Y-74951595D01*
X56206547Y-75046833D01*
X56206547Y-75189690D01*
X56158928Y-75284928D01*
X56063690Y-75332547D01*
X56016071Y-75332547D01*
X55920833Y-75284928D01*
X55873214Y-75189690D01*
X55873214Y-75046833D01*
X55920833Y-74951595D01*
X20071428Y-79144571D02*
X20071428Y-78382666D01*
X20452380Y-78763619D02*
X19690476Y-78763619D01*
X19452380Y-77430285D02*
X19452380Y-77906476D01*
X19928571Y-77954095D01*
X19880952Y-77906476D01*
X19833333Y-77811238D01*
X19833333Y-77573142D01*
X19880952Y-77477904D01*
X19928571Y-77430285D01*
X20023809Y-77382666D01*
X20261904Y-77382666D01*
X20357142Y-77430285D01*
X20404761Y-77477904D01*
X20452380Y-77573142D01*
X20452380Y-77811238D01*
X20404761Y-77906476D01*
X20357142Y-77954095D01*
X19452380Y-77096952D02*
X20452380Y-76763619D01*
X19452380Y-76430285D01*
X20452380Y-75335047D02*
X19452380Y-75335047D01*
X20452380Y-74858857D02*
X19452380Y-74858857D01*
X20452380Y-74287428D01*
X19452380Y-74287428D01*
D14*
X43769642Y-76494571D02*
X44626785Y-76494571D01*
X44198214Y-77994571D02*
X44198214Y-76494571D01*
X45983928Y-77851714D02*
X45912500Y-77923142D01*
X45698214Y-77994571D01*
X45555357Y-77994571D01*
X45341071Y-77923142D01*
X45198214Y-77780285D01*
X45126785Y-77637428D01*
X45055357Y-77351714D01*
X45055357Y-77137428D01*
X45126785Y-76851714D01*
X45198214Y-76708857D01*
X45341071Y-76566000D01*
X45555357Y-76494571D01*
X45698214Y-76494571D01*
X45912500Y-76566000D01*
X45983928Y-76637428D01*
X46483928Y-76494571D02*
X47412500Y-76494571D01*
X46912500Y-77066000D01*
X47126785Y-77066000D01*
X47269642Y-77137428D01*
X47341071Y-77208857D01*
X47412500Y-77351714D01*
X47412500Y-77708857D01*
X47341071Y-77851714D01*
X47269642Y-77923142D01*
X47126785Y-77994571D01*
X46698214Y-77994571D01*
X46555357Y-77923142D01*
X46483928Y-77851714D01*
X35769642Y-76494571D02*
X36626785Y-76494571D01*
X36198214Y-77994571D02*
X36198214Y-76494571D01*
X37983928Y-77851714D02*
X37912500Y-77923142D01*
X37698214Y-77994571D01*
X37555357Y-77994571D01*
X37341071Y-77923142D01*
X37198214Y-77780285D01*
X37126785Y-77637428D01*
X37055357Y-77351714D01*
X37055357Y-77137428D01*
X37126785Y-76851714D01*
X37198214Y-76708857D01*
X37341071Y-76566000D01*
X37555357Y-76494571D01*
X37698214Y-76494571D01*
X37912500Y-76566000D01*
X37983928Y-76637428D01*
X38555357Y-76637428D02*
X38626785Y-76566000D01*
X38769642Y-76494571D01*
X39126785Y-76494571D01*
X39269642Y-76566000D01*
X39341071Y-76637428D01*
X39412500Y-76780285D01*
X39412500Y-76923142D01*
X39341071Y-77137428D01*
X38483928Y-77994571D01*
X39412500Y-77994571D01*
X27569642Y-76494571D02*
X28426785Y-76494571D01*
X27998214Y-77994571D02*
X27998214Y-76494571D01*
X29783928Y-77851714D02*
X29712500Y-77923142D01*
X29498214Y-77994571D01*
X29355357Y-77994571D01*
X29141071Y-77923142D01*
X28998214Y-77780285D01*
X28926785Y-77637428D01*
X28855357Y-77351714D01*
X28855357Y-77137428D01*
X28926785Y-76851714D01*
X28998214Y-76708857D01*
X29141071Y-76566000D01*
X29355357Y-76494571D01*
X29498214Y-76494571D01*
X29712500Y-76566000D01*
X29783928Y-76637428D01*
X31212500Y-77994571D02*
X30355357Y-77994571D01*
X30783928Y-77994571D02*
X30783928Y-76494571D01*
X30641071Y-76708857D01*
X30498214Y-76851714D01*
X30355357Y-76923142D01*
D15*
X47630000Y-41970000D02*
X47630000Y-36770000D01*
X34870000Y-41970000D02*
X47630000Y-41970000D01*
X32270000Y-36770000D02*
X47630000Y-36770000D01*
X34870000Y-41970000D02*
X34870000Y-39370000D01*
X34870000Y-39370000D02*
X32270000Y-39370000D01*
X32270000Y-39370000D02*
X32270000Y-36770000D01*
X33600000Y-41970000D02*
X32270000Y-41970000D01*
X32270000Y-41970000D02*
X32270000Y-40640000D01*
D13*
X65237500Y-40691000D02*
X65712500Y-40691000D01*
X65237500Y-35141000D02*
X65812500Y-35141000D01*
X71787500Y-35141000D02*
X71212500Y-35141000D01*
X71787500Y-40691000D02*
X71212500Y-40691000D01*
X65237500Y-40691000D02*
X65237500Y-35141000D01*
X71787500Y-40691000D02*
X71787500Y-35141000D01*
X65712500Y-40691000D02*
X65712500Y-41966000D01*
D15*
X28690000Y-61737221D02*
X28690000Y-62062779D01*
X29710000Y-61737221D02*
X29710000Y-62062779D01*
X62412500Y-73316000D02*
X62812500Y-73316000D01*
X62412500Y-72676000D02*
X62412500Y-73316000D01*
X73817500Y-69457000D02*
X73688500Y-69585000D01*
X76032500Y-67241000D02*
X75938500Y-67335000D01*
X73987500Y-69697000D02*
X73893500Y-69790000D01*
X76237500Y-67447000D02*
X76108500Y-67575000D01*
X70317500Y-69457000D02*
X70188500Y-69585000D01*
X72532500Y-67241000D02*
X72438500Y-67335000D01*
X70487500Y-69697000D02*
X70393500Y-69790000D01*
X72737500Y-67447000D02*
X72608500Y-67575000D01*
X66817500Y-69457000D02*
X66688500Y-69585000D01*
X69032500Y-67241000D02*
X68938500Y-67335000D01*
X66987500Y-69697000D02*
X66893500Y-69790000D01*
X69237500Y-67447000D02*
X69108500Y-67575000D01*
X76772500Y-65356000D02*
X76772500Y-73076000D01*
X62652500Y-65356000D02*
X62652500Y-73076000D01*
X62652500Y-73076000D02*
X76772500Y-73076000D01*
X62652500Y-65356000D02*
X76772500Y-65356000D01*
X62652500Y-71516000D02*
X76772500Y-71516000D01*
X62652500Y-72616000D02*
X76772500Y-72616000D01*
X76642500Y-68516000D02*
G75*
G03X76642500Y-68516000I-1680000J0D01*
G01*
X73142500Y-68516000D02*
G75*
G03X73142500Y-68516000I-1680000J0D01*
G01*
X69642500Y-68516000D02*
G75*
G03X69642500Y-68516000I-1680000J0D01*
G01*
X64491174Y-70196099D02*
G75*
G02X63596500Y-69956000I-28674J1680099D01*
G01*
X63037142Y-69405894D02*
G75*
G02X63022500Y-67650000I1425358J889894D01*
G01*
X63572606Y-67090642D02*
G75*
G02X65328500Y-67076000I889894J-1425358D01*
G01*
X65888005Y-67625807D02*
G75*
G02X65887500Y-69407000I-1425505J-890193D01*
G01*
X65352764Y-69940721D02*
G75*
G02X64462500Y-70196000I-890264J1424721D01*
G01*
X54787500Y-33056000D02*
X52837500Y-33056000D01*
X54787500Y-33056000D02*
X56737500Y-33056000D01*
X54787500Y-38176000D02*
X52837500Y-38176000D01*
X54787500Y-38176000D02*
X58237500Y-38176000D01*
X49212500Y-73296000D02*
X49612500Y-73296000D01*
X49212500Y-72656000D02*
X49212500Y-73296000D01*
X57117500Y-69437000D02*
X56988500Y-69565000D01*
X59332500Y-67221000D02*
X59238500Y-67315000D01*
X57287500Y-69677000D02*
X57193500Y-69770000D01*
X59537500Y-67427000D02*
X59408500Y-67555000D01*
X53617500Y-69437000D02*
X53488500Y-69565000D01*
X55832500Y-67221000D02*
X55738500Y-67315000D01*
X53787500Y-69677000D02*
X53693500Y-69770000D01*
X56037500Y-67427000D02*
X55908500Y-67555000D01*
X60072500Y-65336000D02*
X60072500Y-73056000D01*
X49452500Y-65336000D02*
X49452500Y-73056000D01*
X49452500Y-73056000D02*
X60072500Y-73056000D01*
X49452500Y-65336000D02*
X60072500Y-65336000D01*
X49452500Y-71496000D02*
X60072500Y-71496000D01*
X49452500Y-72596000D02*
X60072500Y-72596000D01*
X59942500Y-68496000D02*
G75*
G03X59942500Y-68496000I-1680000J0D01*
G01*
X56442500Y-68496000D02*
G75*
G03X56442500Y-68496000I-1680000J0D01*
G01*
X51291174Y-70176099D02*
G75*
G02X50396500Y-69936000I-28674J1680099D01*
G01*
X49837142Y-69385894D02*
G75*
G02X49822500Y-67630000I1425358J889894D01*
G01*
X50372606Y-67070642D02*
G75*
G02X52128500Y-67056000I889894J-1425358D01*
G01*
X52688005Y-67605807D02*
G75*
G02X52687500Y-69387000I-1425505J-890193D01*
G01*
X52152764Y-69920721D02*
G75*
G02X51262500Y-70176000I-890264J1424721D01*
G01*
X41212500Y-73316000D02*
X41612500Y-73316000D01*
X41212500Y-72676000D02*
X41212500Y-73316000D01*
X45617500Y-69457000D02*
X45488500Y-69585000D01*
X47832500Y-67241000D02*
X47738500Y-67335000D01*
X45787500Y-69697000D02*
X45693500Y-69790000D01*
X48037500Y-67447000D02*
X47908500Y-67575000D01*
X48572500Y-65356000D02*
X48572500Y-73076000D01*
X41452500Y-65356000D02*
X41452500Y-73076000D01*
X41452500Y-73076000D02*
X48572500Y-73076000D01*
X41452500Y-65356000D02*
X48572500Y-65356000D01*
X41452500Y-71516000D02*
X48572500Y-71516000D01*
X41452500Y-72616000D02*
X48572500Y-72616000D01*
X48442500Y-68516000D02*
G75*
G03X48442500Y-68516000I-1680000J0D01*
G01*
X43291174Y-70196099D02*
G75*
G02X42396500Y-69956000I-28674J1680099D01*
G01*
X41837142Y-69405894D02*
G75*
G02X41822500Y-67650000I1425358J889894D01*
G01*
X42372606Y-67090642D02*
G75*
G02X44128500Y-67076000I889894J-1425358D01*
G01*
X44688005Y-67625807D02*
G75*
G02X44687500Y-69407000I-1425505J-890193D01*
G01*
X44152764Y-69940721D02*
G75*
G02X43262500Y-70196000I-890264J1424721D01*
G01*
X33212500Y-73316000D02*
X33612500Y-73316000D01*
X33212500Y-72676000D02*
X33212500Y-73316000D01*
X37617500Y-69457000D02*
X37488500Y-69585000D01*
X39832500Y-67241000D02*
X39738500Y-67335000D01*
X37787500Y-69697000D02*
X37693500Y-69790000D01*
X40037500Y-67447000D02*
X39908500Y-67575000D01*
X40572500Y-65356000D02*
X40572500Y-73076000D01*
X33452500Y-65356000D02*
X33452500Y-73076000D01*
X33452500Y-73076000D02*
X40572500Y-73076000D01*
X33452500Y-65356000D02*
X40572500Y-65356000D01*
X33452500Y-71516000D02*
X40572500Y-71516000D01*
X33452500Y-72616000D02*
X40572500Y-72616000D01*
X40442500Y-68516000D02*
G75*
G03X40442500Y-68516000I-1680000J0D01*
G01*
X35291174Y-70196099D02*
G75*
G02X34396500Y-69956000I-28674J1680099D01*
G01*
X33837142Y-69405894D02*
G75*
G02X33822500Y-67650000I1425358J889894D01*
G01*
X34372606Y-67090642D02*
G75*
G02X36128500Y-67076000I889894J-1425358D01*
G01*
X36688005Y-67625807D02*
G75*
G02X36687500Y-69407000I-1425505J-890193D01*
G01*
X36152764Y-69940721D02*
G75*
G02X35262500Y-70196000I-890264J1424721D01*
G01*
X25212500Y-73316000D02*
X25612500Y-73316000D01*
X25212500Y-72676000D02*
X25212500Y-73316000D01*
X29617500Y-69457000D02*
X29488500Y-69585000D01*
X31832500Y-67241000D02*
X31738500Y-67335000D01*
X29787500Y-69697000D02*
X29693500Y-69790000D01*
X32037500Y-67447000D02*
X31908500Y-67575000D01*
X32572500Y-65356000D02*
X32572500Y-73076000D01*
X25452500Y-65356000D02*
X25452500Y-73076000D01*
X25452500Y-73076000D02*
X32572500Y-73076000D01*
X25452500Y-65356000D02*
X32572500Y-65356000D01*
X25452500Y-71516000D02*
X32572500Y-71516000D01*
X25452500Y-72616000D02*
X32572500Y-72616000D01*
X32442500Y-68516000D02*
G75*
G03X32442500Y-68516000I-1680000J0D01*
G01*
X27291174Y-70196099D02*
G75*
G02X26396500Y-69956000I-28674J1680099D01*
G01*
X25837142Y-69405894D02*
G75*
G02X25822500Y-67650000I1425358J889894D01*
G01*
X26372606Y-67090642D02*
G75*
G02X28128500Y-67076000I889894J-1425358D01*
G01*
X28688005Y-67625807D02*
G75*
G02X28687500Y-69407000I-1425505J-890193D01*
G01*
X28152764Y-69940721D02*
G75*
G02X27262500Y-70196000I-890264J1424721D01*
G01*
X17212500Y-73316000D02*
X17612500Y-73316000D01*
X17212500Y-72676000D02*
X17212500Y-73316000D01*
X21617500Y-69457000D02*
X21488500Y-69585000D01*
X23832500Y-67241000D02*
X23738500Y-67335000D01*
X21787500Y-69697000D02*
X21693500Y-69790000D01*
X24037500Y-67447000D02*
X23908500Y-67575000D01*
X24572500Y-65356000D02*
X24572500Y-73076000D01*
X17452500Y-65356000D02*
X17452500Y-73076000D01*
X17452500Y-73076000D02*
X24572500Y-73076000D01*
X17452500Y-65356000D02*
X24572500Y-65356000D01*
X17452500Y-71516000D02*
X24572500Y-71516000D01*
X17452500Y-72616000D02*
X24572500Y-72616000D01*
X24442500Y-68516000D02*
G75*
G03X24442500Y-68516000I-1680000J0D01*
G01*
X19291174Y-70196099D02*
G75*
G02X18396500Y-69956000I-28674J1680099D01*
G01*
X17837142Y-69405894D02*
G75*
G02X17822500Y-67650000I1425358J889894D01*
G01*
X18372606Y-67090642D02*
G75*
G02X20128500Y-67076000I889894J-1425358D01*
G01*
X20688005Y-67625807D02*
G75*
G02X20687500Y-69407000I-1425505J-890193D01*
G01*
X20152764Y-69940721D02*
G75*
G02X19262500Y-70196000I-890264J1424721D01*
G01*
X15758578Y-32490000D02*
X15241422Y-32490000D01*
X15758578Y-33910000D02*
X15241422Y-33910000D01*
X24982500Y-62876000D02*
X25912500Y-62876000D01*
X28142500Y-62876000D02*
X27212500Y-62876000D01*
X28142500Y-62876000D02*
X28142500Y-60716000D01*
X24982500Y-62876000D02*
X24982500Y-61416000D01*
X30162779Y-56440000D02*
X29837221Y-56440000D01*
X30162779Y-57460000D02*
X29837221Y-57460000D01*
X26712779Y-59088000D02*
X26387221Y-59088000D01*
X26712779Y-58068000D02*
X26387221Y-58068000D01*
X37677500Y-45403221D02*
X37677500Y-45728779D01*
X38697500Y-45403221D02*
X38697500Y-45728779D01*
X40662779Y-56190000D02*
X40337221Y-56190000D01*
X40662779Y-57210000D02*
X40337221Y-57210000D01*
X36622779Y-58838000D02*
X36297221Y-58838000D01*
X36622779Y-57818000D02*
X36297221Y-57818000D01*
X51150279Y-56381000D02*
X50824721Y-56381000D01*
X51150279Y-57401000D02*
X50824721Y-57401000D01*
X47282779Y-58838000D02*
X46957221Y-58838000D01*
X47282779Y-57818000D02*
X46957221Y-57818000D01*
X29837221Y-59110000D02*
X30162779Y-59110000D01*
X29837221Y-58090000D02*
X30162779Y-58090000D01*
X40337221Y-57800000D02*
X40662779Y-57800000D01*
X40337221Y-58820000D02*
X40662779Y-58820000D01*
X50837221Y-58960000D02*
X51162779Y-58960000D01*
X50837221Y-57940000D02*
X51162779Y-57940000D01*
X28752500Y-43457422D02*
X28752500Y-43974578D01*
X30172500Y-43457422D02*
X30172500Y-43974578D01*
X22482500Y-44507422D02*
X22482500Y-45024578D01*
X21062500Y-44507422D02*
X21062500Y-45024578D01*
X57075279Y-57451000D02*
X56749721Y-57451000D01*
X57075279Y-56431000D02*
X56749721Y-56431000D01*
D13*
X28835000Y-55125000D02*
X28835000Y-52125000D01*
X25535000Y-56125000D02*
X25535000Y-52125000D01*
D15*
X36147500Y-47731000D02*
X36147500Y-44131000D01*
X36135978Y-47769478D02*
G75*
G02X31697500Y-45931000I-1838478J1838478D01*
G01*
X36135978Y-44092522D02*
G75*
G03X31697500Y-45931000I-1838478J-1838478D01*
G01*
D13*
X35445000Y-55875000D02*
X35445000Y-51875000D01*
X38745000Y-54875000D02*
X38745000Y-51875000D01*
X49405000Y-54870000D02*
X49405000Y-51870000D01*
X46105000Y-55870000D02*
X46105000Y-51870000D01*
D15*
X26802500Y-42819800D02*
X28002500Y-42819800D01*
X28002500Y-42819800D02*
X28002500Y-45519800D01*
X23202500Y-46819800D02*
X23202500Y-42819800D01*
X23202500Y-42819800D02*
X24402500Y-42819800D01*
X24410000Y-61737221D02*
X24410000Y-62062779D01*
X23390000Y-61737221D02*
X23390000Y-62062779D01*
X38490000Y-61137221D02*
X38490000Y-61462779D01*
X39510000Y-61137221D02*
X39510000Y-61462779D01*
X34210000Y-61137221D02*
X34210000Y-61462779D01*
X33190000Y-61137221D02*
X33190000Y-61462779D01*
X49140000Y-61037221D02*
X49140000Y-61362779D01*
X50160000Y-61037221D02*
X50160000Y-61362779D01*
X44910000Y-61024721D02*
X44910000Y-61350279D01*
X43890000Y-61024721D02*
X43890000Y-61350279D01*
X34780000Y-62274000D02*
X35710000Y-62274000D01*
X37940000Y-62274000D02*
X37010000Y-62274000D01*
X37940000Y-62274000D02*
X37940000Y-60114000D01*
X34780000Y-62274000D02*
X34780000Y-60814000D01*
X45440000Y-62174000D02*
X45440000Y-60714000D01*
X48600000Y-62174000D02*
X48600000Y-60014000D01*
X48600000Y-62174000D02*
X47670000Y-62174000D01*
X45440000Y-62174000D02*
X46370000Y-62174000D01*
X74622500Y-35453221D02*
X74622500Y-35778779D01*
X73602500Y-35453221D02*
X73602500Y-35778779D01*
X69349721Y-44626000D02*
X69675279Y-44626000D01*
X69349721Y-43606000D02*
X69675279Y-43606000D01*
X66510000Y-44953221D02*
X66510000Y-45278779D01*
X65490000Y-44953221D02*
X65490000Y-45278779D01*
X74622500Y-40078779D02*
X74622500Y-39753221D01*
X73602500Y-40078779D02*
X73602500Y-39753221D01*
X57682500Y-40383221D02*
X57682500Y-40708779D01*
X58702500Y-40383221D02*
X58702500Y-40708779D01*
X51172500Y-40453221D02*
X51172500Y-40778779D01*
X50152500Y-40453221D02*
X50152500Y-40778779D01*
X53952500Y-62218064D02*
X53952500Y-61013936D01*
X55772500Y-62218064D02*
X55772500Y-61013936D01*
X64753922Y-59656000D02*
X65271078Y-59656000D01*
X64753922Y-61076000D02*
X65271078Y-61076000D01*
X64741422Y-52710000D02*
X65258578Y-52710000D01*
X64741422Y-51290000D02*
X65258578Y-51290000D01*
X64482500Y-54516000D02*
X64482500Y-53316000D01*
X64482500Y-53316000D02*
X67182500Y-53316000D01*
X68482500Y-58116000D02*
X64482500Y-58116000D01*
X64482500Y-58116000D02*
X64482500Y-56916000D01*
X29778000Y-39430000D02*
X29778000Y-36770000D01*
X22098000Y-39430000D02*
X29778000Y-39430000D01*
X22098000Y-36770000D02*
X29778000Y-36770000D01*
X22098000Y-39430000D02*
X22098000Y-36770000D01*
X20828000Y-39430000D02*
X19498000Y-39430000D01*
X19498000Y-39430000D02*
X19498000Y-38100000D01*
X33090000Y-33837221D02*
X33090000Y-34162779D01*
X34110000Y-33837221D02*
X34110000Y-34162779D01*
X38090000Y-33837221D02*
X38090000Y-34162779D01*
X39110000Y-33837221D02*
X39110000Y-34162779D01*
X43290000Y-33837221D02*
X43290000Y-34162779D01*
X44310000Y-33837221D02*
X44310000Y-34162779D01*
X36710000Y-33837221D02*
X36710000Y-34162779D01*
X35690000Y-33837221D02*
X35690000Y-34162779D01*
X41710000Y-33837221D02*
X41710000Y-34162779D01*
X40690000Y-33837221D02*
X40690000Y-34162779D01*
X46710000Y-33837221D02*
X46710000Y-34162779D01*
X45690000Y-33837221D02*
X45690000Y-34162779D01*
X29510000Y-34062779D02*
X29510000Y-33737221D01*
X28490000Y-34062779D02*
X28490000Y-33737221D01*
X23862779Y-32610000D02*
X23537221Y-32610000D01*
X23862779Y-31590000D02*
X23537221Y-31590000D01*
X64200000Y-64285000D02*
X66485000Y-64285000D01*
X66485000Y-64285000D02*
X66485000Y-62815000D01*
X66485000Y-62815000D02*
X64200000Y-62815000D01*
X64849721Y-50010000D02*
X65175279Y-50010000D01*
X64849721Y-48990000D02*
X65175279Y-48990000D01*
X23337221Y-48990000D02*
X23662779Y-48990000D01*
X23337221Y-50010000D02*
X23662779Y-50010000D01*
X62265000Y-40265000D02*
X62265000Y-42550000D01*
X63735000Y-40265000D02*
X62265000Y-40265000D01*
X63735000Y-42550000D02*
X63735000Y-40265000D01*
X20765000Y-52700000D02*
X20765000Y-54985000D01*
X20765000Y-54985000D02*
X22235000Y-54985000D01*
X22235000Y-54985000D02*
X22235000Y-52700000D01*
D13*
X47666666Y-34992380D02*
X47666666Y-35706666D01*
X47619047Y-35849523D01*
X47523809Y-35944761D01*
X47380952Y-35992380D01*
X47285714Y-35992380D01*
X48285714Y-35420952D02*
X48190476Y-35373333D01*
X48142857Y-35325714D01*
X48095238Y-35230476D01*
X48095238Y-35182857D01*
X48142857Y-35087619D01*
X48190476Y-35040000D01*
X48285714Y-34992380D01*
X48476190Y-34992380D01*
X48571428Y-35040000D01*
X48619047Y-35087619D01*
X48666666Y-35182857D01*
X48666666Y-35230476D01*
X48619047Y-35325714D01*
X48571428Y-35373333D01*
X48476190Y-35420952D01*
X48285714Y-35420952D01*
X48190476Y-35468571D01*
X48142857Y-35516190D01*
X48095238Y-35611428D01*
X48095238Y-35801904D01*
X48142857Y-35897142D01*
X48190476Y-35944761D01*
X48285714Y-35992380D01*
X48476190Y-35992380D01*
X48571428Y-35944761D01*
X48619047Y-35897142D01*
X48666666Y-35801904D01*
X48666666Y-35611428D01*
X48619047Y-35516190D01*
X48571428Y-35468571D01*
X48476190Y-35420952D01*
X63614880Y-38752904D02*
X64424404Y-38752904D01*
X64519642Y-38705285D01*
X64567261Y-38657666D01*
X64614880Y-38562428D01*
X64614880Y-38371952D01*
X64567261Y-38276714D01*
X64519642Y-38229095D01*
X64424404Y-38181476D01*
X63614880Y-38181476D01*
X63614880Y-37276714D02*
X63614880Y-37467190D01*
X63662500Y-37562428D01*
X63710119Y-37610047D01*
X63852976Y-37705285D01*
X64043452Y-37752904D01*
X64424404Y-37752904D01*
X64519642Y-37705285D01*
X64567261Y-37657666D01*
X64614880Y-37562428D01*
X64614880Y-37371952D01*
X64567261Y-37276714D01*
X64519642Y-37229095D01*
X64424404Y-37181476D01*
X64186309Y-37181476D01*
X64091071Y-37229095D01*
X64043452Y-37276714D01*
X63995833Y-37371952D01*
X63995833Y-37562428D01*
X64043452Y-37657666D01*
X64091071Y-37705285D01*
X64186309Y-37752904D01*
X30558571Y-62733333D02*
X30558571Y-63066666D01*
X31082380Y-63066666D02*
X30082380Y-63066666D01*
X30082380Y-62590476D01*
X30558571Y-61876190D02*
X30606190Y-61733333D01*
X30653809Y-61685714D01*
X30749047Y-61638095D01*
X30891904Y-61638095D01*
X30987142Y-61685714D01*
X31034761Y-61733333D01*
X31082380Y-61828571D01*
X31082380Y-62209523D01*
X30082380Y-62209523D01*
X30082380Y-61876190D01*
X30130000Y-61780952D01*
X30177619Y-61733333D01*
X30272857Y-61685714D01*
X30368095Y-61685714D01*
X30463333Y-61733333D01*
X30510952Y-61780952D01*
X30558571Y-61876190D01*
X30558571Y-62209523D01*
X31082380Y-60685714D02*
X31082380Y-61257142D01*
X31082380Y-60971428D02*
X30082380Y-60971428D01*
X30225238Y-61066666D01*
X30320476Y-61161904D01*
X30368095Y-61257142D01*
X69416666Y-64202380D02*
X69416666Y-64916666D01*
X69369047Y-65059523D01*
X69273809Y-65154761D01*
X69130952Y-65202380D01*
X69035714Y-65202380D01*
X69797619Y-64202380D02*
X70464285Y-64202380D01*
X70035714Y-65202380D01*
X54025595Y-38468380D02*
X54025595Y-39277904D01*
X54073214Y-39373142D01*
X54120833Y-39420761D01*
X54216071Y-39468380D01*
X54406547Y-39468380D01*
X54501785Y-39420761D01*
X54549404Y-39373142D01*
X54597023Y-39277904D01*
X54597023Y-38468380D01*
X54977976Y-38468380D02*
X55644642Y-38468380D01*
X55216071Y-39468380D01*
X58166666Y-63952380D02*
X58166666Y-64666666D01*
X58119047Y-64809523D01*
X58023809Y-64904761D01*
X57880952Y-64952380D01*
X57785714Y-64952380D01*
X59071428Y-63952380D02*
X58880952Y-63952380D01*
X58785714Y-64000000D01*
X58738095Y-64047619D01*
X58642857Y-64190476D01*
X58595238Y-64380952D01*
X58595238Y-64761904D01*
X58642857Y-64857142D01*
X58690476Y-64904761D01*
X58785714Y-64952380D01*
X58976190Y-64952380D01*
X59071428Y-64904761D01*
X59119047Y-64857142D01*
X59166666Y-64761904D01*
X59166666Y-64523809D01*
X59119047Y-64428571D01*
X59071428Y-64380952D01*
X58976190Y-64333333D01*
X58785714Y-64333333D01*
X58690476Y-64380952D01*
X58642857Y-64428571D01*
X58595238Y-64523809D01*
X43166666Y-64018380D02*
X43166666Y-64732666D01*
X43119047Y-64875523D01*
X43023809Y-64970761D01*
X42880952Y-65018380D01*
X42785714Y-65018380D01*
X44119047Y-64018380D02*
X43642857Y-64018380D01*
X43595238Y-64494571D01*
X43642857Y-64446952D01*
X43738095Y-64399333D01*
X43976190Y-64399333D01*
X44071428Y-64446952D01*
X44119047Y-64494571D01*
X44166666Y-64589809D01*
X44166666Y-64827904D01*
X44119047Y-64923142D01*
X44071428Y-64970761D01*
X43976190Y-65018380D01*
X43738095Y-65018380D01*
X43642857Y-64970761D01*
X43595238Y-64923142D01*
X38666666Y-63868380D02*
X38666666Y-64582666D01*
X38619047Y-64725523D01*
X38523809Y-64820761D01*
X38380952Y-64868380D01*
X38285714Y-64868380D01*
X39571428Y-64201714D02*
X39571428Y-64868380D01*
X39333333Y-63820761D02*
X39095238Y-64535047D01*
X39714285Y-64535047D01*
X30429166Y-63952380D02*
X30429166Y-64666666D01*
X30381547Y-64809523D01*
X30286309Y-64904761D01*
X30143452Y-64952380D01*
X30048214Y-64952380D01*
X30810119Y-63952380D02*
X31429166Y-63952380D01*
X31095833Y-64333333D01*
X31238690Y-64333333D01*
X31333928Y-64380952D01*
X31381547Y-64428571D01*
X31429166Y-64523809D01*
X31429166Y-64761904D01*
X31381547Y-64857142D01*
X31333928Y-64904761D01*
X31238690Y-64952380D01*
X30952976Y-64952380D01*
X30857738Y-64904761D01*
X30810119Y-64857142D01*
X20679166Y-63808380D02*
X20679166Y-64522666D01*
X20631547Y-64665523D01*
X20536309Y-64760761D01*
X20393452Y-64808380D01*
X20298214Y-64808380D01*
X21679166Y-64808380D02*
X21107738Y-64808380D01*
X21393452Y-64808380D02*
X21393452Y-63808380D01*
X21298214Y-63951238D01*
X21202976Y-64046476D01*
X21107738Y-64094095D01*
D11*
X15330666Y-35362857D02*
X15282285Y-35411238D01*
X15137142Y-35459619D01*
X15040380Y-35459619D01*
X14895238Y-35411238D01*
X14798476Y-35314476D01*
X14750095Y-35217714D01*
X14701714Y-35024190D01*
X14701714Y-34879047D01*
X14750095Y-34685523D01*
X14798476Y-34588761D01*
X14895238Y-34492000D01*
X15040380Y-34443619D01*
X15137142Y-34443619D01*
X15282285Y-34492000D01*
X15330666Y-34540380D01*
X16201523Y-34782285D02*
X16201523Y-35459619D01*
X15959619Y-34395238D02*
X15717714Y-35120952D01*
X16346666Y-35120952D01*
D13*
X25924404Y-64868380D02*
X25924404Y-63868380D01*
X26162500Y-63868380D01*
X26305357Y-63916000D01*
X26400595Y-64011238D01*
X26448214Y-64106476D01*
X26495833Y-64296952D01*
X26495833Y-64439809D01*
X26448214Y-64630285D01*
X26400595Y-64725523D01*
X26305357Y-64820761D01*
X26162500Y-64868380D01*
X25924404Y-64868380D01*
X27448214Y-64868380D02*
X26876785Y-64868380D01*
X27162500Y-64868380D02*
X27162500Y-63868380D01*
X27067261Y-64011238D01*
X26972023Y-64106476D01*
X26876785Y-64154095D01*
D11*
X32318536Y-57312857D02*
X32270155Y-57361238D01*
X32125012Y-57409619D01*
X32028250Y-57409619D01*
X31883107Y-57361238D01*
X31786345Y-57264476D01*
X31737964Y-57167714D01*
X31689583Y-56974190D01*
X31689583Y-56829047D01*
X31737964Y-56635523D01*
X31786345Y-56538761D01*
X31883107Y-56442000D01*
X32028250Y-56393619D01*
X32125012Y-56393619D01*
X32270155Y-56442000D01*
X32318536Y-56490380D01*
X33189393Y-56393619D02*
X32995869Y-56393619D01*
X32899107Y-56442000D01*
X32850726Y-56490380D01*
X32753964Y-56635523D01*
X32705583Y-56829047D01*
X32705583Y-57216095D01*
X32753964Y-57312857D01*
X32802345Y-57361238D01*
X32899107Y-57409619D01*
X33092631Y-57409619D01*
X33189393Y-57361238D01*
X33237774Y-57312857D01*
X33286155Y-57216095D01*
X33286155Y-56974190D01*
X33237774Y-56877428D01*
X33189393Y-56829047D01*
X33092631Y-56780666D01*
X32899107Y-56780666D01*
X32802345Y-56829047D01*
X32753964Y-56877428D01*
X32705583Y-56974190D01*
X25896857Y-57670857D02*
X25848476Y-57719238D01*
X25703333Y-57767619D01*
X25606571Y-57767619D01*
X25461428Y-57719238D01*
X25364666Y-57622476D01*
X25316285Y-57525714D01*
X25267904Y-57332190D01*
X25267904Y-57187047D01*
X25316285Y-56993523D01*
X25364666Y-56896761D01*
X25461428Y-56800000D01*
X25606571Y-56751619D01*
X25703333Y-56751619D01*
X25848476Y-56800000D01*
X25896857Y-56848380D01*
X26864476Y-57767619D02*
X26283904Y-57767619D01*
X26574190Y-57767619D02*
X26574190Y-56751619D01*
X26477428Y-56896761D01*
X26380666Y-56993523D01*
X26283904Y-57041904D01*
X27832095Y-57767619D02*
X27251523Y-57767619D01*
X27541809Y-57767619D02*
X27541809Y-56751619D01*
X27445047Y-56896761D01*
X27348285Y-56993523D01*
X27251523Y-57041904D01*
X38550357Y-48275333D02*
X38598738Y-48323714D01*
X38647119Y-48468857D01*
X38647119Y-48565619D01*
X38598738Y-48710761D01*
X38501976Y-48807523D01*
X38405214Y-48855904D01*
X38211690Y-48904285D01*
X38066547Y-48904285D01*
X37873023Y-48855904D01*
X37776261Y-48807523D01*
X37679500Y-48710761D01*
X37631119Y-48565619D01*
X37631119Y-48468857D01*
X37679500Y-48323714D01*
X37727880Y-48275333D01*
X37631119Y-47936666D02*
X37631119Y-47307714D01*
X38018166Y-47646380D01*
X38018166Y-47501238D01*
X38066547Y-47404476D01*
X38114928Y-47356095D01*
X38211690Y-47307714D01*
X38453595Y-47307714D01*
X38550357Y-47356095D01*
X38598738Y-47404476D01*
X38647119Y-47501238D01*
X38647119Y-47791523D01*
X38598738Y-47888285D01*
X38550357Y-47936666D01*
X42818536Y-57062857D02*
X42770155Y-57111238D01*
X42625012Y-57159619D01*
X42528250Y-57159619D01*
X42383107Y-57111238D01*
X42286345Y-57014476D01*
X42237964Y-56917714D01*
X42189583Y-56724190D01*
X42189583Y-56579047D01*
X42237964Y-56385523D01*
X42286345Y-56288761D01*
X42383107Y-56192000D01*
X42528250Y-56143619D01*
X42625012Y-56143619D01*
X42770155Y-56192000D01*
X42818536Y-56240380D01*
X43399107Y-56579047D02*
X43302345Y-56530666D01*
X43253964Y-56482285D01*
X43205583Y-56385523D01*
X43205583Y-56337142D01*
X43253964Y-56240380D01*
X43302345Y-56192000D01*
X43399107Y-56143619D01*
X43592631Y-56143619D01*
X43689393Y-56192000D01*
X43737774Y-56240380D01*
X43786155Y-56337142D01*
X43786155Y-56385523D01*
X43737774Y-56482285D01*
X43689393Y-56530666D01*
X43592631Y-56579047D01*
X43399107Y-56579047D01*
X43302345Y-56627428D01*
X43253964Y-56675809D01*
X43205583Y-56772571D01*
X43205583Y-56966095D01*
X43253964Y-57062857D01*
X43302345Y-57111238D01*
X43399107Y-57159619D01*
X43592631Y-57159619D01*
X43689393Y-57111238D01*
X43737774Y-57062857D01*
X43786155Y-56966095D01*
X43786155Y-56772571D01*
X43737774Y-56675809D01*
X43689393Y-56627428D01*
X43592631Y-56579047D01*
X35806857Y-57420857D02*
X35758476Y-57469238D01*
X35613333Y-57517619D01*
X35516571Y-57517619D01*
X35371428Y-57469238D01*
X35274666Y-57372476D01*
X35226285Y-57275714D01*
X35177904Y-57082190D01*
X35177904Y-56937047D01*
X35226285Y-56743523D01*
X35274666Y-56646761D01*
X35371428Y-56550000D01*
X35516571Y-56501619D01*
X35613333Y-56501619D01*
X35758476Y-56550000D01*
X35806857Y-56598380D01*
X36774476Y-57517619D02*
X36193904Y-57517619D01*
X36484190Y-57517619D02*
X36484190Y-56501619D01*
X36387428Y-56646761D01*
X36290666Y-56743523D01*
X36193904Y-56791904D01*
X37161523Y-56598380D02*
X37209904Y-56550000D01*
X37306666Y-56501619D01*
X37548571Y-56501619D01*
X37645333Y-56550000D01*
X37693714Y-56598380D01*
X37742095Y-56695142D01*
X37742095Y-56791904D01*
X37693714Y-56937047D01*
X37113142Y-57517619D01*
X37742095Y-57517619D01*
X50421536Y-55862857D02*
X50373155Y-55911238D01*
X50228012Y-55959619D01*
X50131250Y-55959619D01*
X49986107Y-55911238D01*
X49889345Y-55814476D01*
X49840964Y-55717714D01*
X49792583Y-55524190D01*
X49792583Y-55379047D01*
X49840964Y-55185523D01*
X49889345Y-55088761D01*
X49986107Y-54992000D01*
X50131250Y-54943619D01*
X50228012Y-54943619D01*
X50373155Y-54992000D01*
X50421536Y-55040380D01*
X51389155Y-55959619D02*
X50808583Y-55959619D01*
X51098869Y-55959619D02*
X51098869Y-54943619D01*
X51002107Y-55088761D01*
X50905345Y-55185523D01*
X50808583Y-55233904D01*
X52018107Y-54943619D02*
X52114869Y-54943619D01*
X52211631Y-54992000D01*
X52260012Y-55040380D01*
X52308393Y-55137142D01*
X52356774Y-55330666D01*
X52356774Y-55572571D01*
X52308393Y-55766095D01*
X52260012Y-55862857D01*
X52211631Y-55911238D01*
X52114869Y-55959619D01*
X52018107Y-55959619D01*
X51921345Y-55911238D01*
X51872964Y-55862857D01*
X51824583Y-55766095D01*
X51776202Y-55572571D01*
X51776202Y-55330666D01*
X51824583Y-55137142D01*
X51872964Y-55040380D01*
X51921345Y-54992000D01*
X52018107Y-54943619D01*
X46466857Y-57420857D02*
X46418476Y-57469238D01*
X46273333Y-57517619D01*
X46176571Y-57517619D01*
X46031428Y-57469238D01*
X45934666Y-57372476D01*
X45886285Y-57275714D01*
X45837904Y-57082190D01*
X45837904Y-56937047D01*
X45886285Y-56743523D01*
X45934666Y-56646761D01*
X46031428Y-56550000D01*
X46176571Y-56501619D01*
X46273333Y-56501619D01*
X46418476Y-56550000D01*
X46466857Y-56598380D01*
X47434476Y-57517619D02*
X46853904Y-57517619D01*
X47144190Y-57517619D02*
X47144190Y-56501619D01*
X47047428Y-56646761D01*
X46950666Y-56743523D01*
X46853904Y-56791904D01*
X47773142Y-56501619D02*
X48402095Y-56501619D01*
X48063428Y-56888666D01*
X48208571Y-56888666D01*
X48305333Y-56937047D01*
X48353714Y-56985428D01*
X48402095Y-57082190D01*
X48402095Y-57324095D01*
X48353714Y-57420857D01*
X48305333Y-57469238D01*
X48208571Y-57517619D01*
X47918285Y-57517619D01*
X47821523Y-57469238D01*
X47773142Y-57420857D01*
X32318536Y-58962857D02*
X32270155Y-59011238D01*
X32125012Y-59059619D01*
X32028250Y-59059619D01*
X31883107Y-59011238D01*
X31786345Y-58914476D01*
X31737964Y-58817714D01*
X31689583Y-58624190D01*
X31689583Y-58479047D01*
X31737964Y-58285523D01*
X31786345Y-58188761D01*
X31883107Y-58092000D01*
X32028250Y-58043619D01*
X32125012Y-58043619D01*
X32270155Y-58092000D01*
X32318536Y-58140380D01*
X33237774Y-58043619D02*
X32753964Y-58043619D01*
X32705583Y-58527428D01*
X32753964Y-58479047D01*
X32850726Y-58430666D01*
X33092631Y-58430666D01*
X33189393Y-58479047D01*
X33237774Y-58527428D01*
X33286155Y-58624190D01*
X33286155Y-58866095D01*
X33237774Y-58962857D01*
X33189393Y-59011238D01*
X33092631Y-59059619D01*
X32850726Y-59059619D01*
X32753964Y-59011238D01*
X32705583Y-58962857D01*
X42818536Y-58672857D02*
X42770155Y-58721238D01*
X42625012Y-58769619D01*
X42528250Y-58769619D01*
X42383107Y-58721238D01*
X42286345Y-58624476D01*
X42237964Y-58527714D01*
X42189583Y-58334190D01*
X42189583Y-58189047D01*
X42237964Y-57995523D01*
X42286345Y-57898761D01*
X42383107Y-57802000D01*
X42528250Y-57753619D01*
X42625012Y-57753619D01*
X42770155Y-57802000D01*
X42818536Y-57850380D01*
X43157202Y-57753619D02*
X43834536Y-57753619D01*
X43399107Y-58769619D01*
X53318536Y-58812857D02*
X53270155Y-58861238D01*
X53125012Y-58909619D01*
X53028250Y-58909619D01*
X52883107Y-58861238D01*
X52786345Y-58764476D01*
X52737964Y-58667714D01*
X52689583Y-58474190D01*
X52689583Y-58329047D01*
X52737964Y-58135523D01*
X52786345Y-58038761D01*
X52883107Y-57942000D01*
X53028250Y-57893619D01*
X53125012Y-57893619D01*
X53270155Y-57942000D01*
X53318536Y-57990380D01*
X53802345Y-58909619D02*
X53995869Y-58909619D01*
X54092631Y-58861238D01*
X54141012Y-58812857D01*
X54237774Y-58667714D01*
X54286155Y-58474190D01*
X54286155Y-58087142D01*
X54237774Y-57990380D01*
X54189393Y-57942000D01*
X54092631Y-57893619D01*
X53899107Y-57893619D01*
X53802345Y-57942000D01*
X53753964Y-57990380D01*
X53705583Y-58087142D01*
X53705583Y-58329047D01*
X53753964Y-58425809D01*
X53802345Y-58474190D01*
X53899107Y-58522571D01*
X54092631Y-58522571D01*
X54189393Y-58474190D01*
X54237774Y-58425809D01*
X54286155Y-58329047D01*
X29862857Y-46669333D02*
X29911238Y-46717714D01*
X29959619Y-46862857D01*
X29959619Y-46959619D01*
X29911238Y-47104761D01*
X29814476Y-47201523D01*
X29717714Y-47249904D01*
X29524190Y-47298285D01*
X29379047Y-47298285D01*
X29185523Y-47249904D01*
X29088761Y-47201523D01*
X28992000Y-47104761D01*
X28943619Y-46959619D01*
X28943619Y-46862857D01*
X28992000Y-46717714D01*
X29040380Y-46669333D01*
X29040380Y-46282285D02*
X28992000Y-46233904D01*
X28943619Y-46137142D01*
X28943619Y-45895238D01*
X28992000Y-45798476D01*
X29040380Y-45750095D01*
X29137142Y-45701714D01*
X29233904Y-45701714D01*
X29379047Y-45750095D01*
X29959619Y-46330666D01*
X29959619Y-45701714D01*
X20362857Y-44669333D02*
X20411238Y-44717714D01*
X20459619Y-44862857D01*
X20459619Y-44959619D01*
X20411238Y-45104761D01*
X20314476Y-45201523D01*
X20217714Y-45249904D01*
X20024190Y-45298285D01*
X19879047Y-45298285D01*
X19685523Y-45249904D01*
X19588761Y-45201523D01*
X19492000Y-45104761D01*
X19443619Y-44959619D01*
X19443619Y-44862857D01*
X19492000Y-44717714D01*
X19540380Y-44669333D01*
X20459619Y-43701714D02*
X20459619Y-44282285D01*
X20459619Y-43992000D02*
X19443619Y-43992000D01*
X19588761Y-44088761D01*
X19685523Y-44185523D01*
X19733904Y-44282285D01*
X56830666Y-55959619D02*
X56492000Y-55475809D01*
X56250095Y-55959619D02*
X56250095Y-54943619D01*
X56637142Y-54943619D01*
X56733904Y-54992000D01*
X56782285Y-55040380D01*
X56830666Y-55137142D01*
X56830666Y-55282285D01*
X56782285Y-55379047D01*
X56733904Y-55427428D01*
X56637142Y-55475809D01*
X56250095Y-55475809D01*
X57798285Y-55959619D02*
X57217714Y-55959619D01*
X57508000Y-55959619D02*
X57508000Y-54943619D01*
X57411238Y-55088761D01*
X57314476Y-55185523D01*
X57217714Y-55233904D01*
X24215619Y-54399095D02*
X25038095Y-54399095D01*
X25134857Y-54350714D01*
X25183238Y-54302333D01*
X25231619Y-54205571D01*
X25231619Y-54012047D01*
X25183238Y-53915285D01*
X25134857Y-53866904D01*
X25038095Y-53818523D01*
X24215619Y-53818523D01*
X24215619Y-53431476D02*
X24215619Y-52802523D01*
X24602666Y-53141190D01*
X24602666Y-52996047D01*
X24651047Y-52899285D01*
X24699428Y-52850904D01*
X24796190Y-52802523D01*
X25038095Y-52802523D01*
X25134857Y-52850904D01*
X25183238Y-52899285D01*
X25231619Y-52996047D01*
X25231619Y-53286333D01*
X25183238Y-53383095D01*
X25134857Y-53431476D01*
X31225904Y-47943619D02*
X31225904Y-48766095D01*
X31274285Y-48862857D01*
X31322666Y-48911238D01*
X31419428Y-48959619D01*
X31612952Y-48959619D01*
X31709714Y-48911238D01*
X31758095Y-48862857D01*
X31806476Y-48766095D01*
X31806476Y-47943619D01*
X32241904Y-48040380D02*
X32290285Y-47992000D01*
X32387047Y-47943619D01*
X32628952Y-47943619D01*
X32725714Y-47992000D01*
X32774095Y-48040380D01*
X32822476Y-48137142D01*
X32822476Y-48233904D01*
X32774095Y-48379047D01*
X32193523Y-48959619D01*
X32822476Y-48959619D01*
X39078619Y-54149095D02*
X39901095Y-54149095D01*
X39997857Y-54100714D01*
X40046238Y-54052333D01*
X40094619Y-53955571D01*
X40094619Y-53762047D01*
X40046238Y-53665285D01*
X39997857Y-53616904D01*
X39901095Y-53568523D01*
X39078619Y-53568523D01*
X39417285Y-52649285D02*
X40094619Y-52649285D01*
X39030238Y-52891190D02*
X39755952Y-53133095D01*
X39755952Y-52504142D01*
X44785619Y-54149095D02*
X45608095Y-54149095D01*
X45704857Y-54100714D01*
X45753238Y-54052333D01*
X45801619Y-53955571D01*
X45801619Y-53762047D01*
X45753238Y-53665285D01*
X45704857Y-53616904D01*
X45608095Y-53568523D01*
X44785619Y-53568523D01*
X44785619Y-52600904D02*
X44785619Y-53084714D01*
X45269428Y-53133095D01*
X45221047Y-53084714D01*
X45172666Y-52987952D01*
X45172666Y-52746047D01*
X45221047Y-52649285D01*
X45269428Y-52600904D01*
X45366190Y-52552523D01*
X45608095Y-52552523D01*
X45704857Y-52600904D01*
X45753238Y-52649285D01*
X45801619Y-52746047D01*
X45801619Y-52987952D01*
X45753238Y-53084714D01*
X45704857Y-53133095D01*
X24888404Y-47159619D02*
X24888404Y-47982095D01*
X24936785Y-48078857D01*
X24985166Y-48127238D01*
X25081928Y-48175619D01*
X25275452Y-48175619D01*
X25372214Y-48127238D01*
X25420595Y-48078857D01*
X25468976Y-47982095D01*
X25468976Y-47159619D01*
X26484976Y-48175619D02*
X25904404Y-48175619D01*
X26194690Y-48175619D02*
X26194690Y-47159619D01*
X26097928Y-47304761D01*
X26001166Y-47401523D01*
X25904404Y-47449904D01*
X22486500Y-62590833D02*
X22486500Y-62887166D01*
X22952166Y-62887166D02*
X22063166Y-62887166D01*
X22063166Y-62463833D01*
X22486500Y-61828833D02*
X22528833Y-61701833D01*
X22571166Y-61659500D01*
X22655833Y-61617166D01*
X22782833Y-61617166D01*
X22867500Y-61659500D01*
X22909833Y-61701833D01*
X22952166Y-61786500D01*
X22952166Y-62125166D01*
X22063166Y-62125166D01*
X22063166Y-61828833D01*
X22105500Y-61744166D01*
X22147833Y-61701833D01*
X22232500Y-61659500D01*
X22317166Y-61659500D01*
X22401833Y-61701833D01*
X22444166Y-61744166D01*
X22486500Y-61828833D01*
X22486500Y-62125166D01*
X22147833Y-61278500D02*
X22105500Y-61236166D01*
X22063166Y-61151500D01*
X22063166Y-60939833D01*
X22105500Y-60855166D01*
X22147833Y-60812833D01*
X22232500Y-60770500D01*
X22317166Y-60770500D01*
X22444166Y-60812833D01*
X22952166Y-61320833D01*
X22952166Y-60770500D01*
D13*
X40198571Y-62133333D02*
X40198571Y-62466666D01*
X40722380Y-62466666D02*
X39722380Y-62466666D01*
X39722380Y-61990476D01*
X40198571Y-61276190D02*
X40246190Y-61133333D01*
X40293809Y-61085714D01*
X40389047Y-61038095D01*
X40531904Y-61038095D01*
X40627142Y-61085714D01*
X40674761Y-61133333D01*
X40722380Y-61228571D01*
X40722380Y-61609523D01*
X39722380Y-61609523D01*
X39722380Y-61276190D01*
X39770000Y-61180952D01*
X39817619Y-61133333D01*
X39912857Y-61085714D01*
X40008095Y-61085714D01*
X40103333Y-61133333D01*
X40150952Y-61180952D01*
X40198571Y-61276190D01*
X40198571Y-61609523D01*
X39722380Y-60704761D02*
X39722380Y-60085714D01*
X40103333Y-60419047D01*
X40103333Y-60276190D01*
X40150952Y-60180952D01*
X40198571Y-60133333D01*
X40293809Y-60085714D01*
X40531904Y-60085714D01*
X40627142Y-60133333D01*
X40674761Y-60180952D01*
X40722380Y-60276190D01*
X40722380Y-60561904D01*
X40674761Y-60657142D01*
X40627142Y-60704761D01*
X32358571Y-62133333D02*
X32358571Y-62466666D01*
X32882380Y-62466666D02*
X31882380Y-62466666D01*
X31882380Y-61990476D01*
X32358571Y-61276190D02*
X32406190Y-61133333D01*
X32453809Y-61085714D01*
X32549047Y-61038095D01*
X32691904Y-61038095D01*
X32787142Y-61085714D01*
X32834761Y-61133333D01*
X32882380Y-61228571D01*
X32882380Y-61609523D01*
X31882380Y-61609523D01*
X31882380Y-61276190D01*
X31930000Y-61180952D01*
X31977619Y-61133333D01*
X32072857Y-61085714D01*
X32168095Y-61085714D01*
X32263333Y-61133333D01*
X32310952Y-61180952D01*
X32358571Y-61276190D01*
X32358571Y-61609523D01*
X32215714Y-60180952D02*
X32882380Y-60180952D01*
X31834761Y-60419047D02*
X32549047Y-60657142D01*
X32549047Y-60038095D01*
X51008571Y-62033333D02*
X51008571Y-62366666D01*
X51532380Y-62366666D02*
X50532380Y-62366666D01*
X50532380Y-61890476D01*
X51008571Y-61176190D02*
X51056190Y-61033333D01*
X51103809Y-60985714D01*
X51199047Y-60938095D01*
X51341904Y-60938095D01*
X51437142Y-60985714D01*
X51484761Y-61033333D01*
X51532380Y-61128571D01*
X51532380Y-61509523D01*
X50532380Y-61509523D01*
X50532380Y-61176190D01*
X50580000Y-61080952D01*
X50627619Y-61033333D01*
X50722857Y-60985714D01*
X50818095Y-60985714D01*
X50913333Y-61033333D01*
X50960952Y-61080952D01*
X51008571Y-61176190D01*
X51008571Y-61509523D01*
X50532380Y-60033333D02*
X50532380Y-60509523D01*
X51008571Y-60557142D01*
X50960952Y-60509523D01*
X50913333Y-60414285D01*
X50913333Y-60176190D01*
X50960952Y-60080952D01*
X51008571Y-60033333D01*
X51103809Y-59985714D01*
X51341904Y-59985714D01*
X51437142Y-60033333D01*
X51484761Y-60080952D01*
X51532380Y-60176190D01*
X51532380Y-60414285D01*
X51484761Y-60509523D01*
X51437142Y-60557142D01*
X43058571Y-62020833D02*
X43058571Y-62354166D01*
X43582380Y-62354166D02*
X42582380Y-62354166D01*
X42582380Y-61877976D01*
X43058571Y-61163690D02*
X43106190Y-61020833D01*
X43153809Y-60973214D01*
X43249047Y-60925595D01*
X43391904Y-60925595D01*
X43487142Y-60973214D01*
X43534761Y-61020833D01*
X43582380Y-61116071D01*
X43582380Y-61497023D01*
X42582380Y-61497023D01*
X42582380Y-61163690D01*
X42630000Y-61068452D01*
X42677619Y-61020833D01*
X42772857Y-60973214D01*
X42868095Y-60973214D01*
X42963333Y-61020833D01*
X43010952Y-61068452D01*
X43058571Y-61163690D01*
X43058571Y-61497023D01*
X42582380Y-60068452D02*
X42582380Y-60258928D01*
X42630000Y-60354166D01*
X42677619Y-60401785D01*
X42820476Y-60497023D01*
X43010952Y-60544642D01*
X43391904Y-60544642D01*
X43487142Y-60497023D01*
X43534761Y-60449404D01*
X43582380Y-60354166D01*
X43582380Y-60163690D01*
X43534761Y-60068452D01*
X43487142Y-60020833D01*
X43391904Y-59973214D01*
X43153809Y-59973214D01*
X43058571Y-60020833D01*
X43010952Y-60068452D01*
X42963333Y-60163690D01*
X42963333Y-60354166D01*
X43010952Y-60449404D01*
X43058571Y-60497023D01*
X43153809Y-60544642D01*
X35524404Y-64368380D02*
X35524404Y-63368380D01*
X35762500Y-63368380D01*
X35905357Y-63416000D01*
X36000595Y-63511238D01*
X36048214Y-63606476D01*
X36095833Y-63796952D01*
X36095833Y-63939809D01*
X36048214Y-64130285D01*
X36000595Y-64225523D01*
X35905357Y-64320761D01*
X35762500Y-64368380D01*
X35524404Y-64368380D01*
X36476785Y-63463619D02*
X36524404Y-63416000D01*
X36619642Y-63368380D01*
X36857738Y-63368380D01*
X36952976Y-63416000D01*
X37000595Y-63463619D01*
X37048214Y-63558857D01*
X37048214Y-63654095D01*
X37000595Y-63796952D01*
X36429166Y-64368380D01*
X37048214Y-64368380D01*
X46324404Y-64268380D02*
X46324404Y-63268380D01*
X46562500Y-63268380D01*
X46705357Y-63316000D01*
X46800595Y-63411238D01*
X46848214Y-63506476D01*
X46895833Y-63696952D01*
X46895833Y-63839809D01*
X46848214Y-64030285D01*
X46800595Y-64125523D01*
X46705357Y-64220761D01*
X46562500Y-64268380D01*
X46324404Y-64268380D01*
X47229166Y-63268380D02*
X47848214Y-63268380D01*
X47514880Y-63649333D01*
X47657738Y-63649333D01*
X47752976Y-63696952D01*
X47800595Y-63744571D01*
X47848214Y-63839809D01*
X47848214Y-64077904D01*
X47800595Y-64173142D01*
X47752976Y-64220761D01*
X47657738Y-64268380D01*
X47372023Y-64268380D01*
X47276785Y-64220761D01*
X47229166Y-64173142D01*
X76169642Y-36358857D02*
X76217261Y-36406476D01*
X76264880Y-36549333D01*
X76264880Y-36644571D01*
X76217261Y-36787428D01*
X76122023Y-36882666D01*
X76026785Y-36930285D01*
X75836309Y-36977904D01*
X75693452Y-36977904D01*
X75502976Y-36930285D01*
X75407738Y-36882666D01*
X75312500Y-36787428D01*
X75264880Y-36644571D01*
X75264880Y-36549333D01*
X75312500Y-36406476D01*
X75360119Y-36358857D01*
X76264880Y-35406476D02*
X76264880Y-35977904D01*
X76264880Y-35692190D02*
X75264880Y-35692190D01*
X75407738Y-35787428D01*
X75502976Y-35882666D01*
X75550595Y-35977904D01*
X75598214Y-34549333D02*
X76264880Y-34549333D01*
X75217261Y-34787428D02*
X75931547Y-35025523D01*
X75931547Y-34406476D01*
X71619642Y-44473142D02*
X71572023Y-44520761D01*
X71429166Y-44568380D01*
X71333928Y-44568380D01*
X71191071Y-44520761D01*
X71095833Y-44425523D01*
X71048214Y-44330285D01*
X71000595Y-44139809D01*
X71000595Y-43996952D01*
X71048214Y-43806476D01*
X71095833Y-43711238D01*
X71191071Y-43616000D01*
X71333928Y-43568380D01*
X71429166Y-43568380D01*
X71572023Y-43616000D01*
X71619642Y-43663619D01*
X72572023Y-44568380D02*
X72000595Y-44568380D01*
X72286309Y-44568380D02*
X72286309Y-43568380D01*
X72191071Y-43711238D01*
X72095833Y-43806476D01*
X72000595Y-43854095D01*
X73476785Y-43568380D02*
X73000595Y-43568380D01*
X72952976Y-44044571D01*
X73000595Y-43996952D01*
X73095833Y-43949333D01*
X73333928Y-43949333D01*
X73429166Y-43996952D01*
X73476785Y-44044571D01*
X73524404Y-44139809D01*
X73524404Y-44377904D01*
X73476785Y-44473142D01*
X73429166Y-44520761D01*
X73333928Y-44568380D01*
X73095833Y-44568380D01*
X73000595Y-44520761D01*
X72952976Y-44473142D01*
X66107142Y-47607142D02*
X66059523Y-47654761D01*
X65916666Y-47702380D01*
X65821428Y-47702380D01*
X65678571Y-47654761D01*
X65583333Y-47559523D01*
X65535714Y-47464285D01*
X65488095Y-47273809D01*
X65488095Y-47130952D01*
X65535714Y-46940476D01*
X65583333Y-46845238D01*
X65678571Y-46750000D01*
X65821428Y-46702380D01*
X65916666Y-46702380D01*
X66059523Y-46750000D01*
X66107142Y-46797619D01*
X67059523Y-47702380D02*
X66488095Y-47702380D01*
X66773809Y-47702380D02*
X66773809Y-46702380D01*
X66678571Y-46845238D01*
X66583333Y-46940476D01*
X66488095Y-46988095D01*
X67916666Y-46702380D02*
X67726190Y-46702380D01*
X67630952Y-46750000D01*
X67583333Y-46797619D01*
X67488095Y-46940476D01*
X67440476Y-47130952D01*
X67440476Y-47511904D01*
X67488095Y-47607142D01*
X67535714Y-47654761D01*
X67630952Y-47702380D01*
X67821428Y-47702380D01*
X67916666Y-47654761D01*
X67964285Y-47607142D01*
X68011904Y-47511904D01*
X68011904Y-47273809D01*
X67964285Y-47178571D01*
X67916666Y-47130952D01*
X67821428Y-47083333D01*
X67630952Y-47083333D01*
X67535714Y-47130952D01*
X67488095Y-47178571D01*
X67440476Y-47273809D01*
X76069642Y-40558857D02*
X76117261Y-40606476D01*
X76164880Y-40749333D01*
X76164880Y-40844571D01*
X76117261Y-40987428D01*
X76022023Y-41082666D01*
X75926785Y-41130285D01*
X75736309Y-41177904D01*
X75593452Y-41177904D01*
X75402976Y-41130285D01*
X75307738Y-41082666D01*
X75212500Y-40987428D01*
X75164880Y-40844571D01*
X75164880Y-40749333D01*
X75212500Y-40606476D01*
X75260119Y-40558857D01*
X76164880Y-39606476D02*
X76164880Y-40177904D01*
X76164880Y-39892190D02*
X75164880Y-39892190D01*
X75307738Y-39987428D01*
X75402976Y-40082666D01*
X75450595Y-40177904D01*
X75164880Y-39273142D02*
X75164880Y-38606476D01*
X76164880Y-39035047D01*
X57107142Y-41392857D02*
X57154761Y-41440476D01*
X57202380Y-41583333D01*
X57202380Y-41678571D01*
X57154761Y-41821428D01*
X57059523Y-41916666D01*
X56964285Y-41964285D01*
X56773809Y-42011904D01*
X56630952Y-42011904D01*
X56440476Y-41964285D01*
X56345238Y-41916666D01*
X56250000Y-41821428D01*
X56202380Y-41678571D01*
X56202380Y-41583333D01*
X56250000Y-41440476D01*
X56297619Y-41392857D01*
X57202380Y-40440476D02*
X57202380Y-41011904D01*
X57202380Y-40726190D02*
X56202380Y-40726190D01*
X56345238Y-40821428D01*
X56440476Y-40916666D01*
X56488095Y-41011904D01*
X56630952Y-39869047D02*
X56583333Y-39964285D01*
X56535714Y-40011904D01*
X56440476Y-40059523D01*
X56392857Y-40059523D01*
X56297619Y-40011904D01*
X56250000Y-39964285D01*
X56202380Y-39869047D01*
X56202380Y-39678571D01*
X56250000Y-39583333D01*
X56297619Y-39535714D01*
X56392857Y-39488095D01*
X56440476Y-39488095D01*
X56535714Y-39535714D01*
X56583333Y-39583333D01*
X56630952Y-39678571D01*
X56630952Y-39869047D01*
X56678571Y-39964285D01*
X56726190Y-40011904D01*
X56821428Y-40059523D01*
X57011904Y-40059523D01*
X57107142Y-40011904D01*
X57154761Y-39964285D01*
X57202380Y-39869047D01*
X57202380Y-39678571D01*
X57154761Y-39583333D01*
X57107142Y-39535714D01*
X57011904Y-39488095D01*
X56821428Y-39488095D01*
X56726190Y-39535714D01*
X56678571Y-39583333D01*
X56630952Y-39678571D01*
X51069642Y-44208857D02*
X51117261Y-44256476D01*
X51164880Y-44399333D01*
X51164880Y-44494571D01*
X51117261Y-44637428D01*
X51022023Y-44732666D01*
X50926785Y-44780285D01*
X50736309Y-44827904D01*
X50593452Y-44827904D01*
X50402976Y-44780285D01*
X50307738Y-44732666D01*
X50212500Y-44637428D01*
X50164880Y-44494571D01*
X50164880Y-44399333D01*
X50212500Y-44256476D01*
X50260119Y-44208857D01*
X51164880Y-43256476D02*
X51164880Y-43827904D01*
X51164880Y-43542190D02*
X50164880Y-43542190D01*
X50307738Y-43637428D01*
X50402976Y-43732666D01*
X50450595Y-43827904D01*
X51164880Y-42780285D02*
X51164880Y-42589809D01*
X51117261Y-42494571D01*
X51069642Y-42446952D01*
X50926785Y-42351714D01*
X50736309Y-42304095D01*
X50355357Y-42304095D01*
X50260119Y-42351714D01*
X50212500Y-42399333D01*
X50164880Y-42494571D01*
X50164880Y-42685047D01*
X50212500Y-42780285D01*
X50260119Y-42827904D01*
X50355357Y-42875523D01*
X50593452Y-42875523D01*
X50688690Y-42827904D01*
X50736309Y-42780285D01*
X50783928Y-42685047D01*
X50783928Y-42494571D01*
X50736309Y-42399333D01*
X50688690Y-42351714D01*
X50593452Y-42304095D01*
X56591071Y-61749333D02*
X56591071Y-62082666D01*
X57114880Y-62082666D02*
X56114880Y-62082666D01*
X56114880Y-61606476D01*
X57114880Y-60701714D02*
X57114880Y-61273142D01*
X57114880Y-60987428D02*
X56114880Y-60987428D01*
X56257738Y-61082666D01*
X56352976Y-61177904D01*
X56400595Y-61273142D01*
X60857142Y-60857142D02*
X60809523Y-60904761D01*
X60666666Y-60952380D01*
X60571428Y-60952380D01*
X60428571Y-60904761D01*
X60333333Y-60809523D01*
X60285714Y-60714285D01*
X60238095Y-60523809D01*
X60238095Y-60380952D01*
X60285714Y-60190476D01*
X60333333Y-60095238D01*
X60428571Y-60000000D01*
X60571428Y-59952380D01*
X60666666Y-59952380D01*
X60809523Y-60000000D01*
X60857142Y-60047619D01*
X61238095Y-60047619D02*
X61285714Y-60000000D01*
X61380952Y-59952380D01*
X61619047Y-59952380D01*
X61714285Y-60000000D01*
X61761904Y-60047619D01*
X61809523Y-60142857D01*
X61809523Y-60238095D01*
X61761904Y-60380952D01*
X61190476Y-60952380D01*
X61809523Y-60952380D01*
X62428571Y-59952380D02*
X62523809Y-59952380D01*
X62619047Y-60000000D01*
X62666666Y-60047619D01*
X62714285Y-60142857D01*
X62761904Y-60333333D01*
X62761904Y-60571428D01*
X62714285Y-60761904D01*
X62666666Y-60857142D01*
X62619047Y-60904761D01*
X62523809Y-60952380D01*
X62428571Y-60952380D01*
X62333333Y-60904761D01*
X62285714Y-60857142D01*
X62238095Y-60761904D01*
X62190476Y-60571428D01*
X62190476Y-60333333D01*
X62238095Y-60142857D01*
X62285714Y-60047619D01*
X62333333Y-60000000D01*
X62428571Y-59952380D01*
X61357142Y-52357142D02*
X61309523Y-52404761D01*
X61166666Y-52452380D01*
X61071428Y-52452380D01*
X60928571Y-52404761D01*
X60833333Y-52309523D01*
X60785714Y-52214285D01*
X60738095Y-52023809D01*
X60738095Y-51880952D01*
X60785714Y-51690476D01*
X60833333Y-51595238D01*
X60928571Y-51500000D01*
X61071428Y-51452380D01*
X61166666Y-51452380D01*
X61309523Y-51500000D01*
X61357142Y-51547619D01*
X61738095Y-51547619D02*
X61785714Y-51500000D01*
X61880952Y-51452380D01*
X62119047Y-51452380D01*
X62214285Y-51500000D01*
X62261904Y-51547619D01*
X62309523Y-51642857D01*
X62309523Y-51738095D01*
X62261904Y-51880952D01*
X61690476Y-52452380D01*
X62309523Y-52452380D01*
X63261904Y-52452380D02*
X62690476Y-52452380D01*
X62976190Y-52452380D02*
X62976190Y-51452380D01*
X62880952Y-51595238D01*
X62785714Y-51690476D01*
X62690476Y-51738095D01*
X61238095Y-55193380D02*
X61238095Y-56002904D01*
X61285714Y-56098142D01*
X61333333Y-56145761D01*
X61428571Y-56193380D01*
X61619047Y-56193380D01*
X61714285Y-56145761D01*
X61761904Y-56098142D01*
X61809523Y-56002904D01*
X61809523Y-55193380D01*
X62428571Y-55621952D02*
X62333333Y-55574333D01*
X62285714Y-55526714D01*
X62238095Y-55431476D01*
X62238095Y-55383857D01*
X62285714Y-55288619D01*
X62333333Y-55241000D01*
X62428571Y-55193380D01*
X62619047Y-55193380D01*
X62714285Y-55241000D01*
X62761904Y-55288619D01*
X62809523Y-55383857D01*
X62809523Y-55431476D01*
X62761904Y-55526714D01*
X62714285Y-55574333D01*
X62619047Y-55621952D01*
X62428571Y-55621952D01*
X62333333Y-55669571D01*
X62285714Y-55717190D01*
X62238095Y-55812428D01*
X62238095Y-56002904D01*
X62285714Y-56098142D01*
X62333333Y-56145761D01*
X62428571Y-56193380D01*
X62619047Y-56193380D01*
X62714285Y-56145761D01*
X62761904Y-56098142D01*
X62809523Y-56002904D01*
X62809523Y-55812428D01*
X62761904Y-55717190D01*
X62714285Y-55669571D01*
X62619047Y-55621952D01*
X20374666Y-35052380D02*
X20374666Y-35766666D01*
X20327047Y-35909523D01*
X20231809Y-36004761D01*
X20088952Y-36052380D01*
X19993714Y-36052380D01*
X20898476Y-36052380D02*
X21088952Y-36052380D01*
X21184190Y-36004761D01*
X21231809Y-35957142D01*
X21327047Y-35814285D01*
X21374666Y-35623809D01*
X21374666Y-35242857D01*
X21327047Y-35147619D01*
X21279428Y-35100000D01*
X21184190Y-35052380D01*
X20993714Y-35052380D01*
X20898476Y-35100000D01*
X20850857Y-35147619D01*
X20803238Y-35242857D01*
X20803238Y-35480952D01*
X20850857Y-35576190D01*
X20898476Y-35623809D01*
X20993714Y-35671428D01*
X21184190Y-35671428D01*
X21279428Y-35623809D01*
X21327047Y-35576190D01*
X21374666Y-35480952D01*
X34152380Y-31566666D02*
X33676190Y-31900000D01*
X34152380Y-32138095D02*
X33152380Y-32138095D01*
X33152380Y-31757142D01*
X33200000Y-31661904D01*
X33247619Y-31614285D01*
X33342857Y-31566666D01*
X33485714Y-31566666D01*
X33580952Y-31614285D01*
X33628571Y-31661904D01*
X33676190Y-31757142D01*
X33676190Y-32138095D01*
X33247619Y-31185714D02*
X33200000Y-31138095D01*
X33152380Y-31042857D01*
X33152380Y-30804761D01*
X33200000Y-30709523D01*
X33247619Y-30661904D01*
X33342857Y-30614285D01*
X33438095Y-30614285D01*
X33580952Y-30661904D01*
X34152380Y-31233333D01*
X34152380Y-30614285D01*
X39152380Y-31666666D02*
X38676190Y-32000000D01*
X39152380Y-32238095D02*
X38152380Y-32238095D01*
X38152380Y-31857142D01*
X38200000Y-31761904D01*
X38247619Y-31714285D01*
X38342857Y-31666666D01*
X38485714Y-31666666D01*
X38580952Y-31714285D01*
X38628571Y-31761904D01*
X38676190Y-31857142D01*
X38676190Y-32238095D01*
X38485714Y-30809523D02*
X39152380Y-30809523D01*
X38104761Y-31047619D02*
X38819047Y-31285714D01*
X38819047Y-30666666D01*
X44202380Y-31666666D02*
X43726190Y-32000000D01*
X44202380Y-32238095D02*
X43202380Y-32238095D01*
X43202380Y-31857142D01*
X43250000Y-31761904D01*
X43297619Y-31714285D01*
X43392857Y-31666666D01*
X43535714Y-31666666D01*
X43630952Y-31714285D01*
X43678571Y-31761904D01*
X43726190Y-31857142D01*
X43726190Y-32238095D01*
X43202380Y-30809523D02*
X43202380Y-31000000D01*
X43250000Y-31095238D01*
X43297619Y-31142857D01*
X43440476Y-31238095D01*
X43630952Y-31285714D01*
X44011904Y-31285714D01*
X44107142Y-31238095D01*
X44154761Y-31190476D01*
X44202380Y-31095238D01*
X44202380Y-30904761D01*
X44154761Y-30809523D01*
X44107142Y-30761904D01*
X44011904Y-30714285D01*
X43773809Y-30714285D01*
X43678571Y-30761904D01*
X43630952Y-30809523D01*
X43583333Y-30904761D01*
X43583333Y-31095238D01*
X43630952Y-31190476D01*
X43678571Y-31238095D01*
X43773809Y-31285714D01*
X36852380Y-31666666D02*
X36376190Y-32000000D01*
X36852380Y-32238095D02*
X35852380Y-32238095D01*
X35852380Y-31857142D01*
X35900000Y-31761904D01*
X35947619Y-31714285D01*
X36042857Y-31666666D01*
X36185714Y-31666666D01*
X36280952Y-31714285D01*
X36328571Y-31761904D01*
X36376190Y-31857142D01*
X36376190Y-32238095D01*
X35852380Y-31333333D02*
X35852380Y-30714285D01*
X36233333Y-31047619D01*
X36233333Y-30904761D01*
X36280952Y-30809523D01*
X36328571Y-30761904D01*
X36423809Y-30714285D01*
X36661904Y-30714285D01*
X36757142Y-30761904D01*
X36804761Y-30809523D01*
X36852380Y-30904761D01*
X36852380Y-31190476D01*
X36804761Y-31285714D01*
X36757142Y-31333333D01*
X41702380Y-31666666D02*
X41226190Y-32000000D01*
X41702380Y-32238095D02*
X40702380Y-32238095D01*
X40702380Y-31857142D01*
X40750000Y-31761904D01*
X40797619Y-31714285D01*
X40892857Y-31666666D01*
X41035714Y-31666666D01*
X41130952Y-31714285D01*
X41178571Y-31761904D01*
X41226190Y-31857142D01*
X41226190Y-32238095D01*
X40702380Y-30761904D02*
X40702380Y-31238095D01*
X41178571Y-31285714D01*
X41130952Y-31238095D01*
X41083333Y-31142857D01*
X41083333Y-30904761D01*
X41130952Y-30809523D01*
X41178571Y-30761904D01*
X41273809Y-30714285D01*
X41511904Y-30714285D01*
X41607142Y-30761904D01*
X41654761Y-30809523D01*
X41702380Y-30904761D01*
X41702380Y-31142857D01*
X41654761Y-31238095D01*
X41607142Y-31285714D01*
X46702380Y-31666666D02*
X46226190Y-32000000D01*
X46702380Y-32238095D02*
X45702380Y-32238095D01*
X45702380Y-31857142D01*
X45750000Y-31761904D01*
X45797619Y-31714285D01*
X45892857Y-31666666D01*
X46035714Y-31666666D01*
X46130952Y-31714285D01*
X46178571Y-31761904D01*
X46226190Y-31857142D01*
X46226190Y-32238095D01*
X45702380Y-31333333D02*
X45702380Y-30666666D01*
X46702380Y-31095238D01*
X28202380Y-34166666D02*
X27726190Y-34500000D01*
X28202380Y-34738095D02*
X27202380Y-34738095D01*
X27202380Y-34357142D01*
X27250000Y-34261904D01*
X27297619Y-34214285D01*
X27392857Y-34166666D01*
X27535714Y-34166666D01*
X27630952Y-34214285D01*
X27678571Y-34261904D01*
X27726190Y-34357142D01*
X27726190Y-34738095D01*
X27630952Y-33595238D02*
X27583333Y-33690476D01*
X27535714Y-33738095D01*
X27440476Y-33785714D01*
X27392857Y-33785714D01*
X27297619Y-33738095D01*
X27250000Y-33690476D01*
X27202380Y-33595238D01*
X27202380Y-33404761D01*
X27250000Y-33309523D01*
X27297619Y-33261904D01*
X27392857Y-33214285D01*
X27440476Y-33214285D01*
X27535714Y-33261904D01*
X27583333Y-33309523D01*
X27630952Y-33404761D01*
X27630952Y-33595238D01*
X27678571Y-33690476D01*
X27726190Y-33738095D01*
X27821428Y-33785714D01*
X28011904Y-33785714D01*
X28107142Y-33738095D01*
X28154761Y-33690476D01*
X28202380Y-33595238D01*
X28202380Y-33404761D01*
X28154761Y-33309523D01*
X28107142Y-33261904D01*
X28011904Y-33214285D01*
X27821428Y-33214285D01*
X27726190Y-33261904D01*
X27678571Y-33309523D01*
X27630952Y-33404761D01*
X20833333Y-32702380D02*
X20500000Y-32226190D01*
X20261904Y-32702380D02*
X20261904Y-31702380D01*
X20642857Y-31702380D01*
X20738095Y-31750000D01*
X20785714Y-31797619D01*
X20833333Y-31892857D01*
X20833333Y-32035714D01*
X20785714Y-32130952D01*
X20738095Y-32178571D01*
X20642857Y-32226190D01*
X20261904Y-32226190D01*
X21309523Y-32702380D02*
X21500000Y-32702380D01*
X21595238Y-32654761D01*
X21642857Y-32607142D01*
X21738095Y-32464285D01*
X21785714Y-32273809D01*
X21785714Y-31892857D01*
X21738095Y-31797619D01*
X21690476Y-31750000D01*
X21595238Y-31702380D01*
X21404761Y-31702380D01*
X21309523Y-31750000D01*
X21261904Y-31797619D01*
X21214285Y-31892857D01*
X21214285Y-32130952D01*
X21261904Y-32226190D01*
X21309523Y-32273809D01*
X21404761Y-32321428D01*
X21595238Y-32321428D01*
X21690476Y-32273809D01*
X21738095Y-32226190D01*
X21785714Y-32130952D01*
X61035714Y-63952380D02*
X61035714Y-62952380D01*
X61273809Y-62952380D01*
X61416666Y-63000000D01*
X61511904Y-63095238D01*
X61559523Y-63190476D01*
X61607142Y-63380952D01*
X61607142Y-63523809D01*
X61559523Y-63714285D01*
X61511904Y-63809523D01*
X61416666Y-63904761D01*
X61273809Y-63952380D01*
X61035714Y-63952380D01*
X61988095Y-63047619D02*
X62035714Y-63000000D01*
X62130952Y-62952380D01*
X62369047Y-62952380D01*
X62464285Y-63000000D01*
X62511904Y-63047619D01*
X62559523Y-63142857D01*
X62559523Y-63238095D01*
X62511904Y-63380952D01*
X61940476Y-63952380D01*
X62559523Y-63952380D01*
X63511904Y-63952380D02*
X62940476Y-63952380D01*
X63226190Y-63952380D02*
X63226190Y-62952380D01*
X63130952Y-63095238D01*
X63035714Y-63190476D01*
X62940476Y-63238095D01*
X61357142Y-49952380D02*
X61023809Y-49476190D01*
X60785714Y-49952380D02*
X60785714Y-48952380D01*
X61166666Y-48952380D01*
X61261904Y-49000000D01*
X61309523Y-49047619D01*
X61357142Y-49142857D01*
X61357142Y-49285714D01*
X61309523Y-49380952D01*
X61261904Y-49428571D01*
X61166666Y-49476190D01*
X60785714Y-49476190D01*
X61738095Y-49047619D02*
X61785714Y-49000000D01*
X61880952Y-48952380D01*
X62119047Y-48952380D01*
X62214285Y-49000000D01*
X62261904Y-49047619D01*
X62309523Y-49142857D01*
X62309523Y-49238095D01*
X62261904Y-49380952D01*
X61690476Y-49952380D01*
X62309523Y-49952380D01*
X62928571Y-48952380D02*
X63023809Y-48952380D01*
X63119047Y-49000000D01*
X63166666Y-49047619D01*
X63214285Y-49142857D01*
X63261904Y-49333333D01*
X63261904Y-49571428D01*
X63214285Y-49761904D01*
X63166666Y-49857142D01*
X63119047Y-49904761D01*
X63023809Y-49952380D01*
X62928571Y-49952380D01*
X62833333Y-49904761D01*
X62785714Y-49857142D01*
X62738095Y-49761904D01*
X62690476Y-49571428D01*
X62690476Y-49333333D01*
X62738095Y-49142857D01*
X62785714Y-49047619D01*
X62833333Y-49000000D01*
X62928571Y-48952380D01*
X25857142Y-49952380D02*
X25523809Y-49476190D01*
X25285714Y-49952380D02*
X25285714Y-48952380D01*
X25666666Y-48952380D01*
X25761904Y-49000000D01*
X25809523Y-49047619D01*
X25857142Y-49142857D01*
X25857142Y-49285714D01*
X25809523Y-49380952D01*
X25761904Y-49428571D01*
X25666666Y-49476190D01*
X25285714Y-49476190D01*
X26809523Y-49952380D02*
X26238095Y-49952380D01*
X26523809Y-49952380D02*
X26523809Y-48952380D01*
X26428571Y-49095238D01*
X26333333Y-49190476D01*
X26238095Y-49238095D01*
X27428571Y-48952380D02*
X27523809Y-48952380D01*
X27619047Y-49000000D01*
X27666666Y-49047619D01*
X27714285Y-49142857D01*
X27761904Y-49333333D01*
X27761904Y-49571428D01*
X27714285Y-49761904D01*
X27666666Y-49857142D01*
X27619047Y-49904761D01*
X27523809Y-49952380D01*
X27428571Y-49952380D01*
X27333333Y-49904761D01*
X27285714Y-49857142D01*
X27238095Y-49761904D01*
X27190476Y-49571428D01*
X27190476Y-49333333D01*
X27238095Y-49142857D01*
X27285714Y-49047619D01*
X27333333Y-49000000D01*
X27428571Y-48952380D01*
X61952380Y-42714285D02*
X60952380Y-42714285D01*
X60952380Y-42476190D01*
X61000000Y-42333333D01*
X61095238Y-42238095D01*
X61190476Y-42190476D01*
X61380952Y-42142857D01*
X61523809Y-42142857D01*
X61714285Y-42190476D01*
X61809523Y-42238095D01*
X61904761Y-42333333D01*
X61952380Y-42476190D01*
X61952380Y-42714285D01*
X61047619Y-41761904D02*
X61000000Y-41714285D01*
X60952380Y-41619047D01*
X60952380Y-41380952D01*
X61000000Y-41285714D01*
X61047619Y-41238095D01*
X61142857Y-41190476D01*
X61238095Y-41190476D01*
X61380952Y-41238095D01*
X61952380Y-41809523D01*
X61952380Y-41190476D01*
X60952380Y-40571428D02*
X60952380Y-40476190D01*
X61000000Y-40380952D01*
X61047619Y-40333333D01*
X61142857Y-40285714D01*
X61333333Y-40238095D01*
X61571428Y-40238095D01*
X61761904Y-40285714D01*
X61857142Y-40333333D01*
X61904761Y-40380952D01*
X61952380Y-40476190D01*
X61952380Y-40571428D01*
X61904761Y-40666666D01*
X61857142Y-40714285D01*
X61761904Y-40761904D01*
X61571428Y-40809523D01*
X61333333Y-40809523D01*
X61142857Y-40761904D01*
X61047619Y-40714285D01*
X61000000Y-40666666D01*
X60952380Y-40571428D01*
X20452380Y-53238095D02*
X19452380Y-53238095D01*
X19452380Y-53000000D01*
X19500000Y-52857142D01*
X19595238Y-52761904D01*
X19690476Y-52714285D01*
X19880952Y-52666666D01*
X20023809Y-52666666D01*
X20214285Y-52714285D01*
X20309523Y-52761904D01*
X20404761Y-52857142D01*
X20452380Y-53000000D01*
X20452380Y-53238095D01*
X19452380Y-51761904D02*
X19452380Y-52238095D01*
X19928571Y-52285714D01*
X19880952Y-52238095D01*
X19833333Y-52142857D01*
X19833333Y-51904761D01*
X19880952Y-51809523D01*
X19928571Y-51761904D01*
X20023809Y-51714285D01*
X20261904Y-51714285D01*
X20357142Y-51761904D01*
X20404761Y-51809523D01*
X20452380Y-51904761D01*
X20452380Y-52142857D01*
X20404761Y-52238095D01*
X20357142Y-52285714D01*
M02*
